<svg width="14" height="14" viewBox="0 0 14 14" fill="none" xmlns="http://www.w3.org/2000/svg">
<path fill-rule="evenodd" clip-rule="evenodd" d="M3.93698 0.69491C4.20728 -0.0979678 5.31638 -0.131124 5.63356 0.644196L6.27436 2.21059C6.5218 2.81545 7.01256 3.2881 7.62628 3.51263L8.9286 3.98909C9.71281 4.276 9.72459 5.38087 8.94669 5.68444L7.58088 6.21744C6.99426 6.44636 6.5257 6.90364 6.28254 7.48451L5.63066 9.04178C5.30982 9.80823 4.21267 9.77487 3.93899 8.99033L3.45554 7.60443C3.22769 6.95126 2.72059 6.43361 2.07225 6.19237L0.721081 5.68961C-0.0745465 5.39356 -0.0629299 4.26416 0.738627 3.98455L2.02735 3.53499C2.70179 3.29972 3.2305 2.76725 3.46098 2.09116L3.93698 0.69491ZM4.81695 1.7293L4.56525 2.46762C4.21901 3.48325 3.42478 4.28313 2.41162 4.63656L1.80508 4.84814L2.4791 5.09894C3.45306 5.46134 4.21483 6.23895 4.55711 7.22016L4.8168 7.96463L5.20636 7.03402C5.57164 6.16142 6.27551 5.47449 7.15675 5.13059L7.88079 4.84804L7.22544 4.60828C6.30349 4.27098 5.56626 3.56095 5.19455 2.65233L4.81695 1.7293Z" fill="#004CFC"/>
<path fill-rule="evenodd" clip-rule="evenodd" d="M9.72798 7.83835C9.99954 7.04855 11.1042 7.01531 11.4228 7.78737L11.6259 8.27962C11.875 8.88354 12.367 9.35463 12.9811 9.57741L13.2848 9.68757C14.0722 9.97319 14.0839 11.0825 13.3028 11.3847L12.9359 11.5267C12.3487 11.7539 11.8789 12.2097 11.6341 12.7897L11.4198 13.2971C11.0976 14.0603 10.0049 14.0268 9.73003 13.2454L9.61207 12.9101C9.38246 12.2575 8.87389 11.7411 8.22479 11.5016L7.92166 11.3898C7.12292 11.0951 7.13451 9.96139 7.93911 9.68309L8.18006 9.59975C8.85514 9.36625 9.38526 8.83515 9.61752 8.15964L9.72798 7.83835ZM10.5994 8.84438C10.2633 9.58656 9.67785 10.1873 8.94673 10.5427C9.67886 10.8987 10.2643 11.5002 10.6002 12.2427C10.9413 11.4963 11.5338 10.8955 12.2714 10.5436C11.534 10.1921 10.9408 9.59136 10.5994 8.84438Z" fill="#004CFC"/>
</svg>
