<svg width="232" height="226" viewBox="0 0 232 226" fill="none" xmlns="http://www.w3.org/2000/svg">
    <mask id="mask0_1430_1920" style="mask-type:alpha" maskUnits="userSpaceOnUse" x="-241" y="-181"
        width="474" height="488">
        <rect x="232.559" y="5.62181" width="2" height="263" transform="rotate(135 232.559 5.62181)"
            fill="#B1F16C" />
        <rect x="228.316" y="9.86445" width="2" height="263" transform="rotate(135 228.316 9.86445)"
            fill="#B1F16C" />
        <rect x="224.074" y="14.1071" width="2" height="263" transform="rotate(135 224.074 14.1071)"
            fill="#B1F16C" />
        <rect x="219.83" y="18.3497" width="2" height="263" transform="rotate(135 219.83 18.3497)"
            fill="#B1F16C" />
        <rect x="215.588" y="22.5924" width="2" height="263" transform="rotate(135 215.588 22.5924)"
            fill="#B1F16C" />
        <rect x="211.346" y="26.835" width="2" height="263" transform="rotate(135 211.346 26.835)"
            fill="#B1F16C" />
        <rect x="207.104" y="31.0777" width="2" height="263" transform="rotate(135 207.104 31.0777)"
            fill="#B1F16C" />
        <rect x="202.859" y="35.3203" width="2" height="263" transform="rotate(135 202.859 35.3203)"
            fill="#B1F16C" />
        <rect x="198.617" y="39.5629" width="2" height="263" transform="rotate(135 198.617 39.5629)"
            fill="#B1F16C" />
        <rect x="194.375" y="43.8056" width="2" height="263" transform="rotate(135 194.375 43.8056)"
            fill="#B1F16C" />
        <rect x="190.133" y="48.0482" width="2" height="263" transform="rotate(135 190.133 48.0482)"
            fill="#B1F16C" />
        <rect x="185.889" y="52.2909" width="2" height="263" transform="rotate(135 185.889 52.2909)"
            fill="#B1F16C" />
        <rect x="181.646" y="56.5335" width="2" height="263" transform="rotate(135 181.646 56.5335)"
            fill="#B1F16C" />
        <rect x="177.404" y="60.7761" width="2" height="263" transform="rotate(135 177.404 60.7761)"
            fill="#B1F16C" />
        <rect x="173.162" y="65.0188" width="2" height="263" transform="rotate(135 173.162 65.0188)"
            fill="#B1F16C" />
        <rect x="168.92" y="69.2614" width="2" height="263" transform="rotate(135 168.92 69.2614)"
            fill="#B1F16C" />
        <rect x="164.676" y="73.5041" width="2" height="263" transform="rotate(135 164.676 73.5041)"
            fill="#B1F16C" />
        <rect x="160.434" y="77.7467" width="2" height="263" transform="rotate(135 160.434 77.7467)"
            fill="#B1F16C" />
        <rect x="156.191" y="81.9893" width="2" height="263" transform="rotate(135 156.191 81.9893)"
            fill="#B1F16C" />
        <rect x="151.949" y="86.232" width="2" height="263" transform="rotate(135 151.949 86.232)"
            fill="#B1F16C" />
        <rect x="147.705" y="90.4746" width="2" height="263" transform="rotate(135 147.705 90.4746)"
            fill="#B1F16C" />
        <rect x="143.463" y="94.7173" width="2" height="263" transform="rotate(135 143.463 94.7173)"
            fill="#B1F16C" />
        <rect x="139.221" y="98.9599" width="2" height="263" transform="rotate(135 139.221 98.9599)"
            fill="#B1F16C" />
        <rect x="134.979" y="103.203" width="2" height="263" transform="rotate(135 134.979 103.203)"
            fill="#B1F16C" />
        <rect x="130.734" y="107.445" width="2" height="263" transform="rotate(135 130.734 107.445)"
            fill="#B1F16C" />
        <rect x="126.492" y="111.688" width="2" height="263" transform="rotate(135 126.492 111.688)"
            fill="#B1F16C" />
        <rect x="122.25" y="115.93" width="2" height="263" transform="rotate(135 122.25 115.93)"
            fill="#B1F16C" />
        <rect x="118.008" y="120.173" width="2" height="263" transform="rotate(135 118.008 120.173)"
            fill="#B1F16C" />
        <rect x="113.766" y="124.416" width="2" height="263" transform="rotate(135 113.766 124.416)"
            fill="#B1F16C" />
        <rect x="109.521" y="128.658" width="2" height="263" transform="rotate(135 109.521 128.658)"
            fill="#B1F16C" />
        <rect x="105.279" y="132.901" width="2" height="263" transform="rotate(135 105.279 132.901)"
            fill="#B1F16C" />
        <rect x="101.037" y="137.144" width="2" height="263" transform="rotate(135 101.037 137.144)"
            fill="#B1F16C" />
        <rect x="96.7949" y="141.386" width="2" height="263" transform="rotate(135 96.7949 141.386)"
            fill="#B1F16C" />
        <rect x="92.5508" y="145.629" width="2" height="263" transform="rotate(135 92.5508 145.629)"
            fill="#B1F16C" />
        <rect x="88.3086" y="149.872" width="2" height="263" transform="rotate(135 88.3086 149.872)"
            fill="#B1F16C" />
        <rect x="84.0664" y="154.114" width="2" height="263" transform="rotate(135 84.0664 154.114)"
            fill="#B1F16C" />
        <rect x="79.8242" y="158.357" width="2" height="263" transform="rotate(135 79.8242 158.357)"
            fill="#B1F16C" />
        <rect x="75.5801" y="162.6" width="2" height="263" transform="rotate(135 75.5801 162.6)"
            fill="#B1F16C" />
        <rect x="71.3379" y="166.842" width="2" height="263" transform="rotate(135 71.3379 166.842)"
            fill="#B1F16C" />
        <rect x="67.0957" y="171.085" width="2" height="263" transform="rotate(135 67.0957 171.085)"
            fill="#B1F16C" />
        <rect x="62.8535" y="175.327" width="2" height="263" transform="rotate(135 62.8535 175.327)"
            fill="#B1F16C" />
        <rect x="58.6094" y="179.57" width="2" height="263" transform="rotate(135 58.6094 179.57)"
            fill="#B1F16C" />
        <rect x="54.3672" y="183.813" width="2" height="263" transform="rotate(135 54.3672 183.813)"
            fill="#B1F16C" />
        <rect x="50.125" y="188.055" width="2" height="263" transform="rotate(135 50.125 188.055)"
            fill="#B1F16C" />
        <rect x="45.8828" y="192.298" width="2" height="263" transform="rotate(135 45.8828 192.298)"
            fill="#B1F16C" />
        <rect x="41.6406" y="196.541" width="2" height="263" transform="rotate(135 41.6406 196.541)"
            fill="#B1F16C" />
        <rect x="37.3965" y="200.783" width="2" height="263" transform="rotate(135 37.3965 200.783)"
            fill="#B1F16C" />
        <rect x="33.1543" y="205.026" width="2" height="263" transform="rotate(135 33.1543 205.026)"
            fill="#B1F16C" />
        <rect x="28.9121" y="209.269" width="2" height="263" transform="rotate(135 28.9121 209.269)"
            fill="#B1F16C" />
        <rect x="24.6699" y="213.511" width="2" height="263" transform="rotate(135 24.6699 213.511)"
            fill="#B1F16C" />
        <rect x="20.4258" y="217.754" width="2" height="263" transform="rotate(135 20.4258 217.754)"
            fill="#B1F16C" />
        <rect x="16.1836" y="221.996" width="2" height="263" transform="rotate(135 16.1836 221.996)"
            fill="#B1F16C" />
        <rect x="11.9414" y="226.239" width="2" height="263" transform="rotate(135 11.9414 226.239)"
            fill="#B1F16C" />
    </mask>
    <g mask="url(#mask0_1430_1920)">
        <rect x="231.309" y="4.37181" width="312.722" height="240.942"
            transform="rotate(135 231.309 4.37181)" fill="url(#paint0_radial_1430_1920)" />
    </g>
    <defs>
        <radialGradient id="paint0_radial_1430_1920" cx="0" cy="0" r="1"
            gradientUnits="userSpaceOnUse"
            gradientTransform="translate(347.809 187.866) rotate(86.4964) scale(138.762 228.615)">
            <stop stop-color="#B1F16C" stop-opacity="0.47" />
            <stop offset="1" stop-color="#B1F16C" stop-opacity="0.03" />
        </radialGradient>
    </defs>
</svg>
    