<svg width="32" height="32" viewBox="0 0 32 32" fill="none" xmlns="http://www.w3.org/2000/svg">
<g id="Frame 8006">
<rect width="32" height="32" rx="16" fill="#B3F36C"/>
<path id="Vector" d="M24.8277 14.4564C24.471 13.439 23.549 12.7205 22.4444 12.442C21.93 12.3125 21.4079 12.2841 20.8888 12.3214C20.958 12.1254 21.0013 11.9213 21.0109 11.7102C21.0464 10.9589 20.6532 10.2378 20.0292 9.76679C18.6506 8.72632 16.6585 8.96227 15.025 9.22394C13.2041 9.51488 11.4408 10.1571 9.8737 11.0574C8.70269 11.7306 9.77948 13.4461 10.9582 12.7693C12.4071 11.9364 13.9915 11.3829 15.6759 11.123C16.3826 11.0139 17.1729 10.927 17.8882 11.0113C18.191 11.0467 18.5102 11.1425 18.7083 11.3297C18.8505 11.4636 18.8861 11.5994 18.8573 11.681C18.6861 12.1599 18.0612 12.5387 17.569 12.8394C17.12 13.1135 16.6575 13.3689 16.1855 13.6084C14.3443 14.2151 12.5099 14.8396 10.6698 15.4472C9.36896 15.8765 9.87755 17.6115 11.2409 17.3587C12.8474 17.0616 14.3963 16.5844 15.8884 15.9608C16.2826 15.7958 16.6854 15.6193 17.0854 15.4295C17.3007 15.3585 17.5161 15.2875 17.7314 15.2157C18.7371 14.884 19.785 14.4325 20.8513 14.3047C21.4897 14.2285 22.2453 14.3198 22.6174 14.7553C23.0376 15.2467 22.7924 16.0007 22.4232 16.4717C21.9319 17.0988 21.1618 17.5015 20.4407 17.8652C18.6804 18.7531 16.821 19.4547 14.8962 19.9754C12.6724 20.5768 10.389 20.9272 8.07391 21.0176C7.49417 21.0407 7 21.4567 7 22.0084C7 22.5273 7.49225 23.0223 8.07391 22.9992C12.8291 22.8121 17.5651 21.6315 21.7223 19.476C23.6202 18.4914 25.6046 16.6695 24.8268 14.4546L24.8277 14.4564Z" fill="#373EDF"/>
</g>
</svg>
