<svg width="143" height="32" viewBox="0 0 143 32" fill="none" xmlns="http://www.w3.org/2000/svg">
<path d="M49.3381 24.8291L56.2847 6.93848H54.899C53.8152 6.93848 52.848 7.59741 52.4821 8.58359L47.5797 21.8175L42.7048 8.58801C42.3389 7.59962 41.3717 6.93848 40.2856 6.93848H38.8496L45.8236 24.8291H49.3381Z" fill="white"/>
<path fill-rule="evenodd" clip-rule="evenodd" d="M85.4095 20.0154C85.4095 18.9518 85.0643 17.9988 84.3714 17.1585C83.6786 16.3183 82.8372 15.8119 81.8425 15.6395C82.8006 15.3122 83.5643 14.8058 84.1313 14.1204C84.7007 13.4349 84.9842 12.577 84.9842 11.5466C84.9842 10.6886 84.7533 9.9103 84.2914 9.21599C83.8295 8.52168 83.1481 7.96667 82.2426 7.55539C81.3372 7.14412 80.2556 6.93848 78.9957 6.93848H71.9417V24.8291H79.341C80.5666 24.8291 81.639 24.619 82.5628 24.1989C83.4842 23.7788 84.1885 23.2039 84.6778 22.4742C85.1649 21.7445 85.4095 20.9242 85.4095 20.0154ZM78.7259 14.4543H74.9737V9.33097H78.7259C79.7206 9.33097 80.498 9.55651 81.0559 10.012C81.6161 10.4675 81.8951 11.08 81.8951 11.9048C81.8951 12.7295 81.6138 13.3597 81.0559 13.7975C80.4957 14.2354 79.7206 14.4543 78.7259 14.4543ZM82.373 19.7058C82.373 20.5637 82.0803 21.2337 81.4949 21.7136C80.9096 22.1934 80.1024 22.4344 79.0735 22.4344H74.9737V16.849H78.966C79.9949 16.849 80.8204 17.1055 81.4423 17.6207C82.062 18.1359 82.373 18.8479 82.373 19.7058Z" fill="white"/>
<path d="M100.872 18.8299H100.873L100.871 18.8343L100.872 18.8299Z" fill="white"/>
<path fill-rule="evenodd" clip-rule="evenodd" d="M100.978 17.3926C100.978 17.9237 100.942 18.402 100.872 18.8299H89.6667C89.7559 19.962 90.1903 20.873 90.97 21.5585C91.7498 22.2461 92.7078 22.5889 93.8442 22.5889C95.4768 22.5889 96.6293 21.9277 97.3038 20.6077H100.578C100.135 21.9123 99.332 22.9803 98.1681 23.8117C97.0066 24.6453 95.5637 25.061 93.8419 25.061C92.4403 25.061 91.185 24.7558 90.076 24.1478C88.967 23.5397 88.0981 22.6795 87.467 21.5739C86.8359 20.4661 86.5227 19.1837 86.5227 17.7265C86.5227 16.2693 86.8291 14.9846 87.4419 13.8791C88.0547 12.7735 88.9144 11.9177 90.0234 11.3185C91.1324 10.7171 92.406 10.4164 93.8442 10.4164C95.2825 10.4164 96.4623 10.7082 97.5439 11.292C98.6254 11.8757 99.4692 12.6939 100.073 13.7508C100.676 14.8055 100.978 16.0195 100.978 17.3926ZM96.6133 13.8614C97.3953 14.5137 97.7931 15.3804 97.8114 16.4617V16.4639H89.6918C89.8336 15.365 90.2772 14.4938 91.0226 13.8503C91.768 13.2069 92.6644 12.884 93.7116 12.884C94.864 12.884 95.8313 13.2091 96.6133 13.8614Z" fill="white"/>
<path d="M117.674 10.6443V13.039H114.107V20.8909C114.107 21.4238 114.235 21.8041 114.494 22.0363C114.75 22.2685 115.189 22.3835 115.811 22.3835H117.674V24.829H115.278C113.911 24.829 112.863 24.5195 112.136 23.9025C111.409 23.2856 111.046 22.2818 111.046 20.8909V13.039H105.985V20.8931C105.985 21.426 106.113 21.8063 106.372 22.0385C106.628 22.2707 107.067 22.3857 107.689 22.3857H109.552V24.8312H107.156C105.789 24.8312 104.742 24.5217 104.014 23.9048C103.287 23.2878 102.924 22.284 102.924 20.8931V13.0412H101.193V10.6465H102.924V7.11972H104.613C105.37 7.11972 105.985 7.71452 105.985 8.44642V10.6465H111.046V7.11972H112.735C113.492 7.11972 114.107 7.71452 114.107 8.44642V10.6443H117.674Z" fill="white"/>
<path d="M132.194 18.8299H132.196L132.193 18.8343L132.194 18.8299Z" fill="white"/>
<path fill-rule="evenodd" clip-rule="evenodd" d="M132.301 17.3926C132.301 17.9237 132.265 18.402 132.194 18.8299H120.989C121.078 19.962 121.513 20.873 122.293 21.5585C123.072 22.2461 124.033 22.5889 125.167 22.5889C126.799 22.5889 127.952 21.9277 128.626 20.6077H131.901C131.457 21.9123 130.655 22.9803 129.491 23.8117C128.329 24.6453 126.886 25.061 125.164 25.061C123.763 25.061 122.507 24.7558 121.399 24.1478C120.29 23.5397 119.421 22.6795 118.79 21.5739C118.158 20.4661 117.845 19.1837 117.845 17.7265C117.845 16.2693 118.152 14.9846 118.764 13.8791C119.377 12.7713 120.237 11.9177 121.346 11.3185C122.455 10.7171 123.729 10.4164 125.167 10.4164C126.605 10.4164 127.785 10.7082 128.866 11.292C129.948 11.8757 130.792 12.6939 131.395 13.7508C131.999 14.8055 132.301 16.0195 132.301 17.3926ZM127.936 13.8614C128.718 14.5137 129.116 15.3804 129.134 16.4617V16.4639H121.014C121.156 15.365 121.6 14.4938 122.345 13.8503C123.091 13.2069 123.987 12.884 125.034 12.884C126.189 12.884 127.154 13.2091 127.936 13.8614Z" fill="white"/>
<path d="M140.801 10.4121C139.789 10.4121 138.915 10.6155 138.179 11.018H138.176C137.44 11.4204 136.85 11.982 136.407 12.7029V11.971C136.407 11.2391 135.792 10.6443 135.035 10.6443H133.372V24.829H136.407V17.364C136.407 15.9224 136.713 14.9096 137.326 14.3259C137.939 13.7421 138.84 13.4503 140.029 13.4503H140.801V10.4121Z" fill="white"/>
<path d="M65.5721 24.4264C68.268 23.2633 70.0241 20.7072 70.0881 17.8614L70.0904 17.857L66.8755 19.2389C66.4524 20.3888 65.5493 21.3373 64.3808 21.8393C63.7817 22.0958 63.1461 22.2285 62.4898 22.2285C60.6377 22.2285 58.9571 21.1737 58.2025 19.533C57.688 18.4274 57.656 17.198 58.1111 16.0725C58.5524 14.9426 59.4304 14.0515 60.5737 13.5606C61.1773 13.3041 61.8199 13.1715 62.4761 13.1715C63.7497 13.1715 64.9776 13.6734 65.8488 14.5601L66.082 14.8055L65.8739 14.894L62.0074 16.559L63.0409 18.8011L69.8549 15.8735C69.7497 15.4711 69.6079 15.0819 69.4318 14.6994C69.2169 14.2461 68.97 13.8326 68.7047 13.4678C67.287 11.5065 64.9547 10.339 62.4738 10.339C61.4083 10.339 60.3702 10.5534 59.3824 10.9802C57.5303 11.7784 56.1012 13.229 55.3741 15.0642C54.6469 16.8995 54.6972 18.8962 55.5295 20.6939C56.7506 23.3451 59.4784 25.061 62.4875 25.061C63.5508 25.061 64.5912 24.8465 65.5721 24.4264Z" fill="white"/>
<path d="M16.1612 28.4151C16.4674 29.1518 17.1963 29.6004 17.9674 29.6004L17.969 29.5988C18.2104 29.5988 18.4566 29.5547 18.6947 29.4619C22.2957 28.0546 25.3022 26.131 27.3886 23.8973C29.3081 21.8447 30.4453 19.5244 30.5911 17.3647C30.7514 14.9941 29.7001 12.9493 27.779 11.8962C26.6726 11.2902 25.3378 11.0383 23.867 11.1532C24.523 9.86244 24.8438 8.62832 24.8195 7.47606C24.7887 5.95388 24.1521 4.59069 23.0295 3.63834C22.0219 2.78359 20.6661 2.34599 19.2098 2.4058C17.9236 2.45932 16.6456 2.89221 15.6105 3.62418C14.0278 4.7481 12.8858 6.47807 12.1196 8.91638C11.6159 10.5204 10.7201 13.3696 9.94252 15.841C9.04673 14.2479 7.80104 12.1685 6.07588 9.47835C5.5073 8.59211 4.30859 8.32137 3.3966 8.87388C2.48461 9.4264 2.20599 10.5913 2.77457 11.4775C7.49813 18.8397 8.36476 21.2591 8.45385 21.5314C8.63852 22.3689 9.3707 22.9418 10.2535 22.9828C11.1428 23.0253 11.9366 22.4334 12.1974 21.607C12.1974 21.607 14.82 13.2641 15.8405 10.0183C16.3507 8.3922 17.0262 7.29818 17.9042 6.6764C18.7141 6.10185 19.9129 6.01212 20.4701 6.48436C20.7649 6.73465 20.9188 7.09197 20.9285 7.54847C20.9415 8.18284 20.671 8.99352 20.1494 9.89234C19.3977 11.1878 18.144 12.6455 16.4236 14.2259C15.685 14.9059 15.6088 16.0251 16.2519 16.7933C16.895 17.5599 18.037 17.7173 18.8729 17.1506C22.3589 14.7879 24.7709 14.588 25.8643 15.1877C26.6402 15.6143 26.7503 16.4706 26.7066 17.116C26.6175 18.4273 25.8367 19.9337 24.5068 21.3567C22.8124 23.1701 20.3 24.76 17.2401 25.9563C16.2438 26.3451 15.7611 27.447 16.1612 28.4151Z" fill="white"/>
</svg>

