<svg width="143" height="32" viewBox="0 0 143 32" fill="none" xmlns="http://www.w3.org/2000/svg">
<path d="M49.2228 24.8293L56.1532 6.93872H54.7708C53.6895 6.93872 52.7245 7.59765 52.3595 8.58384L47.4685 21.8177L42.605 8.58826C42.24 7.59986 41.275 6.93872 40.1914 6.93872H38.7588L45.7166 24.8293H49.2228Z" fill="black"/>
<path fill-rule="evenodd" clip-rule="evenodd" d="M85.2102 20.0156C85.2102 18.952 84.8657 17.999 84.1745 17.1588C83.4833 16.3185 82.6438 15.8122 81.6515 15.6397C82.6073 15.3124 83.3692 14.8061 83.935 14.1206C84.503 13.4352 84.7859 12.5772 84.7859 11.5468C84.7859 10.6889 84.5555 9.91054 84.0947 9.21623C83.6338 8.52192 82.954 7.96692 82.0507 7.55564C81.1473 7.14436 80.0683 6.93872 78.8113 6.93872H71.7737V24.8293H79.1558C80.3785 24.8293 81.4484 24.6193 82.37 24.1992C83.2894 23.779 83.992 23.2041 84.4802 22.4744C84.9661 21.7448 85.2102 20.9244 85.2102 20.0156ZM78.5421 14.4545H74.7986V9.33121H78.5421C79.5345 9.33121 80.3101 9.55675 80.8667 10.0123C81.4256 10.4678 81.7039 11.0803 81.7039 11.905C81.7039 12.7298 81.4233 13.36 80.8667 13.7978C80.3078 14.2356 79.5345 14.4545 78.5421 14.4545ZM82.1807 19.7061C82.1807 20.564 81.8887 21.234 81.3047 21.7138C80.7207 22.1936 79.9154 22.4346 78.8889 22.4346H74.7986V16.8492H78.7817C79.8082 16.8492 80.6317 17.1057 81.2522 17.6209C81.8704 18.1361 82.1807 18.8481 82.1807 19.7061Z" fill="black"/>
<path d="M100.636 18.8301H100.638L100.635 18.8345L100.636 18.8301Z" fill="black"/>
<path fill-rule="evenodd" clip-rule="evenodd" d="M100.743 17.3929C100.743 17.9239 100.706 18.4023 100.636 18.8301H89.4574C89.5464 19.9622 89.9798 20.8733 90.7577 21.5587C91.5356 22.2464 92.4914 22.5891 93.6252 22.5891C95.254 22.5891 96.4038 21.928 97.0767 20.6079H100.343C99.9009 21.9125 99.1002 22.9805 97.939 23.8119C96.7802 24.6455 95.3407 25.0612 93.6229 25.0612C92.2245 25.0612 90.9721 24.7561 89.8658 24.148C88.7594 23.5399 87.8925 22.6798 87.2629 21.5742C86.6332 20.4664 86.3207 19.1839 86.3207 17.7267C86.3207 16.2696 86.6264 14.9849 87.2378 13.8793C87.8491 12.7737 88.7069 11.918 89.8133 11.3188C90.9197 10.7173 92.1903 10.4166 93.6252 10.4166C95.0601 10.4166 96.2372 10.7085 97.3162 11.2922C98.3953 11.876 99.2371 12.6941 99.8393 13.751C100.442 14.8058 100.743 16.0197 100.743 17.3929ZM96.3878 13.8616C97.168 14.5139 97.5649 15.3807 97.5832 16.462V16.4642H89.4825C89.6239 15.3652 90.0665 14.494 90.8102 13.8506C91.5539 13.2071 92.4481 12.8843 93.4929 12.8843C94.6426 12.8843 95.6076 13.2093 96.3878 13.8616Z" fill="black"/>
<path d="M117.4 10.6446V13.0393H113.841V20.8912C113.841 21.4241 113.969 21.8044 114.227 22.0366C114.482 22.2687 114.92 22.3837 115.541 22.3837H117.4V24.8293H115.009C113.645 24.8293 112.6 24.5197 111.875 23.9028C111.149 23.2859 110.786 22.282 110.786 20.8912V13.0393H105.738V20.8934C105.738 21.4263 105.866 21.8066 106.124 22.0388C106.379 22.2709 106.817 22.3859 107.438 22.3859H109.297V24.8315H106.906C105.542 24.8315 104.497 24.5219 103.772 23.905C103.046 23.2881 102.684 22.2842 102.684 20.8934V13.0415H100.957V10.6468H102.684V7.11996H104.369C105.124 7.11996 105.738 7.71477 105.738 8.44667V10.6468H110.786V7.11996H112.472C113.227 7.11996 113.841 7.71477 113.841 8.44667V10.6446H117.4Z" fill="black"/>
<path d="M131.886 18.8301H131.887L131.885 18.8345L131.886 18.8301Z" fill="black"/>
<path fill-rule="evenodd" clip-rule="evenodd" d="M131.992 17.3929C131.992 17.9239 131.956 18.4023 131.886 18.8301H120.707C120.796 19.9622 121.229 20.8733 122.007 21.5587C122.785 22.2464 123.743 22.5891 124.875 22.5891C126.504 22.5891 127.653 21.928 128.326 20.6079H131.593C131.15 21.9125 130.35 22.9805 129.189 23.8119C128.03 24.6455 126.59 25.0612 124.872 25.0612C123.474 25.0612 122.222 24.7561 121.115 24.148C120.009 23.5399 119.142 22.6798 118.512 21.5742C117.883 20.4664 117.57 19.1839 117.57 17.7267C117.57 16.2696 117.876 14.9849 118.487 13.8793C119.099 12.7715 119.956 11.918 121.063 11.3188C122.169 10.7173 123.44 10.4166 124.875 10.4166C126.31 10.4166 127.487 10.7085 128.566 11.2922C129.645 11.876 130.487 12.6941 131.089 13.751C131.691 14.8058 131.992 16.0197 131.992 17.3929ZM127.637 13.8616C128.418 14.5139 128.814 15.3807 128.833 16.462V16.4642H120.732C120.873 15.3652 121.316 14.494 122.06 13.8506C122.803 13.2071 123.698 12.8843 124.742 12.8843C125.894 12.8843 126.857 13.2093 127.637 13.8616Z" fill="black"/>
<path d="M140.473 10.4124C139.462 10.4124 138.591 10.6158 137.856 11.0182H137.854C137.12 11.4206 136.531 11.9823 136.088 12.7031V11.9712C136.088 11.2393 135.475 10.6445 134.72 10.6445H133.061V24.8292H136.088V17.3643C136.088 15.9226 136.394 14.9099 137.005 14.3261C137.617 13.7424 138.516 13.4505 139.702 13.4505H140.473V10.4124Z" fill="black"/>
<path d="M65.419 24.4266C68.1086 23.2635 69.8606 20.7074 69.9244 17.8616L69.9267 17.8572L66.7193 19.2392C66.2973 20.389 65.3962 21.3376 64.2305 21.8395C63.6328 22.096 62.9986 22.2287 62.3439 22.2287C60.4961 22.2287 58.8194 21.174 58.0666 19.5333C57.5533 18.4277 57.5214 17.1983 57.9753 16.0728C58.4156 14.9429 59.2916 14.0518 60.4322 13.5609C61.0345 13.3044 61.6755 13.1717 62.3302 13.1717C63.6009 13.1717 64.8259 13.6737 65.695 14.5603L65.9277 14.8058L65.7201 14.8942L61.8626 16.5592L62.8937 18.8014L69.6918 15.8738C69.5868 15.4713 69.4454 15.0822 69.2697 14.6996C69.0553 14.2463 68.8089 13.8329 68.5443 13.468C67.1299 11.5067 64.8031 10.3392 62.3279 10.3392C61.2649 10.3392 60.2292 10.5537 59.2437 10.9804C57.3959 11.7787 55.9701 13.2292 55.2447 15.0645C54.5193 16.8998 54.5695 18.8965 55.3998 20.6941C56.618 23.3453 59.3395 25.0612 62.3416 25.0612C63.4024 25.0612 64.4404 24.8467 65.419 24.4266Z" fill="black"/>
<path d="M16.1232 28.4146C16.4287 29.1513 17.1559 29.5999 17.9252 29.5999L17.9268 29.5983C18.1676 29.5983 18.4132 29.5543 18.6508 29.4614C22.2434 28.0541 25.2429 26.1305 27.3244 23.8968C29.2395 21.8442 30.374 19.5239 30.5194 17.3642C30.6794 14.9936 29.6306 12.9488 27.7139 11.8957C26.6101 11.2897 25.2784 11.0378 23.811 11.1527C24.4655 9.86195 24.7855 8.62783 24.7613 7.47557C24.7306 5.95339 24.0954 4.5902 22.9755 3.63785C21.9703 2.7831 20.6176 2.3455 19.1647 2.40531C17.8815 2.45884 16.6064 2.89172 15.5738 3.62369C13.9948 4.74761 12.8555 6.47758 12.0911 8.9159C11.5884 10.5199 10.6947 13.3691 9.91902 15.8405C9.02532 14.2475 7.78253 12.168 6.06139 9.47786C5.49414 8.59163 4.29822 8.32088 3.38836 8.8734C2.4785 9.42591 2.20053 10.5908 2.76778 11.477C7.48032 18.8392 8.34494 21.2586 8.43382 21.5309C8.61806 22.3684 9.34854 22.9414 10.2293 22.9823C11.1165 23.0248 11.9084 22.4329 12.1686 21.6065C12.1686 21.6065 14.7851 13.2636 15.8032 10.0178C16.3123 8.39171 16.9862 7.2977 17.8621 6.67592C18.6702 6.10136 19.8661 6.01164 20.422 6.48387C20.7162 6.73416 20.8697 7.09149 20.8794 7.54798C20.8923 8.18236 20.6224 8.99303 20.1021 9.89185C19.3522 11.1874 18.1013 12.645 16.385 14.2254C15.6481 14.9054 15.5721 16.0246 16.2137 16.7928C16.8553 17.5594 17.9947 17.7168 18.8286 17.1501C22.3064 14.7874 24.7128 14.5875 25.8037 15.1872C26.5778 15.6138 26.6877 16.4701 26.644 17.1155C26.5551 18.4268 25.7762 19.9332 24.4494 21.3562C22.7589 23.1696 20.2524 24.7595 17.1995 25.9558C16.2056 26.3446 15.724 27.4465 16.1232 28.4146Z" fill="#004CFC"/>
</svg>
