<svg width="346" height="80" viewBox="0 0 346 80" fill="none" xmlns="http://www.w3.org/2000/svg">
<path d="M119.378 62.0735L136.186 17.3469H132.833C130.21 17.3469 127.87 18.9942 126.985 21.4597L115.123 54.5444L103.328 21.4707C102.443 18.9997 100.102 17.3469 97.4744 17.3469H94L110.874 62.0735H119.378Z" fill="black"/>
<path fill-rule="evenodd" clip-rule="evenodd" d="M206.655 50.0391C206.655 47.3802 205.82 44.9976 204.144 42.897C202.467 40.7964 200.431 39.5305 198.025 39.0993C200.343 38.2812 202.191 37.0153 203.563 35.3016C204.94 33.588 205.626 31.4431 205.626 28.8671C205.626 26.7223 205.068 24.7764 203.95 23.0407C202.833 21.3049 201.184 19.9174 198.993 18.8892C196.802 17.861 194.185 17.3469 191.137 17.3469H174.069V62.0735H191.972C194.938 62.0735 197.532 61.5483 199.768 60.498C201.997 59.4477 203.701 58.0104 204.885 56.1862C206.063 54.362 206.655 52.3111 206.655 50.0391ZM190.484 36.1364H181.405V23.3281H190.484C192.891 23.3281 194.772 23.892 196.122 25.0307C197.477 26.1695 198.152 27.7007 198.152 29.7626C198.152 31.8246 197.472 33.4 196.122 34.4946C194.766 35.5891 192.891 36.1364 190.484 36.1364ZM199.308 49.2652C199.308 51.4101 198.6 53.085 197.184 54.2846C195.767 55.4841 193.815 56.0867 191.325 56.0867H181.405V42.1231H191.065C193.554 42.1231 195.552 42.7644 197.057 44.0524C198.556 45.3404 199.308 47.1204 199.308 49.2652Z" fill="black"/>
<path d="M244.067 47.0754H244.071L244.065 47.0864L244.067 47.0754Z" fill="black"/>
<path fill-rule="evenodd" clip-rule="evenodd" d="M244.325 43.4822C244.325 44.8099 244.237 46.0058 244.067 47.0754H216.956C217.172 49.9057 218.223 52.1832 220.11 53.8969C221.996 55.6161 224.314 56.4729 227.064 56.4729C231.014 56.4729 233.803 54.82 235.435 51.5198H243.357C242.284 54.7813 240.342 57.4513 237.526 59.5298C234.715 61.6139 231.224 62.6531 227.058 62.6531C223.667 62.6531 220.63 61.8903 217.946 60.3701C215.263 58.8499 213.161 56.6995 211.634 53.9356C210.107 51.1661 209.349 47.9599 209.349 44.3169C209.349 40.674 210.09 37.4623 211.573 34.6983C213.056 31.9344 215.136 29.795 217.819 28.297C220.502 26.7934 223.584 26.0416 227.064 26.0416C230.544 26.0416 233.399 26.7713 236.016 28.2306C238.632 29.69 240.674 31.7353 242.135 34.3777C243.595 37.0145 244.325 40.0494 244.325 43.4822ZM233.764 34.6541C235.656 36.2848 236.619 38.4518 236.663 41.155V41.1605H217.017C217.36 38.4131 218.433 36.2351 220.237 34.6265C222.04 33.0178 224.209 32.2107 226.743 32.2107C229.531 32.2107 231.872 33.0234 233.764 34.6541Z" fill="black"/>
<path d="M284.723 26.6115V32.5983H276.092V52.228C276.092 53.5602 276.402 54.511 277.027 55.0915C277.647 55.6719 278.709 55.9594 280.214 55.9594H284.723V62.0733H278.925C275.616 62.0733 273.082 61.2993 271.323 59.7571C269.564 58.2148 268.684 55.7051 268.684 52.228V32.5983H256.441V52.2335C256.441 53.5658 256.75 54.5166 257.376 55.097C257.995 55.6774 259.057 55.9649 260.562 55.9649H265.071V62.0788H259.273C255.965 62.0788 253.431 61.3049 251.672 59.7626C249.912 58.2203 249.033 55.7106 249.033 52.2335V32.6038H244.844V26.617H249.033V17.8H253.121C254.952 17.8 256.441 19.287 256.441 21.1167V26.617H268.684V17.8H272.773C274.604 17.8 276.092 19.287 276.092 21.1167V26.6115H284.723Z" fill="black"/>
<path d="M319.855 47.0754H319.858L319.853 47.0864L319.855 47.0754Z" fill="black"/>
<path fill-rule="evenodd" clip-rule="evenodd" d="M320.113 43.4822C320.113 44.8099 320.025 46.0058 319.855 47.0754H292.743C292.959 49.9057 294.01 52.1832 295.897 53.8969C297.784 55.6161 300.107 56.4729 302.851 56.4729C306.802 56.4729 309.59 54.82 311.222 51.5198H319.145C318.071 54.7813 316.129 57.4513 313.313 59.5298C310.503 61.6139 307.012 62.6531 302.846 62.6531C299.454 62.6531 296.417 61.8903 293.734 60.3701C291.05 58.8499 288.948 56.6995 287.421 53.9356C285.894 51.1661 285.136 47.9599 285.136 44.3169C285.136 40.674 285.878 37.4623 287.36 34.6983C288.843 31.9288 290.923 29.795 293.607 28.297C296.29 26.7934 299.371 26.0416 302.851 26.0416C306.331 26.0416 309.186 26.7713 311.803 28.2306C314.42 29.69 316.461 31.7353 317.922 34.3777C319.383 37.0145 320.113 40.0494 320.113 43.4822ZM309.551 34.6541C311.443 36.2848 312.406 38.4518 312.45 41.155V41.1605H292.804C293.147 38.4131 294.221 36.2351 296.024 34.6265C297.828 33.0178 299.997 32.2107 302.53 32.2107C305.324 32.2107 307.659 33.0234 309.551 34.6541Z" fill="black"/>
<path d="M340.681 26.031C338.23 26.031 336.116 26.5395 334.335 27.5456H334.329C332.548 28.5517 331.121 29.9558 330.047 31.7579V29.9282C330.047 28.0984 328.559 26.6114 326.728 26.6114H322.706V62.0731H330.047V43.4108C330.047 39.8066 330.789 37.2748 332.271 35.8154C333.754 34.356 335.934 33.6263 338.811 33.6263H340.681V26.031Z" fill="black"/>
<path d="M158.657 61.0666C165.18 58.1589 169.429 51.7686 169.584 44.6541L169.59 44.6431L161.811 48.098C160.787 50.9726 158.602 53.3441 155.775 54.5989C154.325 55.2401 152.787 55.5718 151.199 55.5718C146.718 55.5718 142.652 52.935 140.826 48.8333C139.581 46.0693 139.504 42.9958 140.605 40.182C141.672 37.3573 143.797 35.1295 146.563 33.9023C148.024 33.261 149.578 32.9294 151.166 32.9294C154.248 32.9294 157.219 34.1842 159.327 36.4009L159.891 37.0145L159.388 37.2356L150.032 41.3982L152.533 47.0035L169.02 39.6845C168.765 38.6784 168.422 37.7055 167.996 36.7492C167.476 35.6159 166.879 34.5822 166.237 33.6701C162.807 28.7668 157.163 25.8481 151.161 25.8481C148.583 25.8481 146.071 26.3843 143.681 27.4512C139.199 29.4468 135.742 33.0731 133.982 37.6613C132.223 42.2495 132.345 47.2412 134.358 51.7354C137.313 58.3634 143.913 62.6531 151.194 62.6531C153.767 62.6531 156.284 62.1169 158.657 61.0666Z" fill="black"/>
<path d="M39.1035 71.0367C39.8442 72.8784 41.608 74 43.4736 74L43.4775 73.9961C44.0615 73.9961 44.6573 73.8859 45.2334 73.6537C53.9463 70.1355 61.2207 65.3266 66.2689 59.7424C70.9135 54.6107 73.6649 48.8101 74.0176 43.4108C74.4057 37.4842 71.862 32.3723 67.2135 29.7395C64.5366 28.2244 61.307 27.5948 57.7481 27.8821C59.3355 24.6551 60.1115 21.5698 60.0527 18.6892C59.9783 14.8837 58.438 11.4757 55.7218 9.09488C53.2839 6.95801 50.0034 5.86399 46.4798 6.01353C43.3678 6.14733 40.2754 7.22954 37.7708 9.05946C33.9416 11.8693 31.1784 16.1942 29.3245 22.29C28.1056 26.3001 25.9381 33.423 24.0568 39.6014C21.8894 35.6189 18.8753 30.4203 14.7011 23.6949C13.3254 21.4793 10.4251 20.8024 8.21843 22.1837C6.01179 23.565 5.33765 26.4772 6.71337 28.6927C18.1424 47.0982 20.2393 53.1468 20.4549 53.8276C20.9017 55.9212 22.6732 57.3536 24.8093 57.456C26.9611 57.5622 28.8816 56.0825 29.5126 54.0165C29.5126 54.0165 35.8582 33.1593 38.3274 25.0447C39.562 20.9795 41.1964 18.2445 43.3207 16.69C45.2805 15.2536 48.1808 15.0293 49.5291 16.2099C50.2424 16.8356 50.6148 17.729 50.6383 18.8702C50.6697 20.4561 50.0151 22.4828 48.7531 24.7299C46.9345 27.9686 43.9008 31.6127 39.7384 35.5638C37.9511 37.2639 37.7669 40.0619 39.3229 41.9823C40.8789 43.8988 43.6421 44.2923 45.6646 42.8756C54.0991 36.9687 59.9352 36.4689 62.5808 37.9683C64.4582 39.0347 64.7247 41.1756 64.6189 42.789C64.4033 46.0672 62.5141 49.8332 59.2963 53.3908C55.1966 57.9243 49.1176 61.8989 41.7138 64.8898C39.3033 65.8618 38.1354 68.6165 39.1035 71.0367Z" fill="#004CFC"/>
</svg>
