<svg width="33" height="34" viewBox="0 0 33 34" fill="none" xmlns="http://www.w3.org/2000/svg">
<g id="Frame 8007">
<rect y="0.5" width="33" height="33" rx="16.5" fill="#373EDF"/>
<path id="Vector" d="M24.6142 9.86365C24.118 9.40037 23.197 9.35766 22.7065 9.86365C19.7065 12.9609 17.0409 16.3331 14.7695 19.9276C13.8074 17.724 12.1895 15.8128 10.0284 14.4088C9.43002 14.02 8.53014 14.3058 8.18286 14.8611C7.78982 15.4887 8.06671 16.1951 8.66741 16.5839C10.9951 18.0953 12.6494 20.6099 12.9885 23.2439C13.0612 23.8035 13.3581 24.2986 13.9787 24.4585C14.5348 24.6008 15.2271 24.3698 15.5028 23.8791C17.9807 19.4588 21.0311 15.3452 24.6166 11.6445C25.1047 11.1407 25.1504 10.3609 24.6166 9.86365H24.6142Z" fill="#B3F36C"/>
</g>
</svg>
