<svg width="24" height="24" viewBox="0 0 24 24" fill="none" xmlns="http://www.w3.org/2000/svg">
<path fill-rule="evenodd" clip-rule="evenodd" d="M21.9143 3.91414C22.3048 3.52361 22.3048 2.89045 21.9143 2.49992C21.5237 2.1094 20.8906 2.1094 20.5 2.49992L17.8444 5.15554C16.272 3.81153 14.2308 2.99994 12 2.99994C7.02944 2.99994 3 7.02938 3 11.9999C3 14.2307 3.81159 16.2719 5.1556 17.8444L2.50005 20.4999C2.10952 20.8904 2.10952 21.5236 2.50005 21.9141C2.89057 22.3047 3.52374 22.3047 3.91426 21.9141L6.61589 19.2125C8.11735 20.3351 9.98104 20.9999 12 20.9999C16.9706 20.9999 21 16.9705 21 11.9999C21 9.98098 20.3352 8.11729 19.2126 6.61583L21.9143 3.91414ZM16.4246 6.57537C15.2187 5.59059 13.6783 4.99994 12 4.99994C8.13401 4.99994 5 8.13395 5 11.9999C5 13.6783 5.59065 15.2186 6.57543 16.4245L16.4246 6.57537ZM8.04917 17.7792L17.7793 8.0491C18.5495 9.17353 19 10.5341 19 11.9999C19 15.8659 15.866 18.9999 12 18.9999C10.5342 18.9999 9.17359 18.5494 8.04917 17.7792Z" fill="currentColor"/>
</svg>
