<svg viewBox="0 0 24 24" fill="none" xmlns="http://www.w3.org/2000/svg">
<path d="M19.6146 9.7961C19.0564 8.68407 17.937 8.1483 16.7858 8.07806C16.9296 7.49513 16.9524 6.89272 16.7992 6.28928C16.6047 5.52383 16.139 4.83682 15.4918 4.40872C13.958 3.39462 12.1804 4.44205 11.1133 5.65098C10.0969 6.80248 9.29045 8.13395 8.64618 9.53821C8.32579 10.2365 8.03774 10.9491 7.76959 11.6695C7.28005 10.6841 6.70842 9.74329 6.05221 8.86197C5.70546 8.39593 5.09552 8.0996 4.55623 8.45797C4.10948 8.75482 3.79157 9.49925 4.1642 9.99964C5.3393 11.5782 6.22833 13.2957 6.80046 15.0866C7.14373 16.1607 8.56111 16.1504 8.90886 15.0866C9.72327 12.5985 10.4352 10.3621 11.9133 8.2006C11.9939 8.08268 12.076 7.96578 12.161 7.85094C12.1536 7.86376 12.3446 7.61869 12.3615 7.59767C12.566 7.34594 12.7789 7.09882 13.0108 6.87324C13.0933 6.79326 13.1779 6.71276 13.267 6.63945C13.2709 6.63842 13.35 6.57998 13.3605 6.57331C13.4237 6.5323 13.4849 6.48923 13.5495 6.45026C13.6048 6.41745 13.661 6.38618 13.7182 6.35644C13.7416 6.34516 13.7704 6.33183 13.7819 6.32824C13.85 6.3062 13.9167 6.28671 13.9859 6.26826C14.0063 6.26262 14.0217 6.258 14.0346 6.25442C14.05 6.25647 14.0739 6.25852 14.1107 6.25954C14.1306 6.26006 14.1744 6.26672 14.1993 6.27031C14.2316 6.27954 14.2645 6.28877 14.2968 6.29851C14.3018 6.30158 14.3062 6.30466 14.3117 6.30876C14.3406 6.32824 14.3694 6.34619 14.3983 6.36464C14.3674 6.35131 14.4699 6.4518 14.5227 6.50205C14.5237 6.50461 14.5242 6.50666 14.5256 6.50922C14.555 6.57844 14.6023 6.64406 14.6376 6.71123C14.654 6.77121 14.6754 6.82914 14.6903 6.88964C14.6963 6.91323 14.7013 6.93732 14.7057 6.96142C14.7062 6.95886 14.7147 6.99218 14.7192 7.02551C14.7227 7.04243 14.7256 7.05934 14.7296 7.07626C14.7261 7.06088 14.7232 7.04806 14.7202 7.03576C14.7212 7.04447 14.7217 7.05319 14.7217 7.06088C14.7217 7.09677 14.7097 7.35978 14.7217 7.32184C14.6943 7.49001 14.6445 7.65458 14.5903 7.81454C14.5978 7.79249 14.6475 7.68585 14.5953 7.80634C14.5575 7.89298 14.5152 7.97706 14.4704 8.06012C14.3804 8.22726 14.2789 8.38773 14.1699 8.54205C14.1983 8.50206 14.2769 8.41183 14.1346 8.58614C14.0749 8.65946 14.0142 8.73175 13.9515 8.8025C13.8441 8.92452 13.7316 9.04141 13.6172 9.15677C12.9918 9.63973 12.4302 10.2278 11.9038 10.802C11.5108 11.2306 11.46 11.9756 11.9038 12.3954C12.3317 12.8005 13.0282 12.8512 13.45 12.3954C13.9356 11.8705 14.4839 11.3988 14.9983 10.8979C15.0933 10.8307 15.1898 10.7656 15.2888 10.7046C15.4132 10.6287 15.541 10.558 15.6719 10.4944C15.6928 10.4846 15.7167 10.4739 15.7246 10.4713C15.7983 10.4452 15.8719 10.4195 15.947 10.3975C16.052 10.3667 16.1579 10.3431 16.2649 10.3211C16.3256 10.318 16.3858 10.3114 16.4465 10.3093C16.5679 10.3052 16.6878 10.3185 16.8087 10.319C16.8689 10.3313 16.9291 10.3426 16.9883 10.3585C17.035 10.3708 17.2206 10.4503 17.2276 10.4447C17.2942 10.4882 17.3654 10.5385 17.432 10.559C17.4345 10.5595 17.4355 10.56 17.4375 10.5605C17.4758 10.601 17.5201 10.6369 17.5584 10.6779C17.5723 10.6928 17.5853 10.7087 17.5992 10.7241C17.5793 10.7097 17.6902 10.8702 17.7017 10.8897C17.7037 10.8933 17.7116 10.9092 17.7206 10.9271C17.7335 10.9635 17.7559 11.024 17.7604 11.0399C17.7768 11.0953 17.8082 11.2752 17.8126 11.2624C17.8211 11.3731 17.8246 11.4849 17.8211 11.5962C17.8191 11.6659 17.8126 11.7351 17.8082 11.8048C17.8191 11.6382 17.8111 11.7874 17.7952 11.873C17.745 12.1417 17.6624 12.396 17.5803 12.6554C17.5753 12.6713 17.5519 12.7333 17.545 12.7548C17.5256 12.7995 17.5057 12.8441 17.4853 12.8881C17.4261 13.0173 17.3624 13.144 17.2957 13.2691C17.1664 13.5116 17.0271 13.749 16.8803 13.9807C16.8022 14.1043 16.7216 14.2268 16.6385 14.3473C16.6077 14.3924 16.5763 14.4375 16.5445 14.4821C16.5435 14.4836 16.4385 14.6251 16.4221 14.6487C16.0868 15.0825 15.7221 15.4916 15.3311 15.8725C15.1097 16.0884 14.8789 16.2929 14.6426 16.4919C14.6237 16.5078 14.6087 16.5206 14.5958 16.5313C14.5291 16.5836 14.4615 16.6349 14.3938 16.6857C14.263 16.7831 14.1306 16.8779 13.9963 16.9692C13.4575 17.3363 12.8894 17.6516 12.2983 17.9207C11.7735 18.1597 11.6113 18.9907 11.9063 19.4624C12.257 20.0228 12.8406 20.1222 13.4023 19.8664C15.8654 18.7452 18.0474 16.6969 19.2808 14.2186C19.9564 12.861 20.3275 11.2214 19.6126 9.79815L19.6146 9.7961Z" fill="currentColor"/>
</svg>
