<svg viewBox="0 0 16 16" fill="none" xmlns="http://www.w3.org/2000/svg">
<path d="M7.85539 12.8685C7.97149 13.1574 8.24793 13.3334 8.54033 13.3334L8.54095 13.3327C8.63248 13.3327 8.72585 13.3155 8.81615 13.279C10.1817 12.7272 11.3219 11.9728 12.1131 11.0969C12.8411 10.2919 13.2723 9.38199 13.3276 8.53505C13.3884 7.60539 12.9897 6.80351 12.2612 6.39054C11.8416 6.15287 11.3354 6.0541 10.7776 6.09917C11.0264 5.59298 11.148 5.10901 11.1388 4.65715C11.1272 4.06021 10.8857 3.52563 10.46 3.15216C10.0779 2.81696 9.56376 2.64535 9.0115 2.66881C8.52375 2.6898 8.03906 2.85956 7.64652 3.1466C7.04635 3.58736 6.61327 4.26577 6.32271 5.22198C6.13166 5.85101 5.79195 6.96833 5.49708 7.9375C5.15738 7.31279 4.68498 6.49733 4.03075 5.44236C3.81513 5.09481 3.36054 4.98864 3.01469 5.20531C2.66884 5.42199 2.56318 5.87879 2.7788 6.22633C4.5701 9.11346 4.89875 10.0623 4.93254 10.1691C5.00257 10.4975 5.28024 10.7222 5.61503 10.7382C5.95228 10.7549 6.25329 10.5228 6.35219 10.1987C6.35219 10.1987 7.34675 6.92697 7.73376 5.65409C7.92726 5.01642 8.18342 4.58739 8.51638 4.34356C8.82353 4.11824 9.27811 4.08305 9.48943 4.26824C9.60123 4.3664 9.65959 4.50652 9.66328 4.68554C9.66819 4.93432 9.5656 5.25223 9.3678 5.60471C9.08276 6.11275 8.60729 6.68437 7.9549 7.30415C7.67478 7.57082 7.64591 8.00972 7.88979 8.31097C8.13367 8.6116 8.56675 8.67333 8.88373 8.4511C10.2057 7.52452 11.1204 7.44613 11.5351 7.68132C11.8293 7.84861 11.8711 8.18442 11.8545 8.43752C11.8207 8.95173 11.5246 9.54249 11.0203 10.1005C10.3777 10.8117 9.42493 11.4351 8.26451 11.9043C7.88672 12.0568 7.70365 12.4889 7.85539 12.8685Z" fill="#272A2E"/>
</svg>

