<svg width="24" height="24" viewBox="0 0 24 24" fill="none" xmlns="http://www.w3.org/2000/svg">
<rect width="24" height="24" rx="12" fill="#B1F16C"/>
<path d="M12.0122 18C11.5515 18 11.1777 17.6263 11.1777 17.1658C11.1777 15.5918 10.2182 14.1446 9.41304 13.2079C8.41602 12.0475 7.21397 11.1552 6.4651 10.7853C6.05192 10.581 5.88252 10.0811 6.0863 9.66803C6.2907 9.25499 6.79078 9.08565 7.20396 9.28936C8.03846 9.70177 9.44992 10.6903 10.6789 12.1206C11.037 12.5374 11.4208 13.0411 11.764 13.6128C12.1441 12.4131 12.6529 11.352 13.1155 10.5247C14.1356 8.69948 15.4977 7.02859 16.6697 6.16315C17.0404 5.88946 17.563 5.96819 17.8368 6.33874C18.1106 6.70928 18.0318 7.23167 17.6611 7.50536C16.6829 8.22708 15.4708 9.73176 14.5726 11.3383C13.7856 12.7461 12.8473 14.9 12.8473 17.1658C12.8473 17.6263 12.4735 18 12.0128 18H12.0122Z" fill="#272A2E"/>
</svg>
