<svg width="24" height="24" viewBox="0 0 24 24" fill="none" xmlns="http://www.w3.org/2000/svg">
<path fill-rule="evenodd" clip-rule="evenodd" d="M12.082 2.25C17.4228 2.25 21.75 6.70334 21.75 11.9961C21.7497 17.2886 17.4226 21.7412 12.082 21.7412L2.25488 21.75C2.25488 21.75 2.25 11.9996 2.25 11.8301C2.25 6.53733 6.74578 2.25 12.082 2.25ZM12 6C8.6865 6 6 8.6865 6 12C6 13.1167 6.30982 14.158 6.84082 15.0527L6 18L9.06934 17.2324C9.93625 17.719 10.9352 18 12 18C15.3135 18 18 15.3135 18 12C18 8.6865 15.3135 6 12 6Z" fill="currentColor"/>
</svg>
