<svg viewBox="0 0 22 20" fill="none" xmlns="http://www.w3.org/2000/svg">
<path fill-rule="evenodd" clip-rule="evenodd" d="M15.3052 0C17.1001 0.000100652 18.8123 0.738376 20.065 2.03711L20.2916 2.28418C21.392 3.54308 21.9996 5.17387 21.9996 6.8623C21.9996 8.55078 21.3919 10.1816 20.2916 11.4404L20.065 11.6875C17.6599 14.1805 15.2463 16.867 12.6988 19.3203L12.6929 19.3252C11.7146 20.2532 10.1658 20.2198 9.22907 19.249L1.93317 11.6875C-0.645222 9.01448 -0.645186 4.71013 1.93317 2.03711C4.40656 -0.526741 8.35969 -0.668699 10.9986 1.6084C12.1957 0.577142 13.7185 8.79049e-05 15.3052 0ZM15.3052 2C14.0628 2.0001 12.8663 2.51065 11.984 3.42578L11.7193 3.70117C11.5309 3.89629 11.2708 4.00678 10.9996 4.00684C10.7284 4.00675 10.4682 3.89625 10.2799 3.70117L10.0142 3.42578C8.18076 1.52562 5.20597 1.52538 3.37262 3.42578C1.54178 5.32396 1.54172 8.40063 3.37262 10.2988L10.6685 17.8604C10.8412 18.0392 11.1295 18.0462 11.3121 17.877C13.8278 15.4541 16.1497 12.8652 18.6256 10.2988C19.503 9.38961 19.9996 8.15411 19.9996 6.8623C19.9996 5.65127 19.5632 4.49023 18.7857 3.60059L18.6256 3.42578C17.7431 2.51081 16.5476 2.0001 15.3052 2Z" fill="currentColor"/>
</svg>
