<svg width="22" height="20" viewBox="0 0 22 20" fill="none" xmlns="http://www.w3.org/2000/svg">
<path d="M15.3049 0.25C17.0309 0.25 18.6786 0.960018 19.885 2.21094C21.0828 3.45201 21.7502 5.12488 21.7502 6.8623C21.7502 8.59975 21.0827 10.2728 19.885 11.5137C19.0887 12.3392 18.2936 13.1836 17.4944 14.0322C15.871 15.7561 14.2301 17.4982 12.5256 19.1396L12.5217 19.1436C11.6428 19.9776 10.2509 19.9473 9.40943 19.0752L2.11353 11.5137C-0.371529 8.93755 -0.371475 4.78712 2.11353 2.21094C4.54559 -0.310072 8.46274 -0.399577 11.0002 1.94238C12.1759 0.858986 13.7067 0.250087 15.3049 0.25Z" fill="currentColor"/>
</svg>
