<svg preserveAspectRatio="xMidYMid meet" viewBox="0 0 16 16" fill="none" xmlns="http://www.w3.org/2000/svg" style="display: block; margin: 0 auto;">
<path fill-rule="evenodd" clip-rule="evenodd" d="M4.49948 0.794048C4.80839 -0.112098 6.07594 -0.149991 6.43842 0.736089L7.17077 2.52626C7.45356 3.21752 8.01443 3.75769 8.71583 4.0143L10.2042 4.55883C11.1004 4.88672 11.1139 6.14943 10.2249 6.49637L8.66394 7.1055C7.99351 7.36714 7.45802 7.88974 7.18012 8.55359L6.43512 10.3333C6.06844 11.2093 4.81456 11.1711 4.50178 10.2745L3.94926 8.69064C3.68886 7.94416 3.10932 7.35257 2.36836 7.07686L0.824167 6.50228C-0.0851219 6.16394 -0.0718458 4.87319 0.844219 4.55363L2.31705 4.03985C3.08784 3.77097 3.69207 3.16244 3.95549 2.38976L4.49948 0.794048ZM5.50516 1.97621L5.2175 2.82C4.8218 3.98072 3.9141 4.89487 2.75621 5.29879L2.06302 5.5406L2.83334 5.82723C3.94642 6.2414 4.81702 7.1301 5.2082 8.25147L5.50499 9.10229L5.9502 8.03874C6.36766 7.04148 7.17208 6.25643 8.17922 5.8634L9.0067 5.54048L8.25772 5.26647C7.20407 4.88099 6.36151 4.06952 5.9367 3.0311L5.50516 1.97621Z" fill="currentColor"/>
<path fill-rule="evenodd" clip-rule="evenodd" d="M11.1178 8.95798C11.4281 8.05535 12.6906 8.01737 13.0547 8.89971L13.2868 9.46229C13.5715 10.1525 14.1338 10.6909 14.8356 10.9455L15.1827 11.0714C16.0825 11.3978 16.096 12.6655 15.2033 13.011L14.7839 13.1732C14.1129 13.4329 13.576 13.9538 13.2961 14.6166L13.0513 15.1966C12.6831 16.0687 11.4343 16.0305 11.1201 15.1375L10.9853 14.7543C10.7229 14.0084 10.1417 13.4183 9.39983 13.1446L9.0534 13.0168C8.14055 12.68 8.1538 11.3843 9.07334 11.0663L9.34872 10.971C10.1202 10.7042 10.7261 10.0972 10.9915 9.32517L11.1178 8.95798ZM12.1137 10.1077C11.7295 10.9559 11.0605 11.6425 10.2249 12.0487C11.0616 12.4555 11.7308 13.1429 12.1146 13.9916C12.5044 13.1385 13.1816 12.4519 14.0246 12.0497C13.1818 11.6479 12.5039 10.9614 12.1137 10.1077Z" fill="currentColor"/>
</svg>
