<svg viewBox="0 0 80 80" fill="none" xmlns="http://www.w3.org/2000/svg">
    <path
        d="M33.3752 61.5887C33.644 61.5887 33.8459 61.6588 33.9803 61.7996C34.121 61.9404 34.1912 62.1454 34.1912 62.4142V67.7328C34.1912 67.9759 34.1273 68.1711 33.9993 68.3183C33.8714 68.4591 33.6983 68.5292 33.4807 68.5292C33.2632 68.5292 33.0904 68.491 32.9625 68.4142C32.8409 68.331 32.7096 68.2029 32.5688 68.0301L29.7945 64.5553V67.6941C29.7945 67.9693 29.7239 68.1775 29.5831 68.3183C29.4487 68.459 29.2472 68.5292 28.9785 68.5292C28.7097 68.5292 28.5047 68.4591 28.3639 68.3183C28.2232 68.1775 28.153 67.9693 28.153 67.6941V62.4624C28.153 62.1809 28.2232 61.9663 28.3639 61.8191C28.5047 61.6656 28.6904 61.5887 28.9208 61.5887C29.1255 61.5887 29.2856 61.6269 29.4008 61.7037C29.516 61.7805 29.6441 61.9086 29.7849 62.0878L32.5592 65.5535V62.4142C32.5592 62.1454 32.6267 61.9404 32.7611 61.7996C32.9018 61.659 33.1066 61.5887 33.3752 61.5887Z"
        fill="currentColor" />
    <path
        d="M42.4264 61.675C42.6567 61.6751 42.8295 61.7326 42.9447 61.8478C43.0598 61.963 43.1174 62.1294 43.1174 62.3469C43.1174 62.5709 43.0599 62.744 42.9447 62.8656C42.8295 62.9807 42.6567 63.0383 42.4264 63.0383H40.0744V64.4016H42.2151C42.4391 64.4016 42.6085 64.4592 42.7237 64.5744C42.8453 64.6896 42.9065 64.8559 42.9065 65.0735C42.9065 65.2974 42.8453 65.467 42.7237 65.5822C42.6085 65.6973 42.439 65.7549 42.2151 65.7549H40.0744V67.6173C40.0744 68.2253 39.7831 68.5292 39.2007 68.5292C38.9192 68.5292 38.6984 68.4527 38.5384 68.2992C38.3848 68.1392 38.3079 67.9117 38.3079 67.6173V62.5869C38.308 62.2926 38.3848 62.0686 38.5384 61.9151C38.6984 61.7551 38.9287 61.6751 39.2294 61.675H42.4264Z"
        fill="currentColor" />
    <path
        d="M51.7645 61.675C52.0012 61.6751 52.1803 61.7358 52.3019 61.8573C52.4299 61.9789 52.4941 62.1583 52.4941 62.3951C52.4941 62.6255 52.4299 62.8044 52.3019 62.9324C52.1803 63.054 52.0013 63.1151 51.7645 63.1152H50.2572V67.6364C50.2572 67.918 50.1839 68.1392 50.0367 68.2992C49.8895 68.4528 49.6683 68.5292 49.3739 68.5292C49.0924 68.5292 48.8747 68.4527 48.7211 68.2992C48.5675 68.1392 48.4907 67.918 48.4907 67.6364V63.1152H46.9837C46.7469 63.1152 46.5644 63.054 46.4364 62.9324C46.3149 62.8044 46.2541 62.6254 46.2541 62.3951C46.2541 62.1583 46.3148 61.9789 46.4364 61.8573C46.5644 61.7357 46.7469 61.675 46.9837 61.675H51.7645Z"
        fill="currentColor" />
    <path
        d="M37.6877 12.57C39.0735 11.7732 40.7716 11.7483 42.1769 12.4954L42.3119 12.57L42.3132 12.5709L62.7663 24.3756C64.1983 25.1997 65.0796 26.7274 65.0796 28.3799V51.9893C65.0796 53.6418 64.1978 55.169 62.7658 55.9932L62.7663 55.9936L57.8505 58.8317C57.3339 59.1299 56.6734 58.9529 56.3752 58.4363C56.0772 57.9198 56.2541 57.2593 56.7706 56.9611L61.6864 54.123L61.6877 54.1221C62.449 53.6843 62.9199 52.871 62.9199 51.9893V28.3799C62.9198 27.4983 62.449 26.6848 61.6877 26.2471L61.6864 26.2462L41.2333 14.4415C40.4704 14.0038 39.5287 14.0032 38.7658 14.4411L38.7663 14.4415L18.3132 26.2462L18.3118 26.2471C17.5506 26.6848 17.0797 27.4983 17.0796 28.3799V51.9893C17.0796 52.8159 17.4935 53.5824 18.1725 54.0357L18.3118 54.1221L18.3132 54.123L23.229 56.9611C23.7454 57.2593 23.9224 57.9198 23.6243 58.4363C23.3448 58.9206 22.7469 59.1064 22.2476 58.8821L22.1491 58.8317L17.2333 55.9936C15.8016 55.1694 14.9199 53.6416 14.9199 51.9893V28.3799C14.92 26.7275 15.8014 25.1997 17.2333 24.3756L37.6864 12.5709L37.6877 12.57Z"
        fill="currentColor" />
    <path fill-rule="evenodd" clip-rule="evenodd"
        d="M36.643 23.2649C37.2394 23.2654 37.7229 23.7492 37.7224 24.3456C37.722 24.8635 37.7027 25.3593 37.6669 25.833C38.4508 25.7112 39.2539 25.6481 40.0718 25.6481C42.3937 25.6482 44.6009 26.158 46.5823 27.0748L46.9481 27.2501C46.9565 27.254 46.965 27.2577 46.9733 27.2619C52.0977 29.8008 55.6225 35.0864 55.6235 41.1967C55.6234 49.7851 48.6598 56.7488 40.0714 56.7488C31.4832 56.7486 24.5199 49.785 24.5197 41.1967C24.5198 39.5176 24.7852 37.8995 25.281 36.3808C25.2846 36.37 25.2889 36.3593 25.2928 36.3487C25.2952 36.3419 25.2975 36.335 25.3001 36.3283C25.3106 36.3011 25.3219 36.2744 25.3344 36.2484C25.3368 36.2434 25.3393 36.2386 25.3418 36.2336C25.3532 36.2109 25.3654 36.1886 25.3783 36.1668C25.3814 36.1614 25.3845 36.156 25.3878 36.1507C25.4927 35.98 25.6431 35.8419 25.8218 35.7519C25.8235 35.7511 25.825 35.7501 25.8266 35.7493L25.8752 35.7267C25.8858 35.7221 25.8965 35.7175 25.9073 35.7132C25.9122 35.7113 25.9172 35.7095 25.9221 35.7076C25.9722 35.6884 26.0241 35.6728 26.0775 35.6612C26.0846 35.6596 26.092 35.6582 26.0992 35.6568C26.1041 35.6559 26.109 35.6551 26.1139 35.6542C26.1417 35.6491 26.1694 35.6449 26.1973 35.6421C26.1996 35.6418 26.2019 35.6414 26.2042 35.6412C26.2654 35.6353 26.3265 35.635 26.3869 35.6395C26.3929 35.6399 26.3988 35.6402 26.4047 35.6408C26.4656 35.6462 26.5257 35.6569 26.5844 35.6724C26.5877 35.6733 26.5911 35.6741 26.5944 35.675C26.6209 35.6823 26.6471 35.6905 26.673 35.6998C26.6771 35.7013 26.6814 35.7026 26.6855 35.7041C26.7131 35.7144 26.7401 35.7259 26.7667 35.7384C26.773 35.7414 26.7791 35.7449 26.7854 35.748C26.807 35.7586 26.8283 35.7697 26.8492 35.7818C26.8547 35.785 26.8602 35.7881 26.8657 35.7914C26.9199 35.8241 26.9714 35.8618 27.0197 35.9042C27.0207 35.905 27.0218 35.906 27.0228 35.9068L27.025 35.909C27.0514 35.9325 27.077 35.9573 27.1013 35.9836C27.9987 36.9561 29.5348 38.023 31.7363 38.9715L31.8236 39.0027C32.0392 39.0646 32.342 39.0463 32.8171 38.8569C33.372 38.6356 33.9544 38.2683 34.6508 37.843C35.2856 37.4554 36.0616 36.9892 36.8344 36.7831C37.2397 36.6751 37.6988 36.6218 38.176 36.7158C38.6678 36.8128 39.1119 37.0534 39.4894 37.429C39.6653 37.604 39.7688 37.826 39.7984 38.0566C39.8156 38.1901 39.8072 38.3262 39.7741 38.458C39.7591 38.5178 39.7393 38.5766 39.7138 38.6338C39.6767 38.717 39.6295 38.7972 39.5701 38.8712C39.5343 38.9159 39.4999 38.96 39.4664 39.0032C39.3854 39.1074 39.311 39.2071 39.2428 39.3027C38.6847 40.0854 38.542 40.5802 38.5428 40.8652C38.543 40.9284 38.5503 40.9946 38.5718 41.0648C38.6236 41.2332 38.7566 41.4247 39.0671 41.6533L39.1599 41.7193L39.1612 41.7202C40.1466 42.3965 41.0704 43.2951 41.6895 44.4103C41.6971 44.424 41.7054 44.4377 41.7129 44.4515L41.7945 44.6152C41.8194 44.6697 41.8425 44.7264 41.8652 44.7844C41.8668 44.7883 41.8685 44.7922 41.87 44.7961C41.8916 44.8519 41.9123 44.909 41.9321 44.9671C41.9365 44.9802 41.9407 44.9935 41.9451 45.0066C41.9602 45.0523 41.9748 45.0985 41.9889 45.1451C41.9969 45.1714 42.0043 45.198 42.0119 45.2245C42.0189 45.2487 42.0261 45.2728 42.0328 45.297C42.0431 45.3343 42.0534 45.3716 42.0632 45.409C42.0705 45.4372 42.0778 45.4654 42.0849 45.4936C42.0934 45.5277 42.1014 45.5617 42.1096 45.5956C42.1389 45.7174 42.1666 45.8378 42.1916 45.9537C42.2017 46.0002 42.2112 46.0488 42.2216 46.0987C42.2422 46.1975 42.2642 46.3022 42.2858 46.4107C42.3704 46.8347 42.4612 47.3144 42.5432 47.7089C42.5781 47.8769 42.6144 48.0418 42.6513 48.2028C42.683 48.3415 42.7152 48.4772 42.7489 48.6091C42.8169 48.8743 42.8894 49.1246 42.9685 49.3534C42.9765 49.3764 42.9849 49.3987 42.9928 49.4207C43.1558 49.8747 43.3109 50.1365 43.429 50.2584L43.4303 50.2601C43.6799 50.5183 43.9362 50.5664 44.0987 50.5509C44.0807 50.4573 44.0645 50.3598 44.0484 50.2592C44.0417 50.2172 44.0344 50.1748 44.028 50.1316C43.888 49.1847 43.8373 47.9741 43.9755 46.7766C44.1455 45.3038 44.6303 43.5933 45.8592 42.5231L46.2654 42.1755C47.1939 41.3918 47.9868 40.7834 48.6118 39.9589C48.7453 39.782 48.8533 39.5973 48.9386 39.4116C48.9978 39.2826 49.0456 39.1531 49.0823 39.0244C49.0896 38.9987 49.0971 38.9732 49.1035 38.9476C49.1651 38.7024 49.185 38.4627 49.1673 38.241C49.1534 38.0666 49.1171 37.9034 49.0562 37.7579C49.0229 37.6784 48.9825 37.6041 48.9356 37.5362L48.867 37.4424C48.7829 37.3342 48.6916 37.2394 48.5931 37.1568C48.5874 37.1521 48.5819 37.1472 48.5762 37.1425C48.5293 37.1042 48.4806 37.0691 48.4303 37.0362C48.2833 36.9396 48.122 36.8649 47.9442 36.8096C47.7808 36.7587 47.6037 36.7242 47.4121 36.7033C46.6956 36.625 45.8482 36.7516 44.9295 36.9572C44.1034 37.142 43.0732 37.4335 42.3357 37.5344C41.9567 37.5862 41.4853 37.618 41.0436 37.4945C40.5706 37.3621 40.1356 37.0463 39.9169 36.5162C39.8946 36.4623 39.8733 36.4066 39.8557 36.3482V36.3474C39.8551 36.3454 39.8545 36.3433 39.854 36.3413C39.7939 36.1384 39.7753 35.9406 39.7836 35.7523C39.7862 35.694 39.791 35.6367 39.7984 35.5804C39.8071 35.5146 39.8188 35.4503 39.8331 35.3877C39.8816 35.1746 39.958 34.9808 40.0393 34.8157C40.2361 34.4158 40.5296 34.034 40.8353 33.6894C40.8686 33.6518 40.9039 33.6148 40.9386 33.577C40.9715 33.5411 41.0044 33.5046 41.0384 33.4684C41.0723 33.4324 41.1068 33.3962 41.1417 33.3599C41.1846 33.3155 41.2281 33.2709 41.2724 33.2263C41.3068 33.1915 41.3413 33.1565 41.3765 33.1217C41.424 33.0746 41.4723 33.0278 41.5211 32.9806C41.6807 32.8261 41.8462 32.6707 42.015 32.5162C42.0304 32.502 42.0459 32.4878 42.0614 32.4737C42.393 32.1712 42.7349 31.8712 43.0636 31.5826C43.8682 30.8761 44.6004 30.2312 45.1079 29.662C45.3612 29.3778 45.5138 29.1609 45.5901 29.0088C45.5917 29.0055 45.5925 29.0016 45.594 28.9984C43.9122 28.2339 42.0428 27.8079 40.0718 27.8079C39.1349 27.8079 38.2216 27.9043 37.3396 28.0869C36.4877 31.8943 34.3402 33.7974 32.2064 34.2119C30.9636 34.4534 29.5143 34.1667 28.8288 33.0596C28.4649 32.4718 28.4125 31.7739 28.6513 31.1017C28.8792 30.4602 29.3555 29.8733 30.002 29.3482L30.301 29.1099C31.8088 27.9318 33.5163 26.9495 35.4303 26.3521L35.4312 26.3517C35.4377 26.3497 35.4442 26.3476 35.4507 26.3456C35.5219 25.7398 35.5617 25.0742 35.5623 24.3439C35.5628 23.7475 36.0466 23.2645 36.643 23.2649ZM47.4842 30.0466C47.2863 30.419 47.0097 30.7758 46.7207 31.1C46.1063 31.789 45.2604 32.529 44.4889 33.2063C43.6845 33.9126 42.9547 34.5563 42.4516 35.1234C42.3764 35.2082 42.3104 35.2869 42.2528 35.3595C42.8348 35.2575 43.5215 35.058 44.4573 34.8487C45.4154 34.6343 46.5557 34.4366 47.6461 34.5557C47.7095 34.5626 47.7732 34.5708 47.8366 34.58C47.8419 34.5808 47.8473 34.5814 47.8526 34.5822C48.0532 34.6119 48.2529 34.6537 48.4503 34.7085C48.4561 34.7101 48.4619 34.7112 48.4677 34.7128C48.5197 34.7275 48.5714 34.744 48.6231 34.7605C48.6401 34.766 48.6573 34.7709 48.6743 34.7766C48.716 34.7906 48.7574 34.806 48.7988 34.8213C48.8265 34.8315 48.8542 34.8414 48.8817 34.8521C48.9205 34.8673 48.9587 34.8839 48.9972 34.9003C49.0238 34.9117 49.0506 34.9226 49.077 34.9346C49.1164 34.9524 49.1553 34.9714 49.1942 34.9906C49.22 35.0032 49.2459 35.0155 49.2715 35.0288C49.3124 35.05 49.3527 35.0725 49.393 35.0952C49.4171 35.1087 49.4412 35.1223 49.4651 35.1364C49.4982 35.156 49.5309 35.1765 49.5636 35.1972C49.5957 35.2175 49.6278 35.2379 49.6595 35.2592C49.7703 35.3339 49.8789 35.4147 49.9842 35.5032C49.9893 35.5075 49.9943 35.5119 49.9994 35.5162C50.0511 35.5601 50.1023 35.6055 50.1526 35.6529C50.1615 35.6613 50.1702 35.67 50.179 35.6785C50.2274 35.725 50.275 35.7731 50.3218 35.823C50.3809 35.886 50.4386 35.9516 50.495 36.0201C50.5691 36.1101 50.641 36.2049 50.7103 36.3048L50.7107 36.3053C50.8128 36.4527 50.9008 36.604 50.9763 36.7579C51.0036 36.8135 51.0296 36.8692 51.0536 36.9255C51.1048 37.0458 51.1479 37.1677 51.1847 37.2905C51.606 38.6954 51.1107 40.2358 50.3344 41.2632L50.3336 41.2645C50.1695 41.4809 49.9923 41.6881 49.8079 41.8882C49.8003 41.8964 49.7926 41.9046 49.7849 41.9129C49.517 42.2017 49.2329 42.4739 48.9464 42.7319C48.8847 42.7875 48.8225 42.8421 48.7606 42.8964C48.3716 43.238 47.9846 43.5555 47.6313 43.8517L47.278 44.1529C46.6687 44.6835 46.2728 45.7163 46.1217 47.0249C46.0943 47.2627 46.0759 47.5012 46.0653 47.7367C46.0283 48.5644 46.0877 49.3552 46.1864 49.9528C46.2094 50.0922 46.2341 50.2214 46.2606 50.3378C46.269 50.3745 46.2762 50.4112 46.2823 50.4476C46.2884 50.4839 46.2932 50.5201 46.2971 50.5561C46.3022 50.6035 46.3048 50.6505 46.3062 50.6972C46.3079 50.7539 46.3072 50.8101 46.3036 50.8656C46.3031 50.8738 46.3025 50.8821 46.3019 50.8903C46.2999 50.9157 46.2971 50.9408 46.2941 50.9658C46.2927 50.9769 46.2913 50.9879 46.2897 50.9988C46.2867 51.0201 46.2839 51.0412 46.2802 51.0622C46.2776 51.0766 46.2744 51.0909 46.2715 51.1052C46.2679 51.1228 46.2643 51.1403 46.2602 51.1577C46.2566 51.1731 46.2525 51.1884 46.2485 51.2037C46.2436 51.2223 46.2388 51.2409 46.2333 51.2592C46.2301 51.2701 46.2267 51.281 46.2233 51.2918C46.2167 51.3127 46.2094 51.3333 46.202 51.3539C46.1973 51.3671 46.1923 51.3803 46.1873 51.3934C46.182 51.4072 46.1765 51.4209 46.1708 51.4346C46.1646 51.4495 46.1587 51.4646 46.1521 51.4793C46.1456 51.494 46.1382 51.5082 46.1313 51.5227C46.1235 51.539 46.1161 51.5553 46.1079 51.5713C46.0997 51.5871 46.0912 51.6027 46.0827 51.6182C46.0763 51.6298 46.0698 51.6414 46.0632 51.6529C46.0512 51.6736 46.0386 51.6939 46.0258 51.7141C46.0219 51.7203 46.0185 51.7267 46.0145 51.7328C45.9785 51.7884 45.9398 51.8423 45.8982 51.8938C45.5806 52.2864 45.1366 52.5252 44.6934 52.636C43.7908 52.8616 42.7017 52.614 41.8778 51.7619C41.4725 51.3433 41.1986 50.7893 41.0002 50.2605C40.9748 50.1927 40.9499 50.1254 40.9269 50.0587C40.9137 50.0207 40.9014 49.9822 40.8887 49.9437C40.7651 49.5703 40.6613 49.175 40.5697 48.7836C40.5194 48.569 40.4714 48.3559 40.4282 48.1477C40.3629 47.8339 40.3095 47.5564 40.2589 47.2957C40.2085 47.0361 40.1604 46.7932 40.1087 46.547C40.0991 46.5013 40.09 46.4554 40.0801 46.4094C40.0626 46.3286 40.0447 46.2536 40.0284 46.1842C39.9704 45.9362 39.9203 45.7593 39.8796 45.6408C39.8553 45.5703 39.8353 45.5202 39.8179 45.4884L39.8171 45.4867C39.7927 45.442 39.7676 45.3975 39.7415 45.3534C39.3214 44.6431 38.686 44.0145 37.9408 43.5027L37.7815 43.389C37.6259 43.2737 37.4776 43.1486 37.3392 43.0145C37.3305 43.0061 37.3222 42.9973 37.3136 42.9888C37.2776 42.9534 37.2421 42.9176 37.2077 42.8808C37.1954 42.8677 37.1837 42.8541 37.1717 42.8408C37.1392 42.8051 37.1071 42.7689 37.0762 42.7319C37.0685 42.7228 37.0612 42.7134 37.0536 42.7041C37.0219 42.6654 36.9911 42.6261 36.9612 42.5861C36.952 42.5739 36.9432 42.5615 36.9342 42.5492C36.9082 42.5132 36.8828 42.4769 36.8583 42.4398C36.8449 42.4196 36.8317 42.3992 36.8188 42.3786C36.7991 42.3472 36.7801 42.3153 36.7615 42.2831C36.7483 42.2603 36.7351 42.2374 36.7224 42.2141C36.7024 42.1772 36.6836 42.1396 36.6651 42.1017C36.6534 42.0776 36.6415 42.0537 36.6304 42.0292C36.6247 42.0165 36.6186 42.0039 36.6131 41.991C36.5942 41.9476 36.5769 41.9034 36.5601 41.8586C36.5552 41.8456 36.55 41.8327 36.5454 41.8196C36.5273 41.7689 36.5107 41.7174 36.4954 41.6651C36.4932 41.6574 36.4911 41.6497 36.4889 41.6421C36.4741 41.5894 36.4609 41.5358 36.449 41.4815C36.4448 41.4622 36.4407 41.4428 36.4369 41.4233C36.4347 41.4126 36.4323 41.402 36.4303 41.3912C36.4147 41.3063 36.4032 41.2193 36.3952 41.1303C36.3876 41.0457 36.3829 40.9592 36.3826 40.8708C36.3818 40.591 36.4204 40.3098 36.4928 40.027C36.5123 39.9509 36.5348 39.8747 36.5592 39.7983C36.6354 39.5598 36.7338 39.3195 36.8544 39.0783C36.5474 39.2256 36.1944 39.4322 35.7767 39.6872C35.1542 40.0673 34.3845 40.558 33.6174 40.8638C32.8385 41.1744 31.8636 41.3781 30.8826 40.9559C30.8049 40.9224 30.7278 40.8873 30.6513 40.8534C30.6256 40.8421 30.5999 40.831 30.5744 40.8196C30.49 40.7819 30.4065 40.7436 30.3236 40.7054C30.3068 40.6977 30.2899 40.6902 30.2732 40.6824C28.959 40.0732 27.8318 39.404 26.9112 38.7028C26.7592 39.5098 26.6795 40.3432 26.6795 41.1967C26.6796 48.5921 32.6761 54.5889 40.0714 54.5891C47.4661 54.5891 53.4623 48.5937 53.4638 41.1994L53.4616 40.9533C53.3796 36.4015 51.0266 32.4034 47.4842 30.0466ZM34.8787 28.8578C33.6165 29.4009 32.4458 30.1458 31.3644 31.0244C30.9052 31.3974 30.7378 31.68 30.6864 31.8248C30.665 31.8852 30.6652 31.9165 30.6656 31.9233C30.6862 31.953 31.0027 32.2451 31.7945 32.0913C32.687 31.9179 34.0598 31.0937 34.8787 28.8578Z"
        fill="currentColor" />
</svg>
