<svg viewBox="0 0 86 85" fill="none" xmlns="http://www.w3.org/2000/svg">
<path d="M71.7204 71.3717V38.5286C71.7204 31.6766 66.1104 26.0667 59.2585 26.0667C52.4066 26.0667 46.7965 31.6766 46.7965 38.5286V56.9453C46.7965 59.3158 48.7374 61.2567 51.1079 61.2567C53.4785 61.2567 55.4193 59.3158 55.4193 56.9453V38.5286C55.4193 31.6766 49.8093 26.0667 42.9574 26.0667C36.1054 26.0667 30.4954 31.6766 30.4954 38.5286V56.9453C30.4954 59.3158 32.4363 61.2567 34.8068 61.2567C37.1774 61.2567 39.1182 59.3158 39.1182 56.9453V38.5286C39.1182 31.6766 33.5082 26.0667 26.6563 26.0667C19.8043 26.0667 14.1943 31.6766 14.1943 38.5286V71.3717" stroke="currentColor" stroke-width="2.125" stroke-linecap="round" stroke-linejoin="round"/>
<path d="M26.5196 26.0099C29.9204 26.0099 32.6774 23.253 32.6774 19.8521C32.6774 16.4513 29.9204 13.6943 26.5196 13.6943C23.1187 13.6943 20.3618 16.4513 20.3618 19.8521C20.3618 23.253 23.1187 26.0099 26.5196 26.0099Z" stroke="currentColor" stroke-width="2.125" stroke-linecap="round" stroke-linejoin="round"/>
<path d="M43.0377 26.0099C46.4385 26.0099 49.1954 23.253 49.1954 19.8521C49.1954 16.4513 46.4385 13.6943 43.0377 13.6943C39.6368 13.6943 36.8799 16.4513 36.8799 19.8521C36.8799 23.253 39.6368 26.0099 43.0377 26.0099Z" stroke="currentColor" stroke-width="2.125" stroke-linecap="round" stroke-linejoin="round"/>
<path d="M58.9659 26.0099C62.3667 26.0099 65.1237 23.253 65.1237 19.8521C65.1237 16.4513 62.3667 13.6943 58.9659 13.6943C55.5651 13.6943 52.8081 16.4513 52.8081 19.8521C52.8081 23.253 55.5651 26.0099 58.9659 26.0099Z" stroke="currentColor" stroke-width="2.125" stroke-linecap="round" stroke-linejoin="round"/>
</svg>
