<svg preserveAspectRatio="none" width="100%" height="100%" overflow="visible" style="display: block;" viewBox="0 0 17 17" fill="none" xmlns="http://www.w3.org/2000/svg">
<path id="Vector" d="M4.16667 10.4167C4.05723 10.4166 3.94885 10.4382 3.84773 10.4801C3.74662 10.5219 3.65474 10.5833 3.57735 10.6607C3.49996 10.7381 3.43858 10.83 3.39671 10.9311C3.35484 11.0322 3.33331 11.1406 3.33334 11.25V12.7353C2.25921 11.5205 1.66642 9.95487 1.66667 8.33334C1.66652 8.08827 1.68119 7.84341 1.71061 7.60011C1.7241 7.49131 1.71599 7.38092 1.68674 7.27526C1.65749 7.1696 1.60768 7.07075 1.54016 6.98438C1.47264 6.898 1.38874 6.8258 1.29326 6.77191C1.19779 6.71802 1.09262 6.68351 0.983776 6.67034C0.874937 6.65717 0.764568 6.6656 0.658995 6.69517C0.553423 6.72473 0.454721 6.77483 0.368548 6.84261C0.282374 6.91039 0.210423 6.9945 0.156816 7.09013C0.10321 7.18577 0.0690026 7.29104 0.0561546 7.39992C0.0184074 7.70962 -0.000344222 8.02135 4.78282e-06 8.33334C0.00113705 10.3218 0.715801 12.2439 2.01406 13.75H0.833338C0.612324 13.75 0.400363 13.8378 0.244082 13.9941C0.087802 14.1504 4.78282e-06 14.3623 4.78282e-06 14.5833C4.78282e-06 14.8044 0.087802 15.0163 0.244082 15.1726C0.400363 15.3289 0.612324 15.4167 0.833338 15.4167H4.16667C4.297 15.415 4.42506 15.3823 4.54017 15.3211C4.65528 15.26 4.75412 15.1722 4.82845 15.0652C4.83816 15.0524 4.85057 15.0428 4.85962 15.0293C4.86517 15.021 4.86532 15.0112 4.8705 15.0028C4.91022 14.9357 4.93998 14.8632 4.95884 14.7875C4.97117 14.745 4.97994 14.7016 4.98503 14.6576C4.98742 14.6319 5.00003 14.6097 5.00003 14.5834V11.25C5.00006 11.1406 4.97853 11.0322 4.93666 10.9311C4.89479 10.83 4.83341 10.7381 4.75602 10.6607C4.67862 10.5833 4.58674 10.5219 4.48562 10.48C4.3845 10.4382 4.27612 10.4166 4.16667 10.4167ZM5.41667 3.33334H3.93128C5.14611 2.25927 6.71178 1.66649 8.33334 1.66668C8.57829 1.66609 8.82304 1.68077 9.06616 1.71063C9.17485 1.72383 9.28507 1.71549 9.39054 1.68609C9.496 1.65669 9.59464 1.60681 9.68083 1.53929C9.76701 1.47176 9.83906 1.38793 9.89284 1.29257C9.94663 1.1972 9.98111 1.09218 9.9943 0.983494C10.0075 0.874807 9.99916 0.764585 9.96977 0.659121C9.94037 0.553656 9.89048 0.455015 9.82296 0.368829C9.75544 0.282643 9.67161 0.2106 9.57624 0.156814C9.48088 0.103027 9.37586 0.0685507 9.26717 0.0553523C8.9573 0.0179698 8.64545 -0.000511492 8.33334 1.07648e-05C6.34489 0.0010917 4.42285 0.715703 2.91667 2.01392V0.833344C2.91667 0.61233 2.82887 0.400369 2.67259 0.244088C2.51631 0.0878081 2.30435 1.07648e-05 2.08334 1.07648e-05C1.86232 1.07648e-05 1.65036 0.0878081 1.49408 0.244088C1.3378 0.400369 1.25 0.61233 1.25 0.833344V4.16668C1.25525 4.22176 1.26622 4.27614 1.28276 4.32894L1.28296 4.32995C1.3032 4.4325 1.34315 4.53014 1.4006 4.61745L1.41012 4.63154C1.46518 4.71162 1.5342 4.78116 1.61387 4.83682C1.62298 4.84349 1.6275 4.8537 1.63696 4.86006C1.64887 4.86794 1.66235 4.87044 1.6745 4.87766C1.72176 4.90609 1.77184 4.92955 1.82394 4.94766C1.89434 4.97215 1.96775 4.98697 2.04214 4.9917C2.05658 4.99247 2.06874 5.00004 2.08334 5.00004H5.41667C5.63769 5.00004 5.84965 4.91224 6.00593 4.75596C6.16221 4.59968 6.25 4.38772 6.25 4.1667C6.25 3.94569 6.16221 3.73373 6.00593 3.57745C5.84965 3.42117 5.63769 3.33334 5.41667 3.33334ZM15.3837 12.3368C15.3635 12.2342 15.3235 12.1365 15.266 12.0492L15.2566 12.0352C15.2015 11.9551 15.1324 11.8855 15.0527 11.8298C15.0436 11.8232 15.0391 11.8129 15.0297 11.8066C15.0207 11.8007 15.01 11.8005 15.0009 11.7949C14.8952 11.7361 14.7793 11.6978 14.6594 11.682C14.6331 11.6795 14.6103 11.6666 14.5833 11.6666H11.25C11.029 11.6666 10.817 11.7544 10.6607 11.9107C10.5045 12.067 10.4167 12.279 10.4167 12.5C10.4167 12.721 10.5045 12.9329 10.6607 13.0892C10.817 13.2455 11.029 13.3333 11.25 13.3333H12.7353C11.5205 14.4074 9.95489 15.0002 8.33334 15C8.08837 15.0003 7.84361 14.9853 7.6005 14.9552C7.381 14.9286 7.1599 14.9902 6.98584 15.1266C6.81178 15.2629 6.69902 15.4628 6.67236 15.6823C6.64571 15.9018 6.70734 16.1229 6.84371 16.297C6.98007 16.4711 7.17999 16.5838 7.3995 16.6105C7.70937 16.6479 8.02121 16.6666 8.33334 16.6666C10.3218 16.6656 12.2438 15.9509 13.75 14.6527V15.8333C13.75 16.0544 13.8378 16.2663 13.9941 16.4226C14.1504 16.5789 14.3623 16.6667 14.5833 16.6667C14.8044 16.6667 15.0163 16.5789 15.1726 16.4226C15.3289 16.2663 15.4167 16.0544 15.4167 15.8333V12.5C15.4114 12.4449 15.4005 12.3906 15.3839 12.3378L15.3837 12.3368ZM15.8333 2.91668C16.0544 2.91668 16.2663 2.82888 16.4226 2.6726C16.5789 2.51632 16.6667 2.30436 16.6667 2.08334C16.6667 1.86233 16.5789 1.65037 16.4226 1.49409C16.2663 1.33781 16.0544 1.25001 15.8333 1.25001H12.5C12.4458 1.25524 12.3922 1.26605 12.3401 1.28226L12.3346 1.28338C12.2334 1.30362 12.137 1.34309 12.0507 1.39965L12.0344 1.41069C11.9546 1.46567 11.8854 1.53447 11.8299 1.61384C11.8234 1.62284 11.8133 1.62726 11.8071 1.63657C11.8011 1.64552 11.8009 1.6561 11.7953 1.6652C11.7358 1.77153 11.6973 1.88826 11.6817 2.00909C11.6793 2.03483 11.6667 2.057 11.6667 2.08334V5.41668C11.6667 5.63769 11.7545 5.84965 11.9107 6.00593C12.067 6.16221 12.279 6.25001 12.5 6.25001C12.721 6.25001 12.933 6.16221 13.0893 6.00593C13.2455 5.84965 13.3333 5.63769 13.3333 5.41668V3.93094C14.4074 5.14592 15.0001 6.71166 15 8.3333C15.0002 8.57838 14.9855 8.82324 14.9561 9.06654C14.9296 9.2859 14.9913 9.50677 15.1276 9.68069C15.2638 9.85462 15.4635 9.96739 15.6828 9.99428C15.7166 9.99819 15.7505 10.0001 15.7845 9.99997C15.988 9.99971 16.1843 9.92499 16.3365 9.78991C16.4887 9.65483 16.5861 9.46874 16.6105 9.26674C16.6483 8.95704 16.667 8.64533 16.6667 8.33334C16.6655 6.34486 15.9508 4.42281 14.6525 2.91668H15.8333Z" fill="var(--fill-0, #525860)"/>
</svg>
