<svg viewBox="0 0 96 96" fill="none" xmlns="http://www.w3.org/2000/svg">
    <path
        d="M75.0461 46.3413V80.9173H20.8008V15.4667H61.3448L75.0461 31.904H63.8994C63.7928 31.904 63.6808 31.904 63.5741 31.8987C56.9075 31.6747 53.4088 23.8507 57.5314 18.608L59.9741 15.4987"
        stroke="currentColor" stroke-width="3.14663" stroke-linecap="round" stroke-linejoin="round" />
    <path
        d="M30.1543 69.3546C32.757 66.4746 35.6477 63.4879 38.245 60.6079C38.821 59.9732 39.413 59.3173 40.2236 58.9173C41.029 58.5173 42.1116 58.4266 42.853 58.9173C43.5836 59.3973 43.7916 60.3093 43.5943 61.0879C43.397 61.8666 42.837 62.5226 42.3623 63.2106C35.0983 73.7066 43.7383 69.2266 49.4183 63.8986C48.9276 64.7306 48.4317 65.5839 48.2823 66.5066C48.133 67.4292 48.405 68.4639 49.2263 69.0613C50.3676 69.8879 52.4636 69.3546 52.7516 68.0853"
        stroke="currentColor" stroke-width="3.14663" stroke-linecap="round" stroke-linejoin="round" />
    <path d="M30.1543 46.3412H74.773" stroke="currentColor" stroke-width="3.14663" stroke-linecap="round"
        stroke-linejoin="round" />
    <path d="M30.1543 36.9227H54.085" stroke="currentColor" stroke-width="3.14663" stroke-linecap="round"
        stroke-linejoin="round" />
</svg>