
<svg  viewBox="0 0 20 20" fill="none" xmlns="http://www.w3.org/2000/svg">
<path d="M14.9998 5.83346C15.46 5.8335 15.8332 6.20658 15.8332 6.6668V15.4884L17.744 13.5776C18.0694 13.2522 18.5969 13.2522 18.9223 13.5776C19.2477 13.9031 19.2477 14.4306 18.9223 14.756L15.589 18.0893L15.5255 18.1463C15.1983 18.4132 14.7157 18.3943 14.4106 18.0893L11.0773 14.756C10.7519 14.4306 10.7519 13.903 11.0773 13.5776C11.4027 13.2522 11.9302 13.2522 12.2557 13.5776L14.1665 15.4884V6.6668C14.1665 6.20656 14.5396 5.83346 14.9998 5.83346Z" fill="currentColor"/>
<path d="M4.47411 1.85397C4.80142 1.58701 5.28392 1.60584 5.58902 1.91094L8.92235 5.24427C9.24766 5.56972 9.24774 6.09726 8.92235 6.42266C8.59695 6.74798 8.06939 6.74794 7.74396 6.42266L5.83316 4.51185V13.3335C5.83305 13.7936 5.45997 14.1668 4.99982 14.1668C4.53965 14.1668 4.16659 13.7936 4.16649 13.3335V4.51185L2.25568 6.42266C1.93028 6.74798 1.40272 6.74794 1.0773 6.42266C0.751882 6.09724 0.751926 5.56971 1.0773 5.24427L4.41063 1.91094L4.47411 1.85397Z" fill="currentColor"/>
</svg>
