<svg viewBox="0 0 24 24" fill="none" xmlns="http://www.w3.org/2000/svg">
<path fill-rule="evenodd" clip-rule="evenodd" d="M18.8223 4C19.2401 4 19.6354 4.08511 19.9873 4.26172L19.9863 4.2627C20.9375 4.7371 21.4013 5.75229 21.2959 6.90625C21.2246 7.67954 20.8771 10.2296 20.5078 12.709C20.3228 13.951 20.1317 15.1803 19.9658 16.166C19.8024 17.1373 19.6583 17.9048 19.5664 18.1992C19.4537 18.5595 19.2645 19.1738 18.9062 19.6953C18.5399 20.2284 17.9714 20.6992 17.1123 20.6992C16.2857 20.6991 15.4619 20.4009 14.7305 19.8564C14.2483 19.4987 11.0171 17.2436 10.624 16.9854C9.98149 16.5635 9.5287 15.8906 9.39746 15.1533C8.92783 15.3371 8.40235 15.4375 7.88184 15.4375C7.51637 15.4375 7.15871 15.3879 6.82031 15.291C6.09535 15.0832 4.84308 14.6879 4.30762 14.4893C3.77872 14.2924 3.35011 14.0128 3.05469 13.6367C2.75613 13.2565 2.61138 12.8012 2.61133 12.292C2.61145 11.5006 2.99286 10.9399 3.44629 10.5508C3.88955 10.1705 4.41926 9.93832 4.75195 9.79102C5.92344 9.27304 16.3159 4.67665 17.2129 4.33984C17.8053 4.11749 18.3345 4.00006 18.8223 4ZM18.8223 6.0166C18.6417 6.01666 18.4196 6.05773 18.1602 6.13867L17.8877 6.2334C17.0483 6.54794 6.17391 11.3579 5.53027 11.6426C5.23079 11.7752 4.97212 11.8997 4.79004 12.0322C4.60018 12.1705 4.57633 12.2564 4.57617 12.292C4.57621 12.3585 4.59057 12.3797 4.61523 12.4043C4.65974 12.4485 4.75793 12.5115 4.97656 12.5928C5.44368 12.7661 6.64097 13.1439 7.35059 13.3477C7.52032 13.3962 7.70029 13.4189 7.88184 13.4189C8.31648 13.4189 8.72492 13.2915 8.96875 13.1338C9.1944 12.9877 10.643 11.984 12.0918 10.9697C12.814 10.4641 13.5332 9.95762 14.0957 9.55762C14.668 9.15065 15.0575 8.86792 15.1387 8.79883L15.252 8.71582C15.3698 8.64176 15.5011 8.59668 15.6377 8.59668L15.7412 8.60547C15.9748 8.64587 16.1463 8.82137 16.2021 9.03711C16.2645 9.27941 16.1793 9.53493 15.9951 9.72754C15.6656 10.0708 12.01 13.7663 11.5205 14.2861C11.3095 14.5105 11.3007 14.6999 11.3447 14.8496C11.3967 15.0257 11.5375 15.1904 11.6816 15.2852C12.1379 15.5844 15.3866 17.8527 15.8828 18.2217L15.8838 18.2227C16.322 18.549 16.7458 18.6825 17.1123 18.6826C17.1492 18.6826 17.231 18.6657 17.3555 18.4541C17.477 18.2474 17.5832 17.9473 17.6973 17.583C17.7543 17.4001 17.8773 16.7455 18.0352 15.7979C18.1905 14.8652 18.3748 13.682 18.5557 12.4727C18.9181 10.0487 19.2645 7.53548 19.3398 6.7168C19.3786 6.29193 19.2465 6.13605 19.127 6.07617L19.125 6.0752C19.0552 6.03995 18.9572 6.0166 18.8223 6.0166ZM11.0332 14.3975C11.0178 14.436 11.0064 14.4746 10.9971 14.5127L11.0332 14.3975C11.0486 14.359 11.068 14.3202 11.0898 14.2812L11.0332 14.3975Z" fill="currentColor"/>
</svg>
