<svg viewBox="0 0 20 21" fill="none" xmlns="http://www.w3.org/2000/svg">
<path fill-rule="evenodd" clip-rule="evenodd" d="M14.7227 0.749023C15.3797 0.749648 16.0211 0.967427 16.5439 1.36719C17.0661 1.76658 17.4432 2.3267 17.6162 2.96094L19.5254 9.96094C19.6466 10.4057 19.6646 10.8737 19.5762 11.3262C19.4877 11.7786 19.2954 12.2049 19.0156 12.5713C18.7358 12.9376 18.3751 13.235 17.9619 13.4395C17.5486 13.6439 17.0929 13.7499 16.6318 13.75H12.5947L13.4619 16.6426L13.5205 16.875C13.6314 17.4206 13.5665 17.9905 13.332 18.5C13.0638 19.0826 12.5916 19.5475 12.0049 19.8066C11.4182 20.0657 10.7568 20.1023 10.1455 19.9082C9.61065 19.7383 9.14601 19.402 8.81738 18.9521L8.68555 18.7529L5.97559 14.2363C5.88678 14.0883 5.76053 13.965 5.61035 13.8799C5.46023 13.795 5.29063 13.75 5.11816 13.75H2.34961C1.92564 13.7499 1.51867 13.5819 1.21875 13.2822C0.918806 12.9823 0.750129 12.5746 0.75 12.1504V2.35059C0.75 1.92636 0.918844 1.51879 1.21875 1.21875C1.51869 0.918933 1.92552 0.749127 2.34961 0.749023H14.7227ZM6.25 11.9756C6.36786 12.0237 6.48424 12.0766 6.5957 12.1396C7.04643 12.3949 7.42393 12.7629 7.69043 13.207L10.4004 17.7236C10.4795 17.8554 10.6047 17.9555 10.751 18.002C10.7875 18.0135 10.8247 18.0216 10.8623 18.0264C10.9379 18.0359 11.0147 18.0314 11.0889 18.0137C11.1258 18.0048 11.1622 17.993 11.1973 17.9775C11.3378 17.9154 11.4513 17.8036 11.5156 17.6641C11.5798 17.5245 11.59 17.3659 11.5459 17.2188L10.5244 13.8096C10.4531 13.5712 10.4384 13.3185 10.4814 13.0732C10.5246 12.828 10.6239 12.5954 10.7725 12.3955C10.921 12.1957 11.1145 12.0329 11.3369 11.9209C11.3856 11.8964 11.4356 11.8747 11.4863 11.8555C11.5079 11.8472 11.5299 11.8403 11.5518 11.833C11.5814 11.8232 11.6114 11.8147 11.6416 11.8066C11.6647 11.8004 11.6876 11.7942 11.7109 11.7891C11.7449 11.7816 11.7791 11.7758 11.8135 11.7705C11.8932 11.7582 11.9736 11.7501 12.0547 11.75H16.6318C16.7854 11.7499 16.9376 11.7145 17.0752 11.6465C17.2126 11.5784 17.3326 11.4793 17.4258 11.3574C17.519 11.2354 17.5837 11.0931 17.6133 10.9424C17.6427 10.7917 17.637 10.6354 17.5967 10.4873L15.6865 3.4873C15.6289 3.27602 15.5029 3.08912 15.3291 2.95605C15.1555 2.8233 14.9413 2.75028 14.7217 2.75H6.25V11.9756ZM2.75 11.75H4.25V2.75H2.75V11.75Z" fill="currentColor"/>
</svg>
