<svg width="24" height="24" viewBox="0 0 24 24" fill="none" xmlns="http://www.w3.org/2000/svg">
<path d="M16.7217 3C17.3242 3.00048 17.9123 3.19898 18.3916 3.56543C18.8705 3.93159 19.2164 4.44475 19.375 5.02637L21.2842 12.0264C21.3954 12.4342 21.4111 12.8625 21.3301 13.2773C21.249 13.6921 21.0739 14.083 20.8174 14.4189C20.5608 14.7549 20.2295 15.0274 19.8506 15.2148C19.4718 15.4022 19.0545 15.4999 18.6318 15.5H14.2588L15.2227 18.7139C15.3897 19.2697 15.3481 19.8683 15.1055 20.3955C14.8627 20.9229 14.4353 21.3435 13.9043 21.5781C13.3733 21.8126 12.7749 21.8446 12.2217 21.6689C11.6685 21.4933 11.1978 21.1218 10.8994 20.624L8.18945 16.1064C8.07841 15.9216 7.92107 15.7684 7.7334 15.6621C7.54571 15.5559 7.33381 15.5 7.11816 15.5H4.34961C3.99171 15.4999 3.64859 15.3576 3.39551 15.1045C3.14243 14.8514 3.00011 14.5083 3 14.1504V4.34961C3.0001 3.99171 3.14243 3.64859 3.39551 3.39551C3.64859 3.14243 3.99171 3.0001 4.34961 3H16.7217ZM5 4.75C4.72386 4.75 4.5 4.97386 4.5 5.25V13.25C4.5 13.5261 4.72386 13.75 5 13.75H6C6.27614 13.75 6.5 13.5261 6.5 13.25V5.25C6.5 4.97386 6.27614 4.75 6 4.75H5Z" fill="currentColor"/>
</svg>
