<svg viewBox="0 0 24 24" fill="none" xmlns="http://www.w3.org/2000/svg">
<path fill-rule="evenodd" clip-rule="evenodd" d="M11.9717 2.07993C12.5248 1.90437 13.1234 1.93723 13.6543 2.17173C14.1853 2.4063 14.6127 2.82706 14.8555 3.35434C15.0979 3.88125 15.1394 4.47951 14.9727 5.03501L14.0088 8.24985H18.3818C18.8045 8.24998 19.2217 8.3476 19.6006 8.53501C19.9794 8.72243 20.3108 8.99405 20.5674 9.32993C20.8238 9.66575 20.9989 10.0569 21.0801 10.4715C21.1611 10.8863 21.1453 11.3148 21.0342 11.7225L19.125 18.7225C18.9664 19.3041 18.6205 19.8183 18.1416 20.1844C17.6623 20.5508 17.0742 20.7494 16.4717 20.7499H4.09961C3.7418 20.7497 3.39857 20.6073 3.14551 20.3543C2.8924 20.1012 2.75 19.7573 2.75 19.3993V9.59946C2.75005 9.24149 2.89238 8.89751 3.14551 8.64438C3.39855 8.39154 3.74189 8.24995 4.09961 8.24985H6.86816C7.0839 8.24983 7.29565 8.19303 7.4834 8.08676C7.67117 7.98043 7.82841 7.82746 7.93945 7.64243L10.6494 3.12583C10.9478 2.62808 11.4186 2.2556 11.9717 2.07993ZM5 9.99985C4.72392 9.99985 4.5001 10.2238 4.5 10.4999V18.4999C4.5 18.776 4.72386 18.9999 5 18.9999H6C6.27614 18.9999 6.5 18.776 6.5 18.4999V10.4999C6.49991 10.2582 6.3285 10.0561 6.10059 10.0096L6 9.99985H5Z" fill="currentColor"/>
</svg>
