<svg viewBox="0 0 20 20" fill="none" xmlns="http://www.w3.org/2000/svg">
<path fill-rule="evenodd" clip-rule="evenodd" d="M9.89551 0.842636C10.5069 0.648467 11.1681 0.685058 11.7549 0.944198C12.3416 1.20343 12.8138 1.66813 13.082 2.25084C13.3164 2.76041 13.3816 3.33023 13.2705 3.87584L13.2119 4.10826L12.3447 7.00084H16.3818C16.843 7.00098 17.2986 7.10687 17.7119 7.31139C18.1252 7.51589 18.4858 7.81311 18.7656 8.17955C19.0454 8.546 19.2377 8.97218 19.3262 9.42467C19.4146 9.87719 19.3966 10.3451 19.2754 10.7899L17.3662 17.7899C17.1932 18.4241 16.8161 18.9843 16.2939 19.3837C15.7711 19.7833 15.1296 20.0002 14.4727 20.0008H2.09961C1.67561 20.0007 1.26868 19.8318 0.96875 19.5321C0.668781 19.2321 0.500101 18.8245 0.5 18.4003V8.60045C0.5 8.17619 0.66881 7.76865 0.96875 7.46861C1.26869 7.1688 1.67552 7.00094 2.09961 7.00084H4.86816C5.04057 7.00081 5.21027 6.95579 5.36035 6.87096C5.51053 6.78593 5.63675 6.66246 5.72559 6.51451L8.43555 1.99791L8.56738 1.79869C8.896 1.34876 9.36057 1.01257 9.89551 0.842636ZM2.5 18.0008H4V9.00084H2.5V18.0008ZM10.9473 2.7733C10.8065 2.71113 10.6476 2.70231 10.501 2.74889C10.3546 2.79541 10.2295 2.8943 10.1504 3.02623L7.44043 7.54381C7.1739 7.98791 6.79642 8.356 6.3457 8.61119C6.23423 8.67427 6.11786 8.72717 6 8.77525V18.0008H14.4717C14.6912 18.0006 14.9055 17.9275 15.0791 17.7948C15.253 17.6618 15.3788 17.4748 15.4365 17.2635L17.3467 10.2635C17.387 10.1154 17.3927 9.95916 17.3633 9.80846C17.3338 9.65768 17.269 9.51554 17.1758 9.39342C17.0826 9.27149 16.9627 9.17248 16.8252 9.10435C16.6876 9.03626 16.5355 9.00094 16.3818 9.00084H11.8047C11.5556 9.0005 11.3094 8.94193 11.0869 8.82994C10.8645 8.71795 10.6711 8.55511 10.5225 8.35533C10.3739 8.15549 10.2747 7.92283 10.2314 7.6776C10.1883 7.43231 10.2031 7.17972 10.2744 6.94127L11.2959 3.53209C11.3401 3.38493 11.3298 3.22641 11.2656 3.08678C11.2013 2.9471 11.0879 2.83549 10.9473 2.7733Z" fill="currentColor"/>
</svg>
