<svg viewBox="0 0 60 61" fill="none" xmlns="http://www.w3.org/2000/svg">
<path fill-rule="evenodd" clip-rule="evenodd" d="M27.2008 48.0113C27.7144 48.0113 28.1632 48.1195 28.5472 48.3355C28.936 48.5515 29.2384 48.8563 29.4544 49.2499C29.6704 49.6387 29.7786 50.097 29.7786 50.6249C29.7786 51.0185 29.7163 51.3762 29.5915 51.6978C29.4715 52.0194 29.2962 52.2979 29.0658 52.5331C28.8402 52.7635 28.569 52.9409 28.2523 53.0657C27.9355 53.1857 27.5848 53.2457 27.2008 53.2457C26.6873 53.2457 26.2361 53.1378 25.8473 52.9218C25.4585 52.701 25.1561 52.3938 24.9401 52.0002C24.7289 51.6066 24.6234 51.1481 24.6234 50.6249C24.6234 50.2314 24.6834 49.8739 24.8034 49.5523C24.9282 49.2308 25.1032 48.9546 25.3288 48.7242C25.5592 48.4938 25.8329 48.3185 26.1497 48.1985C26.4665 48.0737 26.8169 48.0113 27.2008 48.0113ZM27.2008 49.12C26.9514 49.1201 26.7354 49.1801 26.5531 49.3C26.3755 49.4152 26.2386 49.5858 26.1426 49.8114C26.0466 50.0322 25.9987 50.3034 25.9987 50.6249C25.9987 51.1001 26.1042 51.4723 26.3154 51.7411C26.5266 52.005 26.8218 52.1369 27.2008 52.137C27.4552 52.137 27.6714 52.077 27.849 51.957C28.0265 51.837 28.1634 51.6643 28.2594 51.4387C28.3554 51.2131 28.4033 50.9417 28.4033 50.6249C28.4033 50.1498 28.2978 49.7802 28.0866 49.5162C27.8754 49.2522 27.58 49.12 27.2008 49.12Z" fill="currentColor"/>
<path d="M40.7959 48.0113C41.1751 48.0113 41.4991 48.0666 41.7679 48.177C42.0367 48.2874 42.2407 48.4482 42.3799 48.6594C42.5238 48.8658 42.5957 49.1154 42.5957 49.4081C42.5957 49.6001 42.5599 49.7778 42.488 49.941C42.416 50.1042 42.3101 50.2411 42.1709 50.3515C42.0794 50.4209 41.9772 50.4772 41.8649 50.5217C42.114 50.5918 42.3146 50.7193 42.4661 50.9058C42.6581 51.1314 42.7542 51.4147 42.7542 51.7555C42.7542 52.0626 42.675 52.329 42.5166 52.5546C42.3582 52.7802 42.1302 52.9528 41.8327 53.0728C41.5351 53.188 41.1797 53.2457 40.7669 53.2457C40.5222 53.2457 40.2773 53.2217 40.0326 53.1737C39.7878 53.1258 39.5767 53.0586 39.3991 52.9723C39.2455 52.9002 39.1373 52.8112 39.0749 52.7057C39.0173 52.6001 38.9933 52.4921 39.0029 52.3818C39.0125 52.2714 39.051 52.1729 39.1182 52.0865C39.1902 52.0001 39.2815 51.9425 39.3919 51.9137C39.5071 51.8801 39.6367 51.8946 39.7806 51.957C39.9582 52.0337 40.1214 52.0867 40.2702 52.1155C40.4189 52.1443 40.5677 52.1584 40.7165 52.1584C40.8893 52.1584 41.0336 52.1392 41.1488 52.1008C41.2639 52.0624 41.3503 52.005 41.4079 51.9283C41.4655 51.8467 41.4941 51.7458 41.4941 51.6259C41.4941 51.4579 41.4341 51.3355 41.3141 51.2587C41.1989 51.1771 41.0286 51.1363 40.8031 51.1363H40.4144C40.232 51.1363 40.0927 51.0905 39.9967 50.9993C39.9007 50.9081 39.8525 50.7786 39.8525 50.6106C39.8525 50.4426 39.9008 50.3131 39.9967 50.2219C40.0927 50.1307 40.232 50.0849 40.4144 50.0849H40.6735C40.8127 50.0849 40.9304 50.0657 41.0264 50.0273C41.127 49.9889 41.2037 49.9338 41.2565 49.8619C41.3093 49.7851 41.3359 49.6914 41.3359 49.581C41.3359 49.4226 41.2783 49.3025 41.1631 49.2209C41.0527 49.1394 40.8871 49.0986 40.6663 49.0986C40.5319 49.0986 40.3951 49.113 40.2559 49.1418C40.1167 49.1706 39.9679 49.2209 39.8096 49.2929C39.6848 49.3457 39.5695 49.3578 39.4639 49.329C39.3631 49.3002 39.2791 49.2449 39.2119 49.1633C39.1495 49.077 39.1111 48.9835 39.0967 48.8827C39.0823 48.7771 39.0991 48.6736 39.1471 48.5728C39.1952 48.4721 39.2862 48.388 39.4206 48.3209C39.6222 48.2201 39.8407 48.1435 40.0758 48.0907C40.3158 48.0379 40.5559 48.0113 40.7959 48.0113Z" fill="currentColor"/>
<path d="M21.5732 48.0256C21.722 48.0256 21.8468 48.0641 21.9476 48.1409C22.0484 48.2128 22.1107 48.3161 22.1348 48.4504C22.1636 48.5848 22.1396 48.7362 22.0628 48.9042L20.3132 52.7489C20.2412 52.9169 20.1501 53.0393 20.0397 53.1161C19.9293 53.1929 19.7827 53.2314 19.6003 53.2314C19.4179 53.2313 19.2691 53.1929 19.154 53.1161C19.0436 53.0393 18.9498 52.9169 18.873 52.7489L17.1309 48.9042C17.0541 48.7362 17.0301 48.5848 17.0589 48.4504C17.0877 48.3161 17.1549 48.2128 17.2604 48.1409C17.366 48.0641 17.4979 48.0257 17.6562 48.0256C17.8531 48.0256 17.9997 48.0691 18.0957 48.1555C18.1964 48.2419 18.2829 48.3691 18.3548 48.537L19.6214 51.4683L20.8893 48.5299C20.9613 48.3619 21.0477 48.2371 21.1484 48.1555C21.2492 48.0691 21.3908 48.0256 21.5732 48.0256Z" fill="currentColor"/>
<path d="M36.0758 48.0907C36.2534 48.0907 36.388 48.1363 36.4792 48.2275C36.5751 48.3186 36.623 48.453 36.623 48.6305C36.623 48.8032 36.5751 48.9378 36.4792 49.0338C36.388 49.125 36.2534 49.1705 36.0758 49.1705H34.9453V52.5618C34.9453 52.7729 34.8903 52.9385 34.7799 53.0585C34.6695 53.1737 34.5037 53.2314 34.2829 53.2314C34.0718 53.2313 33.9085 53.1737 33.7933 53.0585C33.6782 52.9385 33.6208 52.7729 33.6208 52.5618V49.1705H32.4902C32.3126 49.1705 32.1758 49.125 32.0798 49.0338C31.9886 48.9378 31.943 48.8032 31.943 48.6305C31.9431 48.453 31.9886 48.3186 32.0798 48.2275C32.1758 48.1363 32.3126 48.0907 32.4902 48.0907H36.0758Z" fill="currentColor"/>
<path d="M42.0732 9.08325C46.0971 9.08327 48.0603 13.5845 45.9369 16.8222C44.7962 18.5634 43.3953 19.8533 42.5778 20.7932L42.5781 20.7935C41.3787 22.1763 32.6494 29.5895 32.6494 41.8726C32.6494 43.3238 31.4908 44.5191 30.0335 44.5191C28.5758 44.5191 27.4177 43.3211 27.4176 41.8726C27.4176 37.9354 24.8255 34.4382 22.526 32.1318C19.9826 29.5787 17.4417 28.074 17.4121 28.0556L17.4027 28.0504L17.3932 28.0448C16.143 27.3128 15.7203 25.6989 16.4329 24.4384L16.4333 24.4377C17.1501 23.1728 18.752 22.7261 20.012 23.4622L20.0127 23.4625C20.3565 23.6636 25.5865 26.7696 29.207 31.9019C30.8008 27.5165 33.3023 23.7063 35.5885 20.8508C36.8611 19.2615 38.0733 17.9596 39.0374 17.01C39.9828 16.0789 40.7301 15.4464 41.0671 15.2323C41.4167 15.0104 41.8801 15.1139 42.1022 15.4635C42.3242 15.813 42.2209 16.2765 41.8714 16.4986C41.6823 16.6187 41.0344 17.1487 40.0902 18.0787C39.1647 18.9902 37.9926 20.2485 36.7598 21.7883C34.2895 24.8737 31.6016 29.0574 30.1449 33.8245L29.6549 35.4277L28.7861 33.9941C25.409 28.4213 19.5939 24.9551 19.2555 24.7571C18.7279 24.4488 18.0489 24.6293 17.7383 25.1773C17.4241 25.7339 17.6179 26.438 18.151 26.7502L18.1507 26.7506C18.4042 26.8989 20.9956 28.4702 23.5882 31.0725C25.9533 33.4448 28.9176 37.3129 28.9176 41.8726C28.9177 42.5169 29.4283 43.0191 30.0335 43.0191C30.6393 43.0191 31.1494 42.5185 31.1494 41.8726C31.1494 28.8988 40.4086 21.0053 41.445 19.8105L41.4456 19.8098C42.4118 18.6988 43.6123 17.6331 44.6823 15.9996L44.6826 15.9993C46.2578 13.5974 44.7154 10.5833 42.0732 10.5833H16.7389L16.5804 10.5855C13.2645 10.6729 10.582 13.436 10.582 16.8557V43.8131C10.5821 45.8973 11.5799 47.7408 13.113 48.8808C13.4453 49.1279 13.5144 49.5979 13.2673 49.9303C13.0201 50.2626 12.5502 50.3317 12.2178 50.0846C10.3157 48.6702 9.08206 46.3858 9.08203 43.8131V16.8557C9.08203 12.5764 12.4988 9.08565 16.738 9.08325H42.0732Z" fill="currentColor"/>
<path d="M50.1654 16.1057C50.5796 16.1057 50.9154 16.4415 50.9154 16.8557V43.8131C50.9153 46.3858 49.6817 48.6702 47.7796 50.0846C47.4472 50.3317 46.9773 50.2626 46.7301 49.9303C46.483 49.5979 46.5521 49.1279 46.8844 48.8808C48.4175 47.7408 49.4153 45.8973 49.4154 43.8131V16.8557C49.4154 16.4415 49.7512 16.1057 50.1654 16.1057Z" fill="currentColor"/>
</svg>
