
<svg  viewBox="0 0 16 16" fill="none" xmlns="http://www.w3.org/2000/svg">
<path d="M8.0255 13.1668C7.63171 13.1668 7.31219 12.8448 7.31219 12.4481C7.31219 11.092 6.49204 9.84517 5.80391 9.03821C4.95174 8.03855 3.92434 7.26978 3.28427 6.95102C2.93113 6.77493 2.78629 6.34429 2.96048 5.9884C3.13515 5.63251 3.56256 5.48662 3.91579 5.66214C4.629 6.01746 5.83544 6.86915 6.88583 8.10142C7.19204 8.46054 7.52001 8.89451 7.8134 9.38698C8.13824 8.35331 8.57306 7.43922 8.96846 6.72639C9.84038 5.1539 11.0046 3.71428 12.0063 2.96869C12.3232 2.73285 12.7699 2.80076 13.0038 3.11999C13.2378 3.43922 13.1705 3.88933 12.8536 4.12507C12.0175 4.74691 10.9816 6.0432 10.2138 7.42735C9.54119 8.64025 8.73927 10.496 8.73927 12.448C8.73927 12.8448 8.41976 13.1667 8.02597 13.1667H8.0254L8.0255 13.1668Z" fill="currentColor"/>
</svg>
