<svg viewBox="0 0 116 116" fill="none" xmlns="http://www.w3.org/2000/svg">
  <g id="Illustration/wallet">
    <path
      id="Vector"
      d="M94.0884 51.5557H75.2163C71.7603 51.5557 68.9551 55.0228 68.9551 59.3046V72.8067C68.9551 77.0885 71.7603 80.5557 75.2163 80.5557H94.0884"
      stroke="currentColor"
      stroke-width="2.9"
      stroke-miterlimit="10"
      stroke-linecap="round"
    />
    <path
      id="Vector_2"
      d="M19.333 48.6527V82.5371C19.333 88.5624 24.2463 93.4446 30.3101 93.4446H89.5559C95.6197 93.4446 100.533 88.5624 100.533 82.5371C100.533 73.2655 100.685 61.0507 88.9711 61.0507C80.9878 61.0507 80.6255 71.4844 89.0601 71.4844C100.59 71.4844 100.527 63.6402 100.527 52.8464V52.0632C100.527 44.1747 94.0878 37.7768 86.1489 37.7768H26.9922C22.7654 37.7768 19.333 34.3726 19.333 30.1662C19.333 25.9662 22.759 22.5557 26.9922 22.5557H78.9474C83.3777 22.5557 86.9625 26.1241 86.9625 30.5199"
      stroke="currentColor"
      stroke-width="2.9"
      stroke-miterlimit="10"
      stroke-linecap="round"
    />
  </g>
</svg>
