<svg xmlns="http://www.w3.org/2000/svg" version="1.1" xmlns:xlink="http://www.w3.org/1999/xlink" xmlns:svgjs="http://svgjs.dev/svgjs" width="156" height="156"><svg xmlns="http://www.w3.org/2000/svg" version="1.1" xmlns:xlink="http://www.w3.org/1999/xlink" xmlns:svgjs="http://svgjs.dev/svgjs" width="156" height="156"><svg width="156" height="156" viewBox="0 0 156 156" fill="none" xmlns="http://www.w3.org/2000/svg">
        <rect width="156" height="156" rx="16" fill="#B1F16C"></rect>
        <path d="M82.7672 144.3C79.132 144.3 75.6953 142.113 74.252 138.522C72.3656 133.802 74.6414 128.43 79.3382 126.535C93.7644 120.703 105.609 112.952 113.598 104.112C119.868 97.1748 123.549 89.8309 123.969 83.4386C124.175 80.2923 123.656 76.1177 119.997 74.0381C114.842 71.1143 103.471 72.0889 87.0362 83.6074C83.0956 86.37 77.7115 85.6026 74.6796 81.8654C71.6477 78.1206 72.0067 72.6645 75.4892 69.3494C83.5996 61.6448 89.5106 54.5388 93.0542 48.2232C95.5133 43.8414 96.7887 39.8894 96.7276 36.7968C96.6817 34.5714 95.9562 32.8294 94.5663 31.6093C91.9392 29.3071 86.2878 29.7445 82.4693 32.5455C78.3301 35.5767 75.1455 40.91 72.7398 48.8371C67.9285 64.6606 55.5643 105.332 55.5643 105.332C54.3347 109.361 50.5926 112.246 46.3999 112.039C42.2378 111.84 38.7858 109.046 37.9152 104.964C37.4952 103.636 33.4094 91.8414 11.14 55.9508C8.45942 51.6304 9.77298 45.9518 14.0726 43.2582C18.3722 40.5647 24.0236 41.8846 26.7042 46.205C34.8375 59.3196 40.7104 69.4568 44.9336 77.2227C48.5994 65.1748 52.8226 51.2851 55.1977 43.4654C58.81 31.5786 64.1941 23.145 71.6554 17.6659C76.5278 14.0899 82.5533 11.9796 88.6171 11.7263C95.4827 11.4347 101.875 13.5681 106.625 17.735C111.918 22.3776 114.919 29.0232 115.064 36.4438C115.178 42.0611 113.666 48.0774 110.573 54.37C117.508 53.8098 123.801 55.0376 129.017 57.992C138.074 63.1259 143.031 73.0942 142.274 84.651C141.587 95.1796 136.226 106.491 127.176 116.498C117.34 127.387 103.166 136.764 86.1885 143.625C85.0659 144.077 83.9051 144.292 82.7672 144.292V144.3Z" fill="#004CFC"></path>
    </svg>
</svg><style>@media (prefers-color-scheme: light) { :root { filter: none; } }
@media (prefers-color-scheme: dark) { :root { filter: none; } }
</style></svg>