<svg width="150" height="33" viewBox="0 0 150 33" fill="none" xmlns="http://www.w3.org/2000/svg">
<path d="M17.9795 32.1578C17.0936 32.1578 16.2562 31.6274 15.9044 30.7564C15.4447 29.6119 15.9993 28.3091 17.1439 27.8494C20.6594 26.4351 23.5459 24.5554 25.4925 22.4115C27.0204 20.7291 27.9174 18.9481 28.0198 17.3978C28.07 16.6348 27.9435 15.6224 27.0521 15.1181C25.7959 14.409 23.0248 14.6454 19.0198 17.4388C18.0595 18.1088 16.7475 17.9227 16.0086 17.0163C15.2698 16.1081 15.3573 14.7849 16.2059 13.981C18.1823 12.1125 19.6228 10.3892 20.4863 8.85752C21.0856 7.79486 21.3963 6.83642 21.3815 6.08642C21.3703 5.54672 21.1935 5.12426 20.8548 4.82836C20.2146 4.27005 18.8374 4.37613 17.9069 5.05541C16.8982 5.79052 16.1222 7.08394 15.5359 9.0064C14.3635 12.8439 11.3504 22.7074 11.3504 22.7074C11.0508 23.6844 10.1389 24.3842 9.11719 24.3339C8.10292 24.2856 7.26173 23.6081 7.04957 22.6181C6.94722 22.2961 5.95156 19.4357 0.524761 10.7316C-0.128465 9.68382 0.191635 8.30665 1.2394 7.65342C2.28717 7.00019 3.66434 7.32029 4.31756 8.36806C6.29957 11.5486 7.73072 14.007 8.75987 15.8904C9.65317 12.9686 10.6823 9.60007 11.2611 7.70367C12.1414 4.82091 13.4534 2.77563 15.2717 1.44685C16.4609 0.581461 17.9292 0.0696744 19.4069 0.00639897C21.08 -0.0643206 22.6377 0.453049 23.7952 1.4636C25.0849 2.58953 25.8163 4.20119 25.8517 6.00082C25.8796 7.3631 25.5111 8.82215 24.7574 10.3482C26.4472 10.2124 27.9807 10.5101 29.2518 11.2266C31.459 12.4717 32.6668 14.8892 32.4826 17.6919C32.3151 20.2452 31.0086 22.9884 28.8033 25.4152C26.4063 28.056 22.9522 30.3302 18.8151 31.994C18.5415 32.1038 18.2586 32.1559 17.9813 32.1559L17.9795 32.1578Z" fill="#004CFC"/>
<g clip-path="url(#clip0_4420_33152)">
<path d="M58.4492 11.2048C56.3719 11.2048 54.664 11.9089 53.3267 13.3192C51.9894 14.7285 51.3213 16.4897 51.3213 18.6041C51.3213 20.7185 51.9894 22.5789 53.3267 23.9696C54.664 25.3614 56.3795 26.0568 58.4753 26.0568C60.1015 26.0568 61.5238 25.6099 62.7434 24.7151C63.9629 23.8203 64.7804 22.6509 65.1956 21.2057H61.32C61.1031 21.7114 60.7467 22.0961 60.2497 22.3577C59.7527 22.6204 59.1968 22.7512 58.5832 22.7512C57.6078 22.7512 56.822 22.4939 56.2258 21.9784C55.6296 21.464 55.2678 20.7185 55.1414 19.743H65.4398L65.4942 18.6052C65.4942 16.4734 64.8392 14.7077 63.5292 13.3072C62.2191 11.9078 60.5254 11.207 58.4481 11.207L58.4492 11.2048ZM55.1969 16.9769C55.3593 16.1464 55.7212 15.4914 56.2814 15.0118C56.8416 14.5334 57.5555 14.2936 58.4219 14.2936C59.2884 14.2936 60.0295 14.5377 60.5897 15.0249C61.1499 15.5132 61.502 16.1628 61.6469 16.9758H55.1969V16.9769Z" fill="black"/>
<path d="M89.5351 11.2048C87.4578 11.2048 85.7499 11.9089 84.4126 13.3192C83.0753 14.7285 82.4072 16.4897 82.4072 18.6041C82.4072 20.7185 83.0753 22.5789 84.4126 23.9696C85.7499 25.3614 87.4654 26.0568 89.5613 26.0568C91.1874 26.0568 92.6097 25.6099 93.8293 24.7151C95.0489 23.8203 95.8663 22.6509 96.2815 21.2057H92.4059C92.189 21.7114 91.8326 22.0961 91.3356 22.3577C90.8386 22.6204 90.2828 22.7512 89.6692 22.7512C88.6937 22.7512 87.9079 22.4939 87.3117 21.9784C86.7156 21.464 86.3537 20.7185 86.2273 19.743H96.5257L96.5802 18.6052C96.5802 16.4734 95.9252 14.7077 94.6151 13.3072C93.3051 11.9078 91.6114 11.207 89.534 11.207L89.5351 11.2048ZM86.2829 16.9769C86.4453 16.1464 86.8071 15.4914 87.3673 15.0118C87.9275 14.5334 88.6414 14.2936 89.5079 14.2936C90.3743 14.2936 91.1155 14.5377 91.6757 15.0249C92.2359 15.5132 92.5879 16.1628 92.7329 16.9758H86.2829V16.9769Z" fill="black"/>
<path d="M120.007 11.2048C117.93 11.2048 116.222 11.9089 114.885 13.3192C113.547 14.7285 112.879 16.4897 112.879 18.6041C112.879 20.7185 113.547 22.5789 114.885 23.9696C116.222 25.3614 117.938 26.0568 120.033 26.0568C121.66 26.0568 123.082 25.6099 124.301 24.7151C125.521 23.8203 126.338 22.6509 126.754 21.2057H122.878C122.661 21.7114 122.305 22.0961 121.808 22.3577C121.311 22.6204 120.755 22.7512 120.141 22.7512C119.166 22.7512 118.38 22.4939 117.784 21.9784C117.188 21.464 116.826 20.7185 116.699 19.743H126.998L127.052 18.6052C127.052 16.4734 126.397 14.7077 125.087 13.3072C123.777 11.9078 122.084 11.207 120.006 11.207L120.007 11.2048ZM116.755 16.9769C116.917 16.1464 117.279 15.4914 117.839 15.0118C118.4 14.5334 119.114 14.2936 119.98 14.2936C120.847 14.2936 121.588 14.5377 122.148 15.0249C122.708 15.5132 123.06 16.1628 123.205 16.9758H116.755V16.9769Z" fill="black"/>
<path d="M49.8859 6.32764L44.7776 20.9158L39.6955 6.32764H35.3599L42.3515 25.84H47.013L54.0046 6.32764H49.8859Z" fill="black"/>
<path d="M79.0742 15.9209C78.7767 15.7639 78.4661 15.6364 78.1446 15.5361C78.3473 15.4686 78.5445 15.389 78.7353 15.2974C79.4938 14.9367 80.0987 14.4125 80.551 13.7258C81.0023 13.0392 81.2289 12.2174 81.2289 11.2594C81.2289 9.74227 80.696 8.54012 79.6301 7.65513C78.5642 6.77013 77.1636 6.32764 75.4296 6.32764H66.3508V25.84H75.7817C76.9914 25.84 78.0443 25.6231 78.9391 25.1893C79.8339 24.7555 80.5292 24.1376 81.0262 23.3332C81.5232 22.53 81.7717 21.5948 81.7717 20.5278C81.7717 19.4608 81.5276 18.5355 81.0404 17.7497C80.5521 16.9639 79.8971 16.3536 79.0753 15.9209H79.0742ZM74.5348 9.30849C75.3653 9.30849 75.9931 9.51121 76.4182 9.91774C76.8421 10.3243 77.0547 10.9248 77.0547 11.7204C77.0547 12.516 76.8334 13.1166 76.3909 13.5231C75.9484 13.9296 75.3021 14.1324 74.4531 14.1324H70.524V9.30849H74.5348ZM76.8519 22.1136C76.3909 22.6106 75.7086 22.8591 74.8062 22.8591H70.524V17.1143H74.67C75.592 17.1143 76.3005 17.377 76.7974 17.9001C77.2944 18.4243 77.5429 19.1382 77.5429 20.0407C77.5429 20.9431 77.313 21.6166 76.8519 22.1136Z" fill="black"/>
<path d="M112.046 22.6618C111.328 22.6618 110.798 22.5059 110.457 22.1931C110.116 21.8803 109.946 21.4117 109.946 20.7861V14.7164H112.569V11.571H109.946V7.99072L105.906 8.06484V11.571H102.906V7.99072L98.8668 8.06484V11.571H96.541V14.7164H98.8668V20.6487C98.8668 22.4329 99.293 23.7615 100.146 24.6356C100.999 25.5096 102.305 25.9456 104.065 25.9456C104.586 25.9456 105.056 25.9086 105.478 25.8355C105.578 25.8181 105.673 25.7985 105.763 25.7778V22.5789C105.763 22.5789 105.762 22.5789 105.76 22.5789C105.527 22.6345 105.275 22.6618 105.006 22.6618C104.288 22.6618 103.758 22.5059 103.417 22.1931C103.076 21.8803 102.906 21.4117 102.906 20.7861V14.7164H105.906V20.6487C105.906 22.4329 106.333 23.7615 107.186 24.6356C108.038 25.5096 109.345 25.9456 111.104 25.9456C111.625 25.9456 112.096 25.9086 112.518 25.8355C112.618 25.8181 112.713 25.7985 112.802 25.7778V22.5789C112.802 22.5789 112.801 22.5789 112.8 22.5789C112.567 22.6345 112.315 22.6618 112.046 22.6618Z" fill="black"/>
<path d="M136.01 11.4893C134.93 11.4893 133.902 11.7367 133.064 12.456C132.458 12.9759 132.163 13.5633 131.944 14.2249V11.7661H127.985V25.8366H132.024V18.4984C132.024 17.3583 132.33 16.5529 132.94 16.0842C133.55 15.6156 134.502 15.3802 135.794 15.3802C136.028 15.3802 136.225 15.3845 136.387 15.3943C136.549 15.4041 136.674 15.427 136.764 15.463V11.6004C136.603 11.5274 136.351 11.4903 136.01 11.4903V11.4893Z" fill="black"/>
<path d="M139.97 15.4338H138.568V11.532H139.97C140.618 11.532 141.123 11.7118 141.484 12.0704C141.845 12.4301 142.025 12.8998 142.025 13.4829C142.025 14.066 141.845 14.5357 141.484 14.8954C141.123 15.2551 140.618 15.4338 139.97 15.4338ZM140.875 14.3766C141.078 14.1619 141.18 13.8644 141.18 13.484C141.18 13.1036 141.078 12.805 140.875 12.5914C140.671 12.3766 140.362 12.2698 139.948 12.2698H139.372V14.6992H139.948C140.362 14.6992 140.671 14.5924 140.875 14.3777V14.3766Z" fill="black"/>
<path d="M142.966 15.4338H142.126L143.593 11.532H144.44L145.907 15.4338H145.043L144.807 14.7635H143.203L142.966 15.4338ZM144.01 12.5216H143.999L143.461 14.0442H144.549L144.01 12.5216Z" fill="black"/>
<path d="M149.489 12.0267C149.871 12.4115 150.06 12.8965 150.06 13.4828C150.06 14.0692 149.87 14.5542 149.489 14.9389C149.108 15.3237 148.623 15.5155 148.033 15.5155C147.443 15.5155 146.957 15.3226 146.577 14.9389C146.195 14.5542 146.006 14.0692 146.006 13.4828C146.006 12.8965 146.197 12.4115 146.577 12.0267C146.958 11.642 147.443 11.4502 148.033 11.4502C148.623 11.4502 149.109 11.6431 149.489 12.0267ZM148.885 14.4038C149.106 14.1717 149.216 13.8643 149.216 13.4828C149.216 13.1014 149.106 12.7951 148.885 12.5619C148.665 12.3297 148.382 12.2131 148.033 12.2131C147.684 12.2131 147.401 12.3297 147.181 12.5619C146.961 12.7951 146.851 13.1014 146.851 13.4828C146.851 13.8643 146.961 14.1706 147.181 14.4038C147.401 14.6359 147.684 14.7526 148.033 14.7526C148.382 14.7526 148.665 14.6359 148.885 14.4038Z" fill="black"/>
</g>
<defs>
<clipPath id="clip0_4420_33152">
<rect width="114.64" height="19.727" fill="white" transform="translate(35.3599 6.32764)"/>
</clipPath>
</defs>
</svg>
