<svg width="180" height="180" viewBox="0 0 180 180" fill="none" xmlns="http://www.w3.org/2000/svg">
<path d="M107.931 117.44C109.868 116.703 111.728 116.837 113.308 118.256C114.902 119.688 115.121 121.544 114.615 123.536C114.508 123.956 114.361 124.365 114.233 124.778C114.615 125.103 115.051 125.017 115.433 125.08C118.655 125.611 120.523 128.341 119.871 131.546C119.34 134.16 117.883 136.191 115.92 137.997C114.023 139.641 111.944 140.856 109.691 141.781C108.538 142.255 107.54 141.944 107.128 141.004C106.684 139.989 107.107 139.041 108.294 138.511C110.725 137.425 113.001 136.122 114.742 134.046C115.54 133.095 116.138 132.042 116.37 130.799C116.608 129.527 115.978 128.7 114.701 128.631C113.319 128.556 112.13 129.116 110.968 129.757C110.528 129.999 110.113 130.285 109.683 130.545C108.753 131.107 107.799 131.018 107.211 130.317C106.615 129.608 106.687 128.541 107.433 127.758C108.213 126.939 109.03 126.154 109.703 125.24C110.394 124.302 111.066 123.356 111.247 122.157C111.411 121.069 110.69 120.396 109.628 120.652C108.588 120.903 107.959 121.613 107.533 122.532C106.593 124.565 106.135 126.759 105.454 128.879C104.869 130.702 104.314 132.536 103.782 134.375C103.52 135.284 103.01 135.924 102.046 135.972C101.072 136.02 100.542 135.41 100.198 134.524C99.1131 131.727 97.4801 129.217 95.9827 126.637C95.7304 126.202 95.4467 125.784 95.2229 125.335C94.7639 124.414 95.0339 123.419 95.8391 122.948C96.7118 122.438 97.7116 122.67 98.2893 123.594C99.2219 125.085 100.105 126.608 101.01 128.117C101.169 128.383 101.332 128.647 101.546 128.998C101.913 128.529 101.97 128.029 102.116 127.576C102.774 125.546 103.244 123.453 104.071 121.481C104.836 119.658 106.011 118.171 107.931 117.44Z" fill="#272A2E"/>
<path fill-rule="evenodd" clip-rule="evenodd" d="M76.4661 28.956C91.465 24.3164 107.049 27.2212 119.061 35.5419C120.082 36.2494 120.336 37.6513 119.629 38.6728C118.922 39.6942 117.52 39.9486 116.498 39.2411C105.401 31.5541 90.9694 28.9582 77.1467 33.4608C54.1657 40.9412 41.3756 65.2648 47.9954 88.3212L135.153 59.9423C136.334 59.5579 137.605 60.2035 137.99 61.3847C138.02 61.4791 138.041 61.5748 138.059 61.6698C138.417 62.3092 138.459 63.1104 138.096 63.8095L116.09 106.172C125.631 109.49 132.48 118.561 132.48 129.232C132.48 142.713 121.551 153.642 108.07 153.642C94.5884 153.642 83.6596 142.713 83.6594 129.232C83.6594 123.933 85.3478 119.029 88.2161 115.027L45.7561 93.8759C45.0654 93.5318 44.6293 92.8804 44.5305 92.1698C44.4831 92.075 44.44 91.9765 44.4055 91.873C44.3825 91.804 44.3558 91.732 44.3167 91.6249C44.2809 91.5272 44.2318 91.3937 44.1848 91.2528C44.1832 91.248 44.1815 91.243 44.1799 91.2382C35.7657 65.3771 49.9014 37.5973 75.7532 29.1825L76.4661 28.956ZM108.07 109.322C97.0736 109.322 88.1594 118.236 88.1594 129.232C88.1596 140.228 97.0737 149.142 108.07 149.142C119.065 149.142 127.98 140.228 127.98 129.232C127.98 118.236 119.065 109.322 108.07 109.322ZM51.7454 91.8329L90.5227 111.148C90.7701 111.272 90.9831 111.436 91.1614 111.627C91.6316 111.175 92.1201 110.742 92.6253 110.329L69.7942 85.955L51.7454 91.8329ZM74.5198 84.4169L96.1917 107.554C96.2632 107.63 96.3262 107.712 96.385 107.795C97.113 107.397 97.8635 107.036 98.634 106.713L89.7542 79.456L74.5198 84.4169ZM94.0335 78.0624L102.927 105.366C103.725 105.195 104.538 105.063 105.364 104.972C105.356 104.838 105.359 104.702 105.376 104.565L109.273 73.1005L94.0335 78.0624ZM113.998 71.5624L109.871 104.888C110.532 104.936 111.186 105.01 111.831 105.11C111.839 104.777 111.918 104.441 112.082 104.125L132.05 65.6845L113.998 71.5624Z" fill="#272A2E"/>
</svg>
