<svg width="180" height="180" viewBox="0 0 180 180" fill="none" xmlns="http://www.w3.org/2000/svg">
<path fill-rule="evenodd" clip-rule="evenodd" d="M152.323 51.2366C153 50.7009 153.922 50.5994 154.699 50.9749C155.476 51.3505 155.971 52.1373 155.971 53.0002V83.4905C155.97 84.7327 154.963 85.7402 153.721 85.7405C152.478 85.7405 151.471 84.7329 151.471 83.4905V62.8704C139.383 86.753 128.147 102.661 118.049 112.811C107.123 123.792 97.3591 128.2 89.1846 128.4C84.215 128.52 80.0943 127.495 76.7998 125.473C73.4996 123.447 71.1849 120.517 69.6758 117.096C68.8038 115.119 68.1971 112.969 67.8154 110.707C63.6544 114.175 59.2725 117.395 54.8184 120.164C45.6014 125.895 35.8415 129.85 27 129.85C25.7574 129.85 24.7501 128.842 24.75 127.6C24.7502 126.357 25.7575 125.35 27 125.35C34.6184 125.35 43.522 121.889 52.4424 116.343C57.5612 113.161 62.6065 109.339 67.3164 105.217C67.2347 101.302 67.6778 97.2189 68.4824 93.2346C70.1765 84.8467 73.5471 76.5237 77.5225 70.4827C79.5053 67.4696 81.7112 64.912 84.0352 63.218C86.3462 61.5336 89.0586 60.5123 91.8428 61.219C93.367 61.606 94.6924 62.3046 95.7119 63.3645C96.7356 64.4289 97.3341 65.7356 97.5967 67.1448C98.104 69.8681 97.3838 73.0734 96.0479 76.3381C93.3453 82.9426 87.5929 91.0463 80.3301 98.8586C77.7179 101.668 74.8906 104.459 71.9131 107.151C72.1429 110.157 72.7505 112.917 73.793 115.281C74.9915 117.998 76.748 120.161 79.1543 121.638C81.5666 123.118 84.7901 124.005 89.0752 123.901L89.7002 123.875C96.2181 123.509 104.724 119.824 114.858 109.637C124.514 99.9313 135.499 84.4623 147.46 60.8293L128.928 75.5139C127.954 76.2854 126.538 76.1215 125.767 75.1477C124.995 74.1738 125.159 72.7583 126.133 71.9866L152.323 51.2366ZM90.5488 65.5403C89.5925 65.3685 88.3194 65.6639 86.6855 66.8547C84.9555 68.1158 83.0979 70.1966 81.2812 72.9573C77.6575 78.4642 74.486 86.2362 72.8926 94.1252C72.4236 96.4472 72.0983 98.7485 71.9326 100.98C73.7055 99.2738 75.4123 97.5388 77.0342 95.7942C84.1261 88.1656 89.4728 80.5235 91.8828 74.634C93.103 71.652 93.4435 69.4224 93.1729 67.969C93.0464 67.2901 92.7954 66.8233 92.4688 66.4836C92.1791 66.1825 91.7385 65.8869 91.0479 65.6692L90.7363 65.5813L90.5488 65.5403Z" fill="#272A2E"/>
</svg>
