<svg width="180" height="180" viewBox="0 0 180 180" fill="none" xmlns="http://www.w3.org/2000/svg">
<path fill-rule="evenodd" clip-rule="evenodd" d="M89.5498 45.75C94.8136 45.75 101.484 48.5451 108.231 52.332C111.199 53.9977 114.256 55.8984 117.311 57.9297C118.549 56.4032 119.854 54.8106 121.194 53.3828C123.404 51.0288 125.969 48.8205 129.148 47.4863C132.022 46.2788 135.1 45.7267 138.154 45.7598C139.397 45.7732 140.393 46.7917 140.38 48.0342C140.366 49.2767 139.348 50.2732 138.105 50.2598C135.62 50.2329 133.158 50.6824 130.892 51.6348C128.542 52.6206 126.485 54.3222 124.476 56.4629C123.269 57.7486 122.167 59.0884 121.043 60.4736C123.784 62.3855 126.494 64.3687 129.107 66.3457C135.81 71.4161 141.925 76.4812 146.36 80.2764C148.579 82.1749 150.381 83.7577 151.629 84.8672C152.253 85.422 152.739 85.8595 153.069 86.1582C153.235 86.3075 153.362 86.4221 153.447 86.5C153.49 86.5389 153.523 86.5687 153.545 86.5889C153.556 86.5989 153.565 86.607 153.57 86.6123C153.573 86.6148 153.576 86.6168 153.577 86.6182L153.579 86.6201L153.758 86.8037C154.148 87.2518 154.347 87.8392 154.305 88.4385C154.256 89.1233 153.898 89.7489 153.331 90.1367L89.7812 133.646C89.0925 134.118 88.1993 134.169 87.4609 133.78C86.7225 133.391 86.2598 132.625 86.2598 131.79V112H27C25.7574 112 24.75 110.993 24.75 109.75V88.8896C24.7502 87.6472 25.7575 86.6396 27 86.6396C28.2425 86.6396 29.2498 87.6472 29.25 88.8896V107.5H88.5098C89.7524 107.5 90.7598 108.507 90.7598 109.75V127.522L148.425 88.042C147.206 86.9608 145.505 85.468 143.435 83.6963C139.043 79.939 133.002 74.9342 126.393 69.9346C123.717 67.9109 120.955 65.895 118.179 63.9648C114.368 68.6818 106.174 81.0898 90.1201 81.0898C84.0196 81.0898 79.2261 78.9548 75.9404 75.5947C72.6814 72.2619 71.0244 67.8447 70.9434 63.4619C70.8624 59.0794 72.3567 54.638 75.5186 51.2773C78.7082 47.8873 83.4494 45.75 89.5498 45.75ZM89.5498 50.25C84.5555 50.25 81.0468 51.968 78.7959 54.3604C76.5172 56.7822 75.3809 60.0515 75.4424 63.3789C75.504 66.7059 76.763 69.9988 79.1582 72.4482C81.5269 74.8705 85.126 76.5898 90.1201 76.5898C103.435 76.5898 110.17 66.7247 114.44 61.4277C111.594 59.5455 108.766 57.7916 106.029 56.2559C99.3199 52.4903 93.5461 50.25 89.5498 50.25Z" fill="#272A2E"/>
</svg>
