<svg width="180" height="180" viewBox="0 0 180 180" fill="none" xmlns="http://www.w3.org/2000/svg">
<path d="M79.4043 138.534C80.5419 138.534 81.5139 138.7 82.3203 139.031C83.1267 139.362 83.7387 139.845 84.1562 140.479C84.5882 141.098 84.8047 141.846 84.8047 142.725C84.8047 143.301 84.6965 143.834 84.4805 144.323C84.2645 144.813 83.9479 145.223 83.5303 145.555C83.2555 145.763 82.9485 145.932 82.6113 146.065C83.3589 146.276 83.9612 146.658 84.416 147.218C84.9919 147.895 85.2793 148.744 85.2793 149.767C85.2793 150.688 85.0416 151.487 84.5664 152.164C84.0912 152.841 83.4073 153.359 82.5146 153.719C81.6219 154.064 80.5566 154.237 79.3184 154.237C78.5841 154.237 77.8495 154.165 77.1152 154.021C76.3808 153.877 75.7467 153.676 75.2139 153.417C74.7531 153.201 74.4294 152.934 74.2422 152.617C74.0695 152.3 73.9976 151.977 74.0264 151.646C74.0552 151.314 74.1705 151.019 74.3721 150.76C74.588 150.501 74.8613 150.328 75.1924 150.241C75.5379 150.14 75.9266 150.184 76.3584 150.371C76.8912 150.601 77.3817 150.76 77.8281 150.847C78.2744 150.933 78.7208 150.976 79.167 150.976C79.6853 150.976 80.1173 150.918 80.4629 150.803C80.8082 150.688 81.0675 150.515 81.2402 150.285C81.413 150.04 81.4999 149.738 81.5 149.378C81.5 148.874 81.3197 148.507 80.96 148.276C80.6144 148.032 80.1026 147.909 79.4258 147.909H78.2598C77.7126 147.909 77.2948 147.772 77.0068 147.498C76.719 147.224 76.5752 146.836 76.5752 146.332C76.5752 145.828 76.719 145.44 77.0068 145.166C77.2948 144.892 77.7126 144.755 78.2598 144.755H79.0371C79.4547 144.755 79.8077 144.697 80.0957 144.582C80.398 144.467 80.6287 144.302 80.7871 144.086C80.9455 143.856 81.0244 143.574 81.0244 143.243C81.0244 142.768 80.8515 142.408 80.5059 142.163C80.1747 141.918 79.6779 141.796 79.0156 141.796C78.6124 141.796 78.2018 141.839 77.7842 141.926C77.3667 142.012 76.9203 142.163 76.4453 142.379C76.0709 142.537 75.725 142.574 75.4082 142.487C75.1059 142.401 74.8539 142.235 74.6523 141.99C74.4653 141.731 74.3499 141.451 74.3066 141.148C74.2634 140.832 74.314 140.521 74.458 140.219C74.6021 139.917 74.8763 139.664 75.2793 139.463C75.8839 139.161 76.5389 138.931 77.2441 138.772C77.9641 138.614 78.6843 138.534 79.4043 138.534Z" fill="#272A2E"/>
<path d="M105.057 138.772C105.589 138.772 105.993 138.909 106.267 139.183C106.554 139.456 106.698 139.859 106.698 140.392C106.698 140.91 106.555 141.314 106.267 141.602C105.993 141.875 105.589 142.012 105.057 142.012H101.666V152.186C101.666 152.819 101.5 153.316 101.169 153.676C100.838 154.021 100.341 154.194 99.6787 154.194C99.0452 154.194 98.5556 154.021 98.21 153.676C97.8644 153.316 97.6914 152.819 97.6914 152.186V142.012H94.2998C93.7671 142.012 93.3563 141.875 93.0684 141.602C92.7949 141.314 92.6582 140.91 92.6582 140.392C92.6583 139.859 92.795 139.456 93.0684 139.183C93.3563 138.909 93.7671 138.772 94.2998 138.772H105.057Z" fill="#272A2E"/>
<path fill-rule="evenodd" clip-rule="evenodd" d="M121.809 138.772C123.537 138.772 124.869 139.197 125.805 140.047C126.755 140.882 127.23 142.048 127.23 143.546C127.23 144.511 127.014 145.353 126.582 146.073C126.164 146.779 125.552 147.326 124.746 147.715C124.494 147.834 124.221 147.931 123.931 148.013C124.19 148.088 124.434 148.197 124.66 148.341C125.135 148.629 125.531 149.075 125.848 149.68L126.928 151.624C127.158 152.042 127.266 152.452 127.252 152.855C127.237 153.244 127.079 153.568 126.776 153.827C126.488 154.072 126.063 154.194 125.502 154.194C124.941 154.194 124.48 154.079 124.12 153.849C123.775 153.618 123.465 153.258 123.191 152.769L121.226 149.161C121.053 148.845 120.829 148.629 120.556 148.514C120.297 148.384 119.994 148.319 119.648 148.319H118.461V152.186C118.461 152.819 118.295 153.316 117.964 153.676C117.633 154.021 117.136 154.194 116.474 154.194C115.84 154.194 115.35 154.021 115.005 153.676C114.659 153.316 114.486 152.819 114.486 152.186V140.781C114.486 140.133 114.659 139.636 115.005 139.29C115.365 138.945 115.862 138.772 116.495 138.772H121.809ZM118.461 145.511H121.096C121.859 145.511 122.443 145.36 122.846 145.058C123.249 144.755 123.45 144.287 123.45 143.653C123.45 143.049 123.249 142.595 122.846 142.293C122.443 141.976 121.859 141.817 121.096 141.817H118.461V145.511Z" fill="#272A2E"/>
<path fill-rule="evenodd" clip-rule="evenodd" d="M60.3721 138.772C61.4663 138.773 62.3951 138.937 63.1582 139.269C63.9358 139.585 64.5265 140.039 64.9297 140.63C65.3327 141.22 65.5342 141.911 65.5342 142.703C65.5342 143.596 65.2752 144.36 64.7568 144.993C64.3733 145.475 63.8806 145.839 63.2803 146.088C64.0314 146.312 64.6318 146.679 65.0801 147.196C65.656 147.844 65.9443 148.672 65.9443 149.68C65.9443 151.019 65.4619 152.078 64.4971 152.855C63.5467 153.619 62.2436 154 60.5879 154H55.1016C54.4248 154 53.9059 153.827 53.5459 153.481C53.2004 153.121 53.0274 152.61 53.0273 151.948V140.824C53.0273 140.162 53.2003 139.657 53.5459 139.312C53.9059 138.952 54.4249 138.772 55.1016 138.772H60.3721ZM56.8291 151.084H60.0479C60.7821 151.084 61.3153 150.947 61.6465 150.674C61.9919 150.386 62.164 149.961 62.1641 149.399C62.1641 148.838 61.9919 148.42 61.6465 148.146C61.3153 147.873 60.7821 147.736 60.0479 147.736H56.8291V151.084ZM56.8291 144.82H59.6592C60.3787 144.82 60.9042 144.691 61.2354 144.432C61.581 144.172 61.7539 143.776 61.7539 143.243C61.7539 142.71 61.5809 142.322 61.2354 142.077C60.9042 141.818 60.379 141.689 59.6592 141.688H56.8291V144.82Z" fill="#272A2E"/>
<path d="M140 27C145.523 27 150 31.4772 150 37V137.75C150 142.859 145.859 147 140.75 147C139.645 147 138.75 146.105 138.75 145C138.75 143.895 139.645 143 140.75 143C143.649 143 146 140.649 146 137.75V37C146 33.6863 143.314 31 140 31H40C36.6863 31 34 33.6863 34 37V137.75C34 140.559 36.2057 142.852 38.9795 142.993L39.25 143L39.4541 143.011C40.4628 143.113 41.25 143.964 41.25 145C41.25 146.036 40.4628 146.887 39.4541 146.989L39.25 147L38.7744 146.988C33.8868 146.741 30 142.699 30 137.75V37C30 31.4772 34.4772 27 40 27H140Z" fill="#272A2E"/>
<path fill-rule="evenodd" clip-rule="evenodd" d="M96.7393 49.0156C100.921 48.8408 104.905 50.1159 107.904 52.6934L108.212 52.9648C111.346 55.8065 113.096 59.7784 113.182 64.126L113.183 64.7637C113.147 67.0213 112.67 69.3363 111.804 71.6807C114.677 71.8486 117.36 72.5732 119.729 73.8877L119.73 73.8887C125.403 77.0419 128.41 83.132 127.955 89.9629C127.559 95.9487 124.559 102.172 119.707 107.612L119.231 108.136C114.126 113.674 107.136 119.896 97.6953 122.467L97.6963 122.468C97.2008 122.603 96.4948 122.75 95.8008 122.854C95.1525 122.951 94.3122 123.042 93.6309 122.978C91.2452 122.754 89.3248 121.715 88.0625 120.089C87.0507 118.785 86.5415 117.21 86.4688 115.597C85.8913 115.608 85.3291 115.596 84.791 115.554C83.5796 115.458 82.3586 115.207 81.3369 114.667C80.3605 114.151 79.9875 112.94 80.5039 111.964C80.9881 111.048 82.082 110.664 83.0215 111.045L83.207 111.131L83.3506 111.2C83.7165 111.359 84.2915 111.502 85.1064 111.566C85.6816 111.612 86.329 111.613 87.0322 111.572C88.0039 108.245 90.089 105.05 92.4834 102.87C94.0399 101.453 95.8898 100.316 97.8467 99.9482C99.9075 99.5614 102.011 100.058 103.688 101.767C104.7 102.796 105.326 104.039 105.317 105.438C105.309 106.796 104.703 107.966 103.938 108.896C102.448 110.704 99.9049 112.16 97.2842 113.223C95.1353 114.094 92.7497 114.775 90.46 115.181C90.4574 116.173 90.7429 117.019 91.2227 117.637C91.7425 118.306 92.6088 118.865 94.0039 118.996H94.0068C94.1679 119.011 94.5963 118.99 95.209 118.898C95.7766 118.813 96.3252 118.695 96.6436 118.608C104.996 116.334 111.359 110.773 116.291 105.424L116.726 104.945C121.149 99.9847 123.641 94.5696 123.964 89.6973L123.99 89.1865C124.178 83.9432 121.82 79.6268 117.787 77.3848C115.356 76.0351 112.346 75.4321 108.901 75.7041L105.37 75.9834L106.956 72.8154C108.524 69.6837 109.236 66.7993 109.182 64.21V64.207C109.117 60.9085 107.807 57.9962 105.522 55.9258L105.298 55.7275C103.144 53.8764 100.18 52.8759 96.9062 53.0127C94.0018 53.1336 91.104 54.1285 88.7812 55.7998L88.7822 55.8008C85.1833 58.3933 82.4621 62.4585 80.5889 68.5039C79.2979 72.6685 77.0049 80.0638 75.0156 86.4756L73.6279 90.9492L71.3564 86.8525C69.0867 82.7579 65.9191 77.3993 61.5176 70.4404C60.654 69.0753 58.8087 68.6395 57.3955 69.5078C55.9972 70.3669 55.5933 72.1453 56.4434 73.4902C67.8043 91.439 70.5653 98.2291 71.1182 99.7969L71.2012 100.042L71.2295 100.132L71.249 100.224C71.5177 101.45 72.574 102.353 74.001 102.422H74.2441C75.4545 102.37 76.5801 101.507 76.9717 100.253C76.9725 100.25 76.974 100.246 76.9756 100.241C76.9788 100.231 76.984 100.216 76.9902 100.195C77.003 100.154 77.022 100.092 77.0469 100.012C77.0967 99.8511 77.1704 99.6145 77.2646 99.3105C77.4533 98.7022 77.7254 97.8236 78.0605 96.7432C78.7308 94.582 79.6518 91.6123 80.6543 88.3799C82.659 81.9157 84.9896 74.3991 86.2949 70.1875L86.5576 69.374C87.9001 65.3709 89.7363 62.3373 92.3223 60.4805C93.68 59.5046 95.3235 58.9587 96.8662 58.8408C98.3568 58.7269 100.096 58.9957 101.365 60.0889L101.595 60.2988C102.7 61.3687 103.203 62.7888 103.234 64.3252C103.279 66.4947 102.387 68.9767 100.978 71.4414C98.9162 75.0469 95.5439 78.9838 91.0693 83.1543C89.9476 84.2034 89.8392 85.9091 90.8057 87.0801L90.999 87.292C92.0086 88.295 93.6351 88.4627 94.8438 87.6328C99.4502 84.4675 103.454 82.6754 106.769 81.9023C110.041 81.1393 112.849 81.3285 114.847 82.4404H114.849C117.921 84.1542 118.148 87.4919 118.027 89.3242C117.759 93.3554 115.445 97.6785 111.871 101.554C111.122 102.366 109.857 102.417 109.045 101.668C108.233 100.919 108.183 99.6536 108.932 98.8418L109.52 98.1846C112.372 94.8988 113.863 91.6632 114.036 89.0596C114.136 87.5403 113.806 86.4399 112.9 85.9346C112.099 85.4889 110.421 85.158 107.677 85.7979C104.974 86.4282 101.427 87.9632 97.1084 90.9307C94.1204 92.9822 90.0359 92.4206 87.7256 89.6328L87.7246 89.6309C85.3982 86.817 85.684 82.7154 88.3379 80.2334L88.3408 80.2314C92.6695 76.1971 95.7229 72.5722 97.5049 69.4551L97.7324 69.0479C98.751 67.1746 99.196 65.6678 99.2334 64.624L99.2354 64.4072C99.2224 63.7678 99.0532 63.4243 98.8457 63.2061L98.7549 63.1201C98.5988 62.9857 98.0899 62.7589 97.1709 62.8291C96.3041 62.8954 95.3753 63.2134 94.6572 63.7295C92.9174 64.9784 91.3648 67.3348 90.1172 71.3691L90.1162 71.3701C88.8108 75.5819 86.4795 83.1005 84.4746 89.5654C83.4722 92.7977 82.5511 95.7667 81.8809 97.9277C81.5458 99.0081 81.2737 99.8867 81.085 100.495C80.9906 100.799 80.917 101.037 80.8672 101.197C80.8423 101.277 80.8233 101.339 80.8105 101.38C80.8042 101.4 80.7991 101.416 80.7959 101.427L80.791 101.441L80.79 101.446C79.8975 104.303 77.2307 106.435 74.1133 106.425L73.8096 106.417C70.7653 106.271 68.1089 104.268 67.375 101.22C67.146 100.534 64.9991 94.6519 54.167 77.3799L53.0645 75.6299C51.0061 72.3761 52.0282 68.1109 55.3018 66.0996C58.5606 64.0975 62.8518 65.0685 64.8975 68.3018C68.0219 73.2415 70.5371 77.3972 72.5615 80.8818C74.16 75.7285 75.7668 70.5521 76.7686 67.3203L76.9629 66.7061C79.012 60.4072 82.0827 55.6966 86.4443 52.5547L86.4453 52.5537C89.411 50.4198 93.0645 49.1687 96.7393 49.0156ZM100.834 104.569C100.175 103.898 99.4579 103.716 98.585 103.88C97.6084 104.063 96.4106 104.705 95.1768 105.828C93.7074 107.166 92.4191 108.973 91.5596 110.865C92.9991 110.517 94.4449 110.058 95.7812 109.516C98.2068 108.532 99.9995 107.385 100.849 106.354C101.252 105.864 101.316 105.555 101.317 105.413C101.318 105.326 101.3 105.104 100.987 104.736L100.834 104.569Z" fill="#272A2E"/>
</svg>
