<svg width="180" height="180" viewBox="0 0 180 180" fill="none" xmlns="http://www.w3.org/2000/svg">
<path d="M107.2 26.4905C113.851 26.2107 120.141 28.2 124.95 32.2005L125.411 32.5941L125.412 32.595C130.8 37.3235 133.83 44.0715 133.976 51.5228C134.066 56.1164 133.073 60.9085 131.083 65.8108C136.465 65.882 141.451 67.1239 145.761 69.5677C154.975 74.7947 159.891 84.884 159.142 96.3001C158.463 106.662 153.22 117.58 144.61 127.098C135.234 137.472 121.817 146.32 105.875 152.759L105.87 152.761C104.563 153.286 103.21 153.535 101.876 153.535C97.6315 153.535 93.6276 150.991 91.9406 146.814L91.9367 146.805C89.7478 141.318 92.3841 135.052 97.8693 132.84L99.092 132.337C111.655 127.092 121.865 120.288 128.751 112.667C134.364 106.459 137.433 100.12 137.775 94.8831C137.953 92.1323 137.407 89.5081 135.218 88.263C133.503 87.2925 130.32 86.7618 125.495 87.9085C120.714 89.0451 114.538 91.785 107.097 97.0003L107.096 97.0013C102.49 100.224 96.2054 99.3253 92.6701 94.9759L92.6662 94.972C89.1347 90.6069 89.5496 84.2573 93.6105 80.3948L93.6125 80.3939C101.031 73.3494 106.328 66.9434 109.455 61.3724L109.456 61.3714C111.648 57.4728 112.613 54.2237 112.569 51.9319C112.54 50.4641 112.106 49.5168 111.454 48.8802L111.321 48.7571C110.725 48.2348 109.499 47.8308 107.773 47.9642C106.102 48.0932 104.314 48.7104 102.905 49.7444L102.903 49.7454C99.6331 52.1404 96.8767 56.5392 94.715 63.6683L94.7141 63.6702C92.4879 70.987 88.516 84.0527 85.1008 95.2894C83.3933 100.907 81.8253 106.068 80.6838 109.825C80.1131 111.703 79.6487 113.23 79.3273 114.287C79.1667 114.816 79.0411 115.228 78.9562 115.507C78.9139 115.646 78.8823 115.753 78.8605 115.825C78.8497 115.86 78.8407 115.887 78.8352 115.906C78.8324 115.915 78.8307 115.922 78.8293 115.926C78.8287 115.928 78.8277 115.93 78.8273 115.931V115.934C77.4265 120.535 73.1101 123.954 68.1223 123.704C62.9823 123.463 60.1025 119.58 58.3703 115.882L58.3684 115.879C58.3892 115.924 58.3895 115.917 58.2883 115.746C58.2124 115.619 58.0827 115.403 57.9377 115.156C57.6343 114.639 57.2155 113.903 56.675 112.862C55.5963 110.782 54.0423 107.505 51.9455 102.332C51.4857 101.198 52.0328 99.9057 53.1672 99.4456C54.231 99.0143 55.4341 99.4677 55.9592 100.461L56.0549 100.667L56.8068 102.498C60.4264 111.192 61.9599 113.089 62.3869 114.004C63.8844 117.2 65.65 119.038 68.092 119.26L68.3312 119.276L68.3391 119.277C71.1023 119.417 73.7171 117.494 74.5852 114.643C74.5855 114.642 74.5865 114.639 74.5871 114.637C74.5885 114.632 74.5902 114.625 74.593 114.617C74.5985 114.598 74.6075 114.571 74.6184 114.535C74.6401 114.464 74.6717 114.357 74.7141 114.218C74.7989 113.939 74.9245 113.527 75.0852 112.998C75.4065 111.941 75.8709 110.414 76.4416 108.535C77.5831 104.779 79.1511 99.6183 80.8586 94.0003C84.2738 82.7637 88.2455 69.6967 90.4719 62.3792C92.7543 54.8529 95.8916 49.3861 100.28 46.1702C102.403 44.6117 104.996 43.7314 107.431 43.5433C109.81 43.3595 112.413 43.8181 114.244 45.4232L114.245 45.4241C116.089 47.0421 116.952 49.2994 117.001 51.847L117.003 52.1702C116.98 55.5306 115.61 59.4729 113.321 63.5442C109.891 69.6517 104.251 76.4058 96.6652 83.6087C94.2825 85.8761 94.0352 89.6098 96.1105 92.179L96.3098 92.4124C98.4145 94.7624 101.944 95.1938 104.552 93.3704C112.312 87.9312 118.999 84.8945 124.47 83.5941C129.894 82.3047 134.354 82.6755 137.407 84.4066L137.41 84.4085C141.982 87.0089 142.399 92.1064 142.199 95.1712C141.769 101.771 138.028 109.018 132.041 115.64C124.366 124.133 113.092 131.464 99.5324 136.95L99.5295 136.951C96.335 138.239 94.764 141.912 96.0519 145.154L96.1486 145.381C97.1909 147.703 99.4691 149.102 101.876 149.102C102.653 149.102 103.443 148.957 104.214 148.648C119.684 142.399 132.492 133.894 141.321 124.125C149.448 115.14 154.12 105.128 154.718 96.0101C155.361 86.2099 151.245 77.9631 143.925 73.6282L143.574 73.4251C139.2 70.9448 133.834 69.8663 127.785 70.3567L123.894 70.6722L125.617 67.1683C128.359 61.5936 129.637 56.373 129.543 51.6107C129.421 45.3348 126.887 39.7891 122.488 35.928C118.559 32.4848 113.221 30.674 107.384 30.9202H107.381C102.211 31.1308 97.064 32.9362 92.9123 35.9847C86.5069 40.6941 81.745 48.0237 78.4963 58.7122C76.2975 65.9468 72.3888 78.8007 69.0002 89.9437L67.5686 94.6497L64.2971 89.3333L64.2082 89.1878L64.1418 89.0306C59.4932 77.9646 52.1571 65.2577 45.8146 59.4437L45.593 59.2523C44.4578 58.3409 42.9961 58.072 41.593 58.3616C40.0629 58.6776 38.864 59.6007 38.3586 60.7073L38.2795 60.8812L38.1711 61.0394C37.7265 61.6884 37.3124 62.7443 37.0246 64.2347C36.8155 65.3176 36.6867 66.5573 36.6398 67.9095C39.8601 69.1122 42.9455 71.0397 45.5383 73.2991C48.8423 76.1783 51.5599 79.7763 52.6828 83.4095C53.2504 85.246 53.4361 87.1806 52.9836 89.0501C52.5232 90.9524 51.436 92.6375 49.7209 93.972C48.05 95.2721 46.2243 95.9385 44.3303 95.7591C42.4686 95.5826 40.8961 94.6225 39.632 93.3773C37.1647 90.9467 35.3547 86.9334 34.1477 82.7405C33.0933 79.0779 32.4306 75.031 32.2424 71.2552C29.1897 70.6804 26.4862 71.1545 24.4035 72.8577C23.4558 73.6328 22.0595 73.4929 21.2844 72.5452C20.5093 71.5975 20.6492 70.2012 21.5969 69.4261C24.7401 66.8555 28.5498 66.2344 32.259 66.764C32.3339 65.5825 32.4673 64.4494 32.6711 63.3939C33.0051 61.6643 33.5469 60.0116 34.4084 58.6898C35.6361 56.1696 38.1066 54.5546 40.6955 54.0198C43.3773 53.466 46.4479 54.0131 48.8078 56.1722L48.8098 56.1741C55.0327 61.8781 61.6943 72.9739 66.4152 83.2015C69.3534 73.5398 72.4074 63.4994 74.2541 57.4232C77.6879 46.1258 82.8866 37.8521 90.2873 32.4114L90.2883 32.4105C95.1518 28.8394 101.149 26.737 107.2 26.4905ZM36.7932 72.7864C37.0552 75.701 37.6084 78.735 38.4084 81.514C39.5488 85.4755 41.0983 88.5965 42.7443 90.2181C43.5368 90.9986 44.2098 91.2939 44.7492 91.345C45.2564 91.393 45.9883 91.2587 46.9982 90.473C47.9645 89.7211 48.4619 88.8837 48.674 88.0071C48.8941 87.0979 48.8412 85.9962 48.4465 84.7191C47.6448 82.125 45.5418 79.1835 42.6252 76.6419C40.8474 75.0927 38.845 73.7637 36.7932 72.7864Z" fill="#272A2E"/>
</svg>
