<svg width="180" height="180" viewBox="0 0 180 180" fill="none" xmlns="http://www.w3.org/2000/svg">
<path fill-rule="evenodd" clip-rule="evenodd" d="M90.3145 22.75C95.4561 22.75 99.6248 26.918 99.625 32.0596C99.625 36.0679 97.0909 39.4832 93.5381 40.7949C93.796 40.9009 94.0499 41.02 94.2988 41.1523L94.5469 41.2891L94.5498 41.291L130.53 62.0615C130.839 62.2395 131.133 62.4365 131.413 62.6484C131.317 62.1133 131.265 61.5627 131.265 61C131.265 55.8586 135.433 51.6908 140.574 51.6904C145.716 51.6904 149.885 55.8584 149.885 61C149.884 66.1415 145.716 70.3105 140.574 70.3105C138.342 70.3104 136.293 69.5232 134.689 68.2129C134.745 68.6063 134.775 69.0061 134.775 69.4102V110.95C134.775 111.354 134.744 111.753 134.688 112.146C136.292 110.836 138.342 110.05 140.574 110.05C145.716 110.05 149.884 114.218 149.885 119.359C149.885 124.501 145.716 128.67 140.574 128.67C135.433 128.67 131.265 124.501 131.265 119.359C131.265 118.796 131.317 118.245 131.413 117.71C131.133 117.922 130.838 118.119 130.529 118.297L130.53 118.298L112.81 128.528C111.734 129.149 110.358 128.781 109.736 127.705C109.115 126.629 109.484 125.252 110.56 124.631L128.28 114.401L128.283 114.399C129.513 113.692 130.275 112.377 130.275 110.95V69.4102C130.275 67.9836 129.514 66.6676 128.283 65.96L128.28 65.958L92.3027 45.1904L92.0684 45.0654C90.8783 44.4825 89.4649 44.5243 88.3066 45.1904L52.3301 65.958L52.3271 65.96C51.0968 66.6676 50.335 67.9836 50.335 69.4102V110.95C50.3351 112.287 51.0043 113.527 52.1016 114.26L52.3271 114.399L52.3301 114.401L88.3066 135.169C89.5421 135.879 91.0673 135.879 92.3027 135.169C93.3798 134.55 94.7554 134.921 95.375 135.998C95.9945 137.075 95.6239 138.451 94.5469 139.07C94.2198 139.258 93.8828 139.422 93.5391 139.563C97.0916 140.875 99.6248 144.292 99.625 148.3C99.6249 153.441 95.4561 157.61 90.3145 157.61C85.173 157.61 81.005 153.441 81.0049 148.3C81.0051 144.296 83.5331 140.882 87.0801 139.567C86.7333 139.425 86.3934 139.26 86.0635 139.07L86.0605 139.068L50.0801 118.299C49.7754 118.123 49.4846 117.929 49.208 117.721C49.3026 118.253 49.3554 118.8 49.3555 119.359C49.3555 124.501 45.1865 128.67 40.0449 128.67C34.9033 128.67 30.7344 124.501 30.7344 119.359C30.7347 114.218 34.9035 110.05 40.0449 110.05C42.272 110.05 44.3157 110.833 45.918 112.138C45.8629 111.748 45.835 111.351 45.835 110.95V69.4102C45.835 69.0088 45.8637 68.6116 45.9189 68.2207C44.3165 69.5259 42.2726 70.3104 40.0449 70.3105C34.9035 70.3103 30.7346 66.1414 30.7344 61C30.7346 55.8586 34.9035 51.6907 40.0449 51.6904C45.1863 51.6907 49.3552 55.8586 49.3555 61C49.3554 61.5593 49.3026 62.1065 49.208 62.6387C49.4855 62.4295 49.7772 62.2354 50.083 62.0596L86.0605 41.291L86.0635 41.2891C86.3937 41.0992 86.734 40.9341 87.0811 40.792C83.5336 39.4776 81.0049 36.0641 81.0049 32.0596C81.0051 26.9181 85.173 22.7502 90.3145 22.75ZM90.3145 143.49C87.6583 143.49 85.5051 145.644 85.5049 148.3C85.505 150.956 87.6582 153.11 90.3145 153.11C92.9709 153.11 95.1249 150.956 95.125 148.3C95.1248 145.644 92.9708 143.49 90.3145 143.49ZM40.0449 114.55C37.3888 114.55 35.2357 116.703 35.2354 119.359C35.2354 122.016 37.3886 124.17 40.0449 124.17C42.7012 124.17 44.8555 122.016 44.8555 119.359C44.8552 116.703 42.701 114.55 40.0449 114.55ZM140.574 114.55C137.918 114.55 135.765 116.703 135.765 119.359C135.765 122.016 137.918 124.17 140.574 124.17C143.231 124.17 145.385 122.016 145.385 119.359C145.384 116.703 143.231 114.55 140.574 114.55ZM40.0449 56.1904C37.3888 56.1907 35.2356 58.3439 35.2354 61C35.2356 63.6561 37.3888 65.8103 40.0449 65.8105C42.701 65.8103 44.8552 63.6561 44.8555 61C44.8552 58.3439 42.701 56.1907 40.0449 56.1904ZM140.574 56.1904C137.918 56.1908 135.765 58.3439 135.765 61C135.765 63.6561 137.918 65.8102 140.574 65.8105C143.231 65.8105 145.384 63.6563 145.385 61C145.385 58.3437 143.231 56.1904 140.574 56.1904ZM90.3145 27.25C87.6583 27.2502 85.5051 29.4034 85.5049 32.0596C85.5049 34.7159 87.6582 36.8699 90.3145 36.8701C92.9709 36.8701 95.125 34.7161 95.125 32.0596C95.1248 29.4033 92.9708 27.25 90.3145 27.25Z" fill="#272A2E"/>
<path d="M92.8428 67.1621C99.2774 66.023 104.002 71.0484 102.479 77.4492C102.026 79.3509 101.142 81.1505 100.406 83.1309C100.823 83.0956 101.238 83.0603 101.653 83.0244C104.589 82.7706 107.449 82.9586 109.808 84.9805C112.842 87.5811 113.487 91.0069 112.684 94.7207C111.472 100.323 107.934 104.379 103.571 107.81C100.433 110.277 96.9578 112.171 93.2764 113.692C91.776 114.312 90.5858 113.983 90.0645 112.818C89.5 111.558 90.1187 110.513 91.6006 109.747C94.3959 108.302 97.1336 106.745 99.9678 105.186C103.297 102.716 106.198 99.9658 107.791 96.1328C108.264 94.995 108.6 93.7304 108.666 92.5059C108.859 88.921 106.66 86.9149 103.054 87.208C100.201 87.4399 97.6645 88.5738 95.2393 90.002C94.4729 90.4532 93.7427 90.966 92.9951 91.4492C91.8796 92.1703 90.7979 92.0813 90.042 91.208C89.24 90.2814 89.3479 89.189 90.2471 88.1533C92.3153 85.7713 94.4207 83.4155 96.3652 80.9346C97.1449 79.9399 97.6523 78.6845 98.0908 77.4775C98.962 75.08 98.4806 72.9549 96.9912 71.9404C95.4009 70.8573 92.7926 71.0995 90.9697 72.5322C89.0807 74.017 87.993 76.0487 87.3008 78.2852C85.1585 85.2066 83.068 92.1442 80.9502 99.0732C80.7615 99.6905 80.6664 100.427 80.2637 100.864C79.7935 101.374 79.0166 101.919 78.4023 101.887C77.7836 101.854 76.8728 101.26 76.6523 100.693C74.1123 94.1512 70.3143 88.2996 66.7617 82.3125C66.617 82.0686 66.4553 81.8339 66.3223 81.584C65.7106 80.4347 65.9866 79.2428 67.0029 78.6084C68.0017 77.9851 69.2524 78.2725 69.9443 79.3975C71.5355 81.9844 73.0949 84.5916 74.624 87.2158C75.8033 89.2396 76.9174 91.3019 78.1836 93.5684C78.9963 90.8894 79.7029 88.3964 80.5098 85.9365C81.8451 81.8657 83.0185 77.7194 84.6855 73.7861C86.1713 70.2808 88.9465 67.8519 92.8428 67.1621Z" fill="#272A2E"/>
</svg>
