<svg width="180" height="180" viewBox="0 0 180 180" fill="none" xmlns="http://www.w3.org/2000/svg">
<path fill-rule="evenodd" clip-rule="evenodd" d="M77.2704 67.3273C86.4621 55.2198 99.5967 44.7899 115.419 47.7902C123.592 49.34 128.553 54.7266 131.028 61.5275C132.111 64.502 132.726 67.7575 132.955 71.1193C133.41 71.1572 133.866 71.2082 134.323 71.2746C151.243 73.7307 158.894 87.8663 158.561 101.587C158.231 115.229 149.99 129.366 134.37 131.97C119.869 134.387 92.4552 134.374 68.8808 133.781C57.048 133.484 46.1094 133.038 38.1298 132.666C34.1398 132.48 30.8883 132.313 28.6337 132.193C27.5065 132.132 26.628 132.084 26.0312 132.05C25.7328 132.033 25.5042 132.02 25.3505 132.011C25.2739 132.006 25.2158 132.003 25.1767 132.001C25.1574 132 25.1427 131.999 25.1327 131.998C25.1278 131.998 25.1236 131.997 25.121 131.997C25.1198 131.997 25.1187 131.997 25.1181 131.997C25.1174 131.997 25.1177 131.985 25.2499 129.751C25.3757 127.626 25.3829 127.511 25.3837 127.505C25.3843 127.505 25.3856 127.505 25.3867 127.505C25.3889 127.505 25.3922 127.506 25.3964 127.506C25.4058 127.507 25.4205 127.507 25.4394 127.508C25.4776 127.51 25.5354 127.514 25.6113 127.519C25.763 127.527 25.989 127.54 26.2851 127.557C26.8777 127.59 27.7514 127.639 28.874 127.699C31.1193 127.82 34.3604 127.986 38.3388 128.171C46.2966 128.542 57.2021 128.987 68.9941 129.283C92.6694 129.878 119.631 129.864 133.63 127.531C146.509 125.385 153.769 113.648 154.063 101.478C154.356 89.386 147.756 77.7715 133.677 75.7277C133.464 75.6968 133.251 75.6706 133.038 75.6476C132.958 78.4119 132.649 81.1961 132.15 83.9074C130.761 91.4698 127.854 98.7599 124.037 103.811C120.3 108.755 115.04 112.273 109.217 110.11C106.678 109.168 104.7 107.726 103.33 105.857C101.962 103.99 101.294 101.82 101.168 99.5646C100.92 95.1202 102.76 90.2381 105.701 85.9064C110.549 78.7657 119.034 72.2308 128.448 71.1847C128.232 68.2836 127.697 65.5308 126.8 63.0665C124.76 57.4613 120.908 53.411 114.581 52.2111C101.403 49.7122 89.7877 58.2818 80.8544 70.049C71.9768 81.743 66.3939 95.7931 65.2148 102.396C64.9971 103.614 63.8365 104.428 62.6171 104.218C61.3977 104.007 60.577 102.851 60.7802 101.63C60.7808 101.626 60.7826 101.619 60.7841 101.61C60.7874 101.589 60.792 101.554 60.7988 101.508C60.8124 101.415 60.8328 101.271 60.8554 101.085C60.9007 100.712 60.9562 100.171 60.996 99.5197C61.0765 98.2027 61.0864 96.4977 60.8368 94.8341C60.5825 93.1383 60.0898 91.7016 59.33 90.7316C58.6535 89.868 57.6809 89.2501 55.9999 89.2501C51.7727 89.2502 48.1627 90.5683 45.0117 93.2218C41.8153 95.9137 38.9937 100.066 36.5771 105.865C36.0991 107.012 34.7816 107.555 33.6347 107.077C32.4878 106.599 31.9451 105.282 32.4228 104.135C35.0059 97.9353 38.1849 93.0875 42.1132 89.7794C46.0872 86.4329 50.7273 84.7502 55.9999 84.7501C59.0688 84.7501 61.3464 86.0074 62.873 87.9562C63.461 88.7068 63.9175 89.5371 64.2753 90.3947C67.1486 83.2786 71.5783 74.8252 77.2704 67.3273ZM128.534 75.715C120.951 76.7278 113.739 82.0782 109.424 88.4337C106.802 92.2951 105.487 96.2039 105.66 99.3136C105.745 100.835 106.182 102.135 106.961 103.197C107.738 104.258 108.947 105.21 110.783 105.892C113.71 106.979 117.075 105.559 120.447 101.097C123.739 96.7414 126.427 90.1561 127.725 83.0939C128.177 80.6328 128.453 78.1484 128.534 75.715Z" fill="#272A2E"/>
<path d="M25.3837 127.505L25.1181 131.997C23.8778 131.924 22.9307 130.859 23.0038 129.618C23.0773 128.378 24.1433 127.432 25.3837 127.505Z" fill="#272A2E"/>
</svg>
