<svg width="180" height="180" viewBox="0 0 180 180" fill="none" xmlns="http://www.w3.org/2000/svg">
<path fill-rule="evenodd" clip-rule="evenodd" d="M115.269 26.7637C115.843 26.8275 116.374 27.1109 116.748 27.5596L142.438 58.3789C142.997 59.0496 143.118 59.9837 142.748 60.7744C142.378 61.5651 141.583 62.0703 140.71 62.0703H119.81C119.62 62.0703 119.354 62.0709 119.088 62.0576C104.697 61.546 97.285 44.7107 106.102 33.499L107.868 31.25H41.25V149.47H138.46V89.1396H56.54C55.2974 89.1396 54.29 88.1323 54.29 86.8896C54.2902 85.6471 55.2975 84.6396 56.54 84.6396H140.2C140.286 84.6397 140.371 84.6449 140.455 84.6543C140.539 84.6449 140.624 84.6397 140.71 84.6396C141.952 84.6396 142.96 85.6471 142.96 86.8896V151.72C142.96 152.962 141.953 153.97 140.71 153.97H39C37.7574 153.97 36.75 152.962 36.75 151.72V29C36.75 27.7574 37.7574 26.75 39 26.75H115.021L115.269 26.7637ZM109.64 36.2803L109.639 36.2812C103.003 44.72 108.69 57.2057 119.275 57.5615C119.288 57.5619 119.3 57.5619 119.312 57.5625C119.446 57.5692 119.599 57.5703 119.81 57.5703H135.905L113.967 31.25H113.592L109.64 36.2803Z" fill="#272A2E"/>
<path d="M74.4189 108.455C76.3586 107.492 79.2956 107.08 81.584 108.59L81.585 108.589C83.9666 110.153 84.4581 112.973 83.9209 115.093C83.6504 116.16 83.1512 117.068 82.6709 117.812C82.2439 118.475 81.618 119.311 81.2822 119.798L81.2803 119.8L80.6768 120.683C79.3221 122.69 78.3344 124.336 77.6523 125.663C77.1169 126.705 76.8061 127.485 76.6387 128.043C78.08 127.636 80.3052 126.487 82.9297 124.723C85.6286 122.908 88.5437 120.587 91.1211 118.169C91.9375 117.403 93.1926 117.354 94.0664 118.054C94.9399 118.753 95.1661 119.989 94.5977 120.953C93.6384 122.58 92.9519 123.818 92.751 125.06C92.5692 126.184 92.9412 127.171 93.6191 127.667C94.0016 127.944 94.7736 128.102 95.6211 127.875C96.508 127.637 96.7027 127.218 96.7158 127.162C96.9909 125.95 98.1965 125.191 99.4082 125.466C100.62 125.741 101.379 126.946 101.104 128.157C100.577 130.482 98.5346 131.753 96.7881 132.222C95.0008 132.701 92.7379 132.584 90.9805 131.312L90.9766 131.31L90.7568 131.143C89.1943 129.904 88.4402 128.157 88.2568 126.442C87.3091 127.157 86.3653 127.835 85.4395 128.457C82.5968 130.368 79.7213 131.934 77.4717 132.478C76.4314 132.729 74.9167 132.918 73.6348 132.121C72.0781 131.153 71.8571 129.449 72.0215 128.146C72.1859 126.845 72.7703 125.319 73.6504 123.606C74.5503 121.855 75.8451 119.746 77.5801 117.239C78.1331 116.438 78.4772 116.013 78.8896 115.374C79.2489 114.817 79.4591 114.38 79.5586 113.987C79.7612 113.188 79.4725 112.586 79.1143 112.351L79.1084 112.346L79.0088 112.288C78.4777 112.015 77.4316 111.982 76.4209 112.484L76.416 112.487L76.2168 112.591C75.2377 113.129 74.4367 113.981 73.3799 115.146L73.3809 115.146C70.9297 117.864 68.3428 120.63 65.7715 123.377C63.1948 126.13 60.6334 128.865 58.209 131.548C57.3758 132.47 55.9532 132.542 55.0312 131.709C54.1095 130.876 54.038 129.453 54.8711 128.531C57.3266 125.814 59.9156 123.049 62.4863 120.302C65.0623 117.549 67.6205 114.815 70.0391 112.133L70.0439 112.128L70.8867 111.211C71.8015 110.246 72.947 109.183 74.4189 108.455Z" fill="#272A2E"/>
<path d="M101.41 66.9805C102.653 66.9805 103.66 67.9879 103.66 69.2305C103.66 70.4728 102.653 71.4804 101.41 71.4805H56.54C55.2976 71.4805 54.2903 70.4729 54.29 69.2305C54.29 67.9878 55.2974 66.9805 56.54 66.9805H101.41Z" fill="#272A2E"/>
</svg>
