<svg width="180" height="180" viewBox="0 0 180 180" fill="none" xmlns="http://www.w3.org/2000/svg">
<path fill-rule="evenodd" clip-rule="evenodd" d="M76.0117 22.75C77.2544 22.751 78.2607 23.7593 78.2598 25.002C78.2572 28.2036 78.0828 31.1795 77.7607 33.9404C81.8131 33.1161 86.0048 32.6797 90.2998 32.6797C100.264 32.6797 109.697 35.0139 118.062 39.1758C118.071 39.1802 118.08 39.1849 118.089 39.1895C138.687 49.4092 152.846 70.6598 152.85 95.2207L152.845 96.0283C152.412 130.198 124.573 157.771 90.2998 157.771C55.7575 157.77 27.7504 129.763 27.75 95.2207C27.75 88.4623 28.8184 81.9557 30.8115 75.8516L30.8145 75.8418C30.8232 75.8154 30.834 75.7898 30.8438 75.7637L30.8623 75.7119C30.9271 75.5504 31.0104 75.3985 31.1084 75.2588C31.1165 75.2473 31.1235 75.235 31.1318 75.2236C31.1697 75.1717 31.2109 75.1225 31.2529 75.0742C31.2605 75.0655 31.2677 75.0564 31.2754 75.0479C31.3213 74.9967 31.3696 74.948 31.4199 74.9014C31.4216 74.8998 31.4231 74.898 31.4248 74.8965C31.429 74.8926 31.4332 74.8886 31.4375 74.8848C31.4846 74.842 31.5334 74.8013 31.584 74.7627C31.596 74.7535 31.608 74.7443 31.6201 74.7354C31.6684 74.7 31.7185 74.6672 31.7695 74.6357C31.781 74.6287 31.7922 74.6211 31.8037 74.6143C31.8514 74.586 31.9004 74.5599 31.9502 74.5352L31.9854 74.5176C31.994 74.5134 32.003 74.5099 32.0117 74.5059C32.0616 74.483 32.1123 74.4617 32.1641 74.4424C32.1723 74.4393 32.1802 74.4356 32.1885 74.4326L32.2031 74.4277C32.2594 74.4079 32.3168 74.3904 32.375 74.375C32.3928 74.3703 32.4108 74.3666 32.4287 74.3623C32.4427 74.359 32.4566 74.3556 32.4707 74.3525C32.5067 74.3447 32.543 74.3381 32.5791 74.332C32.5909 74.3301 32.6025 74.327 32.6143 74.3252C32.6783 74.3155 32.7425 74.3088 32.8066 74.3047C32.8219 74.3037 32.8372 74.3034 32.8525 74.3027C32.9824 74.2971 33.1117 74.3028 33.2393 74.3193C33.2513 74.3209 33.2634 74.3225 33.2754 74.3242C33.4018 74.3427 33.5263 74.3717 33.6475 74.4111C33.671 74.4188 33.6944 74.4271 33.7178 74.4355C33.7613 74.4513 33.8042 74.4688 33.8467 74.4873C33.8603 74.4932 33.8742 74.4987 33.8877 74.5049C33.9452 74.5312 34.0014 74.5606 34.0566 74.5918C34.0697 74.5992 34.0828 74.6066 34.0957 74.6143C34.2114 74.6827 34.3209 74.7622 34.4238 74.8516C34.4336 74.86 34.4435 74.8683 34.4531 74.877C34.505 74.9236 34.5557 74.9726 34.6035 75.0244C38.6231 79.3805 45.324 83.9826 54.6807 88.0137C56.3903 88.7497 58.3985 88.5599 60.9072 87.5596C63.4406 86.5494 66.0608 84.8911 68.8857 83.166C71.5822 81.5194 74.5389 79.7632 77.3906 79.0029C78.8559 78.6123 80.4089 78.4496 81.9668 78.7568C83.5548 79.07 85.0108 79.8454 86.2871 81.1152C86.491 81.3181 86.6487 81.5511 86.7588 81.8008C86.8138 81.9255 86.8573 82.0543 86.8887 82.1855C86.92 82.3168 86.9388 82.4506 86.9463 82.585C86.9762 83.1221 86.8148 83.6699 86.4551 84.1182C85.342 85.5053 84.4575 86.7622 83.7676 87.9014C82.62 89.7965 82.0139 91.3663 81.7871 92.667C81.7413 92.9296 81.7083 93.1807 81.6924 93.4219C81.6829 93.5655 81.6783 93.7055 81.6787 93.8418C81.6838 95.5618 82.4673 97.0953 84.3613 98.6113C84.6123 98.8122 84.8831 99.0122 85.1738 99.2129L85.2305 99.2529L85.2334 99.2549C89.1762 101.961 92.7934 105.517 95.1631 109.859C95.9335 111.267 96.4723 113.384 96.9326 115.513C97.3921 117.638 97.8913 120.388 98.3945 122.809C98.6465 124.021 98.9129 125.217 99.2012 126.367C99.5173 127.627 99.8602 128.831 100.243 129.938C100.425 130.465 100.612 130.956 100.803 131.409C101.299 132.592 101.821 133.523 102.363 134.19C102.466 134.317 102.57 134.435 102.675 134.543L102.678 134.546C102.788 134.66 102.9 134.768 103.012 134.87C104.141 135.9 105.366 136.352 106.45 136.44C106.983 136.484 107.482 136.44 107.919 136.331C108.641 136.15 109.103 135.822 109.329 135.543C109.519 135.308 109.571 135.093 109.507 134.813V134.812C109.487 134.725 109.47 134.636 109.45 134.547L109.344 134.054C109.241 133.543 109.145 133 109.057 132.431C109.034 132.286 109.014 132.139 108.992 131.99C108.973 131.86 108.953 131.728 108.935 131.595C108.917 131.462 108.901 131.328 108.884 131.192C108.86 131.005 108.835 130.816 108.813 130.624C108.803 130.531 108.793 130.436 108.783 130.342C108.763 130.159 108.744 129.974 108.726 129.788C108.709 129.614 108.694 129.439 108.679 129.262C108.665 129.101 108.65 128.939 108.638 128.775C108.628 128.644 108.619 128.512 108.609 128.38C108.595 128.173 108.581 127.964 108.568 127.754C108.561 127.619 108.554 127.484 108.547 127.348C108.538 127.164 108.53 126.978 108.522 126.792C108.515 126.606 108.508 126.42 108.502 126.232C108.497 126.055 108.493 125.876 108.489 125.696C108.486 125.541 108.482 125.386 108.48 125.229C108.478 125.052 108.478 124.875 108.478 124.696C108.477 124.503 108.477 124.308 108.479 124.113C108.48 123.961 108.483 123.809 108.485 123.656C108.488 123.469 108.491 123.28 108.496 123.092C108.501 122.92 108.507 122.747 108.514 122.574C108.521 122.377 108.529 122.18 108.538 121.982C108.546 121.811 108.557 121.64 108.567 121.468C108.579 121.271 108.589 121.074 108.603 120.877C108.608 120.803 108.615 120.73 108.62 120.656C108.668 120.014 108.727 119.37 108.801 118.728C109.489 112.762 111.417 106.34 115.893 102.443C120.284 98.6191 124.514 95.5941 127.677 91.4209C129.736 88.6944 130.757 85.3378 130.421 82.3828C130.267 81.0322 129.831 79.7653 129.08 78.6807C128.898 78.4174 128.708 78.1672 128.512 77.9307C128.316 77.6941 128.113 77.4706 127.904 77.2598C127.625 76.9786 127.336 76.7192 127.034 76.4814C125.98 75.6496 124.789 75.0758 123.481 74.7051C123.259 74.6419 123.032 74.5868 122.803 74.5352C122.262 74.4135 121.704 74.3217 121.128 74.2588C117.753 73.8901 113.917 74.4907 110.048 75.3564C106.371 76.179 102.385 77.3241 99.4268 77.7285C97.9262 77.9337 96.338 78.0113 94.9541 77.624C94.6694 77.5443 94.3933 77.4426 94.1279 77.3213C94.104 77.3103 94.0804 77.2984 94.0566 77.2871C93.994 77.2573 93.9314 77.2275 93.8701 77.1953C93.8385 77.1787 93.8076 77.1608 93.7764 77.1436C93.7223 77.1137 93.6691 77.0826 93.6162 77.0508C93.5917 77.036 93.5672 77.0211 93.543 77.0059C93.4836 76.9686 93.4249 76.9304 93.3672 76.8906C93.3443 76.8748 93.3215 76.859 93.2988 76.8428C93.2449 76.8042 93.1919 76.7645 93.1396 76.7236C93.1127 76.7025 93.0861 76.6809 93.0596 76.6592C93.0107 76.6191 92.9624 76.5783 92.915 76.5361C92.8904 76.5142 92.866 76.4922 92.8418 76.4697C92.7952 76.4264 92.75 76.3815 92.7051 76.3359C92.6786 76.3091 92.6519 76.2825 92.626 76.2549C92.5848 76.211 92.5445 76.166 92.5049 76.1201C92.479 76.0901 92.453 76.0601 92.4277 76.0293C92.3918 75.9855 92.3577 75.94 92.3232 75.8945C92.2994 75.8631 92.2751 75.832 92.252 75.7998C92.2101 75.7414 92.1703 75.6812 92.1309 75.6201C92.1156 75.5965 92.0989 75.5738 92.084 75.5498C92.0479 75.4917 92.0144 75.4316 91.9805 75.3711C91.9624 75.3389 91.9432 75.3073 91.9258 75.2744C91.8889 75.2048 91.8543 75.1332 91.8203 75.0605C91.8098 75.0381 91.7983 75.0159 91.7881 74.9932C91.7445 74.8962 91.7033 74.7967 91.665 74.6943L91.5557 74.3682L91.5547 74.3672C91.0485 72.6798 91.5025 71.0117 92.1846 69.626C92.8763 68.2207 93.9484 66.8032 95.166 65.4307C95.4704 65.0875 95.7897 64.7405 96.1221 64.3906C96.4545 64.0407 96.8002 63.6882 97.1562 63.333C99.2917 61.2025 101.813 58.9903 104.25 56.8506C107.568 53.9372 110.738 51.1517 112.964 48.6553C114.076 47.4074 114.86 46.3325 115.306 45.4424C115.363 45.3282 115.412 45.2216 115.455 45.1221C115.752 44.4281 115.72 44.0796 115.685 43.9521C115.628 43.7573 115.564 43.5582 115.496 43.3555C115.439 43.1861 115.378 43.0137 115.312 42.8398C107.744 39.2101 99.2594 37.1797 90.2998 37.1797C85.7283 37.1797 81.2853 37.7103 77.0195 38.707C73.841 54.8875 65.0843 62.3518 57.0977 63.9033C52.3818 64.8194 47.5247 63.6146 45.3662 60.1279C44.2429 58.3133 44.0455 56.1269 44.834 53.9072C45.5998 51.7515 47.2629 49.6235 49.7617 47.5938C56.1732 42.3844 63.4516 38.0642 71.6299 35.5117H71.6318C72.1127 35.3621 72.5964 35.2194 73.082 35.0811C73.5136 32.067 73.7568 28.7164 73.7598 24.998C73.7608 23.7556 74.7693 22.7492 76.0117 22.75ZM120.071 45.3975C119.917 46.1271 119.647 46.8224 119.329 47.458C119.153 47.8087 118.954 48.1602 118.735 48.5117C118.516 48.8633 118.277 49.2148 118.021 49.5654C117.766 49.9158 117.495 50.2656 117.211 50.6133C117.069 50.7872 116.923 50.9608 116.775 51.1338C116.627 51.3067 116.476 51.4787 116.323 51.6504C115.864 52.1653 115.372 52.6886 114.853 53.2178C114.506 53.5706 114.149 53.9259 113.781 54.2832C112.496 55.5337 111.094 56.8078 109.669 58.0742C108.854 58.7979 108.032 59.5193 107.22 60.2324C103.902 63.1453 100.741 65.9278 98.5322 68.418C98.1182 68.8847 97.7509 69.3266 97.4307 69.7432C96.897 70.4379 96.494 71.0621 96.2227 71.6133C95.7801 72.5123 95.8241 72.9337 95.8652 73.0723L95.8799 73.1299C95.8835 73.1412 95.8891 73.1514 95.8965 73.1621C95.9239 73.2015 95.9871 73.2397 96.167 73.29C96.6376 73.4217 97.4749 73.4531 98.8174 73.2695C101.546 72.8965 104.921 71.8912 109.065 70.9639C109.56 70.8533 110.061 70.7449 110.569 70.6406C111.331 70.4843 112.106 70.3374 112.891 70.207C113.152 70.1636 113.415 70.1216 113.678 70.082C114.204 70.0029 114.734 69.9324 115.266 69.8721C116.071 69.7807 116.88 69.7138 117.687 69.6777C119.009 69.6186 120.327 69.6433 121.617 69.7842C121.869 69.8116 122.119 69.8442 122.369 69.8809C122.378 69.8821 122.387 69.8825 122.396 69.8838C122.755 69.9371 123.113 70.0016 123.469 70.0752C123.493 70.0801 123.516 70.0848 123.54 70.0898C123.609 70.1044 123.678 70.1194 123.747 70.1348C123.815 70.1498 123.882 70.1648 123.949 70.1807C124.013 70.1958 124.078 70.2117 124.142 70.2275C124.195 70.2407 124.248 70.253 124.301 70.2666C124.894 70.4191 125.478 70.6037 126.051 70.8223C126.092 70.8379 126.133 70.8541 126.174 70.8701C126.249 70.8996 126.324 70.9302 126.399 70.9609C126.441 70.978 126.483 70.9943 126.524 71.0117C126.606 71.0459 126.687 71.0815 126.768 71.1172C126.81 71.1357 126.852 71.1539 126.894 71.1729C126.959 71.2024 127.024 71.2331 127.089 71.2637C127.15 71.2925 127.211 71.3218 127.272 71.3516C127.343 71.3859 127.413 71.4205 127.483 71.4561C127.516 71.4728 127.549 71.4898 127.582 71.5068C127.663 71.5487 127.744 71.5912 127.824 71.6348C127.866 71.6574 127.908 71.6801 127.949 71.7031C128.022 71.7437 128.095 71.7851 128.168 71.8271C128.212 71.8528 128.257 71.8791 128.301 71.9053C128.37 71.9461 128.438 71.9872 128.507 72.0293C128.558 72.0606 128.608 72.093 128.658 72.125C128.714 72.1601 128.769 72.1945 128.824 72.2305C128.885 72.2701 128.945 72.3109 129.005 72.3516C129.057 72.3871 129.11 72.4226 129.162 72.459C129.233 72.5084 129.304 72.5584 129.374 72.6094C129.41 72.6354 129.446 72.662 129.481 72.6885C129.531 72.7248 129.579 72.7618 129.628 72.7988C129.699 72.8529 129.77 72.9071 129.841 72.9629C129.886 72.9987 129.931 73.0357 129.976 73.0723C130.028 73.1146 130.08 73.1569 130.132 73.2002C130.198 73.2553 130.263 73.3115 130.328 73.3682C130.369 73.4038 130.41 73.4393 130.451 73.4756C130.512 73.5298 130.572 73.585 130.633 73.6406C130.679 73.683 130.725 73.7254 130.771 73.7686C130.828 73.8233 130.885 73.8795 130.942 73.9355C130.978 73.9704 131.014 74.0047 131.05 74.04L131.098 74.0879C131.122 74.1129 131.146 74.1388 131.171 74.1641C131.237 74.2318 131.304 74.2995 131.369 74.3691C131.765 74.7909 132.145 75.2468 132.508 75.7383C132.599 75.8626 132.69 75.9892 132.779 76.1182L132.78 76.1191C132.98 76.4078 133.164 76.7022 133.335 77C133.473 77.2402 133.601 77.483 133.721 77.7285C133.921 78.1399 134.094 78.5587 134.244 78.9824C134.282 79.0898 134.318 79.1976 134.354 79.3057C134.381 79.3892 134.407 79.4727 134.433 79.5566C134.466 79.667 134.497 79.7777 134.527 79.8887C134.551 79.9774 134.575 80.0662 134.597 80.1553C134.621 80.2544 134.645 80.3536 134.667 80.4531C134.687 80.5409 134.706 80.6287 134.724 80.7168C134.748 80.8396 134.771 80.9627 134.792 81.0859C134.805 81.1601 134.818 81.2342 134.829 81.3086C134.846 81.4191 134.862 81.5298 134.876 81.6406C134.887 81.7294 134.898 81.8182 134.908 81.9072C134.922 82.0295 134.932 82.1519 134.942 82.2744C134.948 82.3372 134.954 82.4 134.958 82.4629C134.967 82.5992 134.974 82.7356 134.979 82.8721C134.982 82.9443 134.985 83.0166 134.986 83.0889C134.989 83.1872 134.99 83.2854 134.99 83.3838C134.991 83.4896 134.991 83.5954 134.989 83.7012C134.987 83.8155 134.983 83.9297 134.979 84.0439C134.975 84.1214 134.974 84.1989 134.97 84.2764C134.963 84.4044 134.953 84.5322 134.942 84.6602C134.937 84.7337 134.932 84.8074 134.925 84.8809C134.915 84.9806 134.904 85.0801 134.893 85.1797C134.881 85.2797 134.87 85.3797 134.856 85.4795C134.838 85.6201 134.817 85.7603 134.795 85.9004C134.787 85.9489 134.781 85.9975 134.772 86.0459C134.754 86.1581 134.733 86.27 134.712 86.3818C134.694 86.4763 134.677 86.5708 134.657 86.665C134.636 86.7698 134.612 86.8741 134.589 86.9785C134.569 87.0658 134.55 87.1532 134.529 87.2402C134.498 87.3719 134.463 87.5029 134.429 87.6338C134.414 87.6898 134.399 87.7459 134.384 87.8018C134.343 87.9485 134.301 88.0946 134.257 88.2402C134.242 88.2907 134.227 88.3413 134.211 88.3916C134.168 88.529 134.123 88.6656 134.077 88.8018C134.06 88.8529 134.043 88.9041 134.025 88.9551C133.368 90.8476 132.411 92.6207 131.266 94.1367L131.264 94.1387L130.928 94.5732C130.475 95.1483 130.002 95.7062 129.513 96.25C129.352 96.4291 129.188 96.6053 129.023 96.7812C128.868 96.9483 128.709 97.113 128.551 97.2773C128.461 97.3703 128.372 97.4635 128.281 97.5557C128.13 97.7101 127.977 97.8634 127.823 98.0156C127.711 98.1269 127.598 98.2375 127.484 98.3477C127.333 98.4947 127.181 98.6411 127.028 98.7861C126.937 98.873 126.845 98.9597 126.753 99.0459C126.569 99.2183 126.384 99.3898 126.198 99.5596C126.121 99.6305 126.044 99.702 125.966 99.7725C125.823 99.9019 125.679 100.03 125.535 100.158C125.4 100.279 125.264 100.399 125.128 100.519C124.974 100.654 124.82 100.788 124.666 100.922C124.572 101.003 124.479 101.085 124.385 101.166C124.21 101.317 124.034 101.466 123.859 101.615C123.753 101.706 123.647 101.796 123.541 101.886C121.926 103.252 120.322 104.553 118.848 105.837C118.748 105.924 118.65 106.013 118.554 106.104C118.264 106.376 117.986 106.668 117.721 106.979C117.544 107.185 117.372 107.4 117.206 107.622C117.123 107.733 117.041 107.846 116.961 107.961C116.399 108.765 115.902 109.658 115.467 110.625C115.405 110.763 115.344 110.903 115.284 111.044C114.628 112.595 114.122 114.321 113.754 116.155C113.72 116.322 113.688 116.49 113.657 116.658C113.501 117.501 113.373 118.364 113.271 119.243C113.192 119.936 113.129 120.63 113.083 121.32C113.037 122.011 113.005 122.698 112.989 123.377C112.892 127.454 113.31 131.252 113.894 133.807L113.957 134.129C113.992 134.338 114.014 134.546 114.024 134.751C114.025 134.771 114.027 134.791 114.027 134.812C114.035 135 114.033 135.186 114.021 135.369C114.02 135.385 114.019 135.402 114.018 135.418C114.012 135.496 114.004 135.573 113.995 135.649C113.991 135.68 113.987 135.711 113.982 135.742C113.973 135.813 113.962 135.883 113.949 135.953C113.946 135.971 113.943 135.988 113.939 136.006C113.925 136.08 113.908 136.154 113.891 136.228C113.883 136.261 113.875 136.295 113.866 136.329C113.85 136.393 113.831 136.456 113.812 136.52C113.805 136.546 113.796 136.572 113.788 136.599C113.766 136.667 113.743 136.735 113.719 136.802C113.71 136.825 113.702 136.847 113.693 136.87C113.487 137.414 113.195 137.92 112.828 138.373C112.409 138.891 111.908 139.33 111.354 139.69C110.641 140.155 109.839 140.49 109.011 140.697C106.033 141.442 102.319 140.649 99.4424 137.674C99.345 137.573 99.249 137.469 99.1553 137.363C98.4772 136.598 97.8951 135.698 97.3877 134.725C96.8427 133.68 96.3838 132.551 95.9893 131.41C95.3675 129.613 94.8552 127.644 94.4111 125.681C94.263 125.026 94.1228 124.372 93.9883 123.725C93.4253 121.017 93.0137 118.681 92.5342 116.464C92.2202 115.012 91.9274 113.874 91.6475 113.053C91.6007 112.916 91.5538 112.788 91.5078 112.668C91.4618 112.549 91.4165 112.438 91.3711 112.336L91.2168 112.021L91.2148 112.018C91.093 111.794 90.9663 111.573 90.8359 111.354C90.5751 110.915 90.2979 110.484 90.0049 110.062C88.9794 108.583 87.7648 107.208 86.416 105.947C86.2234 105.767 86.028 105.589 85.8301 105.414C84.8399 104.537 83.7854 103.719 82.6865 102.965C79.8591 101.03 77.7717 98.5485 77.2861 95.2969C77.2168 94.8324 77.1802 94.3521 77.1787 93.8555C77.1784 93.7548 77.18 93.6539 77.1826 93.5527C77.1852 93.4514 77.1888 93.3499 77.1943 93.248C77.2498 92.2301 77.4507 91.185 77.791 90.1094C77.9271 89.6794 78.0855 89.2446 78.2656 88.8047C78.4459 88.3645 78.6485 87.9194 78.8721 87.4688C79.3193 86.5676 79.852 85.6449 80.4678 84.6992C80.7756 84.2264 81.1034 83.7473 81.4521 83.2627C81.3332 83.2262 81.2145 83.1953 81.0957 83.1719C80.3997 83.0347 79.5676 83.0802 78.5498 83.3516C77.6248 83.5982 76.6443 84.0009 75.5996 84.5195C75.1517 84.742 74.6919 84.9854 74.2197 85.2471C73.9049 85.4215 73.5849 85.6045 73.2588 85.7939C72.6067 86.1728 71.9313 86.5795 71.2314 87.0068C69.5621 88.0262 67.7596 89.157 65.916 90.1514C65.7318 90.2507 65.5473 90.3489 65.3623 90.4453C64.4368 90.9277 63.5032 91.3695 62.5732 91.7402C62.2003 91.8889 61.8212 92.0279 61.4375 92.1562C61.419 92.1624 61.4003 92.1677 61.3818 92.1738C61.0241 92.2923 60.6624 92.4013 60.2969 92.4971C60.231 92.5143 60.1647 92.5295 60.0986 92.5459C59.9584 92.5808 59.8179 92.6145 59.6768 92.6455C59.6488 92.6516 59.6207 92.6571 59.5928 92.6631C59.4282 92.6982 59.2633 92.7314 59.0977 92.7607C59.0396 92.771 58.9811 92.7785 58.9229 92.7881C58.7863 92.8105 58.6499 92.8334 58.5127 92.8516C58.4334 92.8621 58.3539 92.8699 58.2744 92.8789C58.1554 92.8925 58.0364 92.9059 57.917 92.916C57.7562 92.9297 57.5951 92.9411 57.4336 92.9482C57.3962 92.9499 57.3587 92.9508 57.3213 92.9521C57.2738 92.9538 57.2263 92.955 57.1787 92.9561C57.1305 92.9571 57.0824 92.9585 57.0342 92.959C56.9746 92.9596 56.9151 92.9594 56.8555 92.959C56.7995 92.9586 56.7435 92.9582 56.6875 92.957C56.6553 92.9563 56.6231 92.9551 56.5908 92.9541C56.5209 92.952 56.4509 92.9498 56.3809 92.9463C56.3411 92.9443 56.3015 92.9419 56.2617 92.9395C56.2129 92.9365 56.1641 92.9333 56.1152 92.9297C56.0635 92.9258 56.0117 92.9216 55.96 92.917C55.8822 92.91 55.8044 92.9014 55.7266 92.8926C55.71 92.8907 55.6933 92.8896 55.6768 92.8877C55.6035 92.8791 55.5303 92.8696 55.457 92.8594C55.4242 92.8548 55.3913 92.8506 55.3584 92.8457C55.2893 92.8354 55.2204 92.8233 55.1514 92.8115C55.1146 92.8052 55.0778 92.7997 55.041 92.793C54.9986 92.7852 54.9565 92.7759 54.9141 92.7676C54.8493 92.7549 54.7844 92.7425 54.7197 92.7285C54.6976 92.7237 54.6755 92.7188 54.6533 92.7139C54.5756 92.6965 54.4977 92.6786 54.4199 92.6592C54.3697 92.6466 54.3198 92.6325 54.2695 92.6191C54.2231 92.6068 54.1763 92.5951 54.1299 92.582C53.823 92.4954 53.5161 92.3933 53.21 92.2734L52.9004 92.1465C52.8687 92.1328 52.8363 92.1182 52.8047 92.1045L51.9951 91.752C51.8449 91.6855 51.6959 91.6176 51.5469 91.5508C51.4767 91.5193 51.4068 91.4876 51.3369 91.4561C50.9038 91.2607 50.4756 91.0644 50.0527 90.8662C49.9973 90.8402 49.942 90.8141 49.8867 90.7881C49.0047 90.3726 48.1453 89.9513 47.3086 89.5244C47.2717 89.5056 47.235 89.4866 47.1982 89.4678C46.7868 89.2571 46.3808 89.0453 45.9805 88.832C45.9365 88.8086 45.8925 88.7852 45.8486 88.7617C44.1542 87.8553 42.5603 86.9268 41.0693 85.9814C41.0426 85.9645 41.0159 85.9476 40.9893 85.9307C40.2616 85.4678 39.559 85.0004 38.8809 84.5303C38.8585 84.5148 38.8358 84.4999 38.8135 84.4844C37.0611 83.2659 35.4754 82.026 34.0625 80.7744C32.8777 85.3895 32.25 90.2273 32.25 95.2207C32.2504 127.278 58.2428 153.27 90.2998 153.271C122.354 153.271 148.344 127.283 148.35 95.2305L148.341 94.1641C147.967 73.4368 136.73 55.3606 120.071 45.3975ZM131.406 77.0684L131.691 76.873L132.354 76.4131L131.942 76.6982L131.406 77.0684ZM72.127 40.0791C64.941 42.4569 58.4394 46.3403 52.5986 51.0859C50.4903 52.7985 49.4723 54.2935 49.0742 55.4141C48.699 56.4706 48.855 57.2148 49.1924 57.7598C49.9555 58.9923 52.45 60.2226 56.2402 59.4863C61.5904 58.4468 68.9084 53.2882 72.127 40.0791Z" fill="#272A2E"/>
</svg>
