<svg width="180" height="180" viewBox="0 0 180 180" fill="none" xmlns="http://www.w3.org/2000/svg">
<path fill-rule="evenodd" clip-rule="evenodd" d="M58.6094 28.7526C66.3528 28.8866 72.9091 33.6444 78.6592 37.4811L79.5869 38.1061C83.918 41.0442 87.3076 43.6864 89.918 46.0729C92.7574 43.5373 96.4358 40.6954 101.121 37.4947C106.864 33.5724 113.447 28.8865 121.191 28.7526C128.854 28.6202 136.818 32.4936 140.842 39.6617C144.829 46.7644 144.111 57.044 137.991 62.7311C137.803 62.9066 137.61 63.0769 137.415 63.2428H151.9C153.143 63.243 154.15 64.2504 154.15 65.4928V130.293C154.15 141.475 145.083 150.542 133.9 150.543H46C34.8174 150.543 25.75 141.475 25.75 130.293V88.0621C25.7504 86.8199 26.7576 85.8121 28 85.8121C29.2424 85.8121 30.2496 86.8199 30.25 88.0621V130.293C30.25 138.99 37.3026 146.043 46 146.043H133.9C142.598 146.042 149.65 138.99 149.65 130.293V67.7428H125.307C125.259 67.7483 125.191 67.757 125.104 67.7692C124.887 67.7995 124.551 67.8525 124.114 67.941C123.24 68.1182 121.963 68.4363 120.416 68.9928C117.324 70.1056 113.164 72.1696 108.989 75.9694C100.702 83.5133 92.0098 98.2256 92.0098 126.993C92.0097 128.235 91.0023 129.243 89.7598 129.243C88.5173 129.243 87.5099 128.235 87.5098 126.993C87.5098 97.2609 96.5337 81.2223 105.961 72.6412C108.206 70.598 110.455 68.9979 112.579 67.7428H54.6104C54.5881 67.7428 54.5652 67.7425 54.543 67.7418L54.6104 65.4928V65.4615L54.543 67.7418C50.0345 67.6082 45.3275 65.997 41.8096 62.7321L41.8066 62.7291C35.6901 57.0333 34.9701 46.7549 38.959 39.6598C42.9834 32.4921 50.9577 28.6201 58.6094 28.7526ZM58.5312 33.2526C52.3237 33.1451 45.9978 36.3129 42.8818 41.8639L42.8809 41.8649C39.7306 47.4682 40.5298 55.3881 44.8701 59.4332C47.4674 61.8437 51.0723 63.1323 54.6572 63.2428H83.2637C82.7479 62.6833 82.2929 62.0116 81.9795 61.2057C81.2759 59.3956 81.4354 57.3232 82.46 55.0836C83.2499 53.3571 84.6057 51.4154 86.6777 49.2096C84.3334 47.09 81.206 44.6428 77.0752 41.8395L76.1611 41.2242C70.0115 37.121 64.6675 33.3587 58.5312 33.2526ZM86.3398 62.8326L86.248 62.9908L86.1035 63.2428L86.3701 62.7809L86.3398 62.8326ZM121.269 33.2526C115.9 33.3455 111.082 36.201 105.903 39.6852L103.659 41.2106C99.1144 44.3152 95.6738 46.9863 93.0957 49.2692C94.4577 50.8024 95.4646 52.2158 96.1738 53.524C97.3214 55.6409 97.7593 57.609 97.5273 59.4108C97.3203 61.0177 96.6067 62.2844 95.752 63.2428H125.144C128.741 63.1321 132.333 61.8523 134.927 59.4362L134.929 59.4342C139.268 55.4012 140.071 47.4809 136.918 41.8639C133.802 36.3125 127.486 33.1451 121.269 33.2526ZM89.8555 52.3981C88.1311 54.247 87.1034 55.7524 86.5527 56.9557C85.8963 58.3906 86.0179 59.1736 86.1738 59.5748C86.3515 60.0318 86.7628 60.4773 87.4639 60.8834C89.085 61.8184 91.0653 61.5797 92.2432 60.4078L92.2441 60.4059C92.6943 59.9587 92.9847 59.455 93.0645 58.8356C93.1458 58.2033 93.0411 57.1874 92.2178 55.6686C91.7054 54.7235 90.9422 53.6371 89.8555 52.3981Z" fill="#272A2E"/>
</svg>
