<svg width="180" height="180" viewBox="0 0 180 180" fill="none" xmlns="http://www.w3.org/2000/svg">
<path d="M67.0946 26.9297C79.6243 26.9297 89.1715 30.0618 96.4081 34.875C103.631 39.6791 108.418 46.0695 111.587 52.3916C114.751 58.7048 116.322 64.9917 117.105 69.6807C117.498 72.03 117.695 73.9936 117.794 75.3779C117.843 76.0702 117.869 76.6197 117.882 77.001C117.888 77.1912 117.891 77.3403 117.892 77.4443C117.893 77.496 117.894 77.5371 117.894 77.5664V77.6172C117.891 77.6186 117.812 77.6201 115.644 77.6201H117.894C117.894 78.8626 116.887 79.8701 115.644 79.8701C114.479 79.87 113.521 78.9842 113.406 77.8496L113.394 77.6201C113.394 77.6171 113.394 77.6108 113.394 77.6025C113.394 77.5853 113.394 77.5566 113.393 77.5176C113.392 77.4384 113.389 77.3142 113.384 77.1504C113.373 76.8223 113.351 76.3305 113.306 75.6992C113.215 74.4347 113.033 72.613 112.667 70.4219C111.933 66.0285 110.469 60.2045 107.564 54.4082C104.664 48.6206 100.348 42.9002 93.9159 38.6221C88.4055 34.9569 81.2432 32.285 71.8944 31.6025C71.9524 31.6754 72.0107 31.7495 72.0702 31.8242C74.1282 34.4089 77.0895 38.1203 80.7001 42.626C87.922 51.6384 97.7429 63.8279 108.137 76.5352C108.923 77.497 108.781 78.9144 107.819 79.7012C106.857 80.4879 105.44 80.3457 104.653 79.3838C94.2471 66.6613 84.4162 54.4603 77.1883 45.4404C73.5851 40.9439 70.628 37.2373 68.5682 34.6504C68.4412 35.8942 68.3279 37.333 68.2616 38.9248C68.0264 44.5738 68.3782 52.067 70.6708 59.585C72.9573 67.0828 77.1578 74.5594 84.6073 80.3154C90.9438 85.2112 99.7682 88.9656 112.059 90.335C114.228 90.3664 116.323 90.4993 118.321 90.749L119.091 90.8516L119.308 90.8936C120.377 91.1535 121.115 92.1616 121.015 93.2793C120.909 94.4714 119.888 95.3717 118.692 95.3281C116.29 95.2407 113.987 95.0714 111.78 94.8311C105.75 94.7637 98.9536 95.5297 91.8592 96.8447C82.0294 98.6668 71.7793 101.514 62.4608 104.511C61.5514 104.803 60.6513 105.097 59.7616 105.392C70.644 103.871 82.0175 103.044 92.1942 103.089C102.956 103.136 112.664 104.155 119.109 106.512C122.3 107.679 125.062 109.304 126.582 111.655C127.522 113.109 127.894 114.688 127.754 116.323C131.653 114.843 135.532 113.632 139.068 113.07C144.544 112.2 150.167 112.763 153.207 117.578C154.252 119.233 154.356 121.049 153.847 122.765C153.361 124.399 152.327 125.948 151.076 127.368C148.569 130.214 144.69 133.092 140.455 135.743C131.943 141.071 121.343 145.875 115.429 148.041L115.43 148.042C103.471 152.427 89.6702 153.484 77.6346 148.425L76.9627 148.136C73.6146 146.662 70.4427 144.766 67.4579 143.101C64.2053 141.285 61.0958 139.693 57.7743 138.79C46.825 135.819 34.0304 141.799 29.2997 152.117C28.7818 153.247 27.4468 153.742 26.3172 153.225C25.1879 152.707 24.692 151.372 25.2098 150.242C30.859 137.921 45.8838 130.901 58.954 134.448C62.8421 135.505 66.3591 137.334 69.6512 139.171C73.0123 141.047 76.0816 142.893 79.3749 144.274L79.3768 144.275C90.0807 148.775 102.66 147.932 113.88 143.817L114.681 146.001L114.655 145.93L113.88 143.817L113.881 143.816C119.546 141.742 129.857 137.068 138.067 131.929C142.194 129.346 145.629 126.743 147.699 124.394C148.736 123.216 149.308 122.238 149.532 121.483C149.707 120.894 149.666 120.486 149.487 120.13L149.402 119.98L149.256 119.761C147.699 117.534 144.682 116.735 139.774 117.515C135.253 118.233 129.891 120.196 124.433 122.522C122.969 123.559 121.153 124.088 119.394 124.387C116.551 124.869 113.095 124.869 109.705 124.87C106.226 124.871 102.718 124.87 99.452 125.274C96.1809 125.679 93.3745 126.468 91.2362 127.899C90.2037 128.591 88.8064 128.314 88.1151 127.281C87.4241 126.249 87.7001 124.851 88.7323 124.16C91.7089 122.167 95.3147 121.252 98.9002 120.809C102.491 120.365 106.286 120.371 109.704 120.37C113.211 120.369 116.249 120.356 118.641 119.95C119.315 119.836 119.883 119.698 120.362 119.543C120.552 119.357 120.776 119.2 121.034 119.088C121.392 118.932 121.751 118.776 122.111 118.621C122.319 118.431 122.472 118.232 122.581 118.028C123.574 116.167 123.386 115.001 122.803 114.099C122.079 112.98 120.437 111.789 117.563 110.738C111.88 108.66 102.818 107.635 92.1747 107.589C70.9461 107.496 44.5592 111.281 28.9696 117.088C27.8301 117.512 26.5594 116.955 26.1004 115.829C25.6418 114.703 26.1609 113.416 27.2723 112.923L28.1844 114.979C27.2725 112.923 27.2726 112.922 27.2733 112.922C27.2738 112.922 27.2752 112.921 27.2762 112.921C27.2783 112.92 27.2813 112.919 27.285 112.917C27.2928 112.914 27.3044 112.909 27.3192 112.902C27.3493 112.889 27.3939 112.869 27.452 112.844C27.5681 112.793 27.7397 112.718 27.9637 112.621C28.4122 112.427 29.0719 112.143 29.9208 111.784C31.6187 111.067 34.0758 110.049 37.12 108.843C43.2061 106.431 51.6511 103.26 61.0829 100.227C70.5093 97.1948 80.9563 94.2888 91.0389 92.4199C92.8272 92.0885 94.6091 91.7897 96.3758 91.5273C90.6407 89.5718 85.8464 86.9597 81.8553 83.876C73.5113 77.4288 68.8608 69.078 66.3661 60.8975C63.8776 52.7372 63.5173 44.699 63.7655 38.7373C63.8899 35.7485 64.168 33.2595 64.4169 31.5107C64.5413 30.6362 64.6586 29.9448 64.746 29.4668C64.7896 29.228 64.8265 29.042 64.8524 28.9131C64.8653 28.849 64.8752 28.7982 64.8827 28.7627C64.8864 28.745 64.8892 28.7301 64.8915 28.7197C64.8925 28.7147 64.8937 28.7103 64.8944 28.707C64.8947 28.7057 64.8952 28.704 64.8954 28.7031C64.8955 28.703 64.8961 28.703 64.8973 28.7031C64.8975 28.7021 64.8981 28.7012 64.8983 28.7002H64.8963C64.899 28.6881 64.9023 28.6761 64.9051 28.6641C64.9151 28.6217 64.9269 28.5799 64.9393 28.5381C64.9442 28.5218 64.9488 28.5054 64.954 28.4893C64.9688 28.4432 64.985 28.3977 65.0028 28.3525C65.0096 28.3354 65.0171 28.3187 65.0243 28.3018C65.0424 28.2589 65.062 28.2166 65.0829 28.1748C65.0917 28.1572 65.1 28.1394 65.1092 28.1221C65.1304 28.0824 65.153 28.0434 65.1766 28.0049C65.188 27.9864 65.1999 27.9683 65.2118 27.9502C65.234 27.9162 65.2569 27.8826 65.2811 27.8496C65.3015 27.8219 65.323 27.7952 65.3446 27.7686C65.3637 27.7448 65.382 27.7203 65.4022 27.6973C65.429 27.6668 65.4579 27.6383 65.4862 27.6094C65.5521 27.542 65.6213 27.4761 65.6971 27.416C65.7205 27.3975 65.7456 27.3817 65.7694 27.3643C65.7961 27.3448 65.8219 27.324 65.8495 27.3057C65.879 27.286 65.9101 27.2691 65.9403 27.251C65.9672 27.2349 65.9937 27.2181 66.0213 27.2031C66.0529 27.1859 66.0849 27.1698 66.117 27.1543C66.1425 27.142 66.1683 27.1305 66.1942 27.1191C66.2291 27.1039 66.2642 27.0896 66.2997 27.0762C66.3265 27.066 66.3534 27.056 66.3807 27.0469C66.4161 27.0351 66.4514 27.0237 66.4872 27.0137C66.5127 27.0065 66.5385 27.0004 66.5643 26.9941C66.6039 26.9846 66.6435 26.9752 66.6835 26.9678C66.7106 26.9627 66.738 26.9591 66.7655 26.9551C66.7993 26.9501 66.8331 26.9458 66.867 26.9424C66.9065 26.9384 66.9462 26.9355 66.9862 26.9336C67.0116 26.9324 67.037 26.931 67.0624 26.9307C67.0731 26.9305 67.0838 26.9297 67.0946 26.9297Z" fill="#272A2E"/>
</svg>
