<svg width="180" height="180" viewBox="0 0 180 180" fill="none" xmlns="http://www.w3.org/2000/svg">
<path fill-rule="evenodd" clip-rule="evenodd" d="M51.1369 40.5333C68.9646 27.0988 93.4433 35.0233 106.838 51.7149C108.258 53.4688 109.923 55.9485 110.726 58.6065C111.544 61.3155 111.545 64.5841 108.991 67.2022C108.954 67.2404 108.915 67.2772 108.875 67.3126C105.314 70.4792 100.507 70.142 96.5363 68.9766C92.4705 67.7834 88.538 65.5236 85.9338 63.7511C84.4196 62.7819 83.2915 61.7962 82.3127 60.9395C81.3067 60.0591 80.4858 59.3431 79.4377 58.6954C78.8271 58.3264 78.2969 58.2213 77.801 58.2589C77.2831 58.2982 76.6472 58.5064 75.8771 59.0079C66.571 65.9855 56.6595 74.0935 49.8674 82.9688C48.2382 85.1839 46.5568 87.5908 45.5803 90.047C44.6237 92.4531 44.4551 94.6189 45.4269 96.5909C46.0695 97.6461 46.7667 98.1306 47.426 98.3585C48.1428 98.6062 49.0445 98.6287 50.1496 98.3731C52.4212 97.8477 54.9421 96.2962 56.9826 94.7345L57.0129 94.712C63.9648 89.574 70.3038 83.6429 76.259 77.2921C77.109 76.3856 78.5332 76.3396 79.4396 77.1895C80.3458 78.0395 80.3911 79.4638 79.5412 80.3702C73.465 86.8501 66.9328 92.9701 59.717 98.3067L59.718 98.3077C58.5412 99.2084 57.0818 100.214 55.4807 101.067C55.3678 101.586 55.3431 101.939 55.3459 102.268C55.3501 102.756 55.3999 103.121 55.465 103.838L55.5344 104.69L55.5373 104.75C55.7101 108.598 58.994 111.313 62.8078 110.402L62.8547 110.392C63.9876 110.147 65.347 109.544 66.8879 108.61C66.9712 108.55 67.0584 108.498 67.1467 108.45C67.6065 108.164 68.0827 107.851 68.5725 107.509C70.7818 105.964 73.1239 103.966 75.4367 101.791C80.0653 97.4376 84.4139 92.5311 87.176 89.4571C88.0064 88.5329 89.4294 88.4569 90.3537 89.2872C91.278 90.1177 91.3542 91.5406 90.5236 92.4649C87.7957 95.5009 83.3143 100.56 78.5207 105.068C76.1227 107.324 73.6049 109.482 71.1506 111.197C70.5892 111.59 70.0214 111.964 69.4514 112.316C67.8134 113.585 66.8645 115.779 67.0783 117.849C67.2965 119.958 68.7226 121.947 70.6447 122.824C72.363 123.609 74.4852 123.521 76.1643 122.638C76.3477 120.847 76.9172 119.086 77.9963 117.522C78.0337 117.457 78.0731 117.393 78.1174 117.332L78.4728 116.863C80.2735 114.597 82.4673 113.432 84.9113 113.387C86.3282 113.361 87.6923 113.717 88.9621 114.274C88.2584 111.104 88.5179 107.553 90.5061 104.671C90.5435 104.607 90.5829 104.543 90.6271 104.482L90.9826 104.013C92.7832 101.746 94.9772 100.582 97.4211 100.536C98.9024 100.509 100.326 100.9 101.645 101.501C101.183 98.5788 101.569 95.4269 103.366 92.8214C103.404 92.757 103.443 92.6931 103.487 92.6319L103.843 92.1632C105.644 89.8965 107.837 88.7318 110.281 88.6866C111.876 88.6572 113.403 89.1115 114.805 89.7921C113.941 86.4873 114.11 82.6839 116.216 79.6309C116.253 79.5665 116.293 79.5027 116.337 79.4415L116.693 78.9727C118.493 76.7062 120.687 75.5415 123.131 75.4962C125.577 75.451 127.869 76.5423 129.784 77.8477C133.57 80.4277 137.098 84.7455 138.945 86.7247L139.323 87.1348C139.701 87.5488 140.085 87.9873 140.463 88.4493C142.88 86.1096 147.604 81.4661 152.367 76.7804C158.371 70.8749 164.438 64.9059 165.78 63.6612C166.692 62.8164 168.115 62.8694 168.96 63.7804C169.805 64.6914 169.751 66.115 168.84 66.96C167.562 68.1454 161.574 74.0364 155.523 79.9884C150.363 85.0638 145.152 90.1864 142.938 92.3136C143.357 93.2416 143.677 94.2337 143.843 95.2911L143.888 95.6134C144.299 98.9388 143.038 102.412 140.559 104.681C138.003 107.019 134.291 107.965 130.922 107.136L130.921 107.135C130.837 107.114 130.754 107.091 130.671 107.068C130.807 107.526 130.917 107.997 130.993 108.482L131.038 108.804C131.449 112.129 130.188 115.603 127.709 117.871C125.169 120.195 121.486 121.143 118.134 120.34L118.178 120.654C118.589 123.982 117.326 127.442 114.854 129.717L114.849 129.721L113.33 128.061L113.143 127.857L114.849 129.721C112.347 132.01 108.738 132.963 105.427 132.225C105.506 132.537 105.572 132.857 105.623 133.182L105.668 133.505C106.079 136.832 104.816 140.293 102.344 142.567L102.339 142.571L100.821 140.911L100.737 140.821L102.339 142.571C99.7834 144.91 96.0711 145.856 92.7023 145.026L93.7785 140.656C95.6893 141.127 97.8569 140.572 99.301 139.251C100.746 137.919 101.48 135.813 101.177 133.88C100.841 131.748 99.3913 129.78 97.4357 127.687C95.242 125.335 92.2688 121.664 89.0305 119.457C87.4338 118.369 86.0808 117.867 84.9943 117.887C84.0895 117.904 83.0193 118.288 81.8459 119.859C81.8223 119.896 81.7986 119.934 81.7727 119.97C80.2725 122.043 80.2391 125.238 81.4768 128.111C82.7222 131.002 84.9612 133.439 87.4924 136.071C89.6823 138.344 91.5464 140.106 93.7785 140.656L92.7014 145.025C89.0144 144.116 86.2994 141.319 84.2502 139.192L86.3801 137.141L85.8703 137.631L84.2502 139.192L84.2482 139.191C81.7798 136.623 78.9586 133.64 77.3439 129.892C77.0001 129.093 76.7141 128.239 76.5031 127.353C73.9881 128.145 71.1897 128.019 68.7756 126.917C65.3982 125.375 62.9837 122.003 62.6017 118.313C62.4861 117.195 62.5594 116.067 62.8 114.977C56.4712 115.874 51.3498 111.045 51.0461 105.013L50.925 103.632C50.9006 103.355 50.8791 103.082 50.8644 102.821C49.2998 103.144 47.603 103.181 45.9562 102.611C44.1605 101.991 42.646 100.726 41.5148 98.8184C41.4895 98.7756 41.4651 98.732 41.4426 98.6876L43.4504 97.671L43.4523 97.669L41.4426 98.6876C39.6396 95.1266 40.1621 91.4929 41.3976 88.3848C42.6185 85.3139 44.6449 82.473 46.2678 80.2677L48.0803 81.6007L48.0637 81.588L46.2678 80.2677C46.2761 80.2563 46.2846 80.2447 46.2932 80.2335C53.5059 70.8086 63.8846 62.3723 73.2404 55.3604C73.2756 55.3341 73.3122 55.3085 73.3488 55.2843L74.59 57.1612L74.5969 57.17L73.3488 55.2843C74.5979 54.4577 75.977 53.8841 77.4611 53.7716C78.9741 53.657 80.4365 54.0349 81.7902 54.8595L80.5637 56.8712L80.6203 56.7813L81.7902 54.8595C81.7943 54.8619 81.7989 54.8648 81.8029 54.8673C83.2144 55.7394 84.2993 56.6985 85.2756 57.5528C86.266 58.4195 87.1818 59.2141 88.4064 59.9923C88.4264 60.0049 88.4465 60.0181 88.466 60.0313C90.8717 61.6687 94.365 63.6491 97.8039 64.6583C101.295 65.6827 104.047 65.5246 105.819 64.004C106.77 62.9895 106.952 61.6792 106.417 59.9073C105.857 58.0532 104.601 56.1029 103.341 54.547L103.335 54.5391L102.744 53.8175C90.1889 38.8033 68.8156 32.845 53.8439 44.128L53.843 44.129C52.923 44.8213 45.9011 50.9717 37.5832 58.2813C29.3382 65.5269 19.9623 73.7842 14.4758 78.5499C13.5377 79.3647 12.1169 79.2642 11.3019 78.3263C10.4871 77.3881 10.5865 75.9673 11.5246 75.1524C16.9981 70.3981 26.3575 62.1548 34.6125 54.9005C42.7932 47.7113 50.0352 41.3625 51.1369 40.5333ZM97.5041 105.036C96.5994 105.053 95.5289 105.438 94.3557 107.009C94.332 107.046 94.3084 107.083 94.2824 107.119C92.7822 109.193 92.749 112.387 93.9865 115.261C95.2319 118.152 97.4709 120.588 100.002 123.221C102.192 125.493 104.056 127.255 106.288 127.806L105.307 131.785V131.788L106.288 127.806C108.199 128.276 110.367 127.722 111.811 126.4C113.256 125.068 113.99 122.963 113.687 121.029C113.35 118.898 111.901 116.93 109.946 114.836C109.893 114.78 109.841 114.722 109.787 114.664L109.62 114.492L109.618 114.49C108.532 113.36 107.377 112.149 106.286 110.828C104.823 109.286 103.218 107.75 101.54 106.607C99.9436 105.519 98.5905 105.016 97.5041 105.036ZM110.364 93.1866C109.46 93.2034 108.389 93.5881 107.216 95.1593C107.192 95.1963 107.169 95.2337 107.143 95.2696C105.643 97.3432 105.609 100.538 106.847 103.411C107.529 104.995 108.509 106.441 109.672 107.858C111.037 109.296 112.209 110.649 113.064 111.578L113.668 112.197C115.523 114.065 117.195 115.474 119.149 115.956L118.107 120.181V120.184L119.149 115.956C121.059 116.426 123.227 115.872 124.671 114.551C126.112 113.233 126.851 111.118 126.547 109.18C126.211 107.048 124.761 105.08 122.806 102.986C120.612 100.635 117.639 96.964 114.401 94.7569C112.804 93.6688 111.451 93.1666 110.364 93.1866ZM123.214 79.9962C122.309 80.0131 121.239 80.3978 120.066 81.9688C120.042 82.0059 120.018 82.0432 119.992 82.0792C118.492 84.1527 118.459 87.3474 119.696 90.2208C120.942 93.1114 123.18 95.5479 125.71 98.1798L126.518 99.0069C128.373 100.875 130.046 102.284 131.999 102.766C133.91 103.236 136.076 102.682 137.521 101.36C138.961 100.042 139.7 97.928 139.397 95.9893C139.06 93.8578 137.611 91.8899 135.655 89.796C133.462 87.4447 130.489 83.7734 127.25 81.5665C125.654 80.4785 124.301 79.9761 123.214 79.9962Z" fill="#272A2E"/>
</svg>
