<svg width="180" height="180" viewBox="0 0 180 180" fill="none" xmlns="http://www.w3.org/2000/svg">
<path d="M75.6699 31.75C99.9225 31.75 119.59 51.4173 119.59 75.6699C119.59 83.5109 117.525 90.8876 113.915 97.2637L134.701 118.049C135.58 118.928 135.58 120.353 134.701 121.231C133.823 122.11 132.398 122.11 131.52 121.231L109.499 99.2109C108.76 98.4715 108.628 97.3197 109.18 96.4316C112.924 90.408 115.09 83.2878 115.09 75.6699C115.09 53.9026 97.4373 36.25 75.6699 36.25C53.9026 36.2501 36.25 53.9026 36.25 75.6699C36.25 97.4376 53.893 115.09 75.6699 115.09C83.6001 115.09 90.9855 112.745 97.1611 108.716C98.1078 108.098 99.3441 108.287 100.071 109.109L132.401 141.439C135.073 144.11 139.398 144.11 142.069 141.439C144.74 138.768 144.74 134.443 142.069 131.771C141.191 130.893 141.191 129.469 142.069 128.59C142.948 127.711 144.373 127.711 145.252 128.59C149.68 133.018 149.68 140.193 145.252 144.621C140.823 149.05 133.648 149.049 129.22 144.621L98.0547 113.456C91.5014 117.349 83.8409 119.59 75.6699 119.59C51.407 119.59 31.75 99.9222 31.75 75.6699C31.75 51.4174 51.4174 31.7501 75.6699 31.75Z" fill="#272A2E"/>
<path d="M75.6797 46.1602C81.3826 46.1602 86.7126 47.7847 91.2275 50.5889C94.9197 52.8741 98.0554 55.9573 100.413 59.5791C103.435 64.2048 105.19 69.7409 105.19 75.6699C105.19 91.9725 91.9823 105.18 75.6797 105.18C74.4373 105.179 73.4298 104.172 73.4297 102.93C73.4299 101.687 74.4374 100.68 75.6797 100.68C89.497 100.68 100.69 89.4872 100.69 75.6699C100.69 70.7964 99.2951 66.2483 96.8828 62.4102L96.6465 62.041L96.6445 62.0371L98.3857 60.9043L98.5293 60.8105L96.6445 62.0371C94.6432 58.9616 91.9816 56.3469 88.8564 54.4131L88.8525 54.4111C85.0275 52.0355 80.5167 50.6602 75.6797 50.6602C61.8626 50.6604 50.67 61.8528 50.6699 75.6699C50.6698 76.9125 49.6625 77.9199 48.4199 77.9199C47.1774 77.9199 46.17 76.9125 46.1699 75.6699C46.17 59.3675 59.3773 46.1604 75.6797 46.1602Z" fill="#272A2E"/>
</svg>
