<svg width="180" height="180" viewBox="0 0 180 180" fill="none" xmlns="http://www.w3.org/2000/svg">
<path d="M91.5195 96.3552C91.2005 97.0033 90.5891 97.4589 89.877 97.5798C89.1644 97.7005 88.4368 97.4717 87.9219 96.9646L89.501 95.3621L91.5195 96.3552Z" fill="#272A2E"/>
<path d="M108.662 51.3386C109.211 50.2241 110.56 49.7645 111.675 50.3132C112.789 50.862 113.247 52.2104 112.699 53.3249L91.5195 96.3552L89.501 95.3621L87.9219 96.9646L66.6816 76.0447C65.7965 75.1727 65.7863 73.7483 66.6582 72.863C67.5302 71.9784 68.9547 71.9668 69.8398 72.8386L88.8584 91.571L108.662 51.3386Z" fill="#272A2E"/>
<path fill-rule="evenodd" clip-rule="evenodd" d="M44.75 73.7224C44.7501 48.5226 65.467 28.1624 90.8037 28.7624C114.717 29.3312 134.184 48.8621 134.68 72.7751C134.967 86.6597 128.953 99.1514 119.313 107.581C119.463 107.764 119.624 107.96 119.792 108.17C121.005 109.687 122.676 111.892 124.533 114.666C128.241 120.203 132.719 128.058 135.737 137.271C137.74 143.374 130.529 148.488 125.481 144.292C122.067 141.456 118.495 138.809 114.744 136.334C113.351 139.938 111.82 143.451 110.142 146.889C107.412 152.471 99.1706 151.28 98.0059 145.31L97.9561 145.022L97.8135 144.118C96.3755 135.254 93.7702 126.774 90.0059 118.682H89.9121C89.8488 118.688 89.7845 118.692 89.7197 118.692C80.1196 118.692 71.22 115.731 63.9131 110.645C58.0907 118.841 53.3406 127.71 49.7012 137.188L49.6406 137.366C49.1087 139.19 51.2748 140.634 52.752 139.448L52.7549 139.445C56.5186 136.434 60.4499 133.623 64.6172 131.014C65.1925 130.655 65.9003 130.573 66.542 130.794C67.1837 131.014 67.6923 131.514 67.9248 132.151C69.5294 136.552 71.3189 140.788 73.332 144.903L73.333 144.905L73.4131 145.054C74.2971 146.536 76.7346 146.204 77.0264 144.284V144.28C77.946 138.292 79.3679 132.462 81.3125 126.792C81.7159 125.617 82.9957 124.99 84.1709 125.393C85.3457 125.797 85.9711 127.077 85.5684 128.252C83.7131 133.661 82.354 139.231 81.4736 144.963C80.5328 151.138 72.1024 152.646 69.2881 146.878C67.6074 143.442 66.0821 139.929 64.6865 136.321C61.5244 138.405 58.4954 140.614 55.5684 142.956C50.3932 147.111 43.1521 141.689 45.5 135.575C49.2956 125.689 54.2597 116.438 60.3496 107.891C50.7988 99.7022 44.7501 87.5258 44.75 73.7224ZM90.6963 33.2615C67.8933 32.7217 49.2501 51.0425 49.25 73.7224C49.2502 96.3523 67.2726 114.103 89.5566 114.189C89.6073 114.186 89.6584 114.182 89.71 114.182H91.4297C92.2931 114.182 93.0806 114.676 93.4561 115.454C97.8736 124.606 100.861 134.241 102.404 144.342L102.438 144.513C102.851 146.245 105.296 146.55 106.098 144.915C108.113 140.786 109.912 136.549 111.505 132.164C111.737 131.525 112.246 131.024 112.89 130.803C113.533 130.583 114.243 130.665 114.818 131.027C119.59 134.029 124.09 137.287 128.357 140.831L128.358 140.832C129.83 142.055 132.098 140.611 131.462 138.674L132.899 138.202L133.298 138.07L131.462 138.674C128.61 129.968 124.354 122.486 120.794 117.169C119.017 114.515 117.422 112.413 116.276 110.979C115.704 110.263 115.245 109.714 114.932 109.348C114.775 109.166 114.655 109.029 114.576 108.939C114.537 108.895 114.507 108.862 114.488 108.842C114.479 108.831 114.473 108.824 114.469 108.82C114.467 108.818 114.465 108.816 114.465 108.815C114.046 108.353 113.836 107.738 113.888 107.116C113.939 106.494 114.248 105.92 114.738 105.534C124.358 97.9615 130.455 86.1222 130.181 72.8689C129.735 51.3623 112.203 33.7728 90.6963 33.2615Z" fill="#272A2E"/>
</svg>
