<svg width="180" height="180" viewBox="0 0 180 180" fill="none" xmlns="http://www.w3.org/2000/svg">
<path d="M75.0947 138.574C75.6995 138.574 76.1537 138.732 76.4561 139.048C76.7728 139.365 76.9307 139.826 76.9307 140.431V152.398C76.9306 152.945 76.787 153.384 76.499 153.715C76.211 154.032 75.8216 154.19 75.332 154.19C74.8427 154.19 74.4539 154.104 74.166 153.931C73.8924 153.744 73.597 153.456 73.2803 153.067L67.0381 145.249V152.311C67.0381 152.93 66.8793 153.399 66.5625 153.715C66.2601 154.032 65.8068 154.19 65.2021 154.19C64.5973 154.19 64.1361 154.032 63.8193 153.715C63.5026 153.399 63.3447 152.93 63.3447 152.311V140.54C63.3447 139.906 63.5028 139.424 63.8193 139.092C64.1361 138.747 64.554 138.574 65.0723 138.574C65.5329 138.574 65.8932 138.66 66.1523 138.833C66.4115 139.005 66.6998 139.294 67.0166 139.697L73.2588 147.495V140.431C73.2588 139.826 73.4105 139.365 73.7129 139.048C74.0296 138.732 74.4903 138.574 75.0947 138.574Z" fill="#272A2E"/>
<path d="M95.46 138.768C95.9782 138.768 96.3668 138.898 96.626 139.157C96.8851 139.416 97.0146 139.79 97.0146 140.28C97.0146 140.784 96.8852 141.173 96.626 141.447C96.3668 141.706 95.9781 141.835 95.46 141.836H90.168V144.903H94.9844C95.4884 144.903 95.8697 145.032 96.1289 145.292C96.4025 145.551 96.54 145.925 96.54 146.415C96.54 146.919 96.4025 147.3 96.1289 147.559C95.8697 147.818 95.4883 147.948 94.9844 147.948H90.168V152.138C90.168 153.506 89.5125 154.19 88.2021 154.19C87.5687 154.19 87.0719 154.018 86.7119 153.672C86.3663 153.312 86.1934 152.801 86.1934 152.138V140.82C86.1934 140.158 86.3663 139.654 86.7119 139.308C87.0719 138.948 87.59 138.768 88.2666 138.768H95.46Z" fill="#272A2E"/>
<path d="M116.471 138.768C117.003 138.768 117.406 138.905 117.68 139.178C117.968 139.452 118.112 139.855 118.112 140.388C118.112 140.907 117.968 141.309 117.68 141.597C117.406 141.871 117.003 142.008 116.471 142.008H113.079V152.181C113.079 152.815 112.914 153.312 112.583 153.672C112.252 154.018 111.754 154.19 111.092 154.19C110.458 154.19 109.969 154.018 109.623 153.672C109.277 153.312 109.104 152.815 109.104 152.181V142.008H105.714C105.181 142.008 104.77 141.871 104.482 141.597C104.209 141.309 104.072 140.906 104.072 140.388C104.072 139.855 104.209 139.452 104.482 139.178C104.77 138.905 105.181 138.768 105.714 138.768H116.471Z" fill="#272A2E"/>
<path d="M84.7979 28.2818C87.9158 26.489 91.7367 26.4329 94.8984 28.1138L95.2021 28.2818L95.2051 28.2837L141.225 54.8443C144.447 56.6985 146.429 60.1359 146.43 63.8541V116.975C146.43 120.693 144.445 124.13 141.224 125.984L141.225 125.985L130.164 132.371C129.002 133.042 127.516 132.643 126.845 131.481C126.174 130.319 126.572 128.833 127.734 128.162L138.795 121.776L138.798 121.774C140.511 120.789 141.57 118.959 141.57 116.975V63.8541C141.57 61.8704 140.511 60.0401 138.798 59.0552L138.795 59.0533L92.7754 32.4927C91.0589 31.5078 88.94 31.5065 87.2236 32.4918L87.2246 32.4927L41.2051 59.0533L41.2021 59.0552C39.4893 60.0401 38.4299 61.8704 38.4297 63.8541V116.975C38.4297 118.835 39.3609 120.56 40.8887 121.58L41.2021 121.774L41.2051 121.776L52.2656 128.162C53.4277 128.833 53.8259 130.319 53.1553 131.481C52.5263 132.571 51.1809 132.989 50.0576 132.484L49.8359 132.371L38.7754 125.985C35.554 124.13 33.5703 120.693 33.5703 116.975V63.8541C33.5705 60.1362 35.5537 56.6986 38.7754 54.8443L84.7949 28.2837L84.7979 28.2818Z" fill="#272A2E"/>
<path fill-rule="evenodd" clip-rule="evenodd" d="M82.4473 52.3453C83.7892 52.3465 84.877 53.4349 84.876 54.7769C84.875 55.9422 84.8314 57.0577 84.751 58.1236C86.5148 57.8495 88.3218 57.7076 90.1621 57.7076C95.3862 57.7076 100.352 58.8547 104.811 60.9175L105.634 61.3121C105.653 61.3208 105.672 61.3292 105.69 61.3384C117.22 67.0512 125.151 78.9438 125.153 92.6919C125.153 112.016 109.485 127.684 90.1611 127.684C70.8376 127.684 55.1702 112.016 55.1699 92.6919C55.17 88.9139 55.7671 85.2731 56.8828 81.856C56.8907 81.8318 56.9005 81.8076 56.9092 81.7837C56.9147 81.7685 56.9199 81.753 56.9258 81.7378C56.9493 81.6767 56.9748 81.6167 57.0029 81.5582C57.0083 81.547 57.014 81.536 57.0195 81.525C57.0451 81.4737 57.0726 81.4236 57.1016 81.3746C57.1087 81.3625 57.1157 81.3504 57.123 81.3384C57.3591 80.9544 57.6974 80.6436 58.0996 80.441C58.1033 80.4391 58.1067 80.4369 58.1104 80.4351L58.2197 80.3843C58.2436 80.3739 58.2677 80.3638 58.292 80.3541C58.303 80.3497 58.3141 80.3456 58.3252 80.3414C58.438 80.2982 58.5547 80.2631 58.6748 80.2369C58.6909 80.2334 58.7075 80.2303 58.7236 80.2271C58.7347 80.2249 58.7458 80.2233 58.7568 80.2212C58.8193 80.2098 58.8817 80.2004 58.9443 80.1939C58.9496 80.1934 58.9547 80.1924 58.96 80.1919C59.0976 80.1786 59.235 80.1781 59.3711 80.188C59.3844 80.189 59.3978 80.1898 59.4111 80.191C59.5481 80.2033 59.6832 80.2273 59.8154 80.2623C59.8229 80.2642 59.8304 80.2661 59.8379 80.2681C59.8975 80.2845 59.9565 80.3029 60.0146 80.3238C60.024 80.3271 60.0336 80.3301 60.043 80.3335C60.1049 80.3566 60.1657 80.3826 60.2256 80.4107C60.2398 80.4174 60.2535 80.4252 60.2676 80.4322C60.3161 80.4561 60.3642 80.4812 60.4111 80.5084C60.4235 80.5155 60.436 80.5224 60.4482 80.5298C60.5703 80.6034 60.6862 80.6884 60.7949 80.7837C60.7971 80.7856 60.7996 80.7877 60.8018 80.7896L60.8066 80.7945C60.8662 80.8474 60.9238 80.9032 60.9785 80.9625C62.9976 83.1506 66.4537 85.551 71.4072 87.6851L71.6035 87.7554C72.0886 87.8947 72.77 87.8534 73.8389 87.4273C75.0875 86.9294 76.3978 86.103 77.9648 85.146C79.393 84.274 81.1391 83.2249 82.8779 82.7613C83.7898 82.5182 84.8228 82.3983 85.8965 82.6099C87.0029 82.8281 88.0023 83.3695 88.8516 84.2144C89.2475 84.6083 89.4803 85.1078 89.5469 85.6265C89.5855 85.9271 89.5666 86.2333 89.4922 86.5298C89.4584 86.6644 89.4138 86.7967 89.3564 86.9253C89.2731 87.1125 89.1668 87.293 89.0332 87.4595C88.9526 87.56 88.8752 87.6593 88.7998 87.7564C88.6176 87.991 88.4501 88.2153 88.2969 88.4302C87.0411 90.1915 86.7199 91.3048 86.7217 91.9459C86.7221 92.0882 86.7387 92.2372 86.7871 92.3951C86.9036 92.7739 87.2027 93.2047 87.9014 93.7193L88.1104 93.8677L88.1133 93.8697C90.3304 95.3914 92.4089 97.4132 93.8018 99.9224C93.8189 99.9533 93.8375 99.9841 93.8545 100.015L94.0381 100.383C94.0941 100.506 94.1462 100.634 94.1973 100.764C94.2007 100.773 94.2046 100.782 94.208 100.791C94.2566 100.916 94.3032 101.045 94.3477 101.175C94.3577 101.205 94.3671 101.235 94.377 101.264C94.4109 101.367 94.4439 101.471 94.4756 101.576C94.4935 101.635 94.5101 101.695 94.5273 101.754C94.543 101.809 94.5591 101.863 94.5742 101.918C94.5975 102.001 94.6205 102.085 94.6426 102.169C94.6592 102.233 94.6754 102.296 94.6914 102.36C94.7107 102.436 94.7287 102.513 94.7471 102.589C94.8131 102.863 94.8752 103.134 94.9316 103.395C94.9543 103.5 94.9756 103.609 94.999 103.721C95.0455 103.944 95.0948 104.179 95.1436 104.423C95.334 105.377 95.5381 106.457 95.7227 107.344C95.8012 107.722 95.8828 108.093 95.9658 108.456C96.0373 108.768 96.1096 109.073 96.1855 109.37C96.3384 109.967 96.5016 110.53 96.6797 111.044C96.6975 111.096 96.7166 111.146 96.7344 111.196C97.1011 112.217 97.4501 112.806 97.7158 113.081L97.7188 113.085C98.2804 113.665 98.8569 113.774 99.2227 113.739C99.1821 113.528 99.1457 113.309 99.1094 113.083C99.0942 112.988 99.0778 112.893 99.0635 112.795C98.7484 110.665 98.6344 107.941 98.9453 105.247C99.3278 101.933 100.419 98.0842 103.184 95.6763L104.098 94.8941C106.187 93.1309 107.971 91.7619 109.377 89.9068C109.677 89.5088 109.92 89.0931 110.112 88.6753C110.246 88.3852 110.353 88.0938 110.436 87.8043C110.452 87.7464 110.469 87.689 110.483 87.6314C110.622 87.0796 110.667 86.5403 110.627 86.0416C110.596 85.6491 110.514 85.2819 110.377 84.9546C110.302 84.7756 110.211 84.6085 110.105 84.4556L109.951 84.2447C109.762 84.0012 109.557 83.7879 109.335 83.6021C109.322 83.5914 109.31 83.5804 109.297 83.5699C109.191 83.4838 109.082 83.4048 108.969 83.3306C108.638 83.1135 108.275 82.9453 107.875 82.8209C107.507 82.7064 107.109 82.6287 106.678 82.5816C105.066 82.4055 103.159 82.6904 101.092 83.1529C99.2332 83.5687 96.9152 84.2248 95.2559 84.4517C94.403 84.5683 93.3423 84.6398 92.3486 84.3619C91.2843 84.064 90.3055 83.3533 89.8135 82.1607C89.7634 82.0394 89.7153 81.9142 89.6758 81.7828V81.7808C89.6744 81.7764 89.6732 81.7716 89.6719 81.7671C89.5368 81.3107 89.495 80.8655 89.5137 80.4419C89.5194 80.3108 89.5302 80.1819 89.5469 80.0552C89.5665 79.9072 89.5929 79.7626 89.625 79.6216C89.734 79.1421 89.906 78.7061 90.0889 78.3345C90.5318 77.4347 91.1921 76.5757 91.8799 75.8003C91.9549 75.7158 92.0343 75.6326 92.1123 75.5474C92.1863 75.4666 92.2604 75.3846 92.3369 75.3033C92.4133 75.2222 92.4907 75.1407 92.5693 75.0591C92.6657 74.9592 92.7637 74.8588 92.8633 74.7584C92.9407 74.6802 93.0185 74.6014 93.0977 74.523C93.2045 74.4172 93.3133 74.3117 93.4229 74.2056C93.782 73.8579 94.1544 73.5084 94.5342 73.1607C94.569 73.1288 94.6038 73.0969 94.6387 73.065C95.3847 72.3845 96.1539 71.7095 96.8936 71.0601C98.7039 69.4706 100.351 68.0194 101.493 66.7388C102.063 66.0994 102.407 65.6113 102.578 65.2691C102.582 65.2616 102.584 65.2528 102.587 65.2457C98.803 63.5256 94.5967 62.567 90.1621 62.5669C88.0541 62.567 85.999 62.784 84.0146 63.1949C82.0979 71.7615 77.266 76.0433 72.4648 76.9761C69.6686 77.5193 66.4077 76.8744 64.8652 74.3834C64.0465 73.0608 63.9286 71.4906 64.4658 69.9781C64.9786 68.5347 66.0504 67.2143 67.5049 66.0328L68.1777 65.4966C71.5702 62.8457 75.4123 60.6356 79.7188 59.2916L79.7207 59.2906C79.7353 59.286 79.75 59.2814 79.7646 59.2769C79.9248 57.9138 80.0143 56.4162 80.0156 54.773C80.0167 53.4311 81.1054 52.3444 82.4473 52.3453ZM106.84 67.6041C106.395 68.442 105.772 69.2448 105.122 69.9742C103.74 71.5246 101.836 73.1894 100.101 74.7134C98.2907 76.3025 96.6485 77.751 95.5166 79.0269C95.3473 79.2177 95.199 79.3949 95.0693 79.5582C96.3789 79.3286 97.9238 78.8799 100.029 78.4087C102.185 77.9264 104.751 77.4817 107.204 77.7496C107.347 77.7652 107.49 77.7836 107.633 77.8043C107.645 77.806 107.657 77.8074 107.669 77.8091C108.12 77.876 108.57 77.9701 109.014 78.0933C109.027 78.0969 109.04 78.0994 109.053 78.1031C109.17 78.1361 109.286 78.1732 109.402 78.2105C109.441 78.2228 109.479 78.2339 109.518 78.2466C109.612 78.2781 109.705 78.3128 109.798 78.3472C109.86 78.3701 109.923 78.3923 109.984 78.4166C110.072 78.4508 110.158 78.488 110.244 78.525C110.304 78.5505 110.364 78.5752 110.424 78.6021C110.512 78.6422 110.6 78.685 110.688 78.7281C110.745 78.7565 110.804 78.7842 110.861 78.814C110.953 78.8617 111.044 78.9123 111.135 78.9634C111.189 78.9939 111.243 79.0244 111.297 79.0562C111.371 79.1003 111.445 79.1464 111.519 79.1929C111.591 79.2386 111.663 79.2845 111.734 79.3326C111.984 79.5006 112.228 79.6824 112.465 79.8814C112.476 79.891 112.488 79.901 112.499 79.9107C112.615 80.0095 112.731 80.1116 112.844 80.2183C112.864 80.2372 112.883 80.2567 112.903 80.2759C113.012 80.3806 113.119 80.4888 113.225 80.6011C113.357 80.7427 113.487 80.8904 113.614 81.0445C113.781 81.2469 113.943 81.4603 114.099 81.6851L114.1 81.6861C114.329 82.0178 114.527 82.3582 114.697 82.7046C114.759 82.8297 114.817 82.955 114.871 83.0816C114.986 83.3522 115.083 83.6266 115.166 83.9029C116.114 87.064 115 90.5299 113.253 92.8414L113.251 92.8443C112.882 93.3314 112.483 93.7976 112.068 94.2476C112.051 94.2662 112.034 94.2847 112.017 94.3033C111.414 94.9531 110.775 95.5655 110.13 96.146C109.991 96.2712 109.851 96.394 109.712 96.5162C108.837 97.2847 107.966 97.9991 107.171 98.6656L106.376 99.3433C105.005 100.537 104.114 102.861 103.774 105.805C103.713 106.34 103.671 106.877 103.647 107.407C103.564 109.269 103.698 111.048 103.92 112.393C103.972 112.707 104.027 112.997 104.087 113.259C104.106 113.342 104.122 113.424 104.136 113.506C104.149 113.588 104.16 113.67 104.169 113.751C104.18 113.857 104.186 113.963 104.189 114.068C104.193 114.196 104.192 114.322 104.184 114.447C104.182 114.465 104.181 114.484 104.18 114.502C104.175 114.56 104.169 114.616 104.162 114.672C104.159 114.697 104.156 114.722 104.152 114.747C104.146 114.794 104.139 114.842 104.131 114.889C104.125 114.922 104.118 114.954 104.111 114.986C104.103 115.025 104.095 115.065 104.086 115.104C104.078 115.139 104.069 115.173 104.06 115.208C104.049 115.249 104.038 115.291 104.025 115.333C104.018 115.357 104.011 115.381 104.003 115.406C103.988 115.453 103.972 115.499 103.955 115.545C103.944 115.575 103.933 115.605 103.922 115.634C103.91 115.665 103.898 115.696 103.885 115.727C103.871 115.761 103.858 115.795 103.843 115.828C103.828 115.861 103.811 115.893 103.796 115.925C103.778 115.962 103.762 115.999 103.743 116.035C103.725 116.07 103.706 116.105 103.687 116.14C103.672 116.166 103.658 116.192 103.643 116.218C103.616 116.265 103.587 116.311 103.559 116.356C103.55 116.37 103.542 116.384 103.533 116.398C103.452 116.523 103.365 116.645 103.271 116.76C102.557 117.644 101.558 118.181 100.561 118.43C98.5297 118.938 96.0792 118.381 94.2256 116.463C93.3136 115.522 92.6973 114.275 92.251 113.086C92.1937 112.933 92.1379 112.782 92.0859 112.631C92.0564 112.546 92.0286 112.459 92 112.373C91.722 111.532 91.4884 110.643 91.2822 109.762C91.1692 109.279 91.0612 108.8 90.9639 108.332C90.8171 107.626 90.6968 107.001 90.583 106.415C90.4697 105.831 90.3614 105.284 90.2451 104.73C90.2236 104.627 90.2031 104.524 90.1807 104.42C90.1413 104.239 90.101 104.07 90.0645 103.914C89.9338 103.356 89.8212 102.958 89.7295 102.691C89.675 102.533 89.63 102.42 89.5908 102.348L89.5889 102.344C89.534 102.244 89.4776 102.144 89.4189 102.044C88.4736 100.446 87.044 99.032 85.3672 97.8804L85.0088 97.6246C84.6588 97.365 84.3251 97.0835 84.0137 96.7818C83.9942 96.7629 83.9754 96.7432 83.9561 96.7242C83.8752 96.6444 83.7953 96.5638 83.7178 96.481C83.6902 96.4516 83.6638 96.421 83.6367 96.3912C83.5636 96.3107 83.4916 96.2294 83.4219 96.146C83.4046 96.1255 83.3881 96.1043 83.3711 96.0835C83.2998 95.9965 83.2304 95.9081 83.1631 95.8179C83.1426 95.7905 83.1226 95.7626 83.1025 95.7349C83.0439 95.654 82.9868 95.5722 82.9316 95.4888C82.9015 95.4433 82.8719 95.3974 82.8428 95.3511C82.7984 95.2804 82.7557 95.2087 82.7139 95.1363C82.6841 95.0848 82.6544 95.0334 82.626 94.981C82.581 94.898 82.5386 94.8134 82.4971 94.7281C82.4707 94.674 82.4438 94.62 82.4189 94.565C82.406 94.5363 82.3924 94.508 82.3799 94.4791C82.3375 94.3814 82.2984 94.2818 82.2607 94.1812C82.2498 94.1519 82.2381 94.1229 82.2275 94.0933C82.1868 93.9793 82.1496 93.8634 82.1152 93.7457C82.1102 93.7285 82.1055 93.7112 82.1006 93.6939C82.0671 93.5754 82.0375 93.4549 82.0107 93.3326C82.0013 93.2892 81.992 93.2456 81.9834 93.2017C81.9787 93.1776 81.9732 93.1537 81.9688 93.1294C81.9336 92.9384 81.9076 92.7428 81.8896 92.5425C81.8725 92.3521 81.8619 92.1575 81.8613 91.9585C81.8595 91.329 81.9465 90.6964 82.1094 90.0601C82.1532 89.8887 82.2039 89.7174 82.2588 89.5455C82.4302 89.0088 82.6514 88.4681 82.9229 87.9253C82.2322 88.257 81.4378 88.7216 80.498 89.2955C79.0974 90.1507 77.3656 91.2548 75.6396 91.9429C73.8871 92.6417 71.6936 93.1001 69.4863 92.15C69.3115 92.0746 69.138 91.9957 68.9658 91.9195C68.9081 91.8939 68.8503 91.869 68.793 91.8433C68.6031 91.7584 68.4151 91.6724 68.2285 91.5865C68.1908 91.5691 68.1528 91.5522 68.1152 91.5347C65.1582 90.1639 62.622 88.6584 60.5508 87.0806C60.2087 88.8962 60.0293 90.7714 60.0293 92.6919C60.0295 109.331 73.5217 122.824 90.1611 122.825C106.799 122.825 120.291 109.335 120.294 92.6978L120.289 92.1441C120.105 81.9027 114.81 72.9069 106.84 67.6041ZM78.4775 64.9293C75.6375 66.1513 73.0035 67.8274 70.5703 69.8043C69.5372 70.6434 69.1606 71.2794 69.0449 71.605C68.9967 71.741 68.9972 71.8114 68.998 71.8267C69.0445 71.8935 69.7566 72.5507 71.5381 72.2046C73.5462 71.8145 76.6351 69.9601 78.4775 64.9293Z" fill="#272A2E"/>
</svg>
