<svg width="180" height="180" viewBox="0 0 180 180" fill="none" xmlns="http://www.w3.org/2000/svg">
<path fill-rule="evenodd" clip-rule="evenodd" d="M79.335 138.534C80.8757 138.534 82.2221 138.859 83.374 139.507C84.5404 140.155 85.4477 141.069 86.0957 142.25C86.7436 143.416 87.0673 144.791 87.0674 146.375C87.0674 147.556 86.8803 148.629 86.5059 149.594C86.1459 150.558 85.6208 151.394 84.9297 152.099C84.2529 152.791 83.4387 153.323 82.4883 153.697C81.5379 154.057 80.4869 154.237 79.335 154.237C77.7943 154.237 76.4408 153.913 75.2744 153.265C74.1081 152.603 73.2007 151.682 72.5527 150.501C71.9191 149.32 71.6016 147.944 71.6016 146.375C71.6016 145.194 71.7817 144.122 72.1416 143.157C72.516 142.192 73.042 141.364 73.7188 140.673C74.41 139.982 75.2312 139.456 76.1816 139.096C77.1319 138.721 78.1832 138.534 79.335 138.534ZM79.335 141.861C78.5862 141.861 77.9378 142.041 77.3906 142.401C76.858 142.747 76.4471 143.258 76.1592 143.934C75.8713 144.597 75.7276 145.41 75.7275 146.375C75.7275 147.8 76.0441 148.917 76.6777 149.723C77.3113 150.515 78.1974 150.911 79.335 150.911C80.0981 150.911 80.7465 150.731 81.2793 150.371C81.8118 150.011 82.2219 149.493 82.5098 148.816C82.7978 148.139 82.9424 147.325 82.9424 146.375C82.9423 144.949 82.6248 143.841 81.9912 143.049C81.3576 142.257 80.4724 141.861 79.335 141.861Z" fill="#272A2E"/>
<path d="M60.8926 138.578C61.4972 138.578 61.9505 138.736 62.2529 139.053C62.5697 139.369 62.7285 139.831 62.7285 140.435V152.401C62.7285 152.948 62.5849 153.388 62.2969 153.72C62.0089 154.036 61.6195 154.194 61.1299 154.194C60.6405 154.194 60.2518 154.108 59.9639 153.935C59.6903 153.748 59.3949 153.46 59.0781 153.071L52.8359 145.254V152.315C52.8359 152.934 52.6771 153.403 52.3604 153.72C52.058 154.036 51.6045 154.194 51 154.194C50.3953 154.194 49.934 154.036 49.6172 153.72C49.3004 153.403 49.1416 152.934 49.1416 152.315V140.543C49.1417 139.909 49.3004 139.427 49.6172 139.096C49.934 138.75 50.3518 138.578 50.8701 138.578C51.3309 138.578 51.691 138.664 51.9502 138.837C52.2094 139.01 52.4977 139.298 52.8145 139.701L59.0566 147.499V140.435C59.0566 139.831 59.2074 139.369 59.5098 139.053C59.8266 138.736 60.2878 138.578 60.8926 138.578Z" fill="#272A2E"/>
<path fill-rule="evenodd" clip-rule="evenodd" d="M102.201 138.772C104.851 138.772 106.896 139.435 108.336 140.76C109.79 142.084 110.518 143.956 110.518 146.375C110.518 147.584 110.33 148.665 109.956 149.615C109.582 150.551 109.041 151.35 108.336 152.013C107.63 152.66 106.759 153.157 105.723 153.503C104.7 153.834 103.526 154 102.201 154H97.9678C97.2911 154 96.7731 153.827 96.4131 153.481C96.0675 153.121 95.8946 152.61 95.8945 151.948V140.824C95.8945 140.162 96.0675 139.658 96.4131 139.312C96.7731 138.952 97.291 138.772 97.9678 138.772H102.201ZM99.8691 150.781H101.942C102.706 150.781 103.361 150.688 103.908 150.501C104.47 150.314 104.93 150.039 105.29 149.68C105.664 149.32 105.939 148.866 106.111 148.319C106.299 147.772 106.392 147.124 106.392 146.375C106.392 144.877 106.024 143.776 105.29 143.07C104.556 142.35 103.44 141.99 101.942 141.99H99.8691V150.781Z" fill="#272A2E"/>
<path d="M128.751 138.772C129.269 138.772 129.658 138.902 129.917 139.161C130.176 139.42 130.306 139.794 130.306 140.284C130.306 140.788 130.176 141.176 129.917 141.45C129.658 141.709 129.269 141.839 128.751 141.839H123.156V144.733H128.275C128.779 144.733 129.161 144.863 129.42 145.122C129.694 145.381 129.831 145.763 129.831 146.267C129.831 146.771 129.693 147.153 129.42 147.412C129.161 147.671 128.779 147.801 128.275 147.801H123.156V150.932H128.751C129.269 150.933 129.658 151.07 129.917 151.344C130.176 151.603 130.306 151.977 130.306 152.467C130.306 152.971 130.176 153.352 129.917 153.611C129.658 153.87 129.269 154 128.751 154H121.429C120.752 154 120.233 153.827 119.873 153.481C119.528 153.121 119.355 152.61 119.354 151.948V140.824C119.354 140.162 119.528 139.658 119.873 139.312C120.233 138.952 120.752 138.772 121.429 138.772H128.751Z" fill="#272A2E"/>
<path d="M82.6348 30.8182C87.1641 28.0837 92.8359 28.0837 97.3652 30.8182L140.298 56.7401C143.371 58.5958 145.25 61.9243 145.25 65.5145V115.203C145.25 118.281 143.866 121.197 141.481 123.143L132.173 130.743C131.21 131.529 129.793 131.385 129.007 130.423C128.221 129.46 128.365 128.042 129.327 127.257L138.636 119.658C139.973 118.566 140.75 116.93 140.75 115.203V65.5145C140.75 63.5006 139.696 61.6336 137.972 60.5926L95.0391 34.6708C91.9402 32.7999 88.0598 32.7999 84.9609 34.6708L42.0283 60.5926C40.3042 61.6336 39.2501 63.5006 39.25 65.5145V115.203C39.25 116.93 40.0266 118.566 41.3643 119.658L50.6729 127.257C51.6354 128.042 51.7788 129.46 50.9932 130.423C50.2074 131.385 48.7898 131.529 47.8271 130.743L38.5186 123.143C36.134 121.197 34.75 118.281 34.75 115.203V65.5145C34.7501 61.9243 36.6287 58.5958 39.7021 56.7401L82.6348 30.8182Z" fill="#272A2E"/>
<path fill-rule="evenodd" clip-rule="evenodd" d="M90 44.9999C94.9705 44.9999 98.9999 49.0294 99 53.9999C99 58.2877 96.0009 61.8726 91.9863 62.7772C91.9944 62.8503 92 62.9246 92 62.9999V65.7469L109.004 75.7372C109.475 76.0138 109.803 76.4663 109.931 76.9813C109.976 77.1485 110 77.3224 110 77.4999V98.4999C110 99.2735 109.554 99.978 108.854 100.308L108.366 100.538L110.907 103.079C112.355 102.083 114.11 101.5 116 101.5C120.971 101.5 125 105.529 125 110.5C125 115.47 120.971 119.5 116 119.5C111.029 119.5 107 115.47 107 110.5C107 108.869 107.435 107.34 108.193 106.021L104.524 102.352L90.8545 108.808C90.7963 108.836 90.7366 108.859 90.6768 108.881C90.5483 108.927 90.4162 108.959 90.2822 108.978C90.1885 108.992 90.0943 108.999 90 108.999C89.886 108.999 89.7721 108.989 89.6592 108.97C89.5554 108.952 89.4529 108.926 89.3525 108.891C89.2826 108.868 89.2132 108.84 89.1455 108.808L75.1348 102.192L71.6182 105.709C72.4926 107.096 73 108.739 73 110.5C73 115.47 68.9706 119.5 64 119.5C59.0294 119.5 55 115.47 55 110.5C55.0001 105.529 59.0295 101.5 64 101.5C65.7608 101.5 67.4027 102.007 68.79 102.881L71.293 100.378L71.1455 100.308C70.4461 99.978 70 99.2735 70 98.4999V77.4999C70 76.8906 70.2777 76.3192 70.7461 75.9422C70.758 75.9327 70.7701 75.9232 70.7822 75.9139C70.8296 75.8775 70.8787 75.8427 70.9297 75.8104C70.9438 75.8015 70.9584 75.7936 70.9727 75.785C70.9769 75.7825 70.9811 75.7797 70.9854 75.7772L88 65.7499V62.9999C88 62.9243 88.0035 62.8496 88.0117 62.7762C83.9982 61.8708 81 58.2869 81 53.9999C81.0001 49.0294 85.0295 44.9999 90 44.9999ZM64 105.5C61.2386 105.5 59.0001 107.738 59 110.5C59 113.261 61.2386 115.5 64 115.5C66.7614 115.5 69 113.261 69 110.5C68.9999 107.738 66.7614 105.5 64 105.5ZM116 105.5C113.239 105.5 111 107.738 111 110.5C111 113.261 113.239 115.5 116 115.5C118.761 115.5 121 113.261 121 110.5C121 107.738 118.761 105.5 116 105.5ZM74 97.2313L74.2988 97.3719L79.0859 92.5858C79.867 91.8048 81.133 91.8048 81.9141 92.5858C82.6951 93.3668 82.695 94.6329 81.9141 95.4139L78.1406 99.1864L88 103.843V87.2674L74 80.6561V97.2313ZM92 87.2674V103.843L101.519 99.3465L97.5859 95.4139C96.805 94.6329 96.8049 93.3668 97.5859 92.5858C98.367 91.8048 99.633 91.8048 100.414 92.5858L105.36 97.5321L106 97.2313V80.6561L92 87.2674ZM92 75.9999C92 77.1044 91.1045 77.9997 90 77.9999C88.8954 77.9999 88 77.1044 88 75.9999V70.3915L76.2715 77.3036L89.999 83.786L103.724 77.2733L92 70.3856V75.9999ZM90 48.9999C87.2386 48.9999 85.0001 51.2385 85 53.9999C85 56.7613 87.2386 58.9999 90 58.9999C92.7614 58.9999 95 56.7613 95 53.9999C94.9999 51.2385 92.7614 48.9999 90 48.9999Z" fill="#272A2E"/>
</svg>
