<svg width="180" height="180" viewBox="0 0 180 180" fill="none" xmlns="http://www.w3.org/2000/svg">
<path fill-rule="evenodd" clip-rule="evenodd" d="M90.4297 26.3271C92.6883 25.9488 94.5148 26.336 95.9502 26.9101L95.9492 26.9111C97.8892 27.686 99.0637 29.3304 99.7324 31.1132C99.7958 31.2822 99.8541 31.4557 99.9102 31.6308C100.911 31.0822 101.907 30.624 102.887 30.2802C104.978 29.546 107.221 29.2548 109.288 29.9892C112.947 31.2861 114.144 34.8613 114.347 38.2988C114.469 40.379 114.258 42.7196 113.843 45.1533C119.145 38.1757 126.112 33.3596 136.315 33.7714C137.557 33.8216 138.523 34.8689 138.473 36.1103C138.423 37.3519 137.375 38.3177 136.134 38.2675C127.779 37.9304 122.084 41.7292 117.396 47.915C112.594 54.2507 109.059 62.8043 105.056 71.6748L103.005 70.749L100.936 69.8662C102.633 65.89 106.294 57.2026 108.376 49.1347C109.424 45.076 110.019 41.3662 109.854 38.5634C109.696 35.866 108.915 34.7374 107.974 34.3076L107.783 34.2304L107.781 34.2295L108.522 32.1455L108.608 31.9023L107.781 34.2295C107.056 33.9717 105.951 33.9737 104.377 34.5263C103.247 34.9232 101.989 35.5667 100.645 36.4316C100.653 36.6975 100.658 36.966 100.658 37.2353C100.663 41.7001 99.6307 47.1116 97.9961 52.2158C96.3629 57.3152 94.0617 62.3122 91.3965 65.8906C90.0674 67.675 88.5612 69.2252 86.8926 70.2197C85.1982 71.2295 83.2238 71.7206 81.1689 71.1279V71.1298C78.8374 70.4899 77.225 69.0019 76.5078 66.8886C75.8459 64.9376 76.0305 62.7037 76.5869 60.5429C77.7068 56.1946 80.6192 51.0541 84.1758 46.3252C87.6114 41.7571 91.7999 37.3745 95.9238 34.2509C95.8197 33.6573 95.6856 33.1361 95.5195 32.6933C95.1204 31.6292 94.6497 31.2364 94.2803 31.0888C93.4658 30.7631 92.4769 30.5471 91.1729 30.7656C89.834 30.9899 88.0043 31.6994 85.583 33.5C80.6894 37.1393 73.7531 44.9516 64.0654 60.8222C56.3238 73.5056 50.8457 87.5613 47.373 102.063L47.3721 102.065C45.9493 107.981 45.1681 114.012 45.2549 120.047L45.2715 120.837C45.501 128.924 47.4721 134.833 50.4082 139.09C53.4321 143.474 57.5933 146.272 62.3311 147.873C71.9142 151.111 83.7452 149.391 92.2979 145.869L93.165 145.504C111.293 137.692 125.313 120.605 125.855 100.719C125.936 97.6788 124.585 95.7357 123.056 94.9443C121.586 94.1839 119.434 94.2183 117.205 96.2373L117.203 96.2392C116.232 97.1163 115.381 98.1688 114.484 99.375C113.629 100.526 112.661 101.921 111.625 103.168C109.536 105.681 107.003 107.821 104.175 109.464L104.176 109.465C101.003 111.31 96.6437 112.8 92.499 111.404L92.0986 111.261L92.0967 111.26L92.9053 109.159L92.9531 109.033L92.0967 111.26C89.1056 110.109 87.1267 107.478 86.3086 104.689C85.5163 101.988 85.7211 98.8226 87.459 96.2812L87.6318 96.0371C88.0189 95.5095 88.6995 94.6754 89.7715 94.2089C90.993 93.6702 92.3021 93.8015 92.8447 93.833L92.8467 93.8339C96.2162 94.0321 99.6132 93.7764 102.913 93.0693H102.915C105.47 92.5238 107.688 91.7187 109.232 90.2822C110.774 88.8488 111.365 86.775 110.811 85.333L110.661 84.9795C109.032 81.3968 104.869 80.0129 99.2266 80.3418C93.5531 80.6725 87.5341 82.7326 84.4297 84.5039L84.4287 84.5048L83.7168 84.9228C76.4288 89.3404 71.1141 96.7511 69.3857 104.906C69.1281 106.122 67.9342 106.898 66.7188 106.641C65.5033 106.383 64.7261 105.189 64.9834 103.974C66.9753 94.5751 73.0581 86.1203 81.3887 81.0722L82.2012 80.5947C85.897 78.4863 92.5871 76.2214 98.9648 75.8496C105.193 75.4866 112.34 76.9221 114.999 83.6865L115.002 83.6953C116.422 87.3527 114.752 91.2934 112.297 93.5771C109.842 95.86 106.64 96.8741 103.855 97.4687C100.156 98.2615 96.3532 98.5479 92.583 98.3261C92.2036 98.3041 91.9838 98.2917 91.7861 98.3017C91.6636 98.3079 91.6059 98.3214 91.5889 98.3261H91.5869C91.5787 98.3322 91.5619 98.3457 91.5371 98.3691C91.4709 98.4316 91.3808 98.5339 91.2588 98.7001L91.2578 98.7021L91.0967 98.9384C90.3283 100.151 90.1507 101.802 90.626 103.423C91.1327 105.15 92.2833 106.509 93.7109 107.059L93.9336 107.139C96.2553 107.916 99.1567 107.178 101.913 105.575L103.374 108.087L103.045 107.519L101.913 105.575L101.915 105.574C104.287 104.197 106.413 102.398 108.164 100.291C109.097 99.1683 109.891 98.0128 110.873 96.6914C111.814 95.4254 112.878 94.083 114.187 92.9003C117.597 89.8116 121.749 89.2008 125.124 90.9472C128.44 92.6632 130.473 96.3808 130.354 100.84L130.354 100.841C129.744 123.178 113.845 141.865 94.0117 150.03C84.8144 153.818 71.82 155.829 60.8906 152.137C55.3725 150.272 50.3557 146.94 46.7031 141.644C43.0578 136.359 40.8848 129.283 40.7549 120.112L40.748 118.9C40.7689 112.846 41.5936 106.849 42.9971 101.014C46.5644 86.1169 52.2068 71.6132 60.2246 58.4775C69.9967 42.4685 77.2961 34.0552 82.8975 29.8896C85.7231 27.7882 88.2056 26.6997 90.4297 26.3271ZM91.5664 98.3359L90.6748 96.2695L90.6611 96.2392L91.5664 98.3359ZM96.0225 39.9951C93.1388 42.5591 90.2611 45.7191 87.7715 49.0293C84.3697 53.5524 81.8528 58.1417 80.9453 61.665C80.4883 63.4395 80.5102 64.6777 80.7695 65.4423C80.9611 66.0069 81.3187 66.4576 82.1807 66.7363L82.3604 66.79L82.4023 66.8017C82.9652 66.9679 83.6557 66.9105 84.5889 66.3545C85.559 65.7762 86.6504 64.7305 87.7881 63.2031C90.0567 60.1572 92.168 55.6614 93.7109 50.8437C94.9054 47.1141 95.7179 43.3128 96.0225 39.9951Z" fill="#272A2E"/>
<path d="M103.005 70.749L105.056 71.6748C104.548 72.7992 103.23 73.3054 102.101 72.8095C100.971 72.3135 100.451 71.0007 100.936 69.8662L103.005 70.749Z" fill="#272A2E"/>
</svg>
