<svg width="180" height="180" viewBox="0 0 180 180" fill="none" xmlns="http://www.w3.org/2000/svg">
<path d="M83.2249 55.436C85.4914 53.9857 87.8918 53.6617 90.2756 55.0434C92.6823 56.4385 93.4522 58.738 93.3372 61.4018C93.3129 61.9635 93.2351 62.523 93.1819 63.0815C93.7537 63.3928 94.2853 63.1674 94.7874 63.146C99.0238 62.965 102.123 65.935 102.145 70.1782C102.163 73.6395 100.851 76.6054 98.8352 79.4204C96.8601 82.0118 94.5387 84.1079 91.9202 85.8813C90.5799 86.789 89.2294 86.659 88.4563 85.5747C87.6221 84.4043 87.9082 83.0879 89.2766 82.0991C92.0781 80.0748 94.6254 77.8153 96.2883 74.7163C97.0502 73.2964 97.5311 71.8005 97.4963 70.1596C97.4607 68.4819 96.4411 67.5984 94.8 67.8501C93.0234 68.1226 91.6614 69.1497 90.3538 70.2719C89.8593 70.6963 89.4063 71.1692 88.929 71.6137C87.8968 72.5748 86.6594 72.7144 85.7258 71.9809C84.7806 71.238 84.5895 69.8637 85.3293 68.6714C86.1033 67.424 86.9337 66.2108 87.5471 64.8715C88.1767 63.497 88.7798 62.1159 88.6917 60.5454C88.6114 59.1197 87.5166 58.4568 86.2346 59.0639C84.9786 59.6588 84.3673 60.728 84.0706 62.0083C83.4144 64.8398 83.4139 67.7479 83.1116 70.6206C82.8515 73.091 82.6321 75.5674 82.4446 78.0444C82.3518 79.2691 81.8731 80.2158 80.6614 80.5327C79.4357 80.8531 78.6008 80.2197 77.929 79.186C75.8071 75.9218 73.0648 73.1678 70.4768 70.2885C70.0408 69.8035 69.5698 69.3468 69.1663 68.8364C68.3384 67.7893 68.4176 66.4535 69.3166 65.6421C70.2907 64.763 71.6222 64.7908 72.6018 65.811C74.183 67.4578 75.7094 69.1572 77.26 70.8335C77.5332 71.1288 77.811 71.4201 78.176 71.809C78.5183 71.1166 78.4575 70.4659 78.5237 69.852C78.8204 67.0995 78.8626 64.3163 79.3909 61.5932C79.8796 59.074 80.9784 56.8735 83.2249 55.436Z" fill="#272A2E"/>
<path fill-rule="evenodd" clip-rule="evenodd" d="M82.6594 41.9702C98.0509 40.2213 112.069 50.1973 115.799 64.7944C127.246 63.152 137.525 61.6843 145.092 60.6098C149.043 60.0488 152.256 59.5945 154.511 59.2788C156.674 58.9758 158.109 58.7774 158.331 58.7622C159.353 58.693 160.691 58.9302 161.584 60.0434C162.515 61.204 162.408 62.6106 162.019 63.644C161.942 63.8463 161.842 64.0207 161.823 64.0532C161.779 64.1313 161.729 64.2161 161.678 64.2993C161.575 64.4683 161.438 64.686 161.274 64.9409C160.944 65.4535 160.479 66.1619 159.9 67.0346C158.74 68.7827 157.106 71.2179 155.145 74.1215C151.222 79.9304 145.981 87.631 140.598 95.5034C129.856 111.212 118.47 127.707 115.883 131.124C114.594 132.826 113.49 134.161 112.485 135.135C111.488 136.101 110.426 136.876 109.197 137.215C107.887 137.576 106.701 137.36 105.655 136.952C104.691 136.576 103.686 135.969 102.723 135.392C101.073 134.403 94.7912 130.569 87.7932 126.244C87.1775 126.558 86.3408 126.945 85.3899 127.371C83.2327 128.336 80.345 129.579 77.3059 130.989C74.2724 132.396 71.193 133.924 68.7307 135.409C67.4985 136.152 66.4684 136.856 65.6926 137.5C64.9062 138.154 64.54 138.617 64.4094 138.866C64.3637 138.957 64.3136 139.049 64.2551 139.138C63.9674 139.576 63.2244 140.352 62.01 140.241C61.0459 140.152 60.4806 139.532 60.301 139.32C59.8735 138.815 59.5981 138.144 59.4084 137.608C59.4079 137.606 59.408 137.605 59.4075 137.603C59.4065 137.6 59.4053 137.596 59.4036 137.591C59.3999 137.581 59.3943 137.568 59.3879 137.551C59.3749 137.517 59.3569 137.472 59.3352 137.417C59.2916 137.307 59.2341 137.164 59.1623 136.988C59.0188 136.636 58.8243 136.168 58.5862 135.597C58.11 134.456 57.4629 132.92 56.7014 131.122C55.1786 127.525 53.2023 122.884 51.2297 118.257C47.3045 109.051 43.3477 99.7953 43.0745 99.0913C42.9733 98.8305 42.7967 98.3909 42.7034 97.979C42.5988 97.5171 42.4993 96.6859 42.9866 95.8383C43.4228 95.08 44.1084 94.7119 44.4993 94.5307C44.9253 94.3332 45.4331 94.1703 45.9368 94.02C46.4185 93.8762 52.2039 92.1898 60.7952 89.6831C58.4526 86.2536 56.7803 82.3029 55.9875 77.9985C45.9311 79.4715 37.0748 80.7818 30.5969 81.7641C29.1799 81.979 27.8776 82.1784 26.7024 82.3598C30.4114 84.0705 35.0913 86.4085 38.8791 89.0337C39.9 89.7416 40.1541 91.1434 39.4465 92.1645C38.7388 93.1855 37.3369 93.4402 36.3157 92.7329C32.807 90.3012 28.3383 88.0637 24.6604 86.3725C22.8325 85.532 21.2284 84.8397 20.0549 84.3286C19.4779 84.0773 18.9808 83.859 18.6243 83.6928C18.4518 83.6125 18.268 83.5241 18.1116 83.438C18.0401 83.3986 17.9154 83.3277 17.7844 83.2339C17.7217 83.1889 17.6008 83.0989 17.4709 82.9682C17.3974 82.8941 17.0393 82.5383 16.8811 81.9409C16.5532 80.7003 17.3436 79.887 17.5051 79.7329C17.7429 79.5061 17.9748 79.3869 18.0452 79.351C18.2221 79.2609 18.3766 79.2118 18.4211 79.1977C18.5455 79.1583 18.6683 79.1293 18.7454 79.1118C18.9199 79.0721 19.1486 79.0273 19.4065 78.9799C19.9329 78.8833 20.6975 78.7542 21.6653 78.5971C23.6063 78.2821 26.4229 77.8457 29.9231 77.3149C36.4459 76.3257 45.3695 75.0056 55.4934 73.5229C54.9044 57.667 66.6329 43.7915 82.6594 41.9702ZM155.135 63.7358C154.114 63.8788 152.896 64.0515 151.501 64.2485C151.505 64.2521 151.51 64.2556 151.514 64.2592C151.809 64.6881 152.066 65.6136 152.047 66.06C151.986 66.3509 151.805 66.7998 151.71 66.9614C151.535 67.2332 151.341 67.4016 151.297 67.4399C151.221 67.5064 151.156 67.5552 151.119 67.5815C151.045 67.6352 150.979 67.6768 150.944 67.6987C150.866 67.7462 150.784 67.7917 150.717 67.8286C150.448 67.9762 149.979 68.2148 149.367 68.52C148.122 69.1416 146.136 70.1114 143.573 71.352C138.441 73.8355 130.958 77.4232 122.365 81.5278C105.184 89.7351 83.5467 100.016 67.3401 107.694C67.3431 107.702 67.3459 107.71 67.3489 107.717C67.3773 107.755 67.4079 107.795 67.4407 107.836C67.4678 107.855 67.4974 107.877 67.5295 107.899C67.701 108.017 67.933 108.174 68.217 108.366C68.7849 108.749 69.5544 109.264 70.4651 109.87C72.2867 111.082 74.6666 112.654 77.1194 114.26C77.4459 114.474 77.775 114.686 78.1018 114.9C80.2998 116.286 82.6751 117.774 85.0784 119.269C93.8861 124.748 103.021 130.324 105.036 131.532C106.103 132.171 106.754 132.55 107.289 132.759C107.742 132.936 107.902 132.904 108.001 132.876C108.18 132.827 108.593 132.641 109.353 131.905C110.104 131.176 111.041 130.064 112.295 128.408C114.796 125.104 126.098 108.736 136.884 92.9633C142.264 85.0956 147.499 77.4022 151.415 71.603C153.374 68.7028 155 66.2799 156.15 64.5473C156.406 64.1616 156.636 63.8102 156.841 63.4975C156.357 63.5647 155.786 63.6446 155.135 63.7358ZM66.6008 112.828C66.3799 115.218 66.1067 118.248 65.8411 121.34C65.5594 124.62 65.2866 127.963 65.0911 130.686C65.0455 131.321 65.0053 131.914 64.97 132.459C65.431 132.154 65.9123 131.853 66.4065 131.555C69.0808 129.942 72.3368 128.334 75.4123 126.907C78.259 125.586 81.0409 124.377 83.0833 123.469C80.982 122.142 78.305 120.408 75.6711 118.687C73.8433 117.534 72.1337 116.449 70.6321 115.481C69.0267 114.446 67.6451 113.539 66.6008 112.828ZM47.5872 98.2251C47.7148 98.5283 47.8755 98.9093 48.0657 99.3579C48.5303 100.454 49.168 101.951 49.9211 103.718C51.4283 107.255 53.3958 111.864 55.3694 116.493C57.2659 120.941 59.1859 125.449 60.7014 129.028C60.8872 126.558 61.1195 123.729 61.3577 120.956C61.9 114.642 62.4803 108.491 62.5881 107.571C62.5833 107.455 62.5828 107.338 62.5891 107.219C62.6906 105.333 64.1157 104.243 65.3987 103.635C67.795 102.5 70.3093 101.306 72.9114 100.072C69.5126 98.4445 66.4412 96.2041 63.8567 93.476C55.2891 95.9762 49.1557 97.7655 47.5872 98.2251ZM112.095 69.4663C110.465 55.1202 97.5133 44.8117 83.1672 46.4419C69.1671 48.0329 59.0136 60.4055 60.0471 74.3344C60.1732 74.5637 60.2638 74.8182 60.304 75.0923C60.3529 75.4272 60.3217 75.7547 60.2307 76.059C61.6052 85.8661 68.2938 93.6932 77.0432 96.9399L110.805 81.0415C112.065 77.4443 112.555 73.5136 112.095 69.4663ZM116.227 78.1479C116.133 78.6431 116.025 79.1342 115.907 79.6215C117.442 78.8893 118.951 78.1718 120.426 77.4673C121.453 76.9768 122.463 76.4916 123.455 76.0171C121.124 76.7045 118.706 77.4186 116.227 78.1479ZM143.372 65.3999C136.127 66.4301 126.83 67.7572 116.592 69.226C116.736 70.5979 116.785 71.9585 116.748 73.3022C124.93 70.8944 132.359 68.7 138.033 67.0053C140.067 66.3981 141.858 65.8582 143.372 65.3999Z" fill="#272A2E"/>
</svg>
