<svg width="180" height="180" viewBox="0 0 180 180" fill="none" xmlns="http://www.w3.org/2000/svg">
<path fill-rule="evenodd" clip-rule="evenodd" d="M123.811 26.75C132.255 26.7503 139.101 33.5958 139.101 42.04C139.101 47.0387 136.7 51.4757 132.991 54.2656C144.596 57.9274 153.07 68.8163 153.07 81.5898V151.141C153.07 152.383 152.063 153.39 150.82 153.391C149.578 153.391 148.571 152.383 148.57 151.141V81.5898C148.57 68.3226 137.697 57.4502 124.43 57.4502C119.299 57.4503 114.526 59.0767 110.602 61.8389C115.519 66.9872 118.55 73.9515 118.55 81.5898V120.59C118.55 126.852 113.433 131.97 107.17 131.97C100.907 131.97 95.7901 126.852 95.79 120.59V81.5898C95.7901 73.9518 98.82 66.9871 103.737 61.8389C99.8131 59.077 95.041 57.4502 89.9102 57.4502C84.7791 57.4502 80.0063 59.0768 76.082 61.8389C80.9995 66.9872 84.0302 73.9516 84.0303 81.5898V120.59C84.0302 126.852 78.9128 131.969 72.6504 131.97C66.3878 131.97 61.2696 126.852 61.2695 120.59V81.5898C61.2696 73.9519 64.2996 66.9871 69.2168 61.8389C65.2927 59.0772 60.5204 57.4502 55.3896 57.4502C42.1226 57.4504 31.2502 68.3228 31.25 81.5898V151.141C31.2497 152.383 30.2424 153.391 29 153.391C27.7576 153.391 26.7503 152.383 26.75 151.141V81.5898C26.7502 69.0486 34.9186 58.3233 46.1982 54.4717C42.3304 51.6971 39.8106 47.1633 39.8105 42.04C39.8105 33.5956 46.6561 26.75 55.1006 26.75C63.5448 26.7503 70.3906 33.5958 70.3906 42.04C70.3906 47.0833 67.9474 51.5548 64.1816 54.3398C67.2626 55.3415 70.119 56.8537 72.6494 58.7754C75.1573 56.8707 77.9855 55.3689 81.0352 54.3672C77.2486 51.5841 74.7901 47.0997 74.79 42.04C74.79 33.5956 81.6356 26.75 90.0801 26.75C98.5245 26.75 105.37 33.5956 105.37 42.04C105.37 47.1473 102.865 51.6685 99.0176 54.4453C101.978 55.4463 104.726 56.9194 107.17 58.7754C109.53 56.9832 112.173 55.5477 115.018 54.5498C111.088 51.7827 108.521 47.2115 108.521 42.04C108.521 33.5956 115.366 26.75 123.811 26.75ZM72.6494 64.7637C68.3995 69.1215 65.7696 75.066 65.7695 81.5898V120.59C65.7696 124.367 68.8731 127.47 72.6504 127.47C76.4275 127.469 79.5302 124.367 79.5303 120.59V81.5898C79.5302 75.0657 76.8996 69.1215 72.6494 64.7637ZM107.17 64.7646C102.92 69.1224 100.29 75.0661 100.29 81.5898V120.59C100.29 124.367 103.393 127.47 107.17 127.47C110.947 127.47 114.05 124.367 114.05 120.59V81.5898C114.05 75.0661 111.42 69.1224 107.17 64.7646ZM55.1006 31.25C49.1414 31.25 44.3105 36.0809 44.3105 42.04C44.3106 47.9992 49.1415 52.8301 55.1006 52.8301C61.0595 52.8298 65.8906 47.999 65.8906 42.04C65.8906 36.0811 61.0595 31.2503 55.1006 31.25ZM90.0801 31.25C84.1209 31.25 79.29 36.0809 79.29 42.04C79.2901 47.9992 84.1209 52.8301 90.0801 52.8301C96.0392 52.83 100.87 47.9991 100.87 42.04C100.87 36.0809 96.0392 31.25 90.0801 31.25ZM123.811 31.25C117.851 31.25 113.021 36.0809 113.021 42.04C113.021 47.9992 117.851 52.8301 123.811 52.8301C129.769 52.8298 134.601 47.999 134.601 42.04C134.601 36.081 129.769 31.2503 123.811 31.25Z" fill="#272A2E"/>
</svg>
