<svg width="180" height="180" viewBox="0 0 180 180" fill="none" xmlns="http://www.w3.org/2000/svg">
<path d="M25.6848 40.9297C42.0671 40.9297 54.5038 45.0221 63.9074 51.2764C73.2971 57.5215 79.5298 65.8327 83.6613 74.0762C86.7776 80.2941 88.7094 86.4975 89.9103 91.8018C95.2219 76.6887 108.124 66.888 120.628 60.71C128.805 56.6703 136.957 54.0956 143.051 52.5312C146.102 51.7479 148.649 51.215 150.439 50.877C151.333 50.7079 152.04 50.5875 152.527 50.5088C152.77 50.4695 152.959 50.4403 153.088 50.4209L153.279 50.3936C153.284 50.3929 153.288 50.392 153.291 50.3916C153.293 50.3915 153.294 50.3917 153.295 50.3916C153.297 50.3996 153.315 50.53 153.604 52.6191L153.297 50.3906C154.437 50.2334 155.498 50.9607 155.781 52.0518L155.828 52.2744L156.09 54.0264C161.359 90.5572 151.56 111.338 138.583 123.149C125.553 135.01 109.744 137.402 104.664 138.249C103.439 138.453 102.28 137.625 102.075 136.399C101.871 135.174 102.699 134.015 103.925 133.811C108.986 132.967 123.587 130.714 135.554 119.822C147.123 109.292 156.643 90.2748 151.712 55.2188C151.572 55.2445 151.425 55.2701 151.274 55.2988C149.566 55.6215 147.115 56.1347 144.17 56.8906C138.271 58.405 130.434 60.8841 122.621 64.7441C106.921 72.5008 91.895 85.503 91.8947 106.989C91.8947 108.232 90.8872 109.239 89.6447 109.239C88.4798 109.239 87.5217 108.354 87.4064 107.22L87.3947 106.989V106.961C87.3945 106.936 87.3936 106.896 87.3928 106.843C87.391 106.735 87.3874 106.568 87.3801 106.349C87.3653 105.908 87.3359 105.25 87.2756 104.408C87.1549 102.723 86.9124 100.301 86.426 97.3896C85.4512 91.5553 83.5057 83.8103 79.6379 76.0928C75.7744 68.3839 70.0141 60.7425 61.4152 55.0234C53.7301 49.9121 43.6702 46.2669 30.4572 45.5586C30.8354 46.0341 31.2465 46.5516 31.6896 47.1084C34.4004 50.514 38.3005 55.4044 43.0568 61.3408C52.57 73.2145 65.5078 89.2726 79.2062 106.015C79.9931 106.976 79.8504 108.394 78.8889 109.181C77.9271 109.967 76.5097 109.826 75.7228 108.864C62.0117 92.1067 49.0643 76.0355 39.5451 64.1543C34.7853 58.2135 30.8824 53.3189 28.1691 49.9102C27.9049 49.5782 27.6518 49.2604 27.4103 48.957C27.3062 50.7771 27.2332 52.9872 27.2541 55.4863C27.3147 62.7402 28.1654 72.353 31.2873 81.9219C34.406 91.4809 39.7612 100.913 48.7834 107.962C57.787 114.996 70.638 119.81 89.0344 119.81C89.0889 119.81 89.1441 119.811 89.1984 119.815C89.2009 119.816 89.2039 119.816 89.2092 119.816C89.2239 119.817 89.2497 119.818 89.2853 119.82C89.3573 119.824 89.4714 119.83 89.6242 119.835C89.9306 119.845 90.3945 119.852 90.9943 119.844C92.1949 119.826 93.9389 119.742 96.0646 119.471C100.322 118.928 106.074 117.641 112.059 114.676C123.907 108.806 137.012 96.1992 141.018 68.7451C141.197 67.5156 142.34 66.6644 143.57 66.8438C144.799 67.0233 145.65 68.1651 145.471 69.3945C141.257 98.2794 127.257 112.168 114.056 118.708C107.516 121.948 101.256 123.345 96.634 123.935C94.3202 124.23 92.4063 124.324 91.0598 124.344C90.3863 124.354 89.853 124.344 89.4816 124.332C89.2961 124.326 89.1506 124.32 89.048 124.314C89.0081 124.312 88.9743 124.31 88.9475 124.309C69.7742 124.293 55.9252 119.252 46.0129 111.508C36.1043 103.767 30.324 93.4783 27.009 83.3174C23.6973 73.1667 22.817 63.0593 22.7541 55.5234C22.7226 51.7478 22.8957 48.5973 23.0783 46.3838C23.1696 45.2768 23.2636 44.4022 23.3352 43.7998C23.3709 43.4988 23.4013 43.2652 23.423 43.1045C23.4339 43.0242 23.4432 42.9614 23.4494 42.918C23.4525 42.8965 23.4545 42.8794 23.4562 42.8672C23.4571 42.8613 23.4577 42.8562 23.4582 42.8525C23.4585 42.8508 23.459 42.8486 23.4592 42.8477C23.4597 42.8475 23.4619 42.8475 23.4709 42.8486C23.471 42.8476 23.4717 42.8467 23.4719 42.8457L23.4602 42.8447C23.6174 41.8015 24.475 41.0166 25.5119 40.9375C25.5288 40.9361 25.5458 40.9355 25.5627 40.9346C25.6031 40.9324 25.6439 40.9297 25.6848 40.9297Z" fill="#272A2E"/>
</svg>
