<svg width="180" height="180" viewBox="0 0 180 180" fill="none" xmlns="http://www.w3.org/2000/svg">
<path fill-rule="evenodd" clip-rule="evenodd" d="M116.353 23.75C126.242 23.75 134.25 31.7871 134.25 41.6885C134.25 51.7751 126.71 59.25 116.353 59.25C111.863 59.2499 108.566 57.668 106.393 56.0586C105.313 55.2594 104.514 54.4562 103.976 53.8408C103.706 53.5326 103.5 53.2689 103.355 53.0732C103.283 52.9753 103.226 52.8937 103.184 52.832C103.163 52.8013 103.146 52.7746 103.132 52.7539C103.125 52.7438 103.119 52.7351 103.114 52.7275C103.112 52.7238 103.109 52.7199 103.107 52.7168L103.104 52.7119L103.103 52.71C103.103 52.71 103.127 52.6917 104.842 51.6006L103.102 52.708C102.434 51.6596 102.744 50.2687 103.792 49.6016C104.775 48.9762 106.058 49.2091 106.765 50.1045L106.889 50.2773C106.889 50.2773 106.89 50.2798 106.893 50.2832L106.895 50.2852L106.896 50.2881L106.897 50.29L106.896 50.291L106.898 50.292C106.911 50.3109 106.937 50.3475 106.976 50.3994C107.053 50.5045 107.182 50.6708 107.363 50.8779C107.727 51.2937 108.293 51.8658 109.07 52.4414C110.61 53.5818 112.99 54.7499 116.353 54.75C124.289 54.75 129.75 49.2253 129.75 41.6885C129.75 34.2613 123.746 28.25 116.353 28.25C108.959 28.2502 102.956 34.2614 102.956 41.6885C102.956 45.644 102.219 49.0901 100.532 52.3252C98.8603 55.5319 96.3254 58.3968 92.9346 61.3008C89.4834 64.2563 85.4011 66.6528 82.1475 68.374C80.5126 69.2389 79.0618 69.9464 77.9912 70.4697C77.4479 70.7353 77.0232 70.9432 76.709 71.1055C76.3027 71.3152 76.3161 71.332 76.4424 71.2266C76.3957 71.2655 76.3466 71.3004 76.2979 71.335C78.7687 74.3847 80.25 78.2691 80.25 82.5C80.25 86.4112 78.9831 90.0255 76.8398 92.959C77.1381 93.1105 77.5194 93.2997 77.9912 93.5303C79.0618 94.0536 80.5126 94.7611 82.1475 95.626C85.4011 97.3472 89.4834 99.7437 92.9346 102.699C96.3254 105.603 98.8603 108.468 100.532 111.675C102.219 114.91 102.956 118.356 102.956 122.312C102.956 129.739 108.959 135.75 116.353 135.75C123.746 135.75 129.75 129.739 129.75 122.312C129.75 114.775 124.289 109.25 116.353 109.25C112.99 109.25 110.61 110.418 109.07 111.559C108.293 112.134 107.727 112.706 107.363 113.122C107.182 113.329 107.053 113.496 106.976 113.601C106.937 113.653 106.911 113.689 106.898 113.708L106.896 113.709L106.897 113.71L106.896 113.712L106.895 113.715L106.893 113.717L106.765 113.896C106.058 114.791 104.775 115.024 103.792 114.398C102.744 113.731 102.434 112.34 103.102 111.292L104.842 112.399C103.127 111.308 103.103 111.29 103.103 111.29L103.104 111.288L103.107 111.283C103.109 111.28 103.112 111.276 103.114 111.272C103.119 111.265 103.125 111.256 103.132 111.246C103.146 111.225 103.163 111.199 103.184 111.168C103.226 111.106 103.283 111.025 103.355 110.927C103.5 110.731 103.706 110.467 103.976 110.159C104.514 109.544 105.313 108.741 106.393 107.941C108.566 106.332 111.863 104.75 116.353 104.75C126.71 104.75 134.25 112.225 134.25 122.312C134.25 132.213 126.242 140.25 116.353 140.25C106.463 140.25 98.4561 132.213 98.4561 122.312C98.456 118.955 97.8405 116.245 96.542 113.755C95.2286 111.236 93.1452 108.805 90.0068 106.117C86.9286 103.481 83.1864 101.267 80.043 99.6045C78.4796 98.7775 77.0891 98.0984 76.0146 97.5732C75.4858 97.3147 75.0119 97.0832 74.6445 96.8936C74.3953 96.7649 73.9794 96.5492 73.6562 96.3037C70.6077 98.7706 66.7271 100.25 62.5 100.25C52.6969 100.25 44.75 92.3031 44.75 82.5C44.75 72.6969 52.6969 64.75 62.5 64.75C66.48 64.75 70.1538 66.0602 73.1143 68.2725C73.2335 68.0895 73.3813 67.9208 73.5576 67.7734C73.8898 67.4959 74.3692 67.2486 74.6445 67.1064C75.0119 66.9168 75.4858 66.6853 76.0146 66.4268C77.0891 65.9015 78.4796 65.2225 80.043 64.3955C83.1864 62.7326 86.9286 60.519 90.0068 57.8828C93.1452 55.1951 95.2286 52.7642 96.542 50.2451C97.8405 47.7546 98.456 45.0445 98.4561 41.6885C98.4561 31.7873 106.463 23.7502 116.353 23.75ZM62.5 69.25C55.1822 69.25 49.25 75.1822 49.25 82.5C49.25 89.8178 55.1822 95.75 62.5 95.75C69.8178 95.75 75.75 89.8178 75.75 82.5C75.75 75.1822 69.8178 69.25 62.5 69.25Z" fill="#272A2E"/>
</svg>
