<svg width="180" height="180" viewBox="0 0 180 180" fill="none" xmlns="http://www.w3.org/2000/svg">
<path d="M88.5685 75.0345C89.0909 73.9072 90.4284 73.4157 91.5558 73.9379C92.6832 74.4601 93.1735 75.7977 92.6515 76.9252L77.2814 110.106L77.0314 110.662C74.5103 116.424 74.0222 122.874 75.6447 128.96L81.4728 150.646C81.6903 151.455 81.44 152.319 80.8234 152.886C77.0219 156.383 74.1044 158.455 71.8244 159.422C70.6733 159.91 69.532 160.183 68.4367 160.097C67.2706 160.005 66.2818 159.513 65.5549 158.715C64.2689 157.304 64.1145 155.286 64.1154 154.055C64.1162 153.098 64.2229 152.18 64.3146 151.534C62.7993 152.585 61.2772 153.602 59.7951 154.536C56.2524 156.767 52.7503 158.665 50.1213 159.428C49.4453 159.624 48.7502 159.768 48.0773 159.803C47.4204 159.837 46.6283 159.774 45.8752 159.408C45.0482 159.005 44.4336 158.313 44.1291 157.429C43.8514 156.623 43.8756 155.791 43.9992 155.06C44.243 153.619 45 151.878 46.1408 149.86C47.3078 147.795 48.9808 145.263 51.2257 142.2C52.4786 140.485 53.3688 139.326 53.6867 138.047C53.976 136.883 53.5893 135.854 52.9142 135.403C52.1175 134.873 50.5455 134.839 49.131 135.55C47.7228 136.258 46.6183 137.442 45.259 138.966L45.2599 138.967C42.2596 142.334 39.0933 145.764 35.9435 149.176C32.7885 152.594 29.6493 155.994 26.6798 159.327C25.8532 160.254 24.4309 160.337 23.5031 159.51C22.5754 158.683 22.4939 157.261 23.3205 156.333C26.3209 152.966 29.487 149.536 32.6369 146.123C35.7919 142.706 38.9311 139.306 41.9006 135.973C43.1809 134.537 44.8181 132.682 47.1095 131.53C49.3947 130.381 52.8023 129.926 55.4054 131.656L55.4084 131.658C58.0921 133.447 58.6642 136.678 58.0539 139.133C57.4719 141.474 55.8825 143.454 54.8566 144.858L54.8547 144.86C52.6674 147.844 51.1057 150.22 50.0578 152.074C49.2683 153.47 48.8223 154.482 48.5978 155.178C48.6818 155.157 48.7722 155.134 48.8673 155.107C50.8394 154.535 53.8807 152.942 57.3976 150.727C60.8546 148.55 64.5839 145.893 67.8742 143.35C68.7266 142.691 69.9264 142.729 70.7355 143.44C71.5446 144.151 71.7358 145.337 71.1916 146.267C70.025 148.259 69.1256 149.879 68.8625 151.55C68.7741 152.112 68.6162 153.078 68.6154 154.058C68.615 154.544 68.6552 154.959 68.7306 155.277C68.7698 155.442 68.8106 155.547 68.84 155.61C69.003 155.61 69.3868 155.568 70.0675 155.28C71.4751 154.683 73.6249 153.274 76.7687 150.483L71.297 130.124L71.2961 130.119L73.2814 129.59L73.4162 129.554L71.2961 130.119C69.351 122.823 70.0167 115.073 73.1984 108.214L88.5685 75.0345Z" fill="#272A2E"/>
<path d="M112.79 22.0716C113.303 20.9401 114.636 20.4382 115.768 20.9506L155.458 38.931C156.013 39.1824 156.442 39.6478 156.648 40.2211C156.853 40.7943 156.818 41.4266 156.549 41.973L150.229 54.8236C149.723 55.8515 148.534 56.3247 147.474 55.9564L147.264 55.8715L110.335 38.7582L105.666 48.8441L142.596 65.9593C143.137 66.2103 143.557 66.6658 143.762 67.2259C143.967 67.7862 143.941 68.4053 143.691 68.9466L116.111 128.456C113.027 135.12 107.769 140.527 101.191 143.795C100.078 144.348 98.7279 143.894 98.175 142.782C97.6222 141.669 98.076 140.318 99.1886 139.765C104.849 136.953 109.372 132.3 112.028 126.565L112.028 126.564L138.662 69.0951L101.734 51.9818L101.529 51.8744C100.549 51.293 100.149 50.0521 100.638 48.9955L107.197 34.8256L107.301 34.6283C107.564 34.1822 107.975 33.8376 108.465 33.6576C108.955 33.4778 109.491 33.4756 109.98 33.6459L110.186 33.7289L147.16 50.8646L151.486 42.0707L113.911 25.0502C112.78 24.5374 112.278 23.2034 112.79 22.0716Z" fill="#272A2E"/>
</svg>
