<svg width="180" height="180" viewBox="0 0 180 180" fill="none" xmlns="http://www.w3.org/2000/svg">
<path fill-rule="evenodd" clip-rule="evenodd" d="M54 82.75C54.9857 82.75 55.8562 83.3917 56.1484 84.333L58.5137 91.9521C61.8667 102.755 69.4469 112.482 80.2412 119.623C80.871 120.04 81.25 120.745 81.25 121.5C81.25 122.255 80.871 122.96 80.2412 123.377C69.4468 130.518 61.8667 140.245 58.5137 151.048L56.1484 158.667C55.8562 159.608 54.9857 160.25 54 160.25C53.0143 160.25 52.1438 159.608 51.8516 158.667L49.4863 151.048C46.1333 140.245 38.5531 130.518 27.7588 123.377C27.129 122.96 26.75 122.255 26.75 121.5C26.75 120.745 27.129 120.04 27.7588 119.623C38.5532 112.482 46.1333 102.755 49.4863 91.9521L51.8516 84.333L51.9121 84.1602C52.2521 83.3139 53.0758 82.75 54 82.75ZM53.7842 93.2861C50.3785 104.259 43.0733 114.054 32.9277 121.5C43.0733 128.946 50.3785 138.741 53.7842 149.714L54 150.409L54.2158 149.714C57.6214 138.741 64.926 128.946 75.0713 121.5C64.9261 114.054 57.6214 104.259 54.2158 93.2861L54 92.5898L53.7842 93.2861Z" fill="#272A2E"/>
<path fill-rule="evenodd" clip-rule="evenodd" d="M119 42.75C119.977 42.75 120.842 43.38 121.142 44.3096L124.168 53.7031C128.497 67.137 138.283 79.2283 152.209 88.1025C152.857 88.5157 153.25 89.2312 153.25 90C153.25 90.7688 152.857 91.4843 152.209 91.8975C138.283 100.772 128.497 112.863 124.168 126.297L121.142 135.69C120.842 136.62 119.977 137.25 119 137.25C118.023 137.25 117.158 136.62 116.858 135.69L113.832 126.297C109.503 112.863 99.7173 100.772 85.791 91.8975C85.1427 91.4843 84.75 90.7688 84.75 90C84.75 89.2312 85.1427 88.5157 85.791 88.1025C99.7173 79.2283 109.503 67.137 113.832 53.7031L116.858 44.3096L116.921 44.1396C117.266 43.3041 118.084 42.75 119 42.75ZM118.115 55.083C113.727 68.7011 104.243 80.8409 91.0586 90C104.243 99.1591 113.727 111.299 118.115 124.917L119 127.662L119.885 124.917C124.273 111.299 133.757 99.159 146.94 90C133.757 80.841 124.273 68.7009 119.885 55.083L119 52.3369L118.115 55.083Z" fill="#272A2E"/>
<path fill-rule="evenodd" clip-rule="evenodd" d="M68 18.75C68.9879 18.75 69.86 19.3946 70.1504 20.3389L71.9482 26.1836C74.4578 34.3447 80.1371 41.7112 88.25 47.1289C88.8749 47.5464 89.25 48.2485 89.25 49C89.25 49.7515 88.8749 50.4536 88.25 50.8711C80.1371 56.2888 74.4578 63.6553 71.9482 71.8164L70.1504 77.6611C69.86 78.6054 68.9879 79.25 68 79.25C67.0121 79.25 66.14 78.6054 65.8496 77.6611L64.0518 71.8164C61.5422 63.6553 55.8629 56.2888 47.75 50.8711C47.1251 50.4536 46.75 49.7515 46.75 49C46.75 48.2485 47.1251 47.5464 47.75 47.1289C55.8629 41.7112 61.5422 34.3447 64.0518 26.1836L65.8496 20.3389L65.9102 20.165C66.2489 19.3162 67.0738 18.75 68 18.75ZM68 28.5908C65.3134 36.4817 60.0454 43.5297 52.8682 49C60.0451 54.4701 65.3133 61.5177 68 69.4082C70.6866 61.5179 75.9542 54.47 83.1309 49C75.9539 43.5298 70.6865 36.4814 68 28.5908Z" fill="#272A2E"/>
</svg>
