<svg width="180" height="180" viewBox="0 0 180 180" fill="none" xmlns="http://www.w3.org/2000/svg">
<path d="M59.792 58.5715C62.3073 57.6153 64.7234 57.7888 66.7744 59.6291C68.8449 61.4869 69.1281 63.8957 68.4707 66.4797C68.3321 67.0244 68.1409 67.5563 67.9746 68.092C68.4706 68.5136 69.0374 68.401 69.5332 68.4826C73.7173 69.1718 76.143 72.7131 75.2969 76.8713C74.6067 80.2632 72.7159 82.8981 70.167 85.2414C67.7038 87.374 65.0029 88.9512 62.0771 90.1516C60.5796 90.7658 59.284 90.3624 58.749 89.1428C58.1717 87.8266 58.7219 86.5965 60.2637 85.9084C63.4198 84.4998 66.3753 82.8089 68.6367 80.1154C69.6728 78.8814 70.4494 77.5158 70.751 75.9025C71.0593 74.2529 70.2419 73.1793 68.584 73.09C66.7892 72.9935 65.2457 73.7199 63.7363 74.551C63.1656 74.8652 62.6256 75.2359 62.0674 75.5734C60.8604 76.3033 59.6203 76.1874 58.8564 75.2785C58.083 74.3581 58.1765 72.9732 59.1445 71.9572C60.1573 70.8944 61.2183 69.8763 62.0928 68.6906C62.99 67.474 63.8637 66.2467 64.0986 64.6916C64.3119 63.2793 63.3753 62.4053 61.9961 62.7375C60.645 63.063 59.8276 63.9845 59.2754 65.1769C58.0538 67.8146 57.4588 70.6619 56.5752 73.4123C55.8154 75.7773 55.0954 78.1559 54.4053 80.5422C54.064 81.7221 53.4014 82.5511 52.1504 82.6135C50.8851 82.6765 50.1973 81.8857 49.751 80.7365C48.3415 77.1074 46.2209 73.8507 44.2764 70.5031C43.9488 69.9392 43.5807 69.3958 43.29 68.8137C42.6939 67.6194 43.0448 66.3274 44.0908 65.717C45.2238 65.056 46.5213 65.3554 47.2715 66.5539C48.4825 68.4893 49.6297 70.4651 50.8047 72.423C51.0116 72.7679 51.2233 73.1104 51.501 73.5656C51.9777 72.9577 52.0518 72.3084 52.2422 71.7209C53.0955 69.0872 53.7053 66.3711 54.7793 63.8137C55.7729 61.4477 57.2992 59.5191 59.792 58.5715Z" fill="#272A2E"/>
<path fill-rule="evenodd" clip-rule="evenodd" d="M118.425 40.3225C119.913 39.4591 121.745 39.4603 123.232 40.3264L123.231 40.3273L137.915 48.8019L137.933 48.8127C139.385 49.6695 140.31 51.2396 140.31 52.9611V69.9211C140.309 71.6289 139.406 73.211 137.922 74.0754L137.915 74.0793L123.231 82.5549C121.742 83.4221 119.908 83.423 118.418 82.5559L103.735 74.0793C103.729 74.0758 103.723 74.073 103.717 74.0695C102.264 73.2128 101.34 71.6426 101.34 69.9211V52.9611C101.34 51.2532 102.243 49.6713 103.728 48.8068L103.735 48.8019L118.425 40.3225ZM120.968 44.215C120.878 44.1625 120.772 44.1625 120.682 44.215L120.675 44.2199L105.991 52.6945C105.896 52.7501 105.84 52.8493 105.84 52.9611V69.9211C105.84 70.0194 105.896 70.1294 106.003 70.1926L120.675 78.6623L120.682 78.6662C120.772 78.7187 120.878 78.7187 120.968 78.6662L120.975 78.6623L135.657 70.1867L135.722 70.1379C135.778 70.0817 135.81 70.0051 135.81 69.9211V52.9611C135.81 52.8627 135.754 52.7518 135.646 52.6887L120.975 44.2199L120.968 44.215Z" fill="#272A2E"/>
<path fill-rule="evenodd" clip-rule="evenodd" d="M121.712 26.7678C139.636 27.3439 154.013 41.991 154.14 60.0353L154.135 60.9113C153.782 79.25 138.416 93.801 120.06 93.801H119.03C115.6 93.801 112.244 93.2288 109.023 92.2785H109.021C106.509 91.5343 103.874 91.1105 101.17 91.1105C94.6582 91.1105 88.6493 93.2544 83.8076 96.8732C82.5335 98.2419 81.1466 99.5034 79.6611 100.644C74.757 106.052 71.865 113.319 72.168 121.265C72.7432 136.301 85.0018 148.567 100.034 149.133C116.583 149.764 130.189 136.54 130.189 120.131C130.189 117.12 129.735 114.226 128.883 111.503C128.512 110.317 129.172 109.055 130.357 108.684C131.543 108.313 132.806 108.973 133.177 110.159C134.165 113.316 134.689 116.663 134.689 120.131C134.689 139.082 118.975 154.358 99.8643 153.629C82.749 152.984 68.7795 139.259 67.7129 122.249L67.6719 121.437C67.4525 115.684 68.6842 110.238 71.0293 105.437C67.3701 106.808 63.4084 107.561 59.2705 107.561C40.7581 107.561 25.7503 92.5536 25.75 74.0412C25.75 55.5286 40.7579 40.5207 59.2705 40.5207C71.0901 40.5209 81.48 46.6393 87.4482 55.881C89.8246 39.51 103.794 26.6338 120.855 26.7512L121.712 26.7678ZM59.2705 45.0207C43.2432 45.0207 30.25 58.0139 30.25 74.0412C30.2503 90.0683 43.2434 103.061 59.2705 103.061C65.7751 103.061 71.7789 100.919 76.6182 97.3049C77.8965 95.9309 79.288 94.6637 80.7793 93.5197C85.4458 88.37 88.2899 81.5381 88.29 74.0412C88.29 71.3934 87.9329 68.8291 87.2686 66.3918C87.1979 66.2258 87.1492 66.0491 87.1201 65.8654C83.5895 53.8191 72.4584 45.0209 59.2705 45.0207ZM120.824 31.2512C104.673 31.1402 91.5898 44.5789 91.5898 60.8312V65.1281C92.3708 67.9664 92.79 70.9548 92.79 74.0412C92.79 79.3107 91.572 84.2954 89.4053 88.7316C93.0658 87.3602 97.0302 86.6105 101.17 86.6105C104.344 86.6105 107.409 87.1079 110.296 87.9631C113.175 88.8127 116.101 89.301 119.03 89.301H120.06C136.058 89.301 149.33 76.623 149.635 60.8215L149.64 60.0666C149.53 44.4454 137.083 31.7646 121.565 31.2658L120.824 31.2512Z" fill="#272A2E"/>
<path d="M115.855 102.119C116.856 101.382 118.265 101.596 119.002 102.596C119.739 103.596 119.525 105.005 118.525 105.742C115.788 107.76 112.011 112.152 108.91 117.76C105.821 123.348 103.561 129.86 103.561 136.041L103.549 136.271C103.434 137.405 102.475 138.291 101.311 138.291C100.146 138.291 99.1875 137.405 99.0723 136.271L99.0605 136.041L99.0537 135.503C98.7562 124.303 89.2028 118.358 84.1836 115.878C83.0698 115.328 82.613 113.978 83.1631 112.864C83.7136 111.75 85.0637 111.293 86.1777 111.844C89.8288 113.648 96.9642 117.759 100.861 125.078C101.918 121.713 103.361 118.496 104.972 115.582C108.271 109.615 112.433 104.642 115.855 102.119Z" fill="#272A2E"/>
</svg>
