<svg width="180" height="180" viewBox="0 0 180 180" fill="none" xmlns="http://www.w3.org/2000/svg">
<path fill-rule="evenodd" clip-rule="evenodd" d="M81.6064 138.534C83.1472 138.534 84.4935 138.859 85.6455 139.507C86.8119 140.155 87.7192 141.069 88.3672 142.25C89.0151 143.416 89.3398 144.791 89.3398 146.375C89.3398 147.556 89.1527 148.629 88.7783 149.594C88.4183 150.559 87.8924 151.394 87.2012 152.1C86.5245 152.791 85.7109 153.323 84.7607 153.697C83.8103 154.057 82.7584 154.237 81.6064 154.237C80.0658 154.237 78.7122 153.914 77.5459 153.266C76.3795 152.603 75.4722 151.682 74.8242 150.501C74.1906 149.32 73.874 147.945 73.874 146.375C73.874 145.194 74.0542 144.122 74.4141 143.157C74.7884 142.193 75.3136 141.364 75.9902 140.673C76.6814 139.982 77.5027 139.456 78.4531 139.096C79.4034 138.721 80.4546 138.534 81.6064 138.534ZM81.6064 141.86C80.858 141.86 80.2101 142.041 79.6631 142.4C79.1303 142.746 78.7196 143.258 78.4316 143.935C78.1437 144.597 78 145.41 78 146.375C78 147.801 78.3166 148.917 78.9502 149.724C79.5837 150.515 80.4692 150.911 81.6064 150.911C82.3696 150.911 83.018 150.731 83.5508 150.371C84.0835 150.011 84.4942 149.493 84.7822 148.816C85.0702 148.14 85.2139 147.325 85.2139 146.375C85.2138 144.95 84.8972 143.841 84.2637 143.049C83.6301 142.257 82.744 141.86 81.6064 141.86Z" fill="#272A2E"/>
<path d="M122.392 138.534C123.529 138.534 124.501 138.7 125.308 139.031C126.114 139.362 126.726 139.845 127.144 140.479C127.575 141.098 127.791 141.846 127.791 142.725C127.791 143.301 127.684 143.834 127.468 144.323C127.252 144.813 126.934 145.223 126.517 145.555C126.242 145.763 125.935 145.932 125.599 146.065C126.346 146.276 126.948 146.658 127.402 147.218C127.978 147.895 128.267 148.744 128.267 149.767C128.267 150.688 128.029 151.487 127.554 152.164C127.079 152.841 126.395 153.359 125.502 153.719C124.609 154.064 123.543 154.237 122.305 154.237C121.57 154.237 120.836 154.165 120.102 154.021C119.367 153.878 118.734 153.676 118.201 153.417C117.74 153.201 117.416 152.934 117.229 152.617C117.056 152.301 116.984 151.977 117.013 151.646C117.042 151.314 117.157 151.019 117.358 150.76C117.574 150.501 117.849 150.328 118.18 150.241C118.525 150.141 118.914 150.184 119.346 150.371C119.878 150.601 120.368 150.76 120.814 150.847C121.261 150.933 121.707 150.976 122.153 150.976C122.672 150.976 123.105 150.918 123.45 150.803C123.795 150.688 124.055 150.515 124.228 150.285C124.4 150.04 124.486 149.738 124.486 149.378C124.486 148.874 124.306 148.507 123.946 148.276C123.601 148.032 123.09 147.909 122.413 147.909H121.247C120.7 147.909 120.282 147.772 119.994 147.498C119.706 147.224 119.562 146.836 119.562 146.332C119.562 145.828 119.706 145.44 119.994 145.166C120.282 144.892 120.7 144.755 121.247 144.755H122.024C122.442 144.755 122.795 144.697 123.083 144.582C123.385 144.467 123.615 144.302 123.773 144.086C123.932 143.856 124.012 143.574 124.012 143.243C124.012 142.768 123.839 142.408 123.493 142.163C123.162 141.918 122.665 141.796 122.003 141.796C121.6 141.796 121.189 141.839 120.771 141.926C120.354 142.012 119.908 142.163 119.433 142.379C119.058 142.537 118.712 142.574 118.396 142.487C118.093 142.401 117.841 142.235 117.64 141.99C117.453 141.731 117.337 141.451 117.294 141.148C117.251 140.832 117.301 140.521 117.445 140.219C117.589 139.917 117.863 139.664 118.266 139.463C118.87 139.16 119.526 138.931 120.231 138.772C120.951 138.614 121.672 138.534 122.392 138.534Z" fill="#272A2E"/>
<path d="M64.7236 138.577C65.1699 138.577 65.5443 138.693 65.8467 138.923C66.149 139.139 66.3361 139.449 66.4082 139.852C66.4946 140.255 66.4228 140.709 66.1924 141.213L60.9434 152.747C60.7274 153.251 60.4541 153.618 60.123 153.849C59.7918 154.079 59.3519 154.194 58.8047 154.194C58.2577 154.194 57.8113 154.079 57.4658 153.849C57.1347 153.618 56.8534 153.251 56.623 152.747L51.3965 141.213C51.1661 140.709 51.0943 140.255 51.1807 139.852C51.2671 139.449 51.4685 139.139 51.7852 138.923C52.1018 138.693 52.4977 138.577 52.9727 138.577C53.5631 138.577 54.003 138.708 54.291 138.967C54.5932 139.226 54.8525 139.608 55.0684 140.111L58.8682 148.905L62.6719 140.09C62.8879 139.586 63.1469 139.212 63.4492 138.967C63.7516 138.708 64.1764 138.577 64.7236 138.577Z" fill="#272A2E"/>
<path d="M108.231 138.772C108.764 138.772 109.168 138.909 109.441 139.183C109.729 139.456 109.873 139.859 109.873 140.392C109.873 140.91 109.729 141.314 109.441 141.602C109.168 141.875 108.764 142.012 108.231 142.012H104.84V152.186C104.84 152.819 104.675 153.316 104.344 153.676C104.013 154.021 103.515 154.194 102.853 154.194C102.219 154.194 101.729 154.021 101.384 153.676C101.038 153.316 100.866 152.819 100.866 152.186V142.012H97.4746C96.9418 142.012 96.5312 141.875 96.2432 141.602C95.9697 141.314 95.833 140.91 95.833 140.392C95.8331 139.859 95.9698 139.456 96.2432 139.183C96.5312 138.909 96.9418 138.772 97.4746 138.772H108.231Z" fill="#272A2E"/>
<path d="M140 27C145.523 27 150 31.4772 150 37V137.75C150 142.859 145.859 147 140.75 147C139.645 147 138.75 146.105 138.75 145C138.75 143.895 139.645 143 140.75 143C143.649 143 146 140.649 146 137.75V37C146 33.6863 143.314 31 140 31H40C36.6863 31 34 33.6863 34 37V137.75C34 140.649 36.3505 143 39.25 143C40.3546 143 41.25 143.895 41.25 145C41.25 146.105 40.3546 147 39.25 147C34.1414 147 30 142.859 30 137.75V37C30 31.4772 34.4772 27 40 27H140Z" fill="#272A2E"/>
<path fill-rule="evenodd" clip-rule="evenodd" d="M110.774 54.3115C114.88 51.512 119.595 53.5713 121.186 56.7852L121.342 57.126C122.235 56.8693 123.121 56.6922 123.973 56.6211C125.321 56.5086 126.757 56.6502 127.991 57.3545C128.95 57.9019 129.285 59.1237 128.737 60.083C128.19 61.0424 126.968 61.3765 126.009 60.8291C125.732 60.6711 125.202 60.5326 124.305 60.6074C123.647 60.6623 122.88 60.8246 122.031 61.0967C122.034 61.8319 121.987 62.5789 121.903 63.3115C121.631 65.6892 120.937 68.2727 119.922 70.5771C118.922 72.8481 117.525 75.042 115.728 76.4385C113.827 77.9154 111.382 78.5339 108.825 77.2578C107.327 76.5107 106.198 75.429 105.658 73.9873C105.127 72.5668 105.283 71.1015 105.741 69.7969C106.63 67.265 108.846 64.7563 111.31 62.7031C113.213 61.117 115.416 59.6778 117.616 58.5957C117.611 58.584 117.606 58.5719 117.601 58.5605C116.992 57.3307 115.044 56.3878 113.205 57.502L113.027 57.6162C108.011 61.0332 102.798 67.3775 98.3027 74.5879C93.8297 81.7629 90.2024 89.5779 88.2715 95.7334L86.9678 99.8877L84.665 96.1924C79.0563 87.1914 69.954 79.3697 60.7725 74.3174C59.5388 73.6388 57.9919 74.0886 57.3164 75.3105C56.6408 76.533 57.084 78.0707 58.3115 78.7461L58.3125 78.7471C64.8853 82.3656 71.2607 87.6271 76.1543 93.7412C80.8856 99.6526 84.325 106.481 85.0898 113.494L85.1553 114.174C85.3023 115.927 86.5422 117.019 87.6738 117L87.71 116.999L87.7451 117C88.8919 117.022 90.1264 115.932 90.2539 114.347C90.9952 104.921 93.5787 93.2259 100.319 81.418C100.867 80.4593 102.088 80.1257 103.047 80.6729C104.006 81.2204 104.34 82.4421 103.793 83.4014C97.4015 94.5976 94.9461 105.696 94.2412 114.663V114.667C93.9834 117.875 91.3996 121.027 87.7393 120.998L87.7402 120.999C87.7298 120.999 87.7194 120.998 87.709 120.998C87.6958 120.998 87.6822 120.999 87.6689 120.999C83.8687 121.02 81.4349 117.678 81.1689 114.509C80.646 108.291 77.5963 101.945 73.0312 96.2412C68.6181 90.7272 62.8819 85.9323 56.957 82.5713L56.3838 82.251C53.2189 80.5099 52.0691 76.5357 53.8154 73.376C55.5074 70.3146 59.2942 69.1486 62.4014 70.6582L62.7002 70.8135L63.6055 71.3203C71.8173 75.9958 79.9555 82.7716 85.7803 90.7168C87.9473 84.9918 91.1512 78.4991 94.9082 72.4727C99.5086 65.0935 105.075 58.194 110.774 54.3115ZM117.914 62.9658C116.509 63.772 115.12 64.7348 113.87 65.7764C111.602 67.6662 110.047 69.6077 109.516 71.1221C109.263 71.8405 109.298 72.2988 109.405 72.5859C109.505 72.8517 109.775 73.2616 110.611 73.6787C111.51 74.1275 112.318 74.021 113.272 73.2793C114.331 72.457 115.392 70.9386 116.262 68.9648C117.1 67.0607 117.679 64.9118 117.914 62.9658Z" fill="#272A2E"/>
</svg>
