<svg width="180" height="180" viewBox="0 0 180 180" fill="none" xmlns="http://www.w3.org/2000/svg">
<path d="M129.705 27.5763C136.699 23.0831 144.567 26.6123 147.225 31.9797L147.363 32.2697C147.604 32.7969 147.808 33.3598 147.98 33.9513C150.14 33.2248 152.264 32.7322 154.249 32.5666C156.534 32.3759 158.804 32.6058 160.734 33.5793L161.115 33.7843L161.31 33.9084C162.238 34.5708 162.532 35.842 161.954 36.8537C161.377 37.8652 160.133 38.2581 159.091 37.7961L158.885 37.6925L158.705 37.5959C157.777 37.129 156.432 36.9 154.623 37.0509C152.88 37.1964 150.859 37.6851 148.669 38.4787C148.746 40.1758 148.666 41.9637 148.461 43.755C147.951 48.2134 146.646 53.0785 144.738 57.4103C142.847 61.7041 140.267 65.6919 137.075 68.172C133.767 70.7427 129.684 71.7373 125.392 69.5949C122.75 68.2772 120.906 66.4477 120.037 64.1261C119.178 61.8285 119.404 59.3934 120.21 57.0968C121.792 52.5905 125.829 47.9453 130.54 44.0197C134.528 40.697 139.202 37.7225 143.773 35.631C143.657 35.1581 143.52 34.7282 143.36 34.3459L143.193 33.9767C141.576 30.7115 136.491 28.389 131.908 31.5138L131.907 31.5148C121.874 38.3497 111.592 50.9135 102.809 65.0031C94.05 79.0526 86.9323 94.3728 83.13 106.494L81.6642 111.168L79.0734 107.011C68.3366 89.7802 51.1737 74.8018 33.7052 64.8547L32.0138 63.9084C28.826 62.155 24.8218 63.3112 23.0695 66.4816C21.3169 69.6526 22.4684 73.642 25.6495 75.3918H25.6505C38.2484 82.3273 50.4769 92.4203 59.8536 104.136C69.0733 115.655 75.6444 128.883 76.9445 142.338L77.0021 142.979C77.3373 146.977 80.2499 150.03 83.5607 149.975L83.6007 149.974L83.6408 149.975C86.9144 150.037 89.879 147.067 90.1827 143.313L90.3273 141.599C91.9276 123.765 96.9835 101.964 109.543 79.9631C110.159 78.8839 111.534 78.5081 112.613 79.1242C113.693 79.7403 114.067 81.1154 113.451 82.1945L112.868 83.2258C100.73 104.897 96.0329 126.316 94.6691 143.665V143.669C94.2193 149.266 89.7116 154.575 83.5802 154.474C77.2513 154.546 72.9872 148.953 72.5177 143.356C71.4653 130.842 65.3482 118.201 56.341 106.947C47.6258 96.0584 36.3096 86.6018 24.6134 79.967L23.4806 79.3342C18.1202 76.3854 16.174 69.6551 19.131 64.3049C22.0884 58.9541 28.8288 57.0202 34.1827 59.965C51.4377 69.4598 68.683 83.836 80.3214 100.715C84.4661 89.0306 91.0876 75.2987 98.9904 62.6222C107.892 48.3431 118.571 35.1547 129.373 27.7961L129.705 27.5763ZM144.191 40.4172C140.479 42.2708 136.706 44.7392 133.421 47.4767C128.931 51.2184 125.636 55.2255 124.456 58.5871C123.882 60.2243 123.87 61.5273 124.252 62.55C124.626 63.5486 125.503 64.622 127.401 65.5685H127.401C129.829 66.7802 132.07 66.3626 134.314 64.6193C136.674 62.7851 138.876 59.5564 140.62 55.5968C142.347 51.6753 143.532 47.2492 143.99 43.2443C144.104 42.2518 144.168 41.3064 144.191 40.4172Z" fill="#272A2E"/>
</svg>
