<svg width="180" height="180" viewBox="0 0 180 180" fill="none" xmlns="http://www.w3.org/2000/svg">
<path d="M106.181 40.75C107.423 40.7504 108.431 41.7576 108.431 43C108.431 44.2424 107.423 45.2496 106.181 45.25H47.5205V134.021H132.73V47.7197C132.73 46.3626 131.628 45.26 130.271 45.2598C129.361 45.2599 128.522 45.7627 128.089 46.5811L95.2725 108.967L95.251 109.006L93.2812 107.92L93.2607 107.909L95.251 109.006C93.0909 112.925 87.8851 113.794 84.5693 110.906L84.2539 110.615L84.2529 110.613L65.6025 92.2637C64.7168 91.3921 64.7056 89.9678 65.5771 89.082C66.4487 88.1967 67.8731 88.1844 68.7588 89.0557L87.4072 107.404L87.5186 107.508C88.6899 108.528 90.5256 108.225 91.2979 106.854L124.109 44.4824L124.112 44.4775C125.319 42.1969 127.681 40.7599 130.271 40.7598C134.113 40.76 137.23 43.8774 137.23 47.7197V134.021H154.25C155.493 134.021 156.5 135.028 156.5 136.271C156.5 137.513 155.492 138.521 154.25 138.521H26C24.7575 138.521 23.7503 137.513 23.75 136.271C23.75 135.028 24.7574 134.021 26 134.021H43.0205V43C43.0205 41.7574 44.0279 40.75 45.2705 40.75H106.181Z" fill="#272A2E"/>
</svg>
