<svg width="180" height="180" viewBox="0 0 180 180" fill="none" xmlns="http://www.w3.org/2000/svg">
<path fill-rule="evenodd" clip-rule="evenodd" d="M122.505 32.75C130.61 32.75 137.192 39.2823 137.192 47.3584C137.192 48.601 136.185 49.6084 134.942 49.6084C133.7 49.6084 132.692 48.601 132.692 47.3584C132.692 41.7923 128.149 37.25 122.505 37.25H41.8848C36.5464 37.2501 32.25 41.5473 32.25 46.8096C32.25 52.0792 36.5539 56.369 41.8848 56.3691H133.68C147.228 56.3691 158.24 67.2905 158.24 80.7871V82.0029C158.24 86.1634 158.247 90.1597 157.969 93.7607C157.691 97.3572 157.118 100.734 155.869 103.634C155.781 103.838 155.689 104.039 155.595 104.238C155.728 104.585 155.858 104.934 155.978 105.287C158.335 112.25 158.25 121.004 158.25 128.074C158.25 138.68 149.605 147.25 138.967 147.25H47.0332C36.3949 147.25 27.75 138.68 27.75 128.074V75.4951C27.7501 74.2526 28.7574 73.2451 30 73.2451C31.2426 73.2451 32.2499 74.2526 32.25 75.4951V128.074C32.25 136.168 38.8531 142.75 47.0332 142.75H138.967C147.147 142.75 153.75 136.168 153.75 128.074C153.75 121.548 153.775 114.547 152.313 108.773C151.524 109.504 150.633 110.159 149.624 110.724C146.672 112.376 142.905 113.174 138.197 113.174C134.45 113.174 131.442 112.005 129.36 110.023C127.29 108.052 126.291 105.416 126.325 102.799C126.395 97.4504 130.706 92.4834 138.06 92.4834C143.014 92.4835 146.926 93.7844 149.926 96.1543C150.974 96.9824 151.883 97.9238 152.677 98.9473C153.067 97.3167 153.323 95.4739 153.482 93.4141C153.745 90.0224 153.74 86.2167 153.74 82.0029V80.7871C153.74 69.8027 144.769 60.8691 133.68 60.8691H41.8848C34.0981 60.869 27.75 54.5939 27.75 46.8096C27.75 39.0374 34.0858 32.7501 41.8848 32.75H122.505ZM138.06 96.9834C133.026 96.9834 130.86 100.112 130.824 102.858C130.806 104.289 131.346 105.701 132.464 106.765C133.571 107.819 135.401 108.674 138.197 108.674C142.435 108.674 145.366 107.95 147.427 106.797C148.723 106.071 149.745 105.135 150.561 103.979C149.665 102.242 148.542 100.796 147.137 99.6855C145.069 98.0522 142.193 96.9835 138.06 96.9834Z" fill="#272A2E"/>
<path d="M146 77.75C147.243 77.75 148.25 78.7574 148.25 80C148.25 81.2426 147.243 82.25 146 82.25H116.716C113.019 82.25 109.25 86.1521 109.25 92.0244V112.976C109.25 118.848 113.019 122.75 116.716 122.75H146C147.243 122.75 148.25 123.757 148.25 125C148.25 126.243 147.243 127.25 146 127.25H116.716C109.687 127.25 104.75 120.392 104.75 112.976V92.0244C104.75 84.6084 109.687 77.75 116.716 77.75H146Z" fill="#272A2E"/>
</svg>
