<svg xmlns="http://www.w3.org/2000/svg" width="1050" height="180" viewBox="0 0 1050 180" fill="none">
<path d="M956.62 78.6599H943.76V42.8599H956.62C962.57 42.8599 967.2 44.5099 970.51 47.7999C973.82 51.0999 975.48 55.4099 975.48 60.7599C975.48 66.1099 973.82 70.4198 970.51 73.7198C967.2 77.0198 962.57 78.6599 956.62 78.6599ZM964.92 68.9499C966.79 66.9799 967.72 64.2499 967.72 60.7599C967.72 57.2699 966.79 54.5299 964.92 52.5699C963.05 50.5999 960.22 49.6199 956.42 49.6199H951.13V71.9099H956.42C960.22 71.9099 963.05 70.9299 964.92 68.9599V68.9499Z" fill="#00afff"/>
<path d="M984.1 78.6599H976.39L989.85 42.8599H997.62L1011.08 78.6599H1003.16L1000.99 72.5099H986.27L984.1 78.6599ZM993.68 51.9299H993.58L988.64 65.8999H998.62L993.68 51.9299Z" fill="#00afff"/>
<path d="M1043.96 47.3999C1047.46 50.9299 1049.2 55.3799 1049.2 60.7599C1049.2 66.1399 1047.45 70.5899 1043.96 74.1199C1040.46 77.6499 1036.01 79.4099 1030.6 79.4099C1025.19 79.4099 1020.73 77.6399 1017.24 74.1199C1013.74 70.5899 1012 66.1399 1012 60.7599C1012 55.3799 1013.75 50.9299 1017.24 47.3999C1020.74 43.8699 1025.19 42.1099 1030.6 42.1099C1036.01 42.1099 1040.47 43.8799 1043.96 47.3999ZM1038.41 69.1999C1040.43 67.0699 1041.44 64.2499 1041.44 60.7499C1041.44 57.2499 1040.43 54.4399 1038.41 52.2999C1036.39 50.1699 1033.79 49.0999 1030.59 49.0999C1027.39 49.0999 1024.79 50.1699 1022.77 52.2999C1020.75 54.4399 1019.74 57.2499 1019.74 60.7499C1019.74 64.2499 1020.75 67.0599 1022.77 69.1999C1024.79 71.3299 1027.39 72.3999 1030.59 72.3999C1033.79 72.3999 1036.39 71.3299 1038.41 69.1999Z" fill="#00afff"/>
<path d="M210.65 43.2397C191.59 43.2397 175.92 49.6998 163.65 62.6398C151.38 75.5698 145.25 91.7298 145.25 111.13C145.25 130.53 151.38 147.6 163.65 160.36C175.92 173.13 191.66 179.51 210.89 179.51C225.81 179.51 238.86 175.41 250.05 167.2C261.24 158.99 268.74 148.26 272.55 135H236.99C235 139.64 231.73 143.17 227.17 145.57C222.61 147.98 217.51 149.18 211.88 149.18C202.93 149.18 195.72 146.82 190.25 142.09C184.78 137.37 181.46 130.53 180.3 121.58H274.79L275.29 111.14C275.29 91.5798 269.28 75.3798 257.26 62.5298C245.24 49.6898 229.7 43.2598 210.64 43.2598L210.65 43.2397ZM180.81 96.1998C182.3 88.5798 185.62 82.5697 190.76 78.1697C195.9 73.7797 202.45 71.5798 210.4 71.5798C218.35 71.5798 225.15 73.8197 230.29 78.2897C235.43 82.7697 238.66 88.7298 239.99 96.1898H180.81V96.1998Z" fill="#ffffff"/>
<path d="M494.87 40.2397C475.81 40.2397 460.14 46.6998 447.87 59.6398C435.6 72.5698 429.47 88.7298 429.47 108.13C429.47 127.53 435.6 144.6 447.87 157.36C460.14 170.13 475.88 176.51 495.11 176.51C510.03 176.51 523.08 172.41 534.27 164.2C545.46 155.99 552.96 145.26 556.77 132H521.21C519.22 136.64 515.95 140.17 511.39 142.57C506.83 144.98 501.73 146.18 496.1 146.18C487.15 146.18 479.94 143.82 474.47 139.09C469 134.37 465.68 127.53 464.52 118.58H559.01L559.51 108.14C559.51 88.5798 553.5 72.3798 541.48 59.5298C529.46 46.6898 513.92 40.2598 494.86 40.2598L494.87 40.2397ZM465.03 93.1998C466.52 85.5798 469.84 79.5697 474.98 75.1697C480.12 70.7797 486.67 68.5798 494.62 68.5798C502.57 68.5798 509.37 70.8197 514.51 75.2897C519.65 79.7697 522.88 85.7298 524.21 93.1898H465.03V93.1998Z" fill="#ffffff"/>
<path d="M775.45 40.2397C756.39 40.2397 740.72 46.6998 728.45 59.6398C716.18 72.5698 710.05 88.7298 710.05 108.13C710.05 127.53 716.18 144.6 728.45 157.36C740.72 170.13 756.46 176.51 775.69 176.51C790.61 176.51 803.66 172.41 814.85 164.2C826.04 155.99 833.54 145.26 837.35 132H801.79C799.8 136.64 796.53 140.17 791.97 142.57C787.41 144.98 782.31 146.18 776.68 146.18C767.73 146.18 760.52 143.82 755.05 139.09C749.58 134.37 746.26 127.53 745.1 118.58H839.59L840.09 108.14C840.09 88.5798 834.08 72.3798 822.06 59.5298C810.04 46.6898 794.5 40.2598 775.44 40.2598L775.45 40.2397ZM745.62 93.1998C747.11 85.5798 750.43 79.5697 755.57 75.1697C760.71 70.7797 767.26 68.5798 775.21 68.5798C783.16 68.5798 789.96 70.8197 795.1 75.2897C800.24 79.7697 803.47 85.7298 804.8 93.1898H745.62V93.1998Z" fill="#ffffff"/>
<path d="M134.07 0.489746L87.2098 134.34L40.5798 0.489746H0.799805L64.9498 179.51H107.72L171.87 0.489746H134.07Z" fill="#ffffff"/>
<path d="M399.88 88.5098C397.15 87.0698 394.3 85.8997 391.35 84.9797C393.21 84.3597 395.02 83.6297 396.77 82.7897C403.73 79.4797 409.28 74.6698 413.43 68.3698C417.57 62.0698 419.65 54.5297 419.65 45.7397C419.65 31.8197 414.76 20.7898 404.98 12.6698C395.2 4.54977 382.35 0.489746 366.44 0.489746H283.14V179.52H369.67C380.77 179.52 390.43 177.53 398.64 173.55C406.85 169.57 413.23 163.9 417.79 156.52C422.35 149.15 424.63 140.57 424.63 130.78C424.63 120.99 422.39 112.5 417.92 105.29C413.44 98.0797 407.43 92.4798 399.89 88.5098H399.88ZM358.23 27.8398C365.85 27.8398 371.61 29.6997 375.51 33.4297C379.4 37.1597 381.35 42.6698 381.35 49.9698C381.35 57.2698 379.32 62.7798 375.26 66.5098C371.2 70.2398 365.27 72.0997 357.48 72.0997H321.43V27.8398H358.23ZM379.49 145.32C375.26 149.88 369 152.16 360.72 152.16H321.43V99.4498H359.47C367.93 99.4498 374.43 101.86 378.99 106.66C383.55 111.47 385.83 118.02 385.83 126.3C385.83 134.58 383.72 140.76 379.49 145.32Z" fill="#ffffff"/>
<path d="M702.41 147.05C695.82 147.05 690.96 145.62 687.83 142.75C684.7 139.88 683.14 135.58 683.14 129.84V74.1497H707.21V45.2897H683.14V12.4397L646.08 13.1197V45.2897H618.55V12.4397L581.49 13.1197V45.2897H560.15V74.1497H581.49V128.58C581.49 144.95 585.4 157.14 593.23 165.16C601.05 173.18 613.04 177.18 629.18 177.18C633.96 177.18 638.28 176.84 642.15 176.17C643.07 176.01 643.94 175.83 644.76 175.64V146.29C644.76 146.29 644.75 146.29 644.74 146.29C642.6 146.8 640.29 147.05 637.82 147.05C631.23 147.05 626.37 145.62 623.24 142.75C620.11 139.88 618.55 135.58 618.55 129.84V74.1497H646.08V128.58C646.08 144.95 649.99 157.14 657.82 165.16C665.64 173.18 677.63 177.18 693.77 177.18C698.55 177.18 702.87 176.84 706.74 176.17C707.66 176.01 708.53 175.83 709.35 175.64V146.29C709.35 146.29 709.34 146.29 709.33 146.29C707.19 146.8 704.88 147.05 702.41 147.05Z" fill="#ffffff"/>
<path d="M922.28 42.7498C912.37 42.7498 902.94 45.0198 895.25 51.6198C889.69 56.3898 886.98 61.7797 884.97 67.8497V45.2898H848.65V174.39H885.71V107.06C885.71 96.5998 888.51 89.2097 894.11 84.9097C899.71 80.6097 908.44 78.4498 920.3 78.4498C922.44 78.4498 924.25 78.4898 925.74 78.5798C927.22 78.6698 928.37 78.8798 929.2 79.2098V43.7697C927.72 43.0997 925.41 42.7598 922.28 42.7598V42.7498Z" fill="#ffffff"/>
</svg>