<svg width="80" height="80" viewBox="0 0 80 80" fill="none" xmlns="http://www.w3.org/2000/svg">
<path d="M39.1035 71.0367C39.8442 72.8784 41.608 74 43.4736 74L43.4775 73.9961C44.0615 73.9961 44.6573 73.8859 45.2334 73.6537C53.9463 70.1355 61.2207 65.3266 66.2689 59.7424C70.9135 54.6107 73.6649 48.8101 74.0176 43.4108C74.4057 37.4842 71.862 32.3723 67.2135 29.7395C64.5366 28.2244 61.307 27.5948 57.7481 27.8821C59.3355 24.6551 60.1115 21.5698 60.0527 18.6892C59.9783 14.8837 58.438 11.4757 55.7218 9.09488C53.2839 6.95801 50.0034 5.86399 46.4798 6.01353C43.3678 6.14733 40.2754 7.22954 37.7708 9.05946C33.9416 11.8693 31.1784 16.1942 29.3245 22.29C28.1056 26.3001 25.9381 33.423 24.0568 39.6014C21.8894 35.6189 18.8753 30.4203 14.7011 23.6949C13.3254 21.4793 10.4251 20.8024 8.21843 22.1837C6.01179 23.565 5.33765 26.4772 6.71337 28.6927C18.1424 47.0982 20.2393 53.1468 20.4549 53.8276C20.9017 55.9212 22.6732 57.3536 24.8093 57.456C26.9611 57.5622 28.8816 56.0825 29.5126 54.0165C29.5126 54.0165 35.8582 33.1593 38.3274 25.0447C39.562 20.9795 41.1964 18.2445 43.3207 16.69C45.2805 15.2536 48.1808 15.0293 49.5291 16.2099C50.2424 16.8356 50.6148 17.729 50.6383 18.8702C50.6697 20.4561 50.0151 22.4828 48.7531 24.7299C46.9345 27.9686 43.9008 31.6127 39.7384 35.5638C37.9511 37.2639 37.7669 40.0619 39.3229 41.9823C40.8789 43.8988 43.6421 44.2923 45.6646 42.8756C54.0991 36.9687 59.9352 36.4689 62.5808 37.9683C64.4582 39.0347 64.7247 41.1756 64.6189 42.789C64.4033 46.0672 62.5141 49.8332 59.2963 53.3908C55.1966 57.9243 49.1176 61.8989 41.7138 64.8898C39.3033 65.8618 38.1354 68.6165 39.1035 71.0367Z" fill="#004CFC"/>
</svg>
