<?xml version="1.0" encoding="UTF-8"?>
<svg id="Layer_2" xmlns="http://www.w3.org/2000/svg" version="1.1" viewBox="0 0 1578.5 1578.5">
  <!-- Generator: Adobe Illustrator 29.4.0, SVG Export Plug-In . SVG Version: 2.1.0 Build 152)  -->
  <defs>
    <style>
      .st0 {
        fill: #eef3f7;
      }

      .st1 {
        fill: #004cfc;
      }
    </style>
  </defs>
  <g id="B3TR">
    <rect class="st0" width="1578.5" height="1578.5" rx="147.8" ry="147.8"/>
    <path class="st1" d="M812.4,1299.5c-28.1,0-54.7-16.8-65.9-44.5-14.6-36.3,3-77.7,39.3-92.3,111.6-44.9,203.2-104.5,264.9-172.6,48.5-53.4,77-109.9,80.2-159.1,1.6-24.2-2.4-56.3-30.7-72.4-39.9-22.5-127.8-15-254.9,73.6-30.5,21.3-72.1,15.4-95.6-13.4-23.4-28.8-20.7-70.8,6.3-96.3,62.7-59.3,108.4-114,135.8-162.6,19-33.7,28.9-64.1,28.4-87.9-.4-17.1-6-30.5-16.7-39.9-20.3-17.7-64-14.4-93.5,7.2-32,23.3-56.6,64.4-75.2,125.4-37.2,121.8-132.8,434.8-132.8,434.8-9.5,31-38.4,53.2-70.9,51.6-32.2-1.5-58.9-23-65.6-54.5-3.2-10.2-34.9-101-207.1-377.2-20.7-33.3-10.6-77,22.7-97.7,33.3-20.7,77-10.6,97.7,22.7,62.9,100.9,108.3,179,141,238.7,28.3-92.7,61-199.6,79.4-259.8,27.9-91.5,69.6-156.4,127.3-198.6,37.7-27.5,84.3-43.7,131.2-45.7,53.1-2.2,102.5,14.2,139.3,46.2,40.9,35.7,64.1,86.9,65.3,144,.9,43.2-10.8,89.5-34.7,138,53.6-4.3,102.3,5.1,142.6,27.9,70,39.5,108.4,116.2,102.5,205.2-5.3,81-46.8,168.1-116.8,245.1-76.1,83.8-185.7,156-317,208.8-8.7,3.5-17.7,5.1-26.5,5.1h0c0,0,0,0,0,0Z"/>
  </g>
</svg>