<svg width="16" height="16" viewBox="0 0 16 16" fill="none" xmlns="http://www.w3.org/2000/svg">
<path fill-rule="evenodd" clip-rule="evenodd" d="M14.6098 2.60975C14.8701 2.3494 14.8701 1.92729 14.6098 1.66694C14.3494 1.40659 13.9273 1.40659 13.6669 1.66694L11.8965 3.43735C10.8482 2.54134 9.48741 2.00028 8.00024 2.00028C4.68654 2.00028 2.00024 4.68658 2.00024 8.00029C2.00024 9.48745 2.5413 10.8483 3.43731 11.8966L1.66694 13.6669C1.40659 13.9273 1.40659 14.3494 1.66694 14.6098C1.92729 14.8701 2.3494 14.8701 2.60975 14.6098L4.41084 12.8087C5.41181 13.5571 6.65427 14.0003 8.00024 14.0003C11.314 14.0003 14.0002 11.314 14.0002 8.00029C14.0002 6.65431 13.557 5.41185 12.8086 4.41088L14.6098 2.60975ZM10.95 4.38391C10.146 3.72739 9.11913 3.33362 8.00024 3.33362C5.42292 3.33362 3.33358 5.42296 3.33358 8.00029C3.33358 9.11917 3.72735 10.1461 4.38387 10.95L10.95 4.38391ZM5.36635 11.8531L11.8531 5.36639C12.3665 6.11601 12.6669 7.02307 12.6669 8.00029C12.6669 10.5776 10.5776 12.667 8.00024 12.667C7.02303 12.667 6.11597 12.3666 5.36635 11.8531Z" fill="#747C89"/>
</svg>
