<svg xmlns="http://www.w3.org/2000/svg" width="16" height="17" viewBox="0 0 16 17" fill="none">
  <g filter="url(#filter0_d_1427_21426)">
    <path fill-rule="evenodd" clip-rule="evenodd" d="M14.6098 3.10951C14.8701 2.84916 14.8701 2.42705 14.6098 2.1667C14.3494 1.90635 13.9273 1.90635 13.6669 2.1667L11.8965 3.93711C10.8482 3.0411 9.48741 2.50004 8.00024 2.50004C4.68654 2.50004 2.00024 5.18633 2.00024 8.50004C2.00024 9.98721 2.5413 11.348 3.43731 12.3963L1.66694 14.1667C1.40659 14.427 1.40659 14.8492 1.66694 15.1095C1.92729 15.3699 2.3494 15.3699 2.60975 15.1095L4.41084 13.3084C5.41181 14.0568 6.65427 14.5 8.00024 14.5C11.314 14.5 14.0002 11.8137 14.0002 8.50004C14.0002 7.15407 13.557 5.91161 12.8086 4.91063L14.6098 3.10951ZM10.95 4.88366C10.146 4.22714 9.11913 3.83337 8.00024 3.83337C5.42292 3.83337 3.33358 5.92271 3.33358 8.50004C3.33358 9.61893 3.72735 10.6458 4.38387 11.4498L10.95 4.88366ZM5.36635 12.3529L11.8531 5.86615C12.3665 6.61577 12.6669 7.52283 12.6669 8.50004C12.6669 11.0774 10.5776 13.1667 8.00024 13.1667C7.02303 13.1667 6.11597 12.8663 5.36635 12.3529Z" fill="#B59525"/>
  </g>
</svg>