<svg width="85" height="85" viewBox="0 0 85 85" fill="none" xmlns="http://www.w3.org/2000/svg">
<path d="M52.7404 59.7738L61.1081 54.9429C62.0195 54.4188 62.5815 53.446 62.5815 52.3929V32.7768C62.5815 31.7238 62.0195 30.751 61.1081 30.2268L44.1176 20.4188C43.2062 19.8946 42.0823 19.8946 41.1709 20.4188L24.1804 30.2268C23.269 30.751 22.707 31.7238 22.707 32.7768V52.3929C22.707 53.446 23.269 54.4188 24.1804 54.9429L41.1709 64.751C42.0823 65.2751 43.2062 65.2751 44.1176 64.751" stroke="#004CFC" stroke-width="2.125" stroke-linecap="round" stroke-linejoin="round"/>
<path d="M42.6488 18.4734C44.4901 18.4734 45.9827 16.9808 45.9827 15.1396C45.9827 13.2983 44.4901 11.8057 42.6488 11.8057C40.8076 11.8057 39.3149 13.2983 39.3149 15.1396C39.3149 16.9808 40.8076 18.4734 42.6488 18.4734Z" stroke="#004CFC" stroke-width="2.125" stroke-linecap="round" stroke-linejoin="round"/>
<path d="M42.6488 73.3646C44.4901 73.3646 45.9827 71.8719 45.9827 70.0307C45.9827 68.1894 44.4901 66.6968 42.6488 66.6968C40.8076 66.6968 39.3149 68.1894 39.3149 70.0307C39.3149 71.8719 40.8076 73.3646 42.6488 73.3646Z" stroke="#004CFC" stroke-width="2.125" stroke-linecap="round" stroke-linejoin="round"/>
<path d="M18.9101 32.1395C20.7513 32.1395 22.2439 30.6468 22.2439 28.8056C22.2439 26.9643 20.7513 25.4717 18.9101 25.4717C17.0688 25.4717 15.5762 26.9643 15.5762 28.8056C15.5762 30.6468 17.0688 32.1395 18.9101 32.1395Z" stroke="#004CFC" stroke-width="2.125" stroke-linecap="round" stroke-linejoin="round"/>
<path d="M66.3827 59.6983C68.224 59.6983 69.7166 58.2057 69.7166 56.3644C69.7166 54.5231 68.224 53.0305 66.3827 53.0305C64.5415 53.0305 63.0488 54.5231 63.0488 56.3644C63.0488 58.2057 64.5415 59.6983 66.3827 59.6983Z" stroke="#004CFC" stroke-width="2.125" stroke-linecap="round" stroke-linejoin="round"/>
<path d="M18.9101 59.6983C20.7513 59.6983 22.2439 58.2057 22.2439 56.3644C22.2439 54.5231 20.7513 53.0305 18.9101 53.0305C17.0688 53.0305 15.5762 54.5231 15.5762 56.3644C15.5762 58.2057 17.0688 59.6983 18.9101 59.6983Z" stroke="#004CFC" stroke-width="2.125" stroke-linecap="round" stroke-linejoin="round"/>
<path d="M66.3827 32.1395C68.224 32.1395 69.7166 30.6468 69.7166 28.8056C69.7166 26.9643 68.224 25.4717 66.3827 25.4717C64.5415 25.4717 63.0488 26.9643 63.0488 28.8056C63.0488 30.6468 64.5415 32.1395 66.3827 32.1395Z" stroke="#004CFC" stroke-width="2.125" stroke-linecap="round" stroke-linejoin="round"/>
<path d="M33.733 33.4899C35.3338 32.6919 45.9777 27.7477 48.0461 31.3035C50.6622 35.8085 37.9594 39.9263 33.733 41.8057C36.9961 40.4505 51.4083 34.0707 54.0433 39.4541C57.5188 46.561 38.7999 52.2749 31.0508 53.5169" stroke="#004CFC" stroke-width="2.125" stroke-linecap="round" stroke-linejoin="round"/>
</svg>
