<svg width="12" height="13" viewBox="0 0 12 13" fill="none" xmlns="http://www.w3.org/2000/svg">
<path d="M6 1.64111C5.0111 1.64111 4.0444 1.93436 3.22215 2.48377C2.39991 3.03317 1.75904 3.81407 1.3806 4.7277C1.00217 5.64133 0.90315 6.64666 1.09608 7.61657C1.289 8.58647 1.76521 9.47739 2.46447 10.1766C3.16373 10.8759 4.05465 11.3521 5.02455 11.545C5.99446 11.738 6.99979 11.639 7.91342 11.2605C8.82705 10.8821 9.60794 10.2412 10.1573 9.41897C10.7068 8.59672 11 7.63002 11 6.64111C11 5.9845 10.8707 5.33432 10.6194 4.7277C10.3681 4.12107 9.99983 3.56987 9.53554 3.10558C9.07124 2.64129 8.52005 2.27299 7.91342 2.02172C7.30679 1.77044 6.65661 1.64111 6 1.64111V1.64111ZM6 10.6411C5.20888 10.6411 4.43552 10.4065 3.77772 9.96699C3.11992 9.52747 2.60723 8.90275 2.30448 8.17185C2.00173 7.44094 1.92252 6.63668 2.07686 5.86075C2.2312 5.08483 2.61217 4.3721 3.17158 3.81269C3.73099 3.25328 4.44372 2.87231 5.21964 2.71797C5.99557 2.56363 6.79983 2.64284 7.53074 2.9456C8.26164 3.24835 8.88635 3.76104 9.32588 4.41883C9.76541 5.07663 10 5.84999 10 6.64111C10 7.70198 9.57858 8.7194 8.82843 9.46954C8.07828 10.2197 7.06087 10.6411 6 10.6411V10.6411ZM6 3.64111C5.86739 3.64111 5.74022 3.69379 5.64645 3.78756C5.55268 3.88133 5.5 4.00851 5.5 4.14111V6.35111L4.45 6.95611C4.35368 7.0107 4.2782 7.0957 4.23539 7.1978C4.19259 7.2999 4.18488 7.41333 4.21347 7.52028C4.24207 7.62723 4.30536 7.72167 4.39341 7.78878C4.48146 7.8559 4.58929 7.89189 4.7 7.89111C4.78759 7.89172 4.8738 7.8693 4.95 7.82611L6.25 7.07611L6.295 7.03111L6.375 6.96611C6.39455 6.94136 6.41132 6.91453 6.425 6.88611C6.4413 6.85927 6.45471 6.83078 6.465 6.80111C6.4786 6.76932 6.48704 6.73556 6.49 6.70111C6.49 6.70111 6.5 6.64111 6.5 6.64111V4.14111C6.5 4.00851 6.44732 3.88133 6.35356 3.78756C6.25979 3.69379 6.13261 3.64111 6 3.64111Z" fill="#C84968"/>
</svg>
