<svg xmlns="http://www.w3.org/2000/svg" width="110" height="110" viewBox="0 0 110 110" fill="none">
  <path fill-rule="evenodd" clip-rule="evenodd" d="M1.0498 2.96008C1.0498 1.90517 1.92308 1.05 3.00031 1.05H68.9014C69.4802 1.05 70.0291 1.30172 70.3997 1.73709L92.6701 27.9009C93.1548 28.4702 93.2593 29.2627 92.9383 29.934C92.6173 30.6052 91.9288 31.034 91.1719 31.034H73.0373C72.8784 31.034 72.6616 31.034 72.4444 31.0239C59.9586 30.6017 53.5239 16.3023 61.1693 6.78021L61.1699 6.7795L62.7016 4.87015H4.95082V105.23H89.2214V93.2972C89.2214 92.2423 90.0946 91.3871 91.1719 91.3871C92.2491 91.3871 93.1224 92.2423 93.1224 93.2972V107.14C93.1224 108.195 92.2491 109.05 91.1719 109.05H3.00031C1.92308 109.05 1.0498 108.195 1.0498 107.14V2.96008ZM67.6625 4.87015L64.2369 9.14018L64.2364 9.14089C58.4837 16.3048 63.4143 26.9045 72.5905 27.2064C72.6012 27.2068 72.6118 27.2072 72.6224 27.2077C72.7387 27.2134 72.8713 27.2138 73.0538 27.2138H87.0068L67.988 4.87015H67.6625Z" fill="#004CFC"/>
  <path d="M37.7689 73.7146C37.3437 73.4389 36.3742 73.3778 35.4394 73.8325L35.4348 73.8347C34.5047 74.2841 33.7804 75.0387 32.8019 76.0944C30.6776 78.401 28.4359 80.7476 26.2075 83.0792L26.1196 83.1712C23.9155 85.4774 21.726 87.7683 19.6519 90.0159C18.9297 90.7985 17.6962 90.8596 16.897 90.1523C16.0978 89.445 16.0354 88.2372 16.7577 87.4545C18.8547 85.1822 21.0639 82.8706 23.2597 80.5731L23.3593 80.4688C25.5926 78.1321 27.8103 75.8104 29.9071 73.5336L30.0056 73.4273C30.888 72.4738 32.0624 71.2049 33.7066 70.4099C35.389 69.5924 37.9359 69.2436 39.9192 70.5272C41.9815 71.8558 42.4068 74.2471 41.9412 76.0461C41.7067 76.9524 41.274 77.7231 40.8574 78.3556C40.6159 78.7224 40.3009 79.1518 40.0303 79.5208L40.0294 79.522C39.8856 79.7181 39.7544 79.897 39.6534 80.0403L39.6518 80.0426C38.2043 82.0908 37.1828 83.7323 36.5071 85.0201C36.0419 85.9066 35.7712 86.5689 35.6263 87.0426C36.8757 86.6973 38.8048 85.7205 41.0814 84.2217C43.4212 82.6813 45.948 80.7102 48.1825 78.6576C48.8902 78.0075 49.9784 77.9657 50.7359 78.5596C51.4935 79.1536 51.69 80.2025 51.197 81.021C50.3653 82.4021 49.7701 83.4533 49.5959 84.5071C49.438 85.463 49.7613 86.3018 50.3506 86.7225C50.6827 86.957 51.3506 87.0908 52.0842 86.8979C52.8544 86.6954 53.022 86.339 53.0328 86.2921C53.2712 85.2634 54.316 84.6186 55.3666 84.852C56.4171 85.0854 57.0755 86.1086 56.8371 87.1374C56.3799 89.1109 54.6099 90.1893 53.0959 90.5874C51.5464 90.9948 49.5843 90.8959 48.0607 89.8152L48.0576 89.8131C46.5754 88.7574 45.8651 87.2076 45.6977 85.6872C44.8775 86.2924 44.0591 86.8645 43.2578 87.392C40.7935 89.0144 38.3009 90.3438 36.3507 90.8052C35.4488 91.0185 34.1352 91.179 33.0238 90.5021C31.6743 89.6803 31.4829 88.2342 31.6254 87.1284C31.7678 86.023 32.2742 84.7285 33.0373 83.2742C33.8173 81.7877 34.9395 79.9977 36.4433 77.8697C36.6461 77.5819 36.8164 77.3514 36.9725 77.1401C37.1857 76.8517 37.3726 76.5986 37.5791 76.2851C37.8907 75.8119 38.0735 75.4408 38.1597 75.1077C38.3355 74.4287 38.0852 73.918 37.7745 73.7182L37.7689 73.7146Z" fill="#004CFC"/>
  <path d="M18.2048 50.1941C17.1275 50.1941 16.2543 51.0492 16.2543 52.1042C16.2543 53.1591 17.1275 54.0142 18.2048 54.0142H68.0454C69.1226 54.0142 69.9959 53.1591 69.9959 52.1042C69.9959 51.0492 69.1226 50.1941 68.0454 50.1941H18.2048Z" fill="#004CFC"/>
  <path d="M16.2543 37.1122C16.2543 36.0573 17.1275 35.2022 18.2048 35.2022H57.1022C58.1794 35.2022 59.0527 36.0573 59.0527 37.1122C59.0527 38.1672 58.1794 39.0223 57.1022 39.0223H18.2048C17.1275 39.0223 16.2543 38.1672 16.2543 37.1122Z" fill="#004CFC"/>
  <path fill-rule="evenodd" clip-rule="evenodd" d="M91.5512 36.4413C91.7549 36.5338 91.944 36.6616 92.1081 36.8227C92.2052 36.9176 92.2904 37.0209 92.3634 37.1307L108.709 60.5096C109.118 61.0943 109.162 61.8526 108.825 62.4795C108.487 63.1064 107.823 63.4987 107.099 63.4987H100.757V84.2521C100.757 85.307 99.884 86.1622 98.8067 86.1622H90.9582C90.8805 86.1622 90.8039 86.1577 90.7287 86.1491C90.6534 86.1577 90.5768 86.1622 90.4991 86.1622H82.6506C81.5733 86.1622 80.7001 85.307 80.7001 84.2521V63.4987H74.358C73.6344 63.4987 72.9702 63.1064 72.6327 62.4795C72.2951 61.8526 72.3398 61.0943 72.7486 60.5096L89.0939 37.1307C89.1669 37.0209 89.2521 36.9176 89.3492 36.8227C89.5133 36.6616 89.7024 36.5338 89.9061 36.4413C90.1691 36.3212 90.45 36.2631 90.7287 36.2633C91.0073 36.2631 91.2882 36.3212 91.5512 36.4413ZM78.0573 59.6786L90.7287 41.5546L103.4 59.6786H98.8067C97.7295 59.6786 96.8562 60.5337 96.8562 61.5886V82.342H90.9582C90.8805 82.342 90.8039 82.3464 90.7287 82.3551C90.6534 82.3464 90.5768 82.342 90.4991 82.342H84.6011L84.6011 61.5886C84.6011 60.5337 83.7278 59.6786 82.6506 59.6786H78.0573Z" fill="#004CFC"/>
  <path fill-rule="evenodd" clip-rule="evenodd" d="M1.0498 2.96008C1.0498 1.90517 1.92308 1.05 3.00031 1.05H68.9014C69.4802 1.05 70.0291 1.30172 70.3997 1.73709L92.6701 27.9009C93.1548 28.4702 93.2593 29.2627 92.9383 29.934C92.6173 30.6052 91.9288 31.034 91.1719 31.034H73.0373C72.8784 31.034 72.6616 31.034 72.4444 31.0239C59.9586 30.6017 53.5239 16.3023 61.1693 6.78021L61.1699 6.7795L62.7016 4.87015H4.95082V105.23H89.2214V93.2972C89.2214 92.2423 90.0946 91.3871 91.1719 91.3871C92.2491 91.3871 93.1224 92.2423 93.1224 93.2972V107.14C93.1224 108.195 92.2491 109.05 91.1719 109.05H3.00031C1.92308 109.05 1.0498 108.195 1.0498 107.14V2.96008ZM67.6625 4.87015L64.2369 9.14018L64.2364 9.14089C58.4837 16.3048 63.4143 26.9045 72.5905 27.2064C72.6012 27.2068 72.6118 27.2072 72.6224 27.2077C72.7387 27.2134 72.8713 27.2138 73.0538 27.2138H87.0068L67.988 4.87015H67.6625Z" stroke="#004CFC" stroke-width="0.25" stroke-linecap="round" stroke-linejoin="round"/>
  <path d="M37.7689 73.7146C37.3437 73.4389 36.3742 73.3778 35.4394 73.8325L35.4348 73.8347C34.5047 74.2841 33.7804 75.0387 32.8019 76.0944C30.6776 78.401 28.4359 80.7476 26.2075 83.0792L26.1196 83.1712C23.9155 85.4774 21.726 87.7683 19.6519 90.0159C18.9297 90.7985 17.6962 90.8596 16.897 90.1523C16.0978 89.445 16.0354 88.2372 16.7577 87.4545C18.8547 85.1822 21.0639 82.8706 23.2597 80.5731L23.3593 80.4688C25.5926 78.1321 27.8103 75.8104 29.9071 73.5336L30.0056 73.4273C30.888 72.4738 32.0624 71.2049 33.7066 70.4099C35.389 69.5924 37.9359 69.2436 39.9192 70.5272C41.9815 71.8558 42.4068 74.2471 41.9412 76.0461C41.7067 76.9524 41.274 77.7231 40.8574 78.3556C40.6159 78.7224 40.3009 79.1518 40.0303 79.5208L40.0294 79.522C39.8856 79.7181 39.7544 79.897 39.6534 80.0403L39.6518 80.0426C38.2043 82.0908 37.1828 83.7323 36.5071 85.0201C36.0419 85.9066 35.7712 86.5689 35.6263 87.0426C36.8757 86.6973 38.8048 85.7205 41.0814 84.2217C43.4212 82.6813 45.948 80.7102 48.1825 78.6576C48.8902 78.0075 49.9784 77.9657 50.7359 78.5596C51.4935 79.1536 51.69 80.2025 51.197 81.021C50.3653 82.4021 49.7701 83.4533 49.5959 84.5071C49.438 85.463 49.7613 86.3018 50.3506 86.7225C50.6827 86.957 51.3506 87.0908 52.0842 86.8979C52.8544 86.6954 53.022 86.339 53.0328 86.2921C53.2712 85.2634 54.316 84.6186 55.3666 84.852C56.4171 85.0854 57.0755 86.1086 56.8371 87.1374C56.3799 89.1109 54.6099 90.1893 53.0959 90.5874C51.5464 90.9948 49.5843 90.8959 48.0607 89.8152L48.0576 89.8131C46.5754 88.7574 45.8651 87.2076 45.6977 85.6872C44.8775 86.2924 44.0591 86.8645 43.2578 87.392C40.7935 89.0144 38.3009 90.3438 36.3507 90.8052C35.4488 91.0185 34.1352 91.179 33.0238 90.5021C31.6743 89.6803 31.4829 88.2342 31.6254 87.1284C31.7678 86.023 32.2742 84.7285 33.0373 83.2742C33.8173 81.7877 34.9395 79.9977 36.4433 77.8697C36.6461 77.5819 36.8164 77.3514 36.9725 77.1401C37.1857 76.8517 37.3726 76.5986 37.5791 76.2851C37.8907 75.8119 38.0735 75.4408 38.1597 75.1077C38.3355 74.4287 38.0852 73.918 37.7745 73.7182L37.7689 73.7146Z" stroke="#004CFC" stroke-width="0.25" stroke-linecap="round" stroke-linejoin="round"/>
  <path d="M18.2048 50.1941C17.1275 50.1941 16.2543 51.0492 16.2543 52.1042C16.2543 53.1591 17.1275 54.0142 18.2048 54.0142H68.0454C69.1226 54.0142 69.9959 53.1591 69.9959 52.1042C69.9959 51.0492 69.1226 50.1941 68.0454 50.1941H18.2048Z" stroke="#004CFC" stroke-width="0.25" stroke-linecap="round" stroke-linejoin="round"/>
  <path d="M16.2543 37.1122C16.2543 36.0573 17.1275 35.2022 18.2048 35.2022H57.1022C58.1794 35.2022 59.0527 36.0573 59.0527 37.1122C59.0527 38.1672 58.1794 39.0223 57.1022 39.0223H18.2048C17.1275 39.0223 16.2543 38.1672 16.2543 37.1122Z" stroke="#004CFC" stroke-width="0.25" stroke-linecap="round" stroke-linejoin="round"/>
  <path fill-rule="evenodd" clip-rule="evenodd" d="M91.5512 36.4413C91.7549 36.5338 91.944 36.6616 92.1081 36.8227C92.2052 36.9176 92.2904 37.0209 92.3634 37.1307L108.709 60.5096C109.118 61.0943 109.162 61.8526 108.825 62.4795C108.487 63.1064 107.823 63.4987 107.099 63.4987H100.757V84.2521C100.757 85.307 99.884 86.1622 98.8067 86.1622H90.9582C90.8805 86.1622 90.8039 86.1577 90.7287 86.1491C90.6534 86.1577 90.5768 86.1622 90.4991 86.1622H82.6506C81.5733 86.1622 80.7001 85.307 80.7001 84.2521V63.4987H74.358C73.6344 63.4987 72.9702 63.1064 72.6327 62.4795C72.2951 61.8526 72.3398 61.0943 72.7486 60.5096L89.0939 37.1307C89.1669 37.0209 89.2521 36.9176 89.3492 36.8227C89.5133 36.6616 89.7024 36.5338 89.9061 36.4413C90.1691 36.3212 90.45 36.2631 90.7287 36.2633C91.0073 36.2631 91.2882 36.3212 91.5512 36.4413ZM78.0573 59.6786L90.7287 41.5546L103.4 59.6786H98.8067C97.7295 59.6786 96.8562 60.5337 96.8562 61.5886V82.342H90.9582C90.8805 82.342 90.8039 82.3464 90.7287 82.3551C90.6534 82.3464 90.5768 82.342 90.4991 82.342H84.6011L84.6011 61.5886C84.6011 60.5337 83.7278 59.6786 82.6506 59.6786H78.0573Z" stroke="#004CFC" stroke-width="0.25" stroke-linecap="round" stroke-linejoin="round"/>
</svg>