<svg width="109" height="109" viewBox="0 0 109 109" fill="none" xmlns="http://www.w3.org/2000/svg">
<path d="M47.0728 47.3924C43.4608 51.2444 39.5968 54.8624 35.3428 58.0064C32.8108 59.9444 28.5448 62.3085 26.4028 58.6965C24.7168 55.3665 27.2248 51.7124 29.1808 49.0544C33.3868 43.5584 39.4828 38.5904 45.0868 34.3904C46.3108 33.5804 47.5228 33.4424 48.7048 34.1624C50.1808 35.0744 50.9909 36.1724 52.6529 37.2284C55.6589 39.2744 61.5628 42.3164 64.7608 39.4724C66.8908 37.2884 64.9948 33.9584 63.3868 31.9724C55.6288 22.3004 41.7388 18.0224 31.8268 25.4924C30.6148 26.4044 14.7088 40.4924 8.13281 46.2044" stroke="#373EDF" stroke-width="2.7" stroke-linecap="round" stroke-linejoin="round"/>
<path d="M32.4398 59.9144C32.0498 61.2644 32.2118 61.6724 32.3078 63.0044C32.4458 66.0764 35.1399 68.4104 38.3319 67.6484C43.0479 66.6284 50.3498 58.3364 53.6438 54.6704" stroke="#373EDF" stroke-width="2.7" stroke-linecap="round" stroke-linejoin="round"/>
<path d="M41.2591 66.3525C39.8551 67.3905 39.0571 69.2025 39.2371 70.9425C39.4171 72.6825 40.5691 74.2905 42.1591 75.0165C43.7491 75.7425 45.7171 75.5685 47.1571 74.5725" stroke="#373EDF" stroke-width="2.7" stroke-linecap="round" stroke-linejoin="round"/>
<path d="M48.303 71.2844C47.031 73.0424 47.121 75.5024 47.979 77.4944C48.837 79.4864 50.355 81.1124 51.855 82.6724C53.127 83.9924 54.501 85.3604 56.277 85.7984C57.861 86.1884 59.625 85.7384 60.825 84.6404C62.025 83.5364 62.625 81.8204 62.373 80.2124C62.103 78.4964 60.969 77.0564 59.781 75.7844C57.357 73.1864 51.981 66.1964 48.297 71.2844H48.303Z" stroke="#373EDF" stroke-width="2.7" stroke-linecap="round" stroke-linejoin="round"/>
<path d="M55.8089 63.5744C54.5369 65.3324 54.6269 67.7924 55.4849 69.7844C56.3429 71.7764 57.8608 73.4024 59.3608 74.9624C60.6328 76.2824 62.0068 77.6504 63.7828 78.0884C65.3668 78.4784 67.1309 78.0284 68.3309 76.9304C69.5309 75.8264 70.1309 74.1104 69.8789 72.5024C69.6089 70.7864 68.4748 69.3464 67.2868 68.0744C64.8628 65.4764 59.4869 58.4864 55.8029 63.5744H55.8089Z" stroke="#373EDF" stroke-width="2.7" stroke-linecap="round" stroke-linejoin="round"/>
<path d="M63.5247 56.4646C62.2527 58.2226 62.3427 60.6826 63.2007 62.6746C64.0587 64.6666 65.5767 66.2926 67.0767 67.8526C68.3487 69.1726 69.7227 70.5406 71.4987 70.9786C73.0827 71.3686 74.8467 70.9186 76.0467 69.8206C77.2467 68.7226 77.8467 67.0006 77.5947 65.3926C77.3247 63.6766 76.1907 62.2366 75.0027 60.9646C72.5787 58.3666 67.2027 51.3766 63.5187 56.4646H63.5247Z" stroke="#373EDF" stroke-width="2.7" stroke-linecap="round" stroke-linejoin="round"/>
<path d="M71.2356 48.5505C69.9636 50.3085 70.0536 52.7685 70.9116 54.7605C71.7696 56.7525 73.2876 58.3785 74.7876 59.9385C76.0596 61.2585 77.4337 62.6265 79.2097 63.0645C80.7937 63.4545 82.5576 63.0045 83.7576 61.9065C84.9576 60.8085 85.5576 59.0865 85.3056 57.4785C85.0356 55.7625 83.9016 54.3225 82.7136 53.0505C80.2896 50.4525 74.9136 43.4625 71.2296 48.5505H71.2356Z" stroke="#373EDF" stroke-width="2.7" stroke-linecap="round" stroke-linejoin="round"/>
<path d="M84.6807 54.9643C86.2527 53.5123 99.1467 40.7383 100.719 39.2803" stroke="#373EDF" stroke-width="2.7" stroke-linecap="round" stroke-linejoin="round"/>
</svg>
