<svg width="126" height="126" viewBox="0 0 126 126" fill="none" xmlns="http://www.w3.org/2000/svg">
<path d="M19.0771 105.826C22.7101 97.9016 32.4471 93.3516 40.8541 95.6336C45.9011 97.0056 50.1291 100.422 54.9521 102.445C62.9111 105.791 72.1442 105.126 80.2572 102.151C88.3632 99.1826 109.531 88.8786 105.912 83.1456C102.727 78.0986 93.7672 81.1296 85.3532 84.8046" stroke="#373EDF" stroke-width="3.15" stroke-linecap="round" stroke-linejoin="round"/>
<path d="M80.9505 54.3338C80.9505 54.3338 80.9505 20.4258 46.9655 20.4258C46.9655 20.4258 37.5645 63.4968 83.1415 65.1558C61.2875 62.0548 19.7285 80.4858 19.7285 80.4858C42.0165 72.1838 94.4186 69.8318 87.1946 83.3628C84.5696 88.2698 70.1495 83.4258 62.9885 88.2208" stroke="#373EDF" stroke-width="3.15" stroke-linecap="round" stroke-linejoin="round"/>
<path d="M46.9648 20.4258C46.9648 20.4258 59.9149 36.7708 74.4749 54.5718" stroke="#373EDF" stroke-width="3.15" stroke-linecap="round" stroke-linejoin="round"/>
</svg>
