<svg width="55" height="55" viewBox="0 0 55 55" fill="none" xmlns="http://www.w3.org/2000/svg">
    <path
        d="M37.2604 7.26099C40.6274 7.52508 43.789 8.98458 46.1741 11.3759C48.8011 14.019 50.2757 17.5942 50.2757 21.3209C50.2757 25.0475 48.8011 28.6227 46.1741 31.2659L32.2016 45.2609C31.0316 46.4124 29.4557 47.0577 27.8141 47.0577C26.1725 47.0577 24.5966 46.4124 23.4266 45.2609L9.4541 31.2659C6.92244 28.7519 5.43735 25.372 5.2979 21.8069C5.15845 18.2418 6.37499 14.7562 8.70254 12.0522C11.0301 9.34811 14.2958 7.62638 17.8419 7.23369C21.3881 6.84101 24.9513 7.80655 27.8141 9.93586C30.5428 7.94566 33.8933 6.99691 37.2604 7.26099Z"
        fill="#004CFC" />
</svg>
    