<svg width="26" height="25" viewBox="0 0 26 25" fill="none" xmlns="http://www.w3.org/2000/svg">
    <path
        d="M25.0871 16.7947C25.4676 17.0802 25.0309 18.061 24.5641 17.9693C21.8028 17.4269 18.0226 17.0169 15.3601 18.0389C12.6975 19.061 10.1626 21.8951 8.47352 24.1459C8.188 24.5264 7.20719 24.0897 7.29888 23.623C7.84131 20.8616 8.25132 17.0814 7.22928 14.4189C6.20724 11.7563 3.37307 9.22143 1.12226 7.53232C0.741806 7.2468 1.17849 6.26599 1.64525 6.35768C4.40658 6.90011 8.18682 7.31012 10.8493 6.28808C13.5118 5.26604 16.0468 2.43187 17.7359 0.181067C18.0214 -0.199393 19.0022 0.237291 18.9105 0.704048C18.3681 3.46539 17.9581 7.24562 18.9801 9.90814C20.0022 12.5706 22.8363 15.1056 25.0871 16.7947Z"
        fill="#ABEB74" />
</svg>
    