<svg width="59" height="59" viewBox="0 0 59 59" fill="none" xmlns="http://www.w3.org/2000/svg">
<path d="M24.6142 45.4207C24.8124 45.4207 24.9613 45.4724 25.0604 45.5762C25.1643 45.6801 25.216 45.8313 25.216 46.0295V49.9519C25.216 50.1312 25.1689 50.2752 25.0745 50.3838C24.9801 50.4876 24.8525 50.5393 24.692 50.5393C24.5316 50.5393 24.4042 50.5111 24.3098 50.4545C24.2201 50.3931 24.1233 50.2986 24.0195 50.1712L21.9734 47.6085V49.9235C21.9734 50.1264 21.9214 50.2799 21.8175 50.3838C21.7184 50.4875 21.5698 50.5393 21.3716 50.5393C21.1734 50.5393 21.0222 50.4876 20.9184 50.3838C20.8146 50.2799 20.7628 50.1264 20.7628 49.9235V46.065C20.7628 45.8574 20.8146 45.6992 20.9184 45.5906C21.0222 45.4774 21.1592 45.4207 21.3291 45.4207C21.4801 45.4207 21.5981 45.4489 21.6831 45.5055C21.768 45.5621 21.8625 45.6566 21.9664 45.7888L24.0124 48.3447V46.0295C24.0124 45.8313 24.0621 45.6801 24.1613 45.5762C24.2651 45.4725 24.4161 45.4207 24.6142 45.4207Z" fill="#CBDDFF"/>
<path d="M31.2895 45.4844C31.4593 45.4844 31.5867 45.5268 31.6717 45.6118C31.7566 45.6967 31.7991 45.8194 31.7991 45.9799C31.7991 46.1451 31.7566 46.2727 31.6717 46.3624C31.5867 46.4473 31.4593 46.4898 31.2895 46.4898H29.5549V47.4952H31.1336C31.2988 47.4952 31.4238 47.5377 31.5087 47.6226C31.5984 47.7076 31.6435 47.8302 31.6435 47.9907C31.6435 48.1559 31.5984 48.2809 31.5087 48.3659C31.4238 48.4508 31.2988 48.4933 31.1336 48.4933H29.5549V49.8668C29.5549 50.3152 29.34 50.5393 28.9105 50.5393C28.7029 50.5393 28.54 50.4829 28.4221 50.3697C28.3088 50.2517 28.2521 50.0839 28.2521 49.8668V46.1569C28.2521 45.9398 28.3088 45.7747 28.4221 45.6614C28.54 45.5434 28.7099 45.4844 28.9316 45.4844H31.2895Z" fill="#CBDDFF"/>
<path d="M38.1763 45.4844C38.3509 45.4844 38.4829 45.5292 38.5726 45.6188C38.667 45.7085 38.7144 45.8408 38.7144 46.0154C38.7144 46.1853 38.667 46.3173 38.5726 46.4117C38.4829 46.5014 38.3509 46.5464 38.1763 46.5464H37.0646V49.8809C37.0646 50.0886 37.0106 50.2517 36.902 50.3697C36.7935 50.4829 36.6304 50.5393 36.4132 50.5393C36.2056 50.5393 36.0451 50.4829 35.9318 50.3697C35.8185 50.2517 35.7618 50.0886 35.7618 49.8809V46.5464H34.6505C34.4758 46.5464 34.3412 46.5014 34.2468 46.4117C34.1572 46.3173 34.1124 46.1852 34.1124 46.0154C34.1124 45.8408 34.1572 45.7085 34.2468 45.6188C34.3412 45.5291 34.4758 45.4844 34.6505 45.4844H38.1763Z" fill="#CBDDFF"/>
<path d="M27.7947 9.26941C28.8167 8.68176 30.0691 8.66338 31.1054 9.21435L31.205 9.26941L31.2059 9.27005L46.2901 17.976C47.3462 18.5838 47.9961 19.7105 47.9962 20.9292V38.3411C47.9962 39.5598 47.3458 40.6862 46.2898 41.294L46.2901 41.2943L42.6647 43.3874C42.2838 43.6073 41.7966 43.4768 41.5767 43.0958C41.3569 42.7149 41.4874 42.2277 41.8683 42.0078L45.4937 39.9147L45.4947 39.9141C46.0561 39.5912 46.4034 38.9914 46.4034 38.3411V20.9292C46.4034 20.279 46.0561 19.6791 45.4947 19.3563L45.4937 19.3556L30.4095 10.6497C29.8469 10.3268 29.1524 10.3264 28.5898 10.6493L28.5901 10.6497L13.5059 19.3556L13.505 19.3563C12.9435 19.6791 12.5963 20.279 12.5962 20.9292V38.3411C12.5962 38.9507 12.9014 39.5161 13.4022 39.8504L13.505 39.9141L13.5059 39.9147L17.1313 42.0078C17.5122 42.2277 17.6428 42.7149 17.4229 43.0958C17.2168 43.4529 16.7758 43.59 16.4076 43.4246L16.3349 43.3874L12.7095 41.2943C11.6536 40.6865 11.0034 39.5597 11.0034 38.3411V20.9292C11.0035 19.7106 11.6535 18.5838 12.7095 17.976L27.7937 9.27005L27.7947 9.26941Z" fill="#CBDDFF"/>
<path fill-rule="evenodd" clip-rule="evenodd" d="M27.0242 17.1569C27.4641 17.1573 27.8206 17.514 27.8203 17.9539C27.82 18.3359 27.8057 18.7015 27.7793 19.0509C28.3575 18.961 28.9498 18.9145 29.553 18.9145C31.2653 18.9145 32.8931 19.2905 34.3544 19.9667L34.6242 20.096C34.6304 20.0989 34.6367 20.1016 34.6428 20.1046C38.422 21.9771 41.0216 25.8753 41.0223 30.3816C41.0222 36.7156 35.8866 41.8513 29.5526 41.8513C23.2188 41.8511 18.0834 36.7155 18.0833 30.3816C18.0833 29.1432 18.279 27.9499 18.6447 26.8298C18.6473 26.8219 18.6505 26.814 18.6534 26.8062C18.6552 26.8011 18.6569 26.7961 18.6588 26.7911C18.6665 26.7711 18.6749 26.7514 18.6841 26.7322C18.6859 26.7286 18.6877 26.725 18.6896 26.7213C18.6979 26.7045 18.7069 26.6881 18.7164 26.672C18.7188 26.6681 18.7211 26.6641 18.7235 26.6602C18.8008 26.5343 18.9118 26.4324 19.0436 26.366C19.0448 26.3654 19.0459 26.3647 19.0471 26.3641L19.0829 26.3475C19.0908 26.344 19.0987 26.3407 19.1066 26.3375C19.1102 26.3361 19.1139 26.3348 19.1175 26.3334C19.1545 26.3192 19.1928 26.3077 19.2321 26.2991C19.2374 26.298 19.2428 26.297 19.2481 26.2959C19.2517 26.2952 19.2554 26.2947 19.259 26.294C19.2795 26.2903 19.2999 26.2872 19.3205 26.285C19.3222 26.2849 19.3239 26.2846 19.3256 26.2844C19.3707 26.28 19.4157 26.2799 19.4603 26.2831C19.4647 26.2834 19.4691 26.2837 19.4735 26.2841C19.5183 26.2881 19.5626 26.296 19.606 26.3074C19.6084 26.3081 19.6109 26.3087 19.6133 26.3094C19.6329 26.3147 19.6522 26.3208 19.6713 26.3276C19.6744 26.3287 19.6775 26.3297 19.6806 26.3308C19.7009 26.3384 19.7208 26.3469 19.7404 26.3561C19.7451 26.3583 19.7496 26.3609 19.7542 26.3631C19.7701 26.371 19.7858 26.3792 19.8012 26.3881C19.8053 26.3905 19.8094 26.3927 19.8134 26.3952C19.8534 26.4193 19.8914 26.4471 19.927 26.4784C19.9277 26.479 19.9286 26.4797 19.9293 26.4803L19.9309 26.4819C19.9504 26.4993 19.9693 26.5175 19.9872 26.537C20.649 27.2542 21.7819 28.041 23.4055 28.7405L23.4699 28.7635C23.6289 28.8092 23.8522 28.7956 24.2026 28.656C24.6118 28.4928 25.0413 28.2219 25.555 27.9082C26.0231 27.6224 26.5954 27.2786 27.1654 27.1266C27.4642 27.0469 27.8028 27.0076 28.1548 27.077C28.5175 27.1485 28.845 27.3259 29.1234 27.6029C29.2531 27.732 29.3295 27.8957 29.3513 28.0657C29.364 28.1643 29.3578 28.2646 29.3334 28.3618C29.3223 28.4059 29.3077 28.4493 29.2889 28.4915C29.2616 28.5528 29.2267 28.612 29.1829 28.6666C29.1565 28.6995 29.1311 28.732 29.1064 28.7639C29.0467 28.8407 28.9918 28.9143 28.9416 28.9847C28.53 29.562 28.4247 29.9269 28.4253 30.1371C28.4254 30.1837 28.4308 30.2326 28.4467 30.2843C28.4849 30.4085 28.5829 30.5497 28.8119 30.7184L28.8804 30.767L28.8814 30.7677C29.6081 31.2664 30.2894 31.9292 30.7459 32.7516C30.7516 32.7617 30.7577 32.7718 30.7632 32.782L30.8234 32.9027C30.8418 32.9429 30.8589 32.9847 30.8756 33.0275C30.8767 33.0304 30.878 33.0333 30.8791 33.0362C30.895 33.0773 30.9103 33.1194 30.9249 33.1623C30.9282 33.172 30.9313 33.1817 30.9345 33.1914C30.9456 33.2251 30.9564 33.2592 30.9668 33.2935C30.9727 33.313 30.9781 33.3325 30.9838 33.3521C30.9889 33.3699 30.9942 33.3877 30.9991 33.4056C31.0068 33.4331 31.0143 33.4606 31.0216 33.4881C31.027 33.509 31.0323 33.5298 31.0376 33.5506C31.0439 33.5757 31.0498 33.6008 31.0558 33.6258C31.0774 33.7156 31.0978 33.8044 31.1163 33.8899C31.1237 33.9242 31.1307 33.96 31.1384 33.9968C31.1536 34.0697 31.1698 34.1469 31.1858 34.2269C31.2482 34.5396 31.3151 34.8934 31.3756 35.1843C31.4013 35.3082 31.4281 35.4299 31.4553 35.5486C31.4787 35.6509 31.5024 35.751 31.5273 35.8482C31.5774 36.0438 31.6309 36.2284 31.6893 36.3972C31.6951 36.4141 31.7014 36.4305 31.7072 36.4468C31.8274 36.7816 31.9418 36.9747 32.0289 37.0646L32.0299 37.0659C32.2139 37.2563 32.4029 37.2918 32.5228 37.2803C32.5095 37.2113 32.4976 37.1393 32.4857 37.0652C32.4807 37.0342 32.4753 37.0029 32.4706 36.9711C32.3674 36.2727 32.33 35.3799 32.4319 34.4968C32.5572 33.4106 32.9148 32.1491 33.8211 31.3598L34.1207 31.1034C34.8055 30.5255 35.3902 30.0768 35.8512 29.4687C35.9496 29.3383 36.0293 29.202 36.0922 29.0651C36.1359 28.97 36.1711 28.8744 36.1981 28.7795C36.2035 28.7606 36.2091 28.7418 36.2138 28.7229C36.2592 28.542 36.2739 28.3652 36.2609 28.2018C36.2506 28.0731 36.2238 27.9528 36.1789 27.8455C36.1543 27.7868 36.1246 27.7321 36.0899 27.6819L36.0394 27.6128C35.9774 27.533 35.91 27.4631 35.8374 27.4022C35.8332 27.3987 35.8291 27.3951 35.8249 27.3916C35.7904 27.3634 35.7544 27.3375 35.7174 27.3132C35.6089 27.242 35.4899 27.1869 35.3588 27.1461C35.2383 27.1086 35.1077 27.0831 34.9664 27.0677C34.438 27.01 33.813 27.1033 33.1355 27.2549C32.5263 27.3912 31.7665 27.6063 31.2226 27.6807C30.943 27.7189 30.5954 27.7423 30.2696 27.6512C29.9208 27.5536 29.6 27.3206 29.4387 26.9297C29.4223 26.8899 29.4065 26.8489 29.3935 26.8058V26.8052C29.3931 26.8037 29.3927 26.8022 29.3923 26.8007C29.348 26.6511 29.3343 26.5052 29.3404 26.3663C29.3423 26.3234 29.3458 26.2811 29.3513 26.2396C29.3577 26.1911 29.3664 26.1437 29.3769 26.0975C29.4126 25.9403 29.469 25.7974 29.5289 25.6756C29.6741 25.3807 29.8906 25.0991 30.116 24.8449C30.1406 24.8172 30.1666 24.79 30.1922 24.762C30.2164 24.7355 30.2407 24.7086 30.2658 24.682C30.2908 24.6554 30.3162 24.6287 30.342 24.602C30.3736 24.5692 30.4057 24.5363 30.4383 24.5034C30.4637 24.4778 30.4892 24.4519 30.5152 24.4262C30.5502 24.3916 30.5858 24.357 30.6218 24.3222C30.7395 24.2083 30.8616 24.0937 30.986 23.9797C30.9974 23.9693 31.0088 23.9588 31.0203 23.9483C31.2648 23.7253 31.5169 23.504 31.7594 23.2912C32.3528 22.7702 32.8928 22.2945 33.267 21.8748C33.4539 21.6652 33.5664 21.5052 33.6226 21.393C33.6239 21.3906 33.6244 21.3877 33.6255 21.3853C32.3853 20.8215 31.0065 20.5073 29.553 20.5073C28.862 20.5073 28.1884 20.5785 27.538 20.7131C26.9097 23.5211 25.3259 24.9246 23.7522 25.2303C22.8356 25.4084 21.7668 25.197 21.2612 24.3805C20.9928 23.947 20.9542 23.4323 21.1303 22.9365C21.2984 22.4634 21.6497 22.0306 22.1264 21.6433L22.347 21.4676C23.4589 20.5987 24.7183 19.8743 26.1299 19.4337L26.1305 19.4334C26.1353 19.4319 26.1401 19.4304 26.1449 19.4289C26.1974 18.9821 26.2267 18.4912 26.2272 17.9526C26.2275 17.5128 26.5844 17.1566 27.0242 17.1569ZM35.0195 22.1584C34.8736 22.433 34.6696 22.6962 34.4565 22.9352C34.0034 23.4434 33.3795 23.9891 32.8106 24.4887C32.2173 25.0095 31.6791 25.4843 31.308 25.9025C31.2526 25.9651 31.2039 26.0231 31.1614 26.0767C31.5907 26.0014 32.0971 25.8543 32.7872 25.6999C33.4939 25.5418 34.3348 25.396 35.1389 25.4838C35.1858 25.489 35.2327 25.495 35.2795 25.5018C35.2834 25.5023 35.2874 25.5028 35.2913 25.5034C35.4392 25.5253 35.5865 25.5561 35.7321 25.5965C35.7363 25.5977 35.7406 25.5985 35.7449 25.5997C35.7833 25.6105 35.8214 25.6227 35.8595 25.6349C35.872 25.639 35.8847 25.6426 35.8972 25.6468C35.9281 25.6571 35.9585 25.6685 35.9891 25.6797C36.0095 25.6873 36.03 25.6945 36.0503 25.7025C36.0788 25.7137 36.1071 25.7259 36.1354 25.738C36.155 25.7464 36.1748 25.7545 36.1943 25.7633C36.2233 25.7764 36.252 25.7905 36.2807 25.8046C36.2997 25.8139 36.3188 25.823 36.3377 25.8327C36.3678 25.8484 36.3976 25.865 36.4273 25.8817C36.4451 25.8917 36.4629 25.9017 36.4805 25.9121C36.5049 25.9266 36.529 25.9417 36.5531 25.9569C36.5768 25.9719 36.6005 25.987 36.6239 26.0027C36.7055 26.0578 36.7856 26.1174 36.8633 26.1826C36.8671 26.1858 36.8707 26.189 36.8745 26.1922C36.9127 26.2246 36.9504 26.2581 36.9875 26.293C36.9941 26.2992 37.0005 26.3056 37.007 26.3119C37.0427 26.3462 37.0778 26.3817 37.1123 26.4185C37.1559 26.4649 37.1984 26.5134 37.24 26.5638C37.2947 26.6302 37.3477 26.7001 37.3988 26.7738L37.3991 26.7741C37.4744 26.8829 37.5393 26.9944 37.595 27.108C37.6151 27.149 37.6343 27.1901 37.652 27.2316C37.6898 27.3203 37.7215 27.4102 37.7487 27.5008C38.0594 28.5369 37.6941 29.673 37.1216 30.4306L37.121 30.4316C37 30.5912 36.8693 30.744 36.7333 30.8915C36.7277 30.8976 36.722 30.9037 36.7164 30.9098C36.5188 31.1228 36.3093 31.3235 36.0979 31.5138C36.0524 31.5548 36.0066 31.5951 35.9609 31.6351C35.6741 31.887 35.3886 32.1212 35.1281 32.3396L34.8675 32.5618C34.4181 32.9531 34.1261 33.7148 34.0148 34.6799C33.9945 34.8553 33.9809 35.0311 33.9732 35.2048C33.9458 35.8153 33.9897 36.3984 34.0625 36.8392C34.0794 36.942 34.0976 37.0373 34.1172 37.1232C34.1234 37.1502 34.1287 37.1773 34.1332 37.2041C34.1377 37.2309 34.1412 37.2576 34.1441 37.2842C34.1479 37.3191 34.1498 37.3538 34.1508 37.3882C34.1521 37.43 34.1515 37.4714 34.1489 37.5124C34.1485 37.5185 34.1481 37.5246 34.1476 37.5306C34.1461 37.5493 34.1441 37.5679 34.1418 37.5863C34.1409 37.5945 34.1398 37.6026 34.1386 37.6107C34.1364 37.6263 34.1343 37.6419 34.1316 37.6574C34.1297 37.668 34.1273 37.6785 34.1252 37.6891C34.1226 37.7021 34.1199 37.715 34.1169 37.7278C34.1142 37.7392 34.1112 37.7505 34.1082 37.7617C34.1046 37.7755 34.1011 37.7892 34.097 37.8027C34.0946 37.8107 34.0922 37.8188 34.0897 37.8267C34.0848 37.8421 34.0794 37.8573 34.074 37.8725C34.0705 37.8823 34.0668 37.892 34.0631 37.9016C34.0592 37.9118 34.0551 37.922 34.0509 37.932C34.0464 37.9431 34.042 37.9541 34.0372 37.965C34.0323 37.9758 34.0269 37.9863 34.0218 37.997C34.0161 38.009 34.0106 38.0211 34.0045 38.0329C33.9985 38.0445 33.9923 38.056 33.986 38.0674C33.9812 38.076 33.9765 38.0846 33.9716 38.093C33.9627 38.1083 33.9534 38.1233 33.944 38.1382C33.9412 38.1427 33.9386 38.1474 33.9357 38.1519C33.9091 38.1929 33.8806 38.2327 33.8499 38.2707C33.6157 38.5602 33.2882 38.7363 32.9613 38.8181C32.2957 38.9844 31.4925 38.8018 30.8849 38.1734C30.5859 37.8647 30.3839 37.4561 30.2376 37.0662C30.2189 37.0161 30.2006 36.9665 30.1835 36.9173C30.1739 36.8893 30.1648 36.8609 30.1554 36.8325C30.0643 36.5571 29.9877 36.2656 29.9201 35.9769C29.883 35.8186 29.8477 35.6615 29.8158 35.508C29.7676 35.2765 29.7282 35.0718 29.6909 34.8796C29.6538 34.6882 29.6183 34.509 29.5802 34.3274C29.5731 34.2938 29.5664 34.2599 29.559 34.226C29.5461 34.1663 29.5329 34.1111 29.5209 34.0598C29.4781 33.877 29.4412 33.7465 29.4111 33.6591C29.3933 33.6071 29.3785 33.5702 29.3657 33.5467L29.3651 33.5454C29.3471 33.5125 29.3286 33.4797 29.3094 33.4472C28.9995 32.9233 28.5309 32.4597 27.9813 32.0823L27.8638 31.9984C27.7491 31.9133 27.6397 31.8211 27.5376 31.7222C27.5312 31.716 27.5251 31.7095 27.5187 31.7033C27.4922 31.6771 27.466 31.6507 27.4406 31.6236C27.4316 31.6139 27.423 31.6039 27.4141 31.5941C27.3901 31.5678 27.3665 31.5411 27.3437 31.5138C27.338 31.5071 27.3326 31.5001 27.327 31.4933C27.3036 31.4648 27.2809 31.4358 27.2588 31.4062C27.2521 31.3973 27.2456 31.3881 27.239 31.379C27.2198 31.3525 27.2011 31.3257 27.183 31.2984C27.1731 31.2835 27.1634 31.2684 27.1538 31.2532C27.1393 31.2301 27.1253 31.2066 27.1116 31.1828C27.1018 31.166 27.0921 31.1491 27.0828 31.1319C27.068 31.1047 27.0541 31.077 27.0405 31.049C27.0319 31.0313 27.0231 31.0136 27.0149 30.9956C27.0107 30.9862 27.0062 30.9769 27.0021 30.9674C26.9882 30.9354 26.9754 30.9027 26.9631 30.8698C26.9595 30.8602 26.9556 30.8506 26.9522 30.841C26.9388 30.8036 26.9266 30.7656 26.9154 30.727C26.9137 30.7214 26.9122 30.7157 26.9106 30.71C26.8996 30.6712 26.8899 30.6317 26.8811 30.5916C26.878 30.5774 26.875 30.5631 26.8722 30.5487C26.8706 30.5408 26.8688 30.533 26.8674 30.525C26.8558 30.4624 26.8473 30.3983 26.8414 30.3326C26.8358 30.2702 26.8323 30.2064 26.8321 30.1412C26.8315 29.9349 26.8601 29.7275 26.9134 29.519C26.9278 29.4628 26.9444 29.4066 26.9624 29.3503C27.0186 29.1744 27.0911 28.9971 27.1801 28.8192C26.9537 28.9279 26.6933 29.0802 26.3853 29.2683C25.9262 29.5487 25.3585 29.9105 24.7928 30.1361C24.2184 30.3651 23.4994 30.5154 22.7759 30.204C22.7186 30.1793 22.6617 30.1534 22.6053 30.1284C22.5864 30.1201 22.5674 30.1119 22.5486 30.1035C22.4864 30.0756 22.4248 30.0475 22.3636 30.0193C22.3512 30.0136 22.3388 30.008 22.3265 30.0023C21.3572 29.553 20.5259 29.0595 19.847 28.5424C19.7349 29.1375 19.6761 29.7521 19.6761 30.3816C19.6762 35.8357 24.0986 40.2583 29.5526 40.2585C35.0062 40.2585 39.4285 35.8369 39.4295 30.3835L39.4279 30.2021C39.3674 26.8451 37.6321 23.8965 35.0195 22.1584ZM25.723 21.2816C24.7921 21.6822 23.9287 22.2316 23.1312 22.8795C22.7926 23.1546 22.6691 23.3631 22.6312 23.4698C22.6154 23.5144 22.6156 23.5374 22.6158 23.5425C22.6311 23.5644 22.8645 23.7798 23.4484 23.6663C24.1066 23.5384 25.1191 22.9306 25.723 21.2816Z" fill="#CBDDFF"/>
</svg>
