<svg width="79" height="78" viewBox="0 0 79 78" fill="none" xmlns="http://www.w3.org/2000/svg">
<path d="M61.4747 37.6523V65.7453H17.4004V12.5667H50.3424L61.4747 25.922H52.4181C52.3314 25.922 52.2404 25.922 52.1537 25.9176C46.7371 25.7356 43.8944 19.3786 47.2441 15.119L49.2287 12.5926" stroke="#757575" stroke-width="2.5" stroke-linecap="round" stroke-linejoin="round"/>
<path d="M25.001 56.3507C27.1156 54.0107 29.4643 51.584 31.5747 49.244C32.0427 48.7283 32.5236 48.1953 33.1823 47.8703C33.8366 47.5453 34.7163 47.4717 35.3186 47.8703C35.9123 48.2603 36.0813 49.0013 35.921 49.634C35.7606 50.2667 35.3056 50.7997 34.92 51.3587C29.018 59.8867 36.038 56.2467 40.653 51.9177C40.2543 52.5937 39.8513 53.287 39.73 54.0367C39.6087 54.7863 39.8296 55.627 40.497 56.1123C41.4243 56.784 43.1273 56.3507 43.3613 55.3193" stroke="#757575" stroke-width="2.5" stroke-linecap="round" stroke-linejoin="round"/>
<path d="M25.001 37.6523H61.2537" stroke="#757575" stroke-width="2.5" stroke-linecap="round" stroke-linejoin="round"/>
<path d="M25.001 29.9996H44.4446" stroke="#757575" stroke-width="2.5" stroke-linecap="round" stroke-linejoin="round"/>
</svg>
