<svg width="60" height="61" viewBox="0 0 60 61" fill="none" xmlns="http://www.w3.org/2000/svg">
<path d="M26.4453 46.6797C26.9586 46.6797 27.4072 46.7871 27.791 47.0029C28.1798 47.2189 28.4822 47.5244 28.6982 47.918C28.9142 48.3067 29.0225 48.765 29.0225 49.293C29.0224 49.6864 28.9597 50.0437 28.835 50.3652C28.715 50.6868 28.54 50.966 28.3096 51.2012C28.084 51.4314 27.8128 51.6086 27.4961 51.7334C27.1794 51.8534 26.8292 51.914 26.4453 51.9141C25.9319 51.9141 25.4805 51.8057 25.0918 51.5898C24.703 51.3691 24.4006 51.0615 24.1846 50.668C23.9734 50.2744 23.8672 49.8161 23.8672 49.293C23.8672 48.8994 23.9269 48.5413 24.0469 48.2197C24.1717 47.8982 24.3477 47.622 24.5732 47.3916C24.8035 47.1614 25.077 46.9861 25.3936 46.8662C25.7104 46.7414 26.0613 46.6797 26.4453 46.6797ZM20.2979 46.6934C20.4991 46.6934 20.6502 46.7462 20.751 46.8516C20.8565 46.9571 20.9091 47.1111 20.9092 47.3125V51.3018C20.9092 51.4841 20.8616 51.6308 20.7656 51.7412C20.6697 51.8467 20.54 51.8994 20.377 51.8994C20.2138 51.8994 20.0843 51.87 19.9883 51.8125C19.8971 51.7501 19.798 51.654 19.6924 51.5244L17.6123 48.9189V51.2725C17.6123 51.4789 17.5587 51.6356 17.4531 51.7412C17.3523 51.8465 17.2013 51.8994 17 51.8994C16.7985 51.8994 16.6447 51.8467 16.5391 51.7412C16.4335 51.6356 16.3809 51.4789 16.3809 51.2725V47.3486C16.3809 47.1375 16.4335 46.9766 16.5391 46.8662C16.6447 46.7511 16.7843 46.6934 16.957 46.6934C17.1104 46.6934 17.2301 46.7228 17.3164 46.7803C17.4028 46.8379 17.4989 46.934 17.6045 47.0684L19.6855 49.667V47.3125C19.6856 47.1111 19.7362 46.9571 19.8369 46.8516C19.9425 46.7462 20.0965 46.6934 20.2979 46.6934ZM34.0674 46.7588C34.9505 46.7588 35.6323 46.9793 36.1123 47.4209C36.597 47.8625 36.8389 48.4867 36.8389 49.293C36.8389 49.6961 36.7771 50.0563 36.6523 50.373C36.5276 50.6849 36.3474 50.9511 36.1123 51.1719C35.8772 51.3878 35.5866 51.5538 35.2412 51.6689C34.9005 51.7793 34.5089 51.834 34.0674 51.834H32.6562C32.4308 51.834 32.2577 51.7771 32.1377 51.6621C32.0225 51.5421 31.9648 51.3712 31.9648 51.1504V47.4424C31.9649 47.2216 32.0225 47.0537 32.1377 46.9385C32.2577 46.8185 32.4307 46.7588 32.6562 46.7588H34.0674ZM42.917 46.7588C43.0896 46.7588 43.2193 46.8014 43.3057 46.8877C43.3921 46.9741 43.4355 47.0995 43.4355 47.2627C43.4355 47.4306 43.392 47.5602 43.3057 47.6514C43.2193 47.7377 43.0897 47.7812 42.917 47.7813H41.0518V48.7461H42.7588C42.9264 48.7461 43.0533 48.7889 43.1396 48.875C43.2308 48.9614 43.2773 49.0888 43.2773 49.2568C43.2773 49.4248 43.2308 49.5523 43.1396 49.6387C43.0533 49.7248 42.9264 49.7675 42.7588 49.7676H41.0518V50.8125H42.917C43.0898 50.8125 43.2193 50.858 43.3057 50.9492C43.392 51.0356 43.4355 51.1601 43.4355 51.3232C43.4355 51.4912 43.3921 51.6187 43.3057 51.7051C43.2193 51.7914 43.0897 51.834 42.917 51.834H40.4766C40.2512 51.834 40.078 51.7771 39.958 51.6621C39.8428 51.5421 39.7852 51.3712 39.7852 51.1504V47.4424C39.7852 47.2216 39.8428 47.0537 39.958 46.9385C40.078 46.8186 40.251 46.7588 40.4766 46.7588H42.917ZM26.4453 47.7881C26.1957 47.7881 25.9793 47.8478 25.7969 47.9678C25.6193 48.083 25.4827 48.2539 25.3867 48.4795C25.2908 48.7003 25.2422 48.9714 25.2422 49.293C25.2422 49.7681 25.3484 50.1404 25.5596 50.4092C25.7708 50.673 26.0663 50.8047 26.4453 50.8047C26.6995 50.8046 26.9153 50.7449 27.0928 50.625C27.2703 50.505 27.4069 50.332 27.5029 50.1064C27.5989 49.8809 27.6474 49.6097 27.6475 49.293C27.6475 48.8178 27.5413 48.4476 27.3301 48.1836C27.119 47.92 26.8241 47.7882 26.4453 47.7881ZM33.29 50.7617H33.9805C34.2348 50.7617 34.4534 50.7303 34.6357 50.668C34.8229 50.6056 34.9767 50.5145 35.0967 50.3945C35.2215 50.2745 35.3125 50.1228 35.3701 49.9404C35.4324 49.7581 35.4639 49.5424 35.4639 49.293C35.4639 48.7938 35.3414 48.4266 35.0967 48.1914C34.8519 47.9514 34.4797 47.8311 33.9805 47.8311H33.29V50.7617ZM27.5449 10.7734C29.0547 9.86198 30.9453 9.86198 32.4551 10.7734L46.7656 19.4141C47.7901 20.0326 48.4169 21.1422 48.417 22.3389V38.9023C48.4168 39.9283 47.9549 40.9 47.1602 41.5488L44.0576 44.082C43.7368 44.3438 43.2639 44.2963 43.002 43.9756C42.74 43.6547 42.7885 43.1819 43.1094 42.9199L46.2119 40.3867C46.6576 40.0228 46.9168 39.4777 46.917 38.9023V22.3389C46.9169 21.6676 46.5649 21.0452 45.9902 20.6982L31.6797 12.0576C30.6467 11.4341 29.3533 11.4341 28.3203 12.0576L14.0098 20.6982C13.4351 21.0452 13.0831 21.6676 13.083 22.3389V38.9023C13.0832 39.4777 13.3424 40.0228 13.7881 40.3867L16.8906 42.9199L16.9482 42.9717C17.2166 43.2406 17.2435 43.6749 16.998 43.9756C16.7525 44.2763 16.3211 44.3373 16.0039 44.1279L15.9424 44.082L12.8398 41.5488C12.0451 40.9 11.5832 39.9283 11.583 38.9023V22.3389C11.5831 21.1422 12.2099 20.0326 13.2344 19.4141L27.5449 10.7734ZM31.167 18.501C31.167 17.6727 30.4953 17.0012 29.667 17.001C28.8386 17.001 28.167 17.6725 28.167 18.501C28.1671 19.3293 28.8386 20.001 29.667 20.001C30.4952 20.0008 31.1669 19.3292 31.167 18.501ZM22.6436 35.7324C22.0619 35.1429 21.1122 35.1363 20.5225 35.7178C19.9326 36.2994 19.9263 37.249 20.5078 37.8389C21.0894 38.4287 22.039 38.436 22.6289 37.8545C23.2188 37.2729 23.2252 36.3223 22.6436 35.7324ZM39.2959 35.7178C38.7061 35.1363 37.7565 35.1429 37.1748 35.7324C36.5932 36.3223 36.5995 37.2729 37.1895 37.8545C37.7794 38.436 38.729 38.4287 39.3105 37.8389C39.8921 37.249 39.8858 36.2994 39.2959 35.7178ZM30.6113 30.0996V35.0313L33.6016 33.665L32.3418 32.4053C32.0491 32.1125 32.0492 31.6376 32.3418 31.3447C32.6347 31.0518 33.1094 31.0519 33.4023 31.3447L34.9814 32.9229V27.8203L30.6113 30.0996ZM24.7773 32.9824L26.416 31.3447C26.7089 31.0519 27.1837 31.0518 27.4766 31.3447C27.7692 31.6376 27.7693 32.1125 27.4766 32.4053L26.165 33.7158L28.8145 34.9795V30.1221L24.7773 27.8945V32.9824ZM30.417 25.834C30.417 26.2481 30.081 26.5838 29.667 26.584C29.2528 26.584 28.917 26.2482 28.917 25.834V24.7178L25.8145 26.3818L29.7324 28.4297L33.8887 26.3525L30.417 24.4912V25.834ZM32.667 18.501C32.6669 19.901 31.7062 21.0725 30.4092 21.4033C30.4133 21.4353 30.417 21.4679 30.417 21.501V22.7881L35.7598 25.6533C35.8358 25.6941 35.9023 25.7439 35.9619 25.7979C36.2464 25.9541 36.4557 26.2456 36.4795 26.6055L36.4814 26.6738V33.3574C36.4814 33.6432 36.3586 33.9093 36.1543 34.0957L36.4434 34.3848C37.6114 33.5073 39.2769 33.593 40.3486 34.6494C41.5285 35.8127 41.5422 37.7127 40.3789 38.8926C39.2156 40.0723 37.3165 40.0851 36.1367 38.9219C35.2214 38.0194 35.0103 36.6753 35.5039 35.5664L34.7344 34.7969L30.2305 36.8545C30.01 36.9551 29.7798 36.9667 29.5703 36.9131C29.4617 36.9086 29.3515 36.8879 29.2432 36.8447L29.1807 36.8174L25.0391 34.8408L24.3135 35.5664C24.8073 36.6754 24.5971 38.0193 23.6816 38.9219C22.5018 40.0851 20.6027 40.0723 19.4395 38.8926C18.2762 37.7127 18.2899 35.8127 19.4697 34.6494C20.5413 33.5932 22.206 33.5078 23.374 34.3848L23.6289 34.1299C23.4273 33.9578 23.2996 33.7108 23.2803 33.4414L23.2773 33.3701V26.707C23.2774 26.3847 23.4244 26.1117 23.6445 25.9326C23.7252 25.8325 23.8279 25.7449 23.9531 25.6777L28.917 23.0166V21.501C28.917 21.4679 28.9187 21.4352 28.9229 21.4033C27.6264 21.0721 26.6671 19.9006 26.667 18.501C26.667 16.8441 28.0101 15.501 29.667 15.501C31.3237 15.5012 32.667 16.8442 32.667 18.501Z" fill="#CBDDFF"/>
</svg>
