<svg width="63" height="63" viewBox="0 0 63 63" fill="none" xmlns="http://www.w3.org/2000/svg" xmlns:xlink="http://www.w3.org/1999/xlink">
<g clip-path="url(#clip0_32_15897)">
<rect x="0.818115" width="61.3636" height="62.6307" fill="url(#pattern0_32_15897)"/>
<rect x="0.818115" width="61.3636" height="62.6307" fill="#141414"/>
<path d="M38 22H24C23.2044 22 22.4413 22.3161 21.8787 22.8787C21.3161 23.4413 21 24.2044 21 25V39C21 39.7956 21.3161 40.5587 21.8787 41.1213C22.4413 41.6839 23.2044 42 24 42H38C38.1645 41.9977 38.3284 41.981 38.49 41.95L38.79 41.88H38.86H38.91L39.28 41.74L39.41 41.67C39.51 41.61 39.62 41.56 39.72 41.49C39.8535 41.3918 39.9805 41.2849 40.1 41.17L40.17 41.08C40.2682 40.9805 40.3585 40.8735 40.44 40.76L40.53 40.63C40.5998 40.5187 40.6601 40.4016 40.71 40.28C40.7374 40.232 40.7609 40.1818 40.78 40.13C40.83 40.01 40.86 39.88 40.9 39.75V39.6C40.9567 39.4046 40.9903 39.2032 41 39V25C41 24.2044 40.6839 23.4413 40.1213 22.8787C39.5587 22.3161 38.7956 22 38 22ZM24 40C23.7348 40 23.4804 39.8946 23.2929 39.7071C23.1054 39.5196 23 39.2652 23 39V34.69L26.29 31.39C26.383 31.2963 26.4936 31.2219 26.6154 31.1711C26.7373 31.1203 26.868 31.0942 27 31.0942C27.132 31.0942 27.2627 31.1203 27.3846 31.1711C27.5064 31.2219 27.617 31.2963 27.71 31.39L36.31 40H24ZM39 39C38.9991 39.1233 38.9753 39.2453 38.93 39.36C38.9071 39.4087 38.8804 39.4556 38.85 39.5C38.8232 39.5423 38.7931 39.5825 38.76 39.62L33.41 34.27L34.29 33.39C34.383 33.2963 34.4936 33.2219 34.6154 33.1711C34.7373 33.1203 34.868 33.0942 35 33.0942C35.132 33.0942 35.2627 33.1203 35.3846 33.1711C35.5064 33.2219 35.617 33.2963 35.71 33.39L39 36.69V39ZM39 33.86L37.12 32C36.5477 31.457 35.7889 31.1543 35 31.1543C34.2111 31.1543 33.4523 31.457 32.88 32L32 32.88L29.12 30C28.5477 29.457 27.7889 29.1543 27 29.1543C26.2111 29.1543 25.4523 29.457 24.88 30L23 31.86V25C23 24.7348 23.1054 24.4804 23.2929 24.2929C23.4804 24.1054 23.7348 24 24 24H38C38.2652 24 38.5196 24.1054 38.7071 24.2929C38.8946 24.4804 39 24.7348 39 25V33.86ZM32.5 26C32.2033 26 31.9133 26.088 31.6666 26.2528C31.42 26.4176 31.2277 26.6519 31.1142 26.926C31.0006 27.2001 30.9709 27.5017 31.0288 27.7926C31.0867 28.0836 31.2296 28.3509 31.4393 28.5607C31.6491 28.7704 31.9164 28.9133 32.2074 28.9712C32.4983 29.0291 32.7999 28.9994 33.074 28.8858C33.3481 28.7723 33.5824 28.58 33.7472 28.3334C33.912 28.0867 34 27.7967 34 27.5C34 27.1022 33.842 26.7206 33.5607 26.4393C33.2794 26.158 32.8978 26 32.5 26Z" fill="#6A6A6A"/>
</g>
<path d="M9.39355 1H53.6064C58.518 1 62.5 4.98203 62.5 9.89355V53.1064C62.5 58.018 58.518 62 53.6064 62H9.39355C4.48203 62 0.5 58.018 0.5 53.1064V9.89355C0.5 4.98203 4.48203 1 9.39355 1Z" stroke="#1E1E1E"/>
<defs>
<pattern id="pattern0_32_15897" patternContentUnits="objectBoundingBox" width="1" height="1">
<use xlink:href="#image0_32_15897" transform="scale(0.00147493 0.00144509)"/>
</pattern>
<clipPath id="clip0_32_15897">
<path d="M0 9.89311C0 4.70544 4.20544 0.5 9.3931 0.5H53.6069C58.7946 0.5 63 4.70544 63 9.8931V53.1069C63 58.2946 58.7946 62.5 53.6069 62.5H9.39311C4.20544 62.5 0 58.2946 0 53.1069V9.89311Z" fill="white"/>
</clipPath>
</defs>
</svg>
