<svg width="92" height="92" viewBox="0 0 92 92" fill="none" xmlns="http://www.w3.org/2000/svg">
<path d="M57.0834 64.6968L66.1403 59.4681C67.1268 58.9008 67.735 57.8479 67.735 56.7081V35.4766C67.735 34.3368 67.1268 33.2839 66.1403 32.7166L47.7506 22.1008C46.7641 21.5335 45.5477 21.5335 44.5612 22.1008L26.1714 32.7166C25.185 33.2839 24.5768 34.3368 24.5768 35.4766V56.7081C24.5768 57.8479 25.185 58.9008 26.1714 59.4681L44.5612 70.0839C45.5477 70.6512 46.7641 70.6512 47.7506 70.0839" stroke="#ADADAD" stroke-width="2.3" stroke-linecap="round" stroke-linejoin="round"/>
<path d="M46.1609 19.9947C48.1538 19.9947 49.7694 18.3792 49.7694 16.3863C49.7694 14.3934 48.1538 12.7778 46.1609 12.7778C44.168 12.7778 42.5525 14.3934 42.5525 16.3863C42.5525 18.3792 44.168 19.9947 46.1609 19.9947Z" stroke="#ADADAD" stroke-width="2.3" stroke-linecap="round" stroke-linejoin="round"/>
<path d="M46.1609 79.4063C48.1538 79.4063 49.7694 77.7908 49.7694 75.7979C49.7694 73.805 48.1538 72.1895 46.1609 72.1895C44.168 72.1895 42.5525 73.805 42.5525 75.7979C42.5525 77.7908 44.168 79.4063 46.1609 79.4063Z" stroke="#ADADAD" stroke-width="2.3" stroke-linecap="round" stroke-linejoin="round"/>
<path d="M20.4673 34.7862C22.4602 34.7862 24.0758 33.1707 24.0758 31.1778C24.0758 29.1849 22.4602 27.5693 20.4673 27.5693C18.4744 27.5693 16.8589 29.1849 16.8589 31.1778C16.8589 33.1707 18.4744 34.7862 20.4673 34.7862Z" stroke="#ADADAD" stroke-width="2.3" stroke-linecap="round" stroke-linejoin="round"/>
<path d="M71.8494 64.6143C73.8423 64.6143 75.4579 62.9988 75.4579 61.0059C75.4579 59.013 73.8423 57.3975 71.8494 57.3975C69.8565 57.3975 68.241 59.013 68.241 61.0059C68.241 62.9988 69.8565 64.6143 71.8494 64.6143Z" stroke="#ADADAD" stroke-width="2.3" stroke-linecap="round" stroke-linejoin="round"/>
<path d="M20.4673 64.6143C22.4602 64.6143 24.0758 62.9988 24.0758 61.0059C24.0758 59.013 22.4602 57.3975 20.4673 57.3975C18.4744 57.3975 16.8589 59.013 16.8589 61.0059C16.8589 62.9988 18.4744 64.6143 20.4673 64.6143Z" stroke="#ADADAD" stroke-width="2.3" stroke-linecap="round" stroke-linejoin="round"/>
<path d="M71.8494 34.7862C73.8423 34.7862 75.4579 33.1707 75.4579 31.1778C75.4579 29.1849 73.8423 27.5693 71.8494 27.5693C69.8565 27.5693 68.241 29.1849 68.241 31.1778C68.241 33.1707 69.8565 34.7862 71.8494 34.7862Z" stroke="#ADADAD" stroke-width="2.3" stroke-linecap="round" stroke-linejoin="round"/>
<path d="M36.5111 36.2481C38.2438 35.3843 49.7643 30.033 52.0029 33.8817C54.8345 38.7577 41.0856 43.2146 36.5111 45.2488C40.0429 43.7819 55.642 36.8768 58.494 42.7034C62.2558 50.3957 41.9954 56.5801 33.608 57.9243" stroke="#ADADAD" stroke-width="2.3" stroke-linecap="round" stroke-linejoin="round"/>
</svg>
