<svg width="104" height="104" viewBox="0 0 104 104" fill="none" xmlns="http://www.w3.org/2000/svg">
    <path
        d="M78.7076 20.8118C67.9725 20.3785 64.0667 30.79 59.5138 40.878C61.4725 36.2905 68.1227 20.4709 62.709 18.5527C56.2552 16.2589 39.5574 37.7349 47.2419 39.8438C53.3259 41.6407 60.2939 18.8878 54.9552 16.7558C52.3552 15.7158 47.1494 16.0451 35.9059 34.4647C31.353 41.9238 28.1405 50.1745 26.1067 58.6678C25.2632 62.1749 24.7952 65.7687 24.8472 69.3798C25.1361 89.7927 43.5672 89.706 53.8228 85.4825C64.9103 80.918 73.681 70.518 74.0161 58.2287C74.1316 53.8954 70.1045 51.6882 66.8459 54.6407C65.5285 55.8309 64.633 57.4082 63.4947 58.7776C62.3854 60.1122 61.0392 61.2505 59.537 62.1229C57.769 63.1514 55.5908 63.8042 53.6783 63.0705C51.1245 62.0882 50.0614 58.4598 51.6792 56.2585C51.8698 55.9985 52.0952 55.75 52.3899 55.6229C52.7539 55.4611 53.1699 55.49 53.5685 55.5131C55.6312 55.6345 57.7112 55.4785 59.7334 55.0451C61.2761 54.7158 62.8419 54.19 63.9974 53.1154C65.153 52.0407 65.8059 50.3016 65.2339 48.8282C62.8245 42.698 52.0663 45.454 48.1374 47.6958C43.3996 50.394 39.9272 55.1087 38.8179 60.3434"
        stroke="#38BF66" stroke-width="2.6" stroke-linecap="round" stroke-linejoin="round" />
</svg>
    