<svg width="108" height="109" viewBox="0 0 108 109" fill="none" xmlns="http://www.w3.org/2000/svg">
<path d="M60.1133 85.1616C63.7853 83.3376 66.7193 80.3196 68.4413 76.5996L84.9893 40.8936L61.6073 30.0576L65.5433 21.5556L88.9253 32.3916L92.7173 24.6815L68.9033 13.8936" stroke="#373EDF" stroke-width="2.7" stroke-linecap="round" stroke-linejoin="round"/>
<path d="M54.366 45.6816L45.144 65.5897C43.368 69.4177 42.996 73.7437 44.082 77.8177L47.58 90.8316C38.58 99.1116 39.78 92.1097 39.984 90.8137C40.188 89.5177 40.872 88.3297 41.55 87.1717C33.546 93.3577 21.186 100.726 31.824 86.2117C32.508 85.2757 33.252 84.3337 33.522 83.2477C33.792 82.1617 33.504 80.8837 32.496 80.2117C31.476 79.5337 29.982 79.6597 28.872 80.2177C27.762 80.7757 26.94 81.6877 26.148 82.5757C22.566 86.5957 18.582 90.7717 15 94.7917" stroke="#373EDF" stroke-width="2.7" stroke-linecap="round" stroke-linejoin="round"/>
</svg>
