<svg width="86" height="85" viewBox="0 0 86 85" fill="none" xmlns="http://www.w3.org/2000/svg">
<path d="M56.6951 21.25L58.1244 25.6857C60.2558 32.3002 65.0547 38.1977 71.8062 42.5C65.0547 46.8023 60.2558 52.6998 58.1244 59.3143L56.6951 63.75L55.2658 59.3143C53.1344 52.6998 48.3355 46.8023 41.584 42.5C48.3355 38.1977 53.1344 32.3002 55.2658 25.6857L56.6951 21.25Z" stroke="#004CFC" stroke-width="2.125" stroke-miterlimit="10" stroke-linecap="round" stroke-linejoin="round"/>
<path d="M26.0009 40.1389L27.1175 43.7367C28.7827 49.1018 32.5318 53.8854 37.8064 57.375C32.5318 60.8646 28.7827 65.6482 27.1175 71.0133L26.0009 74.6111L24.8842 71.0133C23.2191 65.6482 19.47 60.8646 14.1953 57.375C19.47 53.8854 23.2191 49.1018 24.8842 43.7367L26.0009 40.1389Z" stroke="#004CFC" stroke-width="2.125" stroke-miterlimit="10" stroke-linecap="round" stroke-linejoin="round"/>
<path d="M32.6109 9.91675L33.4595 12.6767C34.7251 16.7924 37.5744 20.462 41.5831 23.139C37.5744 25.8159 34.7251 29.4855 33.4595 33.6012L32.6109 36.3612L31.7622 33.6012C30.4967 29.4855 27.6474 25.8159 23.6387 23.139C27.6474 20.462 30.4967 16.7924 31.7622 12.6767L32.6109 9.91675Z" stroke="#004CFC" stroke-width="2.125" stroke-miterlimit="10" stroke-linecap="round" stroke-linejoin="round"/>
</svg>
