<svg width="87" height="149" viewBox="0 0 87 149" fill="none" xmlns="http://www.w3.org/2000/svg">
<path id="Vector" d="M47.2199 15.9001C47.2199 15.9001 47.2245 15.9174 47.2239 15.9268C47.2249 15.8957 47.2351 15.9454 47.259 16.1613C47.2636 16.1786 47.2625 16.1974 47.2642 16.2155C47.2712 16.2414 47.2716 16.266 47.2785 16.2919C47.2731 16.2718 47.2677 16.2516 47.2652 16.2307C47.3895 17.386 47.4388 18.5491 47.488 19.7122C47.6078 22.5328 47.6582 25.3597 47.6399 28.1834C47.6055 33.6202 47.3114 39.0556 46.7731 44.4669C46.6227 45.9799 48.0316 47.2974 49.4136 47.489C50.7768 47.6794 52.5386 46.7998 52.7744 45.2948C53.6474 39.692 54.8917 34.1501 56.5067 28.7128C57.3044 26.0322 58.1892 23.3777 59.1629 20.7549C59.6556 19.425 60.1723 18.1041 60.7101 16.793C60.7678 16.6509 60.8255 16.5089 60.8868 16.369C60.9 16.3377 60.9111 16.31 60.9222 16.2823C61.0459 15.9836 61.1741 15.69 61.3015 15.3934C61.5737 14.7616 61.8517 14.1283 62.137 13.4993C63.4591 10.5639 64.898 7.6838 66.4383 4.85983C67.2046 3.45658 66.8065 1.46384 65.3207 0.688771C63.8815 -0.0617668 61.965 0.309744 61.1496 1.8064C58.2317 7.15141 55.6847 12.7057 53.5397 18.4117C53.5346 18.3236 53.5324 18.2346 53.5265 18.1436C53.3976 15.7267 53.1385 13.2274 52.2295 10.9641C51.0804 8.10432 49.1438 5.86619 46.1785 4.82376C43.4009 3.84834 40.2284 4.46378 37.6745 5.77484C35.094 7.10226 33.1235 9.33451 31.3915 11.6047C29.843 13.6374 28.4005 15.7436 27.0817 17.9309C26.9979 18.0676 26.9177 18.2064 26.8347 18.3459C26.0209 17.786 25.1355 17.3162 24.1856 16.9625C21.3378 15.8979 18.1219 16.4323 15.5101 17.8731C10.3088 20.7456 8.28882 26.6188 6.62931 31.9477C5.03142 37.0686 3.74696 42.2878 2.7607 47.5598C0.765644 58.2271 -0.0881046 69.0981 0.138493 79.9451C0.366482 90.8318 1.64468 101.709 3.80339 112.381C5.8106 122.303 8.33769 133.244 15.8318 140.587C19.3027 143.989 23.7445 146.325 28.4872 147.363C33.2625 148.408 38.1551 148.301 42.9467 147.437C52.0238 145.802 60.4444 141.14 67.282 135.042C74.1154 128.95 79.3352 121.204 82.7118 112.719C84.4163 108.434 85.5177 103.984 86.1318 99.4195C86.422 97.2763 86.5773 95.1137 86.5879 92.9527C86.599 90.5169 86.4912 88.0173 85.9282 85.6395C85.2617 82.8295 83.78 80.238 81.309 78.6555C79.0655 77.219 76.207 77.0248 73.6818 77.7169C71.2623 78.3775 69.0147 79.7948 67.2497 81.5614C65.3893 83.4214 64.0146 85.7687 62.7868 88.0767C61.6144 90.2804 60.5327 92.5461 59.1082 94.6043C58.9613 94.8165 58.8183 95.0432 58.6552 95.2412C58.5509 95.3587 58.4252 95.5005 58.3834 95.5518C58.0584 95.9291 57.7064 96.2858 57.335 96.6169C57.1833 96.7533 57.0067 96.8778 56.852 97.0149C56.7998 97.0505 56.7512 97.0882 56.699 97.1238C56.28 97.4152 55.8447 97.68 55.3958 97.9176C55.1958 98.0237 54.9942 98.124 54.7911 98.2186C54.7738 98.2232 54.7638 98.2321 54.7502 98.2388C54.2899 98.3992 53.8346 98.5551 53.3583 98.6673C53.1609 98.714 52.9625 98.7456 52.7657 98.7829C52.7325 98.7856 52.6992 98.7884 52.6689 98.7903C52.223 98.8202 51.7873 98.761 51.3474 98.7554C51.3082 98.7474 51.269 98.7394 51.2327 98.7306C51.0351 98.6847 50.841 98.6286 50.6504 98.5624C50.6475 98.5632 50.6439 98.5611 50.6402 98.559C50.427 98.4432 50.2117 98.3311 50.0091 98.197C49.8216 98.0157 49.6299 97.8417 49.4537 97.645C49.4448 97.6351 49.4367 97.628 49.4279 97.618C49.41 97.5857 49.384 97.5464 49.3505 97.4905C49.2814 97.3824 49.2152 97.2736 49.154 97.1603C49.0943 97.0528 48.9018 96.5302 48.9886 96.8311C48.9442 96.6886 48.9012 96.5396 48.8875 96.5C48.8275 96.2876 48.7798 96.075 48.7371 95.858C48.7329 95.8653 48.7287 95.8726 48.7245 95.8799C48.7295 95.8755 48.7283 95.848 48.7284 95.814C48.7174 95.7614 48.7085 95.7051 48.6975 95.6525C48.6656 95.4758 48.6769 95.4604 48.7002 95.5129C48.6956 95.4956 48.6961 95.4862 48.6961 95.4862C48.6775 95.1516 48.6777 94.8181 48.693 94.4836C48.7002 94.3489 48.7251 94.2002 48.7415 94.0538C48.7261 94.0425 48.7139 93.9624 48.7351 93.8456C48.7445 93.7999 48.7509 93.7549 48.7603 93.7092C48.7572 93.6976 48.7599 93.6846 48.7589 93.6694C48.762 93.6809 48.7614 93.6904 48.7616 93.7026C48.7782 93.6148 48.7912 93.5249 48.8107 93.4363C48.9306 92.8238 49.0933 92.2214 49.2903 91.6314C49.3799 91.3665 49.4797 91.1052 49.5766 90.8446C49.6233 90.7425 49.6672 90.6412 49.7168 90.5384C49.9851 89.9725 50.2781 89.4185 50.5931 88.8772C50.8904 88.3622 51.206 87.8578 51.5399 87.3639C51.6965 87.1305 51.8576 86.9021 52.0224 86.6758C52.0739 86.6033 52.1388 86.4995 52.2053 86.4137C52.2494 86.371 52.287 86.327 52.3154 86.2947C53.0813 85.3392 53.9169 84.4361 54.8099 83.5979C55.2443 83.1913 55.6912 82.7967 56.1522 82.4201C56.2407 82.347 56.348 82.275 56.4357 82.199C56.6907 82.0103 56.9466 81.8244 57.2068 81.6435C58.1865 80.9673 59.2114 80.3561 60.276 79.8239C60.5263 79.6982 60.7782 79.5782 61.0337 79.4603C61.1687 79.3994 61.3037 79.3386 61.4415 79.2769C61.9669 79.0714 62.4966 78.8707 63.0295 78.6817C67.9087 76.9575 73.1667 75.5641 76.1975 70.9977C79.0238 66.7393 78.3587 60.6162 75.3783 56.6139C72.0544 52.1479 66.7672 49.9987 61.3122 49.7006C55.9542 49.4073 50.5533 50.9934 45.9111 53.6019C41.395 56.1396 37.418 59.7214 34.2606 63.8153C30.7825 68.3256 28.2043 73.314 26.0393 78.5653C24.0911 83.2893 22.555 88.1683 21.039 93.042C20.5627 94.5713 21.609 96.4366 23.1775 96.7944C24.8383 97.1737 26.422 96.2862 26.9299 94.6558C28.448 89.7785 29.9967 84.9116 31.9302 80.1792C31.9371 80.1589 31.949 80.1341 31.9572 80.1072C31.9927 80.0205 32.031 79.933 32.0701 79.8485C32.1898 79.5694 32.3095 79.2903 32.4329 79.0133C32.6921 78.4252 32.9607 77.8376 33.2367 77.2543C33.7711 76.1262 34.3332 75.0093 34.9325 73.9163C35.5501 72.7875 36.2042 71.6799 36.8993 70.5983C37.2285 70.0871 37.5658 69.583 37.9112 69.086C38.0807 68.843 38.251 68.6029 38.4271 68.3612C38.5134 68.2454 38.5997 68.1297 38.6824 68.0118C38.6866 68.0045 38.6908 67.9972 38.6987 67.992C40.2046 66.0881 41.831 64.3 43.6456 62.6838C44.0789 62.296 44.5247 61.9203 44.9764 61.5553C45.0699 61.4778 45.2139 61.3929 45.2985 61.3054C45.5299 61.1323 45.7614 60.9591 45.9973 60.7909C46.9637 60.0997 47.9678 59.4571 49.0062 58.8732C49.5049 58.5914 50.014 58.3253 50.527 58.0736C50.7839 57.9492 51.0408 57.8248 51.3028 57.7083C51.4321 57.649 51.5649 57.5918 51.6949 57.5353C51.7035 57.533 51.7114 57.5278 51.7193 57.5226L51.725 57.5211C52.8218 57.0975 53.9273 56.7179 55.0661 56.4282C55.6186 56.2895 56.1721 56.1659 56.7317 56.0653C57.0058 56.0166 57.2822 55.9765 57.557 55.9306C57.6826 55.9155 57.8061 55.904 57.9325 55.8917C59.1098 55.7801 60.2942 55.7529 61.4724 55.8293C61.7426 55.8464 62.0142 55.8694 62.2816 55.8996C62.3867 55.9116 62.508 55.9377 62.6173 55.9424C63.1455 56.0355 63.6723 56.1352 64.1933 56.2704C64.7163 56.4019 65.2312 56.5603 65.7399 56.742C65.8665 56.7884 65.9932 56.8347 66.1169 56.8818C66.2378 56.9297 66.5908 57.1408 66.2232 56.9213C66.2123 56.9149 66.2049 56.9107 66.194 56.9044C66.2415 56.9318 66.2918 56.9584 66.3232 56.9717C66.4748 57.0422 66.6236 57.1135 66.7731 57.1876C67.2481 57.4278 67.7112 57.6927 68.1566 57.9839C68.2239 58.0277 68.3961 58.1174 68.5482 58.2125C68.5338 58.2163 68.5582 58.2499 68.6617 58.3364C68.8136 58.4655 68.9684 58.5939 69.1182 58.7266C69.4597 59.0334 69.7742 59.3659 70.0816 59.7065C70.0733 59.6871 70.0643 59.6648 70.0552 59.6426C70.0666 59.6735 70.0933 59.7157 70.1251 59.7535C70.148 59.7813 70.173 59.8055 70.1951 59.8305C70.2312 59.8733 70.2557 59.9068 70.2692 59.9341C70.2692 59.9341 70.2707 59.9399 70.2744 59.942C70.4345 60.1708 70.5867 60.4047 70.7311 60.6439C70.8591 60.8566 70.9792 61.0745 71.0914 61.2976C71.1259 61.3686 71.2937 61.7528 71.3378 61.8367C71.3773 61.9496 71.4166 62.0502 71.4259 62.0848C71.5149 62.3481 71.5933 62.6173 71.6622 62.886C71.7208 63.1049 71.7679 63.3269 71.8086 63.5476C71.822 63.5748 71.8388 63.6259 71.8424 63.7083C71.8476 63.7625 71.8492 63.8145 71.8545 63.8687C71.8624 63.9098 71.8688 63.9451 71.8822 63.9724C71.8732 63.9501 71.8649 63.9307 71.8566 63.9113C71.8893 64.3904 71.9002 64.8691 71.8656 65.3507C71.8606 65.4355 71.8392 65.54 71.8328 65.6312C71.7982 65.8134 71.76 65.9934 71.716 66.175C71.6548 66.4075 71.5871 66.6387 71.5063 66.8672C71.4973 66.8912 71.4883 66.9153 71.4786 66.9364C71.5211 66.8416 71.5387 66.8153 71.464 66.9743C71.432 67.0508 71.3979 67.1309 71.3782 67.2072C71.3966 67.1374 71.4257 67.0617 71.4521 66.9991C71.4423 67.0202 71.4326 67.0413 71.4178 67.0669C71.3101 67.2872 71.1907 67.4983 71.0619 67.7088C70.9928 67.8199 70.923 67.9281 70.8496 68.0342C70.8362 68.0533 70.8256 68.0715 70.8114 68.0877C70.7859 68.1192 70.7575 68.1515 70.732 68.1831C70.6497 68.2792 70.5645 68.3761 70.4757 68.4709C70.2817 68.6804 70.0761 68.8806 69.8623 69.0737C69.8003 69.1304 69.7368 69.1814 69.674 69.2353C69.4828 69.3514 69.3061 69.5099 69.1222 69.6301C68.6335 69.9494 68.1269 70.2365 67.6039 70.497C67.3672 70.616 67.1319 70.7284 66.8892 70.8367C66.8318 70.8644 66.7736 70.8893 66.7154 70.9141C66.7183 70.9134 66.724 70.9118 66.7277 70.9139C66.7248 70.9147 66.7191 70.9162 66.7154 70.9141C66.6522 70.9434 66.5883 70.9698 66.528 70.9983C66.3514 71.0765 66.3358 71.0529 66.3901 71.0136C66.2308 71.0872 66.0666 71.1775 65.9768 71.2109C65.6907 71.3184 65.4038 71.423 65.1169 71.5277C62.772 72.3629 60.4006 73.0878 58.1276 74.1106C53.5118 76.184 49.6077 79.6229 46.6708 83.7102C43.7954 87.7162 41.5252 93.2088 43.0194 98.1743C43.7596 100.637 45.4618 102.876 47.8311 103.964C50.0487 104.982 52.4157 105.116 54.7906 104.6C56.7835 104.168 58.7309 103.22 60.3522 101.989C62.4043 100.43 63.9559 98.489 65.2926 96.2877C66.5539 94.2085 67.5765 91.9987 68.7692 89.8822C69.3423 88.8642 69.9668 87.888 70.6446 86.9376C70.7211 86.843 70.7948 86.7492 70.8742 86.6538C71.028 86.4675 71.1899 86.2882 71.3555 86.1111C71.7016 85.7436 72.0758 85.4118 72.4529 85.0792C72.5043 85.0407 72.555 84.9993 72.6072 84.9637C72.8095 84.82 73.0133 84.682 73.2253 84.5511C73.6641 84.2761 74.1462 84.0821 74.5933 83.8264C74.6522 83.8045 74.7112 83.7825 74.768 83.7642C74.9917 83.6888 75.2206 83.6213 75.449 83.5632C75.6016 83.5223 75.7545 83.4937 75.9074 83.4651C75.8849 83.4618 75.8632 83.4615 75.8371 83.4561C75.8661 83.4607 75.8972 83.4616 75.9304 83.4589C75.9982 83.4469 76.0653 83.432 76.1359 83.4193C76.2535 83.397 76.3152 83.4083 76.3198 83.4256C76.5317 83.4213 76.7372 83.428 76.9485 83.4331C76.9674 83.4342 76.9862 83.4353 77.0042 83.4336C77.225 83.4856 77.4416 83.5449 77.6582 83.6042C77.6814 83.6103 77.7127 83.6235 77.747 83.6359C77.7754 83.6499 77.7973 83.6626 77.8119 83.671C77.8586 83.6956 78.1176 83.867 78.2871 83.9697C78.1639 83.8669 78.045 83.7228 78.2748 83.9237C78.3152 83.9591 78.3556 83.9946 78.3959 84.0301C78.4171 84.0399 78.4317 84.0483 78.4338 84.0447C78.4281 84.0462 78.4223 84.0478 78.4136 84.0501C78.4621 84.0927 78.5106 84.1353 78.5569 84.1815C78.6186 84.2391 78.7601 84.4327 78.8847 84.5753C78.806 84.4544 78.7869 84.3483 78.9308 84.5629C78.9628 84.613 78.9947 84.6631 79.0295 84.7125C79.0478 84.723 79.0624 84.7314 79.0755 84.7341C79.0624 84.7314 79.0493 84.7288 79.0347 84.7203C79.1038 84.8284 79.175 84.9328 79.2384 85.0424C79.336 85.2108 79.4249 85.3815 79.5118 85.5558C79.5108 85.5406 79.5119 85.5218 79.5138 85.5058C79.5106 85.5283 79.5243 85.5679 79.5431 85.6153C79.5618 85.6504 79.5813 85.6884 79.5971 85.7243C79.636 85.8004 79.6512 85.8457 79.6516 85.8703C79.8407 86.4031 79.9902 86.9497 80.1102 87.501C80.1681 87.7634 80.2174 88.028 80.261 88.2942C80.2762 88.3858 80.2887 88.4782 80.3039 88.5698C80.3534 89.1 80.4028 89.6301 80.4313 90.1628C80.5404 92.2638 80.5093 94.3716 80.3485 96.4677C80.3099 96.969 80.2641 97.466 80.2095 97.9653C80.1833 98.2132 80.155 98.4647 80.1222 98.7112C80.1116 98.8097 80.0973 98.9062 80.0867 99.0047C79.9 100.037 79.7576 101.072 79.5448 102.098C79.1246 104.125 78.5861 106.125 77.9326 108.088C77.5959 109.101 77.2315 110.103 76.8366 111.095C76.7588 111.289 76.6774 111.48 76.5997 111.674C76.5613 111.762 76.5238 111.852 76.4855 111.939C76.2738 112.428 76.0527 112.917 75.8272 113.4C74.9333 115.307 73.9301 117.163 72.8304 118.958C72.2861 119.841 71.7191 120.71 71.1294 121.562C70.8419 121.976 70.55 122.384 70.2545 122.791C70.1229 122.968 69.9914 123.145 69.8619 123.319C69.7911 123.412 69.7196 123.502 69.6459 123.596C68.3486 125.253 66.9573 126.836 65.4786 128.334C64.002 129.829 62.4416 131.241 60.802 132.554C60.7157 132.624 60.5475 132.734 60.4394 132.803C60.4953 132.769 60.5748 132.72 60.6886 132.65C60.4796 132.78 60.2865 132.958 60.0908 133.103C59.6635 133.421 59.2319 133.735 58.7987 134.042C57.9515 134.636 57.0879 135.204 56.208 135.746C54.4187 136.846 52.5596 137.835 50.6427 138.7C50.4145 138.805 50.1825 138.907 49.9527 139.006C49.8974 139.03 49.8421 139.054 49.7868 139.078C49.2989 139.273 48.8074 139.467 48.3127 139.649C47.2803 140.024 46.2349 140.363 45.1779 140.659C44.1469 140.947 43.1051 141.196 42.0524 141.404C41.5419 141.503 41.032 141.594 40.5198 141.675C40.3033 141.709 40.0861 141.739 39.8697 141.772C39.7469 141.787 39.6242 141.801 39.5014 141.815C37.3677 142.044 35.2099 142.092 33.0693 141.915C32.8165 141.893 32.5636 141.871 32.3122 141.843C32.2643 141.837 32.0411 141.811 31.8751 141.79C31.7104 141.763 31.4595 141.726 31.408 141.718C31.1302 141.672 30.8508 141.62 30.5735 141.565C29.5617 141.36 28.5627 141.1 27.5814 140.78C27.1071 140.623 26.6392 140.455 26.176 140.27C26.1695 140.269 26.1658 140.267 26.1621 140.265C26.1308 140.251 26.0885 140.232 26.0361 140.209C25.7802 140.095 25.5258 139.975 25.2734 139.851C24.3164 139.379 23.3915 138.843 22.5104 138.239C22.3018 138.094 22.0953 137.946 21.8917 137.797C21.869 137.781 21.85 137.768 21.8317 137.757C21.7788 137.71 21.7333 137.666 21.709 137.645C21.247 137.269 20.802 136.875 20.3704 136.463C19.9683 136.08 19.5803 135.68 19.2045 135.269C18.9281 134.963 18.5344 134.612 18.2635 134.246C18.2623 134.218 18.2269 134.132 18.1647 134.05C18.0826 133.939 17.9968 133.826 17.9175 133.715C17.7524 133.49 17.5923 133.262 17.4351 133.032C17.0798 132.513 16.7432 131.983 16.4202 131.445C15.8226 130.448 15.2844 129.419 14.7872 128.37C14.5643 127.895 14.3523 127.415 14.1459 126.933C14.0991 126.816 14.0515 126.696 14.0047 126.579C13.8876 126.28 13.7696 125.978 13.6582 125.677C13.2318 124.535 12.8441 123.376 12.488 122.209C11.7922 119.935 11.2174 117.628 10.6923 115.311C9.54944 110.285 8.60689 105.212 7.88156 100.109C7.79535 99.4989 7.71202 98.8883 7.63157 98.277C7.62925 98.2683 7.62615 98.2568 7.62594 98.2445C7.6141 98.1427 7.60016 98.0446 7.58909 97.9456C7.54642 97.602 7.50374 97.2584 7.46395 96.914C7.31395 95.6513 7.17624 94.3885 7.05371 93.1246C6.80436 90.5579 6.60919 87.9859 6.47183 85.4108C6.20004 80.3061 6.15954 75.1888 6.36301 70.0833C6.4652 67.515 6.62963 64.9486 6.86074 62.389C6.97411 61.1298 7.10265 59.8697 7.24503 58.6151C7.31654 58.0062 7.38803 57.3974 7.46607 56.7899C7.50508 56.4861 7.5441 56.1824 7.586 55.8779C7.60522 55.7307 7.62368 55.5806 7.64579 55.4327C7.65416 55.3718 7.66198 55.3203 7.66522 55.2978C8.38628 50.2574 9.37267 45.2509 10.6315 40.3165C11.2675 37.8275 11.9732 35.3568 12.7494 32.9074C13.128 31.7161 13.5159 30.5254 13.9585 29.354C14.0132 29.2128 14.0651 29.0723 14.1228 28.9302C14.1339 28.9026 14.1569 28.8501 14.1783 28.7919C14.209 28.7219 14.2431 28.6417 14.2555 28.6075C14.3176 28.4705 14.3796 28.3335 14.4417 28.1964C14.7098 27.6183 15.0026 27.052 15.3255 26.5055C15.4788 26.2483 15.6359 25.9931 15.8017 25.748C15.8857 25.6236 15.9734 25.5014 16.0581 25.3798C16.0687 25.3616 16.0808 25.3491 16.0892 25.3345C16.0397 25.4033 15.9923 25.4685 15.9879 25.4635C15.9754 25.4514 16.042 25.3656 16.1556 25.2364C16.2261 25.1311 16.2071 25.1639 16.1627 25.2283C16.502 24.8472 17.2305 24.121 17.3225 24.0377C17.4293 23.9411 17.5407 23.8495 17.6512 23.7551C17.7139 23.7012 17.7494 23.6608 17.7642 23.6353C17.9323 23.5254 18.1491 23.4241 18.2551 23.3586C18.4992 23.2099 18.7494 23.0718 19.0084 22.9438C19.0356 22.9303 19.0658 22.916 19.0967 22.9047C19.1153 22.8935 19.1706 22.8694 19.272 22.833C19.3186 22.8112 19.3624 22.7902 19.3952 22.7629C19.3695 22.7822 19.3401 22.7993 19.3136 22.8157C19.3194 22.8141 19.3252 22.8126 19.3338 22.8103C19.6028 22.7196 19.8728 22.6442 20.1488 22.5795C20.2389 22.5585 20.3334 22.5424 20.4242 22.5242C20.6918 22.5205 20.9576 22.4986 21.2262 22.51C21.3167 22.5136 21.4051 22.5208 21.4934 22.528C21.5 22.5293 21.5065 22.5306 21.513 22.532C21.7578 22.593 22.0011 22.6482 22.2404 22.723C22.2404 22.723 22.2513 22.7293 22.2753 22.7383C22.2182 22.6981 22.2267 22.6835 22.3937 22.7653C22.4323 22.7827 22.4689 22.8038 22.5046 22.822C22.5519 22.8371 22.589 22.8488 22.594 22.8444C22.5853 22.8467 22.5767 22.849 22.5652 22.8521C22.9696 23.071 23.3378 23.3274 23.7288 23.5653C23.7978 23.6271 23.8661 23.686 23.9351 23.7478C20.5751 30.6345 18.2644 38.0613 17.1568 45.6227C16.4255 50.6134 16.118 55.6417 16.4003 60.6819C16.5437 63.2337 16.7557 65.7302 17.9232 68.0478C19.2156 70.6129 21.9819 72.249 24.8592 71.4996C27.8698 70.7176 29.3927 67.7131 30.1295 64.9439C30.8459 62.2481 31.4241 59.509 31.898 56.7608C32.8744 51.1179 33.4292 45.3996 33.484 39.6702C33.5097 36.8507 33.4669 34.0064 33.181 31.1994C32.9026 28.4552 32.3898 25.6657 31.1084 23.1996C31.3212 22.8184 31.5368 22.4364 31.7533 22.0573C32.923 20.0397 34.1943 18.0782 35.5615 16.1866C35.7234 15.9611 35.8881 15.7348 36.0565 15.5106C36.0813 15.4762 36.1095 15.4316 36.1405 15.3862C36.1639 15.3584 36.2057 15.307 36.2723 15.2213C36.6761 14.7117 37.0814 14.2079 37.5138 13.7247C37.9207 13.2729 38.3437 12.8354 38.7897 12.4257C38.9856 12.2466 39.1875 12.0783 39.3886 11.9071C39.5468 11.8061 39.6974 11.6885 39.8548 11.5846C40.0988 11.4235 40.3516 11.2724 40.6104 11.132C40.6778 11.0955 40.9057 11.0128 41.0873 10.9302C40.9663 10.9626 40.8924 10.9515 41.1305 10.8723C41.1844 10.8547 41.2405 10.8335 41.2944 10.816C41.3094 10.8027 41.3215 10.7902 41.3278 10.7793C41.3244 10.7894 41.3181 10.8004 41.3089 10.8121C41.3764 10.7878 41.4448 10.7664 41.5132 10.745C41.8327 10.6471 42.1561 10.5635 42.4849 10.5001C42.5346 10.4899 42.5851 10.4825 42.6393 10.4773C42.6451 10.4757 42.6516 10.477 42.661 10.4776C42.9257 10.4746 43.1858 10.4543 43.4507 10.4636C43.5195 10.4668 43.5883 10.47 43.6549 10.4768C43.6476 10.4726 43.6403 10.4684 43.6417 10.4618C43.6417 10.4618 43.6714 10.4693 43.718 10.4815C43.7593 10.4859 43.8027 10.4866 43.844 10.491C44.1431 10.5127 43.9754 10.5206 43.8175 10.5073C44.0529 10.5678 44.4466 10.666 44.4939 10.6811C44.5179 10.6901 44.5412 10.6963 44.5587 10.7039C44.5879 10.7208 44.6273 10.7411 44.6748 10.7685C44.8551 10.8653 45.0225 10.9717 45.1915 11.0839C45.2605 11.1457 45.3325 11.2067 45.3994 11.2721C45.4869 11.3567 45.5787 11.4803 45.6718 11.5974C45.6454 11.5335 45.6954 11.5355 45.7897 11.68C45.8208 11.7273 45.8528 11.7774 45.8868 11.8238C45.9066 11.8401 45.9293 11.8557 45.9512 11.8683C45.9293 11.8557 45.9103 11.8422 45.892 11.8317C45.9268 11.881 45.9588 11.9311 45.9915 11.9841C46.1216 12.1931 46.2402 12.4053 46.3546 12.6247C46.3875 12.69 46.4176 12.756 46.4505 12.8213C46.5317 13.0897 46.654 13.3503 46.7352 13.6187C46.8867 14.1153 47.0095 14.6196 47.1085 15.1272C47.1591 15.3854 47.2032 15.6421 47.2452 15.9026L47.2199 15.9001ZM23.2502 65.5522C23.2502 65.5522 23.2517 65.558 23.259 65.5622C23.2541 65.5666 23.2491 65.5711 23.2448 65.5784C23.2535 65.576 23.2621 65.5737 23.2708 65.5714L23.2666 65.5787C23.2579 65.581 23.2493 65.5834 23.2427 65.582C23.2427 65.582 23.2428 65.582 23.2399 65.5828C23.2328 65.5909 23.2249 65.5961 23.2207 65.6034C23.1752 65.6063 23.1728 65.5977 23.2009 65.5871C23.1577 65.5986 23.1636 65.6094 23.2007 65.6211C23.1821 65.6322 23.1643 65.6463 23.1456 65.6574C23.1572 65.6543 23.1687 65.6513 23.1794 65.6453C23.1673 65.6578 23.1553 65.6703 23.1432 65.6828C22.9093 65.9276 23.0317 65.6355 23.2523 65.5486L23.2502 65.5522ZM26.5459 51.4428C26.5082 51.7401 26.4705 52.0373 26.4292 52.3324C26.4052 52.4963 26.3726 52.7088 26.361 52.7922C26.255 53.5029 26.1425 54.2122 26.0198 54.9182C25.7993 56.2153 25.5527 57.5071 25.2807 58.7964C25.0079 60.0828 24.7126 61.366 24.3905 62.641C24.2542 63.1807 24.1186 63.7234 23.9423 64.2522C23.9134 64.3402 23.8809 64.4262 23.8491 64.515C23.6984 64.7591 23.6021 65.0566 23.4543 65.2999C23.4388 65.3226 23.4219 65.3519 23.3985 65.3797C23.3152 65.2415 23.2376 65.1018 23.1657 64.9605C23.1523 64.9332 23.1403 64.9117 23.1284 64.8902C22.9753 64.4342 22.8353 63.9808 22.7362 63.5072C22.697 63.3263 22.6835 63.1261 22.6406 62.9431C22.6356 62.9012 22.6342 62.8615 22.6291 62.8196C22.5758 62.2288 22.5348 61.6377 22.5002 61.048C22.3576 58.7182 22.3371 56.3835 22.4281 54.0497C22.5166 51.7877 22.5895 49.4094 23.0302 47.1826C22.8675 48.0042 23.0389 47.1463 23.0715 46.9338C23.1117 46.6575 23.1556 46.3834 23.2023 46.1084C23.3019 45.489 23.4116 44.873 23.5271 44.2554C23.7403 43.127 23.9818 42.0002 24.2472 40.8824C24.7907 38.6127 25.4394 36.3673 26.1973 34.1605C26.4814 33.331 26.7814 32.5035 27.096 31.6844C27.2103 32.9752 27.2668 34.2691 27.3081 35.564C27.4755 40.8665 27.2198 46.1804 26.5516 51.4413L26.5459 51.4428Z" fill="white"/>
</svg>
